<svg width="159" height="36" viewBox="0 0 159 36" fill="none" xmlns="http://www.w3.org/2000/svg">
<path d="M14 22.3L10.3 26.25V35H0.5V0H10.3V14.55L23.85 0H34.75L20.45 15.5L35.5 35H24L14 22.3Z" fill="#404040"/>
<path d="M46.2094 11.15C47.176 9.91667 48.426 9 49.9594 8.4C51.526 7.76667 53.3094 7.45 55.3094 7.45V16C54.4427 15.9 53.726 15.85 53.1594 15.85C51.126 15.85 49.526 16.4 48.3594 17.5C47.226 18.6 46.6594 20.2833 46.6594 22.55V35H37.1594V7.9H46.2094V11.15Z" fill="#404040"/>
<path d="M86.6855 21.5C86.6855 21.5667 86.6356 22.35 86.5356 23.85H66.8355C67.2355 25.25 68.0022 26.3333 69.1355 27.1C70.3022 27.8333 71.7522 28.2 73.4855 28.2C74.7856 28.2 75.9022 28.0167 76.8355 27.65C77.8022 27.2833 78.7689 26.6833 79.7355 25.85L84.7355 31.05C82.1022 33.9833 78.2522 35.45 73.1855 35.45C70.0189 35.45 67.2355 34.85 64.8355 33.65C62.4355 32.45 60.5689 30.7833 59.2355 28.65C57.9355 26.5167 57.2855 24.1 57.2855 21.4C57.2855 18.7333 57.9189 16.35 59.1855 14.25C60.4855 12.1167 62.2689 10.45 64.5355 9.25C66.8022 8.05 69.3522 7.45 72.1855 7.45C74.8855 7.45 77.3355 8.01667 79.5355 9.15C81.7355 10.25 83.4689 11.8667 84.7355 14C86.0355 16.1 86.6855 18.6 86.6855 21.5ZM72.2355 14.2C70.7689 14.2 69.5355 14.6167 68.5355 15.45C67.5689 16.2833 66.9522 17.4167 66.6855 18.85H77.7855C77.5189 17.4167 76.8856 16.2833 75.8856 15.45C74.9189 14.6167 73.7022 14.2 72.2355 14.2Z" fill="#404040"/>
<path d="M101.416 7.65V15.35H116.866V23H101.416V35H91.5156V0H118.966V7.65H101.416Z" fill="#404040"/>
<path d="M145.679 28.2H130.879L128.129 35H118.029L133.479 0H143.229L158.729 35H148.429L145.679 28.2ZM142.779 20.9L138.279 9.7L133.779 20.9H142.779Z" fill="#404040"/>
</svg>
