<svg width="159" height="36" viewBox="0 0 159 36" fill="none" xmlns="http://www.w3.org/2000/svg">
<path d="M13.5 22.3L9.8 26.25V35H0V0H9.8V14.55L23.35 0H34.25L19.95 15.5L35 35H23.5L13.5 22.3Z" fill="#404040"/>
<path d="M45.7094 11.15C46.676 9.91667 47.926 9 49.4594 8.4C51.026 7.76667 52.8094 7.45 54.8094 7.45V16C53.9427 15.9 53.226 15.85 52.6594 15.85C50.626 15.85 49.026 16.4 47.8594 17.5C46.726 18.6 46.1594 20.2833 46.1594 22.55V35H36.6594V7.9H45.7094V11.15Z" fill="#404040"/>
<path d="M86.1855 21.5C86.1855 21.5667 86.1356 22.35 86.0356 23.85H66.3355C66.7355 25.25 67.5022 26.3333 68.6355 27.1C69.8022 27.8333 71.2522 28.2 72.9855 28.2C74.2856 28.2 75.4022 28.0167 76.3355 27.65C77.3022 27.2833 78.2689 26.6833 79.2355 25.85L84.2355 31.05C81.6022 33.9833 77.7522 35.45 72.6855 35.45C69.5189 35.45 66.7355 34.85 64.3355 33.65C61.9355 32.45 60.0689 30.7833 58.7355 28.65C57.4355 26.5167 56.7855 24.1 56.7855 21.4C56.7855 18.7333 57.4189 16.35 58.6855 14.25C59.9855 12.1167 61.7689 10.45 64.0355 9.25C66.3022 8.05 68.8522 7.45 71.6855 7.45C74.3855 7.45 76.8355 8.01667 79.0355 9.15C81.2355 10.25 82.9689 11.8667 84.2355 14C85.5355 16.1 86.1855 18.6 86.1855 21.5ZM71.7355 14.2C70.2689 14.2 69.0355 14.6167 68.0355 15.45C67.0689 16.2833 66.4522 17.4167 66.1855 18.85H77.2855C77.0189 17.4167 76.3856 16.2833 75.3856 15.45C74.4189 14.6167 73.2022 14.2 71.7355 14.2Z" fill="#404040"/>
<path d="M100.916 7.65V15.35H116.366V23H100.916V35H91.0156V0H118.466V7.65H100.916Z" fill="#17B6E8"/>
<path d="M145.179 28.2H130.379L127.629 35H117.529L132.979 0H142.729L158.229 35H147.929L145.179 28.2ZM142.279 20.9L137.779 9.7L133.279 20.9H142.279Z" fill="#17B6E8"/>
</svg>
