<svg width="168" height="61" viewBox="0 0 168 61" fill="none" xmlns="http://www.w3.org/2000/svg">
<rect width="98" height="61" fill="#C4C4C4"/>
<path d="M26.75 33.35L21.2 39.05V48H14.7V13H21.2V30.95L38.5 13H45.8L31.1 28.65L46.7 48H39.1L26.75 33.35ZM55.9875 25.2C57.7875 22.4 60.9542 21 65.4875 21V26.95C64.9542 26.85 64.4708 26.8 64.0375 26.8C61.6042 26.8 59.7042 27.5167 58.3375 28.95C56.9708 30.35 56.2875 32.3833 56.2875 35.05V48H50.0375V21.3H55.9875V25.2ZM95.6453 34.8C95.6453 35.2333 95.612 35.85 95.5453 36.65H74.5953C74.962 38.6167 75.912 40.1833 77.4453 41.35C79.012 42.4833 80.9453 43.05 83.2453 43.05C86.1786 43.05 88.5953 42.0833 90.4953 40.15L93.8453 44C92.6453 45.4333 91.1286 46.5167 89.2953 47.25C87.462 47.9833 85.3953 48.35 83.0953 48.35C80.162 48.35 77.5786 47.7667 75.3453 46.6C73.112 45.4333 71.3786 43.8167 70.1453 41.75C68.9453 39.65 68.3453 37.2833 68.3453 34.65C68.3453 32.05 68.9286 29.7167 70.0953 27.65C71.2953 25.55 72.9453 23.9167 75.0453 22.75C77.1453 21.5833 79.512 21 82.1453 21C84.7453 21 87.062 21.5833 89.0953 22.75C91.162 23.8833 92.762 25.5 93.8953 27.6C95.062 29.6667 95.6453 32.0667 95.6453 34.8ZM82.1453 26C80.1453 26 78.4453 26.6 77.0453 27.8C75.6786 28.9667 74.8453 30.5333 74.5453 32.5H89.6953C89.4286 30.5667 88.612 29 87.2453 27.8C85.8786 26.6 84.1786 26 82.1453 26ZM111.116 21C115.05 21 118.05 21.95 120.116 23.85C122.216 25.7167 123.266 28.55 123.266 32.35V48H117.366V44.75C116.6 45.9167 115.5 46.8167 114.066 47.45C112.666 48.05 110.966 48.35 108.966 48.35C106.966 48.35 105.216 48.0167 103.716 47.35C102.216 46.65 101.05 45.7 100.216 44.5C99.4164 43.2667 99.0164 41.8833 99.0164 40.35C99.0164 37.95 99.8997 36.0333 101.666 34.6C103.466 33.1333 106.283 32.4 110.116 32.4H117.016V32C117.016 30.1333 116.45 28.7 115.316 27.7C114.216 26.7 112.566 26.2 110.366 26.2C108.866 26.2 107.383 26.4333 105.916 26.9C104.483 27.3667 103.266 28.0167 102.266 28.85L99.8164 24.3C101.216 23.2333 102.9 22.4167 104.866 21.85C106.833 21.2833 108.916 21 111.116 21ZM110.266 43.8C111.833 43.8 113.216 43.45 114.416 42.75C115.65 42.0167 116.516 40.9833 117.016 39.65V36.55H110.566C106.966 36.55 105.166 37.7333 105.166 40.1C105.166 41.2333 105.616 42.1333 106.516 42.8C107.416 43.4667 108.666 43.8 110.266 43.8ZM139.538 48.35C137.371 48.35 135.254 48.0667 133.188 47.5C131.121 46.9333 129.471 46.2167 128.238 45.35L130.638 40.6C131.838 41.4 133.271 42.05 134.938 42.55C136.638 43.0167 138.304 43.25 139.938 43.25C143.671 43.25 145.538 42.2667 145.538 40.3C145.538 39.3667 145.054 38.7167 144.088 38.35C143.154 37.9833 141.638 37.6333 139.538 37.3C137.338 36.9667 135.538 36.5833 134.138 36.15C132.771 35.7167 131.571 34.9667 130.538 33.9C129.538 32.8 129.038 31.2833 129.038 29.35C129.038 26.8167 130.088 24.8 132.188 23.3C134.321 21.7667 137.188 21 140.788 21C142.621 21 144.454 21.2167 146.288 21.65C148.121 22.05 149.621 22.6 150.788 23.3L148.388 28.05C146.121 26.7167 143.571 26.05 140.738 26.05C138.904 26.05 137.504 26.3333 136.538 26.9C135.604 27.4333 135.138 28.15 135.138 29.05C135.138 30.05 135.638 30.7667 136.638 31.2C137.671 31.6 139.254 31.9833 141.388 32.35C143.521 32.6833 145.271 33.0667 146.638 33.5C148.004 33.9333 149.171 34.6667 150.138 35.7C151.138 36.7333 151.638 38.2 151.638 40.1C151.638 42.6 150.554 44.6 148.388 46.1C146.221 47.6 143.271 48.35 139.538 48.35ZM157.02 21.3H163.27V48H157.02V21.3ZM160.17 16.9C159.037 16.9 158.087 16.55 157.32 15.85C156.553 15.1167 156.17 14.2167 156.17 13.15C156.17 12.0833 156.553 11.2 157.32 10.5C158.087 9.76667 159.037 9.4 160.17 9.4C161.303 9.4 162.253 9.75 163.02 10.45C163.787 11.1167 164.17 11.9667 164.17 13C164.17 14.1 163.787 15.0333 163.02 15.8C162.287 16.5333 161.337 16.9 160.17 16.9Z" fill="white"/>
</svg>
