<svg id="Capa_1" enable-background="new 0 0 510 510" height="512" viewBox="0 0 510 510" width="512" xmlns="http://www.w3.org/2000/svg"><g><g><path d="m255 165 10-45-10-45-30-10-30 10v41.5c0 5.7-3.2 10.9-8.3 13.4l-16.6 8.3c-13.5 7-20.3 9.4-29.8 16.4-4.2 3.1-8.1 6.6-11.6 10.3 15.1 0 111.2.1 126.3.1z" fill="#fff7f4"/><path d="m381.3 164.9c-3.5-3.8-7.4-7.2-11.6-10.3-9.5-7-16.1-9.3-29.8-16.4l-16.6-8.3c-5.1-2.6-8.3-7.7-8.3-13.4 0-13.8 0-27.6 0-41.5l-30-10-30 10v90h64.3z" fill="#f0e6e6"/><path d="m165 0v75h90l10-37.5-10-37.5c-10.9 0-79 0-90 0z" fill="#0a617d"/><path d="m345 0c-10.9 0-79 0-90 0v75h90c0-20.2 0-63.2 0-75z" fill="#08475e"/><path d="m255 165c-32.5 0-32.5-15-65-15-31.2 0-32.5 13.8-61.3 14.9-14.8 15.7-23.7 36.9-23.7 60.1 0 11.1 4.1 21.8 11.5 30-15.3 17.1-15.3 42.9 0 60-15.3 17.1-15.4 42.9 0 60-15.3 17.1-15.3 42.9 0 60-16 17.8-15.2 44.9 1.7 61.8 8.1 8.1 19.4 13.2 31.8 13.2h105l10-172.5z" fill="#7ed8f6"/><g fill="#6aa9ff"><path d="m180 375h30v30h-30z"/><path d="m393.5 435c15.2-17 15.4-42.8 0-60 15.3-17.1 15.3-42.9 0-60 15.2-17 15.4-42.8 0-60 7.4-8.2 11.5-18.8 11.5-30 0-23.3-9-44.4-23.7-60.1-28.9-1.1-30.1-14.9-61.3-14.9-32.5 0-32.5 15-65 15v345h105c12.4 0 23.7-5 31.8-13.2 16.9-16.9 17.7-44 1.7-61.8z"/><path d="m210 270c0 24.8 20.2 45 45 45l10-45-10-45c-24.8 0-45 20.2-45 45z"/></g><path d="m255 225v90c24.8 0 45-20.2 45-45s-20.2-45-45-45z" fill="#4895ff"/></g><g fill="#4895ff"><path d="m300 345h30v30h-30z"/><path d="m255 420h30v30h-30z"/></g></g></svg>