<svg id="Capa_1" enable-background="new 0 0 497 497" height="512" viewBox="0 0 497 497" width="512" xmlns="http://www.w3.org/2000/svg"><g><path d="m337.833 362.662c-114.144 1.66-208.967-89.76-211.279-203.892-1.03-50.856 16.178-97.665 45.527-134.335 7.363-9.2-2.183-22.126-13.111-17.718-92.935 37.483-158.6 128.371-158.968 234.643-.489 140.739 112.364 254.36 253.103 254.78 114.402.342 211.251-74.989 243.347-178.768 3.45-11.155-10.195-19.621-18.678-11.599-36.607 34.62-85.766 56.101-139.941 56.889z" fill="#ffe177"/><path d="m104.04 144.924c-1.03-50.74 16.11-97.47 45.34-134.1 3.16-1.44 6.36-2.81 9.59-4.11 10.93-4.4 20.47 8.52 13.11 17.72-29.35 36.67-46.56 83.48-45.53 134.34 1.39 68.58 36.19 128.96 88.5 165.87-64.64-34.31-109.43-101.71-111.01-179.72z" fill="#ffd15b"/><path d="m496.45 317.374c-32.09 103.78-128.94 179.11-243.34 178.77-53.39-.16-102.76-16.61-143.46-44.66 35.88 19.54 77.05 30.68 120.94 30.81 111.38.33 206.13-71.07 240.67-170.62 2.21-1.92 4.38-3.89 6.51-5.9 8.49-8.02 22.13.44 18.68 11.6z" fill="#ffd15b"/><path d="m440.03 144.724c-.74 2.54-2.14 4.97-4.28 7.05l-21.85 21.3c-3.84 3.74-5.59 9.13-4.69 14.41l5.16 30.09c.67 3.9-.06 7.52-1.71 10.54l-7.66 2.245-4.76 6.165c-3.08.37-6.35-.14-9.49-1.79l-27.01-14.21c-4.75-2.49-10.41-2.49-15.15 0l-27.02 14.21c-3.13 1.65-6.41 2.16-9.48 1.79l-3.965-6.54-8.455-1.88c-1.66-3.02-2.39-6.64-1.72-10.53l5.16-30.09c.9-5.28-.85-10.67-4.68-14.41l-21.86-21.3c-2.14-2.08-3.54-4.51-4.28-7.05l5.21-6.49-2.34-8.24c2.41-3.08 5.97-5.34 10.43-5.99l30.21-4.39c5.3-.77 9.88-4.1 12.25-8.9l13.51-27.38c1.66-3.36 4.18-5.79 7.1-7.28 4.67-2.39 10.33-2.39 15 0 2.92 1.49 5.44 3.92 7.1 7.28l13.51 27.38c2.37 4.8 6.95 8.13 12.25 8.9l30.21 4.39c4.46.65 8.02 2.91 10.43 5.99l-1.035 7.865z" fill="#ffe177"/><g fill="#ffd15b"><path d="m367.277 108.121c2.371 4.805 6.955 8.135 12.257 8.905l15.076 2.191c-4.478-1.212-8.263-4.292-10.343-8.508l-13.508-27.371c-3.884-7.87-12.539-10.615-19.76-8.248z"/><path d="m435.753 151.771c2.131-2.077 3.533-4.495 4.28-7.022l-3.908-6.89 1.044-7.865c-2.41-3.079-5.976-5.342-10.438-5.991l-13.83-2.01c10.081 2.288 9.16 7.332.335 15.934l-21.857 21.306c-3.837 3.74-5.588 9.128-4.682 14.409l5.16 30.084c1.943 11.329-9.802 21.741-20.708 20.698l19.604 10.307c3.133 1.647 6.404 2.164 9.485 1.791l4.762-6.162 7.65-2.237c1.664-3.023 2.392-6.652 1.723-10.552l-5.16-30.084c-.906-5.281.845-10.669 4.682-14.409z"/><path d="m341.219 206.684c-4.743-2.493-10.408-2.493-15.151 0 0 0-27.887 14.631-28.324 14.817.158 2.397.842 4.629 1.926 6.603l8.455 1.88 3.963 6.537c3.079.373 6.348-.144 9.48-1.791l27.017-14.204c3.569-1.876 7.66-2.339 11.487-1.392z"/></g><path d="m396.46 154.284-28.07 6.16 21.75 33.24 22.52 34.43c-2.53 4.59-7.2 7.78-12.42 8.41l-12.58-19.23-31.5-48.14-23.34 35.69-20.73 31.68c-5.23-.63-9.91-3.83-12.42-8.42l7.55-11.54 36.71-56.12-71.64-15.72c-1.5-5.1-.34-10.64 2.87-14.73l73.5 16.13v-137.769c0-4.14 3.36-7.5 7.5-7.5s7.5 3.36 7.5 7.5v137.77l52.79-11.58 20.71-4.55c3.21 4.09 4.37 9.63 2.87 14.73z" fill="#fff3de"/><circle cx="210.707" cy="202.833" fill="#ffd15b" r="7.508"/><circle cx="248.5" cy="236.637" fill="#ffd15b" r="7.508"/><g fill="#ffe5c2"><path d="m390.14 193.684 22.52 34.43c-2.53 4.59-7.2 7.78-12.42 8.41l-12.58-19.23c3.24-3.74 5.06-8.57 4.2-13.57z"/><path d="m440.03 144.724-43.57 9.56 16.78-16.36c1.22-1.19 2.3-2.32 3.21-3.38l20.71-4.55c3.21 4.09 4.37 9.63 2.87 14.73z"/><path d="m332.82 204.844-20.73 31.68c-5.23-.63-9.91-3.83-12.42-8.42l7.55-11.54c8.23-4.31 18.85-9.88 18.85-9.88 2.12-1.11 4.42-1.73 6.75-1.84z"/></g></g></svg>