<svg id="Capa_1" enable-background="new 0 0 497 497" height="512" viewBox="0 0 497 497" width="512" xmlns="http://www.w3.org/2000/svg"><g><g><path d="m389.733 256h-42.608c-4.885 0-8.846-3.358-8.846-7.5s3.96-7.5 8.846-7.5h42.608c4.885 0 8.846 3.358 8.846 7.5s-3.96 7.5-8.846 7.5z" fill="#aca6d6"/></g><g><g fill="#aca6d6"><circle cx="202.47" cy="22.484" r="22.484"/><circle cx="247.438" cy="22.484" r="22.484"/><circle cx="289.005" cy="39.656" r="22.484"/><circle cx="317.143" cy="74.733" r="22.484"/><circle cx="317.143" cy="119.7" r="22.484"/><circle cx="317.143" cy="164.667" r="22.484"/><circle cx="317.143" cy="209.635" r="22.484"/><circle cx="157.503" cy="22.484" r="22.484"/><circle cx="112.536" cy="22.484" r="22.484"/><circle cx="70.968" cy="39.656" r="22.484"/><circle cx="42.83" cy="74.733" r="22.484"/><circle cx="42.83" cy="119.7" r="22.484"/><circle cx="42.83" cy="164.667" r="22.484"/><circle cx="42.83" cy="209.635" r="22.484"/><circle cx="202.47" cy="474.516" r="22.484"/><circle cx="247.438" cy="474.516" r="22.484"/><circle cx="289.005" cy="457.344" r="22.484"/><circle cx="317.143" cy="422.267" r="22.484"/><circle cx="317.143" cy="377.3" r="22.484"/><circle cx="317.143" cy="332.333" r="22.484"/><circle cx="317.143" cy="287.365" r="22.484"/><circle cx="157.503" cy="474.516" r="22.484"/><circle cx="112.536" cy="474.516" r="22.484"/><circle cx="70.968" cy="457.344" r="22.484"/><circle cx="42.83" cy="422.267" r="22.484"/><circle cx="42.83" cy="377.3" r="22.484"/><circle cx="42.83" cy="332.333" r="22.484"/><circle cx="42.83" cy="287.365" r="22.484"/></g><path d="m71.252 232.118h-53.227c-3.651 0-6.61 2.96-6.61 6.61v19.543c0 3.651 2.96 6.61 6.61 6.61h53.227c3.651 0 6.61-2.96 6.61-6.61v-19.543c0-3.65-2.959-6.61-6.61-6.61z" fill="#6c7fd8"/><path d="m343.757 232.118h-53.227c-3.651 0-6.61 2.96-6.61 6.61v19.543c0 3.651 2.96 6.61 6.61 6.61h53.227c3.651 0 6.61-2.96 6.61-6.61v-19.543c0-3.65-2.96-6.61-6.61-6.61z" fill="#6c7fd8"/><path d="m461.589 280.329-50.968-5.143c-13.701-1.383-24.128-12.916-24.128-26.686 0-13.77 10.428-25.303 24.128-26.686l50.968-5.143c12.844-1.296 23.997 8.787 23.997 21.697v20.265c0 12.909-11.153 22.993-23.997 21.696z" fill="#fe6c55"/><g><g fill="#978ecb"><path d="m202.47 0c-4.179 0-8.089 1.144-11.442 3.13 6.609 3.916 11.042 11.115 11.042 19.353s-4.433 15.438-11.042 19.353c3.352 1.986 7.263 3.13 11.442 3.13 12.417 0 22.484-10.066 22.484-22.484s-10.066-22.482-22.484-22.482z"/><path d="m247.438 0c-4.179 0-8.089 1.144-11.442 3.13 6.609 3.916 11.042 11.115 11.042 19.353s-4.433 15.438-11.042 19.353c3.352 1.986 7.263 3.13 11.442 3.13 12.417 0 22.484-10.066 22.484-22.484s-10.067-22.482-22.484-22.482z"/><path d="m289.005 17.172c-4.179 0-8.089 1.144-11.442 3.13 6.609 3.916 11.042 11.115 11.042 19.353s-4.433 15.438-11.042 19.353c3.352 1.986 7.263 3.13 11.442 3.13 12.417 0 22.484-10.066 22.484-22.484 0-12.415-10.066-22.482-22.484-22.482z"/><path d="m317.143 52.249c-4.179 0-8.089 1.144-11.442 3.13 6.609 3.916 11.042 11.115 11.042 19.353s-4.433 15.438-11.042 19.353c3.352 1.986 7.263 3.13 11.442 3.13 12.417 0 22.484-10.066 22.484-22.484s-10.067-22.482-22.484-22.482z"/><path d="m317.143 97.216c-4.179 0-8.089 1.144-11.442 3.13 6.609 3.916 11.042 11.115 11.042 19.353s-4.433 15.438-11.042 19.353c3.352 1.986 7.263 3.13 11.442 3.13 12.417 0 22.484-10.066 22.484-22.484 0-12.415-10.067-22.482-22.484-22.482z"/><path d="m317.143 142.184c-4.179 0-8.089 1.144-11.442 3.13 6.609 3.916 11.042 11.115 11.042 19.353s-4.433 15.438-11.042 19.353c3.352 1.986 7.263 3.13 11.442 3.13 12.417 0 22.484-10.066 22.484-22.484 0-12.416-10.067-22.482-22.484-22.482z"/><path d="m317.143 187.151c-4.179 0-8.089 1.144-11.442 3.13 6.609 3.916 11.042 11.115 11.042 19.353s-4.433 15.438-11.042 19.353c3.352 1.986 7.263 3.13 11.442 3.13 12.417 0 22.484-10.066 22.484-22.484 0-12.416-10.067-22.482-22.484-22.482z"/><path d="m157.503 0c-4.179 0-8.089 1.144-11.442 3.13 6.609 3.916 11.042 11.115 11.042 19.353s-4.433 15.438-11.042 19.353c3.352 1.986 7.263 3.13 11.442 3.13 12.417 0 22.484-10.066 22.484-22.484s-10.067-22.482-22.484-22.482z"/><path d="m112.536 0c-4.179 0-8.089 1.144-11.442 3.13 6.609 3.916 11.042 11.115 11.042 19.353s-4.433 15.438-11.042 19.353c3.352 1.986 7.263 3.13 11.442 3.13 12.417 0 22.484-10.066 22.484-22.484s-10.067-22.482-22.484-22.482z"/><path d="m70.968 17.172c-4.179 0-8.089 1.144-11.442 3.13 6.609 3.916 11.042 11.115 11.042 19.353s-4.433 15.438-11.042 19.353c3.352 1.986 7.263 3.13 11.442 3.13 12.417 0 22.484-10.066 22.484-22.484-.001-12.415-10.067-22.482-22.484-22.482z"/><path d="m42.83 52.249c-4.179 0-8.089 1.144-11.442 3.13 6.609 3.916 11.042 11.115 11.042 19.353s-4.433 15.438-11.042 19.354c3.352 1.986 7.263 3.13 11.442 3.13 12.417 0 22.484-10.066 22.484-22.484s-10.067-22.483-22.484-22.483z"/><path d="m42.83 97.216c-4.179 0-8.089 1.144-11.442 3.13 6.609 3.916 11.042 11.115 11.042 19.353s-4.433 15.438-11.042 19.353c3.352 1.986 7.263 3.13 11.442 3.13 12.417 0 22.484-10.066 22.484-22.484 0-12.415-10.067-22.482-22.484-22.482z"/><path d="m42.83 142.184c-4.179 0-8.089 1.144-11.442 3.13 6.609 3.916 11.042 11.115 11.042 19.353s-4.433 15.438-11.042 19.353c3.352 1.986 7.263 3.13 11.442 3.13 12.417 0 22.484-10.066 22.484-22.484 0-12.416-10.067-22.482-22.484-22.482z"/><path d="m42.83 187.151c-4.179 0-8.089 1.144-11.442 3.13 6.609 3.916 11.042 11.115 11.042 19.353s-4.433 15.438-11.042 19.353c3.352 1.986 7.263 3.13 11.442 3.13 12.417 0 22.484-10.066 22.484-22.484 0-12.416-10.067-22.482-22.484-22.482z"/><path d="m202.47 452.033c-4.179 0-8.089 1.144-11.442 3.13 6.609 3.916 11.042 11.115 11.042 19.353s-4.433 15.438-11.042 19.353c3.352 1.986 7.263 3.13 11.442 3.13 12.417 0 22.484-10.066 22.484-22.484s-10.066-22.482-22.484-22.482z"/><path d="m247.438 452.033c-4.179 0-8.089 1.144-11.442 3.13 6.609 3.916 11.042 11.115 11.042 19.353s-4.433 15.438-11.042 19.353c3.352 1.986 7.263 3.13 11.442 3.13 12.417 0 22.484-10.066 22.484-22.484s-10.067-22.482-22.484-22.482z"/><path d="m289.005 434.86c-4.179 0-8.089 1.144-11.442 3.13 6.609 3.915 11.042 11.115 11.042 19.353s-4.433 15.438-11.042 19.353c3.352 1.986 7.263 3.13 11.442 3.13 12.417 0 22.484-10.066 22.484-22.484 0-12.415-10.066-22.482-22.484-22.482z"/><path d="m317.143 399.784c-4.179 0-8.089 1.144-11.442 3.13 6.609 3.916 11.042 11.115 11.042 19.353s-4.433 15.438-11.042 19.353c3.352 1.986 7.263 3.13 11.442 3.13 12.417 0 22.484-10.066 22.484-22.484s-10.067-22.482-22.484-22.482z"/><path d="m317.143 354.816c-4.179 0-8.089 1.144-11.442 3.13 6.609 3.915 11.042 11.115 11.042 19.353s-4.433 15.438-11.042 19.353c3.352 1.986 7.263 3.13 11.442 3.13 12.417 0 22.484-10.066 22.484-22.484 0-12.415-10.067-22.482-22.484-22.482z"/><path d="m317.143 309.849c-4.179 0-8.089 1.144-11.442 3.13 6.609 3.915 11.042 11.115 11.042 19.353s-4.433 15.438-11.042 19.353c3.352 1.986 7.263 3.13 11.442 3.13 12.417 0 22.484-10.066 22.484-22.484 0-12.416-10.067-22.482-22.484-22.482z"/><path d="m317.143 264.882c-4.179 0-8.089 1.144-11.442 3.13 6.609 3.915 11.042 11.115 11.042 19.353s-4.433 15.438-11.042 19.353c3.352 1.986 7.263 3.13 11.442 3.13 12.417 0 22.484-10.066 22.484-22.484 0-12.416-10.067-22.482-22.484-22.482z"/><path d="m157.503 452.033c-4.179 0-8.089 1.144-11.442 3.13 6.609 3.916 11.042 11.115 11.042 19.353s-4.433 15.438-11.042 19.353c3.352 1.986 7.263 3.13 11.442 3.13 12.417 0 22.484-10.066 22.484-22.484s-10.067-22.482-22.484-22.482z"/><path d="m112.536 452.033c-4.179 0-8.089 1.144-11.442 3.13 6.609 3.916 11.042 11.115 11.042 19.353s-4.433 15.438-11.042 19.353c3.352 1.986 7.263 3.13 11.442 3.13 12.417 0 22.484-10.066 22.484-22.484s-10.067-22.482-22.484-22.482z"/><path d="m70.968 434.86c-4.179 0-8.089 1.144-11.442 3.13 6.609 3.915 11.042 11.115 11.042 19.353s-4.433 15.438-11.042 19.353c3.352 1.986 7.263 3.13 11.442 3.13 12.417 0 22.484-10.066 22.484-22.484-.001-12.415-10.067-22.482-22.484-22.482z"/><path d="m42.83 399.784c-4.179 0-8.089 1.144-11.442 3.13 6.609 3.916 11.042 11.115 11.042 19.353s-4.433 15.438-11.042 19.353c3.352 1.986 7.263 3.13 11.442 3.13 12.417 0 22.484-10.066 22.484-22.484s-10.067-22.482-22.484-22.482z"/><path d="m42.83 354.816c-4.179 0-8.089 1.144-11.442 3.13 6.609 3.915 11.042 11.115 11.042 19.353s-4.433 15.438-11.042 19.353c3.352 1.986 7.263 3.13 11.442 3.13 12.417 0 22.484-10.066 22.484-22.484 0-12.415-10.067-22.482-22.484-22.482z"/><path d="m42.83 309.849c-4.179 0-8.089 1.144-11.442 3.13 6.609 3.915 11.042 11.115 11.042 19.353s-4.433 15.438-11.042 19.353c3.352 1.986 7.263 3.13 11.442 3.13 12.417 0 22.484-10.066 22.484-22.484 0-12.416-10.067-22.482-22.484-22.482z"/><path d="m42.83 264.882c-4.179 0-8.089 1.144-11.442 3.13 6.609 3.915 11.042 11.115 11.042 19.353s-4.433 15.438-11.042 19.353c3.352 1.986 7.263 3.13 11.442 3.13 12.417 0 22.484-10.066 22.484-22.484 0-12.416-10.067-22.482-22.484-22.482z"/></g><path d="m71.252 232.118h-26.884c3.651 0 6.61 2.96 6.61 6.61v19.543c0 3.651-2.96 6.61-6.61 6.61h26.883c3.651 0 6.61-2.96 6.61-6.61v-19.543c.001-3.65-2.958-6.61-6.609-6.61z" fill="#5a74d1"/><path d="m343.757 232.118h-26.883c3.651 0 6.61 2.96 6.61 6.61v19.543c0 3.651-2.96 6.61-6.61 6.61h26.883c3.651 0 6.61-2.96 6.61-6.61v-19.543c0-3.65-2.96-6.61-6.61-6.61z" fill="#5a74d1"/><path d="m461.589 216.671-16.158 1.63c7.747 3.306 13.271 10.983 13.271 20.066v20.265c0 9.083-5.524 16.76-13.271 20.066l16.158 1.63c12.844 1.296 23.997-8.787 23.997-21.697v-20.265c0-12.908-11.153-22.991-23.997-21.695z" fill="#fd544d"/></g></g></g></svg>