<svg id="Capa_1" enable-background="new 0 0 504 504" height="512" viewBox="0 0 504 504" width="512" xmlns="http://www.w3.org/2000/svg"><g><path d="m177 443.5v38.5c0 12.1 9.9 22 22 22h53l10-30-10-30-34.9-10s-39.2 9.7-40.1 9.5z" fill="#fff7f4"/><path d="m327 482c0-13.6 0-25.4 0-39-1.2.3-41.4-9-41.4-9l-33.6 10v60h53c12.1 0 22-9.9 22-22z" fill="#f0e6e6"/><path d="m252 294 10-105-10-105c-20.2 0-63.2 0-75 0l-60 75-10 61.6 10 56.3c.2 15.1 2 28.8 12.8 39.6.1.1 1.4 1.4 1.3 1.3 13.6 13.6 21.2 32 21.2 51.2z" fill="#fff7f4"/><path d="m349.3 369c0-19.2 7.7-37.6 21.3-51.1.1-.1 1.5-1.5 1.4-1.4 10.8-10.7 14.2-24.3 15.1-39.6.3-4.9 10.1-66.5 10.1-66.5l-10.2-51.4-60-75c-20.2 0-63.2 0-75 0v210z" fill="#f0e6e6"/><path d="m162 219h30v30h-30z" fill="#0a617d"/><path d="m312 249h30c0-10.5 0-19.5 0-30-10.5 0-19.5 0-30 0v15z" fill="#08475e"/><path d="m212.3 294c-33.1 0-60 26.9-60 60v60c0 16.6 13.4 30 30 30h69.7l10-75-10-75c-13.9 0-25.8 0-39.7 0z" fill="#0a617d"/><path d="m349.3 414c0-7.3 0-52.7 0-60 0-33.1-26.9-60-60-60-13 0-24.3 0-37.3 0v150h67.3c16.6 0 30-13.4 30-30z" fill="#08475e"/><path d="m207 354h30v30h-30z" fill="#fff7f4"/><path d="m267 354h30v30h-30z" fill="#fff7f4"/><path d="m177 84s-84-27.5-108.9-55.1l-26.1-28.9v39c0 46.8 13.3 87 39.7 120l17.8 10 17.4-10h.5c32.9 0 59.5-27.3 59.5-60.2z" fill="#0a617d"/><path d="m117 159-105 .1v15c0 58 46.9 102.8 105 102.8z" fill="#f0e6e6"/><path d="m435.9 28.9c-13.6 15.1-30.2 27.2-50.5 36.6-16.8 7.8-58.4 18.5-58.4 18.5v15c0 16.6 6.7 31.6 17.6 42.4 19 19 41.8 17.4 42.4 17.6l17.6 10 17.6-10c13.5-17 23.7-35.8 30.3-56.5 12.3-38.5 8.8-70.7 9.4-83v-19.5c-9 10.1-16.9 18.8-26 28.9z" fill="#08475e"/><path d="m387.1 276.9c44.1 0 81.4-25.9 97-63 9.9-23.6 7.6-43.1 7.9-47.3v-7.5c-12.8 0-92.2-.1-105-.1.4 104 .6 108.7.1 117.9z" fill="#d2cbd7"/></g></svg>