<svg id="Capa_1" enable-background="new 0 0 504.5 504.5" height="512" viewBox="0 0 504.5 504.5" width="512" xmlns="http://www.w3.org/2000/svg"><g><g><path d="m140.187 504.5h-38.568c-6.623 0-11.019-6.86-8.252-12.878l38.98-84.767h58.563l-42.47 92.357c-1.483 3.223-4.706 5.288-8.253 5.288z" fill="#8b8089"/><path d="m166.24 406.855-42.47 92.357c-1.482 3.223-4.705 5.288-8.252 5.288h24.67c3.547 0 6.77-2.065 8.252-5.288l42.47-92.357z" fill="#7b7179"/><path d="m364.313 504.5h38.568c6.623 0 11.019-6.86 8.252-12.878l-38.98-84.767h-58.563l42.47 92.357c1.483 3.223 4.706 5.288 8.253 5.288z" fill="#8b8089"/><path d="m411.133 491.622-38.98-84.767h-24.67l38.98 84.767c2.767 6.017-1.629 12.878-8.252 12.878h24.67c6.623 0 11.019-6.86 8.252-12.878z" fill="#7b7179"/></g><path d="m485.58 164.22v251.86c0 10.17-7.54 18.75-17.62 20.07l-203.54 26.49c-8.08 1.05-16.26 1.05-24.34 0l-203.54-26.49c-10.08-1.32-17.62-9.9-17.62-20.07v-251.86c0-12.21 10.74-21.64 22.85-20.06l210.48 27.39 210.48-27.39c12.11-1.58 22.85 7.85 22.85 20.06z" fill="#b87d72"/><path d="m462.91 144.141v277.71c0 6.033-2.09 11.557-5.52 15.674l10.569-1.376c10.08-1.32 17.62-9.9 17.62-20.07v-251.859c.001-12.149-10.633-21.542-22.669-20.079z" fill="#ab695d"/><path d="m485.58 164.22v221.45c0 10.17-7.54 18.75-17.62 20.07l-77.69 10.11-55.25 7.19-70.6 9.19c-8.08 1.05-16.26 1.05-24.34 0l-70.6-9.19-55.25-7.19-77.69-10.11c-10.08-1.32-17.62-9.9-17.62-20.07v-221.45c0-12.21 10.74-21.64 22.85-20.06l210.48 27.39 210.48-27.39c12.11-1.58 22.85 7.85 22.85 20.06z" fill="#c38f86"/><path d="m462.73 144.16-14.565 1.895c8.416 2.438 14.745 10.366 14.745 19.982v227.232c0 5.263-1.922 10.108-5.116 13.794l10.166-1.323c10.08-1.32 17.62-9.9 17.62-20.07v-221.45c0-12.21-10.74-21.64-22.85-20.06z" fill="#b87d72"/><path d="m348.303 93.929c-67.712 7.088-96.053 42.875-96.053 42.875l-12.335 101.162 12.335 139.79 97.5-20.775 87.234-3.272c4.212-.548 7.362-4.136 7.362-8.383v-225.39c0-5.648-2.636-10.97-7.143-14.373-12.454-9.401-41.439-16.606-88.9-11.634z" fill="#ffe5c2"/><path d="m437.203 105.563c-6.309-4.763-16.87-8.958-31.917-11.296 2.842 1.349 5.258 2.794 7.248 4.296 4.507 3.402 7.143 8.725 7.143 14.373v241.422l17.307-.649c4.212-.548 7.362-4.136 7.362-8.383v-225.39c0-5.648-2.636-10.971-7.143-14.373z" fill="#fed2a4"/><path d="m252.25 377.76 184.735-24.053s-22.931-39.717-88.682-32.829c-67.712 7.089-96.053 56.882-96.053 56.882z" fill="#6c7fd8"/><path d="m252.38 377.53 34.03-4.22-34.16 4.45s.05-.08.13-.23z" fill="#6c7fd8"/><path d="m436.99 353.71-25.12 3.27c-3.27-5.15-25.01-35.73-78.2-33.81 4.66-.98 9.53-1.76 14.63-2.29 65.75-6.89 88.69 32.83 88.69 32.83z" fill="#5a74d1"/><path d="m156.197 93.929c67.712 7.088 96.053 42.875 96.053 42.875v240.952l-96.048-21.794-88.686-2.253c-4.212-.548-7.362-4.136-7.362-8.383v-225.39c0-5.648 2.636-10.97 7.143-14.373 12.454-9.401 41.439-16.606 88.9-11.634z" fill="#ffe5c2"/><path d="m227.58 116.766v255.392l24.67 5.598v-240.952s-7.706-9.724-24.67-20.038z" fill="#fed2a4"/><path d="m252.25 377.76-184.735-24.053s22.931-39.717 88.682-32.829c67.712 7.089 96.053 56.882 96.053 56.882z" fill="#6c7fd8"/><path d="m131.527 320.879c56.785 5.944 85.876 41.917 93.788 53.374l26.935 3.507s-28.341-49.793-96.053-56.881c-9.953-1.043-18.918-1.012-26.977-.219.765.069 1.53.137 2.307.219z" fill="#5a74d1"/><g><path d="m223.17 216.387c-1.938 0-3.875-.747-5.343-2.237-.14-.137-17.516-16.964-56.135-21.937-31.273-4.027-62.209 7.124-62.519 7.236-3.888 1.425-8.197-.573-9.621-4.463-1.425-3.89.573-8.197 4.463-9.622 1.4-.513 34.718-12.521 69.593-8.028 44.17 5.688 64.079 25.449 64.904 26.288 2.907 2.951 2.871 7.7-.08 10.606-1.459 1.439-3.362 2.157-5.262 2.157z" fill="#8b8089"/></g><g><path d="m184.857 156.324c-.683 0-1.375-.094-2.063-.291-6.646-1.898-13.745-3.34-21.102-4.288-5.919-.762-12.261-1.027-18.845-.792-4.162.144-7.615-3.086-7.765-7.226-.148-4.14 3.086-7.616 7.226-7.765 7.402-.266 14.569.039 21.3.905 8.1 1.043 15.94 2.639 23.305 4.742 3.983 1.137 6.29 5.289 5.152 9.271-.941 3.296-3.944 5.444-7.208 5.444z" fill="#8b8089"/></g><g><path d="m223.17 256.854c-1.938 0-3.875-.747-5.343-2.237-.14-.137-17.516-16.963-56.135-21.937-4.13-.531-8.485-.824-12.945-.869-4.142-.042-7.466-3.434-7.424-7.575.042-4.116 3.392-7.424 7.498-7.424h.078c5.047.051 9.996.384 14.709.991 44.17 5.688 64.079 25.449 64.904 26.288 2.907 2.951 2.871 7.699-.079 10.606-1.46 1.439-3.363 2.157-5.263 2.157z" fill="#8b8089"/></g><g><path d="m96.601 240.374c-3.062 0-5.937-1.887-7.047-4.928-1.421-3.888.574-8.191 4.461-9.615.285-.104 7.105-2.585 17.666-4.92 4.04-.895 8.047 1.66 8.942 5.704s-1.659 8.048-5.704 8.943c-9.504 2.102-15.689 4.339-15.751 4.361-.848.308-1.715.455-2.567.455z" fill="#8b8089"/></g><g><path d="m223.17 297.321c-1.938 0-3.875-.747-5.343-2.237-.14-.137-17.516-16.963-56.135-21.937-31.273-4.026-62.209 7.123-62.519 7.236-3.888 1.425-8.197-.573-9.621-4.463-1.425-3.89.573-8.197 4.463-9.622 1.4-.513 34.718-12.522 69.593-8.028 44.17 5.688 64.079 25.449 64.904 26.288 2.907 2.951 2.871 7.699-.079 10.606-1.46 1.439-3.363 2.157-5.263 2.157z" fill="#8b8089"/></g><g><path d="m283.436 297.296c-1.916 0-3.829-.726-5.288-2.181-2.921-2.912-2.958-7.619-.063-10.557.826-.838 20.735-20.6 64.904-26.288 34.869-4.49 68.193 7.515 69.594 8.028 3.89 1.425 5.888 5.732 4.463 9.622-1.423 3.887-5.726 5.884-9.615 4.465-.311-.113-31.38-11.251-62.525-7.238-38.618 4.974-55.996 21.8-56.167 21.97-1.468 1.451-3.386 2.179-5.303 2.179z" fill="#8b8089"/></g><path d="m295.932 15.453h-7.953v-7.953c0-4.142-3.357-7.5-7.5-7.5s-7.5 3.358-7.5 7.5v7.953h-7.952c-4.143 0-7.5 3.358-7.5 7.5s3.357 7.5 7.5 7.5h7.952v7.952c0 4.142 3.357 7.5 7.5 7.5s7.5-3.358 7.5-7.5v-7.952h7.953c4.143 0 7.5-3.358 7.5-7.5s-3.358-7.5-7.5-7.5z" fill="#ffe177"/><circle cx="247.039" cy="67.635" fill="#ffd15b" r="7.508"/><circle cx="330.272" cy="45.913" fill="#ffd15b" r="7.508"/><g><path d="m252.25 414.355c-4.143 0-7.5-3.358-7.5-7.5v-157.501c0-4.142 3.357-7.5 7.5-7.5s7.5 3.358 7.5 7.5v157.501c0 4.142-3.357 7.5-7.5 7.5z" fill="#fe6c55"/></g><g><g><path d="m395.618 212.925c-4.143 0-7.5-3.358-7.5-7.5v-61.539c0-4.142 3.357-7.5 7.5-7.5s7.5 3.358 7.5 7.5v61.539c0 4.142-3.357 7.5-7.5 7.5z" fill="#6c7fd8"/></g><g><path d="m342.823 206.923h-29.799c-13.627 0-24.713-11.086-24.713-24.713v-22.322c0-4.142 3.357-7.5 7.5-7.5s7.5 3.358 7.5 7.5v22.322c0 5.356 4.357 9.713 9.713 9.713h29.799c5.355 0 9.713-4.357 9.713-9.713v-22.322c0-4.142 3.357-7.5 7.5-7.5s7.5 3.358 7.5 7.5v22.322c0 13.626-11.086 24.713-24.713 24.713z" fill="#6c7fd8"/></g><circle cx="327.924" cy="230.457" fill="#6c7fd8" r="7.508"/></g></g></svg>