<svg id="Capa_1" enable-background="new 0 0 497 497" height="512" viewBox="0 0 497 497" width="512" xmlns="http://www.w3.org/2000/svg"><g><g><path d="m464.625 312.502c-4.143 0-7.5-3.358-7.5-7.5v-164.225c0-4.142 3.357-7.5 7.5-7.5s7.5 3.358 7.5 7.5v164.225c0 4.142-3.357 7.5-7.5 7.5z" fill="#c38f86"/></g><circle cx="464.625" cy="133.481" fill="#ffe177" r="32.375"/><path d="m464.625 101.106c-4.245 0-8.294.825-12.009 2.31 11.932 4.771 20.366 16.429 20.366 30.065s-8.434 25.294-20.366 30.065c3.715 1.485 7.764 2.31 12.009 2.31 17.88 0 32.375-14.495 32.375-32.375s-14.495-32.375-32.375-32.375z" fill="#ffd15b"/><path d="m328.117 466.955 12.188-12.188c5.756-5.756 5.756-15.089 0-20.845l-180.513-180.512c-5.756-5.756-15.089-5.756-20.845 0l-12.188 12.188c-5.756 5.756-5.756 15.089 0 20.845l180.513 180.513c5.757 5.755 15.089 5.755 20.845-.001z" fill="#8b8089"/><path d="m340.305 433.923-180.513-180.513c-5.756-5.756-15.089-5.756-20.844 0l-1.587 1.587 178.927 178.927c5.756 5.756 5.756 15.089 0 20.845l-3.132 2.648c-3.061 3.061-7.132 4.477-11.139 4.283l5.257 5.257c5.756 5.756 15.088 5.756 20.844 0l12.188-12.188c5.755-5.758 5.755-15.09-.001-20.846z" fill="#7b7179"/><path d="m343.12 64.081 13.047 122.969-13.047 122.971-75.51 24.82h-144.8l-24.02-7.9-51.49-16.92-12.003-122.971 12.003-122.969 51.49-17.36 24.02-8.1h144.8z" fill="#c38f86"/><path d="m319.1 55.985v261.928l24.018-7.895 13.049-122.968-13.049-122.964z" fill="#b87d72"/><path d="m243.59 38.621v296.22h-120.78l-24.02-7.9v-280.22l24.02-8.1z" fill="#b87d72"/><path d="m21.61 310.017h25.696v-245.935h-25.696c-11.935 0-21.61 9.675-21.61 21.61v202.715c0 11.935 9.675 21.61 21.61 21.61z" fill="#ffe5c2"/><g><g><path d="m133.5 186.701c0 4.15-3.59 7.5-8.02 7.5h-80.75c-4.43 0-8.02-3.35-8.02-7.5 0-4.14 3.59-7.5 8.02-7.5h80.75c4.43 0 8.02 3.36 8.02 7.5z" fill="#ffe177"/></g><g><path d="m134.47 105.291-35.68 12.02-52.02 17.53c-.77.25-1.56.37-2.33.37-3.16 0-6.1-2.01-7.13-5.17-1.28-3.94.86-8.17 4.8-9.46l56.68-19.1 31.02-10.45c3.94-1.28 8.18.86 9.46 4.8 1.29 3.94-.86 8.17-4.8 9.46z" fill="#ffe177"/></g><g><path d="m138.43 274.741c-1.03 3.16-3.97 5.17-7.13 5.17-.77 0-1.55-.12-2.33-.37l-30.18-10.12-56.68-19.01c-3.94-1.29-6.09-5.52-4.8-9.46s5.52-6.08 9.46-4.8l52.02 17.45 34.84 11.68c3.94 1.29 6.09 5.52 4.8 9.46z" fill="#ffe177"/></g><g fill="#ffd15b"><path d="m125.48 194.201h-26.69v-15h26.69c4.43 0 8.02 3.36 8.02 7.5 0 4.15-3.59 7.5-8.02 7.5z"/><path d="m138.43 274.741c-1.03 3.16-3.97 5.17-7.13 5.17-.77 0-1.55-.12-2.33-.37l-30.18-10.12v-15.82l34.84 11.68c3.94 1.29 6.09 5.52 4.8 9.46z"/><path d="m134.47 105.291-35.68 12.02v-15.83l31.02-10.45c3.94-1.28 8.18.86 9.46 4.8 1.29 3.94-.86 8.17-4.8 9.46z"/></g></g><path d="m23.288 64.082h24.018v245.935h-24.018z" fill="#fed2a4"/><g><g><path d="m352.83 186.701c0 4.15-3.52 7.5-7.86 7.5h-79.21c-4.34 0-7.86-3.35-7.86-7.5 0-4.14 3.52-7.5 7.86-7.5h79.21c4.34 0 7.86 3.36 7.86 7.5z" fill="#ffe177"/></g><g><path d="m355.16 130.041c-1.03 3.16-3.97 5.17-7.13 5.17-.77 0-1.55-.12-2.33-.37l-26.6-8.96-61.1-20.59c-3.94-1.29-6.09-5.52-4.8-9.46s5.52-6.08 9.46-4.8l56.44 19.02 31.26 10.53c3.94 1.29 6.09 5.52 4.8 9.46z" fill="#ffe177"/></g><g><path d="m350.36 250.411-31.26 10.48-55.6 18.65c-.77.25-1.56.37-2.33.37-3.16 0-6.09-2.01-7.13-5.17-1.29-3.94.86-8.17 4.8-9.46l60.26-20.21 26.6-8.92c3.94-1.28 8.18.86 9.46 4.8 1.29 3.94-.86 8.17-4.8 9.46z" fill="#ffe177"/></g><g fill="#ffd15b"><path d="m344.97 194.201h-25.87v-15h25.87c4.34 0 7.86 3.36 7.86 7.5 0 4.15-3.52 7.5-7.86 7.5z"/><path d="m355.16 240.951c1.29 3.94-.86 8.17-4.8 9.46l-31.26 10.48v-15.82l26.6-8.92c3.94-1.28 8.18.86 9.46 4.8z"/><path d="m345.7 134.841-26.6-8.96v-15.83l31.26 10.53c3.94 1.29 6.09 5.52 4.8 9.46-1.03 3.16-3.97 5.17-7.13 5.17-.77 0-1.55-.12-2.33-.37z"/></g></g><path d="m343.115 310.017h25.696c11.935 0 21.61-9.675 21.61-21.61v-202.715c0-11.935-9.675-21.61-21.61-21.61h-25.696z" fill="#ffe5c2"/><path d="m368.811 64.082h-24.018c11.935 0 21.61 9.675 21.61 21.61v202.715c0 11.935-9.675 21.61-21.61 21.61h24.018c11.935 0 21.61-9.675 21.61-21.61v-202.715c0-11.935-9.675-21.61-21.61-21.61z" fill="#fed2a4"/><path d="m267.611 38.62v296.218l-7.39 2.428c-42.228 13.889-87.795 13.889-130.022 0l-7.39-2.428v-296.218l5.895-1.982c43.139-14.546 89.873-14.546 133.012 0z" fill="#5a74d1"/><path d="m261.717 36.637c-5.978-2.016-12.027-3.742-18.123-5.199v310.535c5.589-1.336 11.137-2.902 16.628-4.708l7.39-2.428v-296.217z" fill="#4f66d0"/><g><path d="m189.197 302.212c-1.92 0-3.839-.732-5.304-2.197l-24.922-24.922c-2.929-2.929-2.929-7.678 0-10.606 2.93-2.93 7.678-2.929 10.607 0l24.922 24.922c2.929 2.929 2.929 7.678 0 10.606-1.464 1.464-3.384 2.197-5.303 2.197z" fill="#7b7179"/></g><path d="m62.304 466.824-12.188-12.188c-5.756-5.756-5.756-15.089 0-20.845l180.513-180.513c5.756-5.756 15.089-5.756 20.845 0l12.188 12.188c5.756 5.756 5.756 15.089 0 20.845l-180.514 180.513c-5.756 5.757-15.088 5.757-20.844 0z" fill="#8b8089"/><path d="m263.66 265.471-12.19-12.19c-5.75-5.76-15.08-5.76-20.84 0l-9.379 9.379c4.302-4.302 11.276-4.302 15.578 0l2.811 2.811c5.76 5.75 5.76 15.08 0 20.84l-170.223 170.232c-4.803 4.804-12.591 4.804-17.395 0l8.698 8.698 1.58 1.58c5.76 5.76 15.09 5.76 20.85 0l180.51-180.51c5.76-5.76 5.76-15.09 0-20.84z" fill="#7b7179"/><g fill="#ffe177"><circle cx="196.236" cy="74.358" r="7.508"/><circle cx="196.236" cy="133.521" r="7.508"/><circle cx="196.236" cy="192.685" r="7.508"/></g></g></svg>