<svg id="Capa_1" enable-background="new 0 0 505.508 505.508" height="512" viewBox="0 0 505.508 505.508" width="512" xmlns="http://www.w3.org/2000/svg"><g><path d="m315.954 125.741-6.173-14.868c11.346-11.346 81.929-81.928 93.297-93.296l-2.159 28.323-13.36 29.624c-1.376 1.376-51.412 51.412-51.899 51.899z" fill="#0a617d"/><path d="m61.409 147.114c-81.876 81.876-81.881 215.104 0 296.985l155.563-141.421 141.421-155.563c-81.876-81.877-215.103-81.881-296.984-.001z" fill="#ffda2d"/><path d="m211.414 308.235-96.973 82.831-41.988 20.775c-56.622-66.857-56.625-165.609 0-232.469l17.24-3.974 3.978-17.229c66.741-56.589 165.547-56.685 232.466-.011l-20.776 41.989z" fill="#fff7f4"/><path d="m125.049 189.541-15.688-15.687-15.688-15.688c-1.902 1.611-3.78 3.267-5.631 4.967-1.835 1.686-3.643 3.416-5.421 5.194s-3.509 3.586-5.194 5.421c-1.701 1.851-3.355 3.729-4.967 5.632l15.688 15.686 15.687 15.688c1.008-1.009-1.508 1.508 21.214-21.213z" fill="#fdb504"/><path d="m403.082 17.573c-23.433 23.433-23.433 61.421 0 84.853l49.497-35.355 35.355-49.498c-23.429-23.429-61.422-23.432-84.852 0z" fill="#08475e"/><path d="m326.128 158.166c-1.134 1.133-30.245 30.246-31.374 31.374 1.089 1.088-3.929-3.929 10.606 10.607l22.981-8.839 8.839-22.982c-3.495-3.494-7.201-6.899-11.052-10.16z" fill="#fdb504"/><path d="m103.835 380.459c-3.16 3.16-28.158 28.158-31.374 31.374 3.288 3.883 6.677 7.568 10.161 11.053l22.981-8.839 8.838-22.981c-.143-.144-10.498-10.498-10.606-10.607z" fill="#fdb504"/><path d="m378.085 169.849c5.834-5.834 46.015-46.014 51.9-51.9l28.386-11.416c18.302-2.543 11.262-1.564 29.564-4.107-10.125 10.126-83.056 83.056-93.3 93.3l-14.868-6.173z" fill="#08475e"/><path d="m358.393 147.114c-8.445 8.445-288.806 288.806-296.984 296.985 81.875 81.876 215.103 81.88 296.984 0 81.876-81.876 81.881-215.103 0-296.985z" fill="#fdb504"/><path d="m330.109 415.815-3.974 17.24c-66.857 56.623-165.609 56.624-232.469 0l20.774-41.988c5.372-5.372 185.528-185.528 190.919-190.919l41.989-20.776c56.623 66.857 56.625 165.61 0 232.47z" fill="#f0e6e6"/><path d="m347.342 179.38c-3.391-4.004-6.796-7.688-10.161-11.053-10.115 10.115-21.705 21.705-31.82 31.82 1.085 1.085-3.93-3.929 10.606 10.606 3.107-3.106 28.207-28.205 31.375-31.373z" fill="#f77e01"/><path d="m114.441 391.066c-1.997 1.998 9.012-9.012-31.819 31.82 3.479 3.48 7.17 6.873 11.052 10.161 9.968-9.967 21.407-21.407 31.375-31.374-.213-.213-9.531-9.529-10.608-10.607z" fill="#f77e01"/><path d="m487.934 17.573c-10.177 10.177-74.742 74.743-84.853 84.853 23.431 23.432 61.42 23.431 84.853 0 23.43-23.43 23.433-61.42 0-84.853z" fill="#05303d"/><path d="m141.868 274.189v89.451l74.159-60.018 60.018-74.159c-15.541 5.181-118.551 39.517-134.177 44.726z" fill="#fe4a4a"/><path d="m276.045 229.463c-3.785 3.785-130.393 130.393-134.177 134.177h89.451c4.969-14.906 39.711-119.134 44.726-134.177z" fill="#e80b6a"/><path d="m347.342 411.834c-9.967-9.967-21.408-21.407-31.375-31.374-2.178 2.178-19.072 19.073-21.213 21.213l31.374 31.374c7.729-6.544 14.637-13.448 21.214-21.213z" fill="#f77e01"/></g></svg>