<svg id="Capa_1" enable-background="new 0 0 511 511" height="512" viewBox="0 0 511 511" width="512" xmlns="http://www.w3.org/2000/svg"><g><g><path d="m1 68v67.5l127.5 10 127.5-10 10-33.8-10-33.7-127.5-10z" fill="#ffda2d"/><path d="m511 68-127.5-10-127.5 10v67.5l127.5 10 127.5-10c0-18.4 0-56.8 0-67.5z" fill="#fdb504"/><path d="m0 135.5v375h60l67.5-10 82.5 10h48l7-187.5-6.6-142.5-17.4-45h-31l-15 10-15-10h-30l-14.5 10-15.5-10h-30l-15 10-15-10z" fill="#0a617d"/><path d="m511 135.5h-60l-15 10-15-10h-30l-15.5 10-14.5-10h-30l-15 10-15-10h-30l-15 45v330h255c0-10.6 0-364.4 0-375z" fill="#08475e"/><path d="m241 135.5v45h15l10-22.5-10-22.5c-5.2 0-9.8 0-15 0z" fill="#fdb504"/><path d="m256 135.5v45h15c0-15 0-30 0-45-5.2 0-9.8 0-15 0z" fill="#f77e01"/><g fill="#fdb504"><path d="m181 135.5h30v45h-30z"/><path d="m121 135.5h30v45h-30z"/><path d="m61 135.5h30v45h-30z"/></g><path d="m421 135.5h30v45h-30z" fill="#f77e01"/><path d="m361 135.5h30v45h-30z" fill="#f77e01"/><path d="m301 135.5h30v45h-30z" fill="#f77e01"/><path d="m61 210.5h60v30h-60z" fill="#ffda2d"/><path d="m211 210.5v30h45l10-15-10-15c-15 0-30 0-45 0z" fill="#ffda2d"/><path d="m391 240.5h60c0-10.5 0-19.5 0-30-7.3 0-52.7 0-60 0z" fill="#fdb504"/><path d="m151 210.5h30v30h-30z" fill="#ffda2d"/><path d="m211 510.5h-30l-45-10-45 10h-30v-240h150z" fill="#ffda2d"/><path d="m91 300.5h90v210h-90z" fill="#fdb504"/><path d="m241 270.5v30h15l10-15-10-15c-5.2 0-9.8 0-15 0z" fill="#ffda2d"/><path d="m256 210.5v30h45c0-10.5 0-19.5 0-30-15 0-30 0-45 0z" fill="#fdb504"/><path d="m256 270.5v30h15c0-10.5 0-19.5 0-30-5.2 0-9.8 0-15 0z" fill="#fdb504"/><path d="m391 300.5h60c0-10.5 0-19.5 0-30-7.3 0-52.7 0-60 0z" fill="#fdb504"/><path d="m1 .5v67.5h255l10-33.8-10-33.7c-7.2 0-247.8 0-255 0z" fill="#0a617d"/><path d="m511 .5c-7.2 0-247.8 0-255 0v67.5h255c0-18.4 0-56.8 0-67.5z" fill="#08475e"/></g><g fill="#fdb504"><path d="m331 210.5h30v30h-30z"/><path d="m331 270.5h30v30h-30z"/></g></g></svg>