<svg id="Capa_1" enable-background="new 0 0 497 497" height="512" viewBox="0 0 497 497" width="512" xmlns="http://www.w3.org/2000/svg"><g><path d="m108.942 455.487h-56.404c-9.582 0-17.349-7.767-17.349-17.349v-128.565l8.977-73.374-8.977-73.382v-145.468c.001-9.582 7.768-17.349 17.349-17.349h56.404l9.891 234.893z" fill="#6c7fd8"/><path d="m84.041 0v455.487h24.902l9.89-220.594-9.89-234.893z" fill="#4f66d0"/><path d="m140.584 497h-14.293c-9.582 0-17.349-7.767-17.349-17.349v-24.164l24.495-11.987 24.495 11.987v24.164c.001 9.582-7.766 17.349-17.348 17.349z" fill="#fe6c55"/><path d="m133.438 455.487v24.164c0 7.806-5.156 14.405-12.248 16.584 1.613.496 3.325.765 5.101.765h14.293c9.581 0 17.349-7.767 17.349-17.349v-24.164l-13.991-6.847z" fill="#fd544d"/><path d="m108.942 455.487h335.519c9.581 0 17.349-7.767 17.349-17.349v-420.789c0-9.582-7.767-17.349-17.348-17.349h-335.52z" fill="#aca6d6"/><path d="m444.461 0h-24.901c9.581 0 17.349 7.767 17.349 17.349v420.789c0 9.581-7.768 17.349-17.349 17.349h24.901c9.582 0 17.349-7.767 17.349-17.349v-420.789c0-9.582-7.767-17.349-17.349-17.349z" fill="#978ecb"/><path d="m353.548 48.991h-136.343c-4.942 0-9.263 3.487-10.136 8.351-3.64 20.281-20.269 36.288-40.692 39.805-4.905.845-8.443 5.176-8.443 10.153v240.887c0 4.977 3.538 9.309 8.443 10.153 20.423 3.517 37.051 19.523 40.692 39.804.873 4.864 5.195 8.351 10.136 8.351h136.343c4.942 0 9.263-3.487 10.136-8.351 3.64-20.281 20.269-36.288 40.692-39.804 4.905-.845 8.443-5.176 8.443-10.153v-240.887c0-4.977-3.538-9.309-8.443-10.153-20.423-3.517-37.051-19.523-40.692-39.805-.873-4.864-5.194-8.351-10.136-8.351z" fill="#ffe177"/><path d="m412.82 107.3v240.89c0 4.97-3.54 9.31-8.44 10.15-20.43 3.52-37.06 19.52-40.7 39.8-.87 4.87-5.19 8.36-10.13 8.36h-24.5c4.94 0 9.27-3.49 10.14-8.36 3.64-20.28 20.27-36.28 40.69-39.8 4.91-.84 8.44-5.18 8.44-10.15v-240.89c0-4.98-3.53-9.31-8.44-10.15-20.42-3.52-37.05-19.53-40.69-39.81-.87-4.86-5.2-8.35-10.14-8.35h24.5c4.94 0 9.26 3.49 10.13 8.35 3.64 20.28 20.27 36.29 40.7 39.81 4.9.84 8.44 5.17 8.44 10.15z" fill="#ffd15b"/><path d="m108.942 309.573-28.41 22.21c-4.975 3.889-11.959 3.889-16.933 0l-28.41-22.21v-146.756l26.597-21.972c4.875-4.027 11.868-4.209 16.946-.442l30.209 22.414v146.756z" fill="#ffe177"/><path d="m78.734 140.403c-5.078-3.768-12.071-3.585-16.946.442l-3.483 2.877 17.492 12.978c5.186 3.848 8.244 9.925 8.244 16.383v126.545c0 6.277-2.89 12.205-7.835 16.071l-16.59 12.97 3.984 3.115c4.975 3.889 11.959 3.889 16.933 0l28.41-22.21v-146.757z" fill="#ffd15b"/><g><g><path d="m364.943 264.683c-4.143 0-7.5-3.358-7.5-7.5v-73.007c0-4.142 3.357-7.5 7.5-7.5s7.5 3.358 7.5 7.5v73.007c0 4.142-3.357 7.5-7.5 7.5z" fill="#4f66d0"/></g><g><path d="m209.494 296.81c-4.143 0-7.5-3.358-7.5-7.5s3.357-7.5 7.5-7.5c19.914 0 34.594-4.911 43.632-14.597 8.366-8.967 9.739-19.972 9.938-24.374v-2.471c0-4.041 3.202-7.356 7.24-7.496 4.054-.126 7.463 2.946 7.742 6.977.013.192.085 1.361.018 3.243v1.252c0 .994.809 1.803 1.802 1.803h35.651c3.815 0 6.919-3.104 6.919-6.919v-4.128c0-3.815-3.104-6.919-6.919-6.919-4.143 0-7.5-3.358-7.5-7.5s3.357-7.5 7.5-7.5c12.086 0 21.919 9.833 21.919 21.919v4.128c0 12.086-9.833 21.919-21.919 21.919h-35.651c-1.831 0-3.596-.295-5.247-.839-2.068 5.565-5.346 11.587-10.525 17.138-11.99 12.848-30.36 19.364-54.6 19.364z" fill="#4f66d0"/></g><g><path d="m214.583 247.884c-4.143 0-7.5-3.358-7.5-7.5v-42.98c0-4.142 3.357-7.5 7.5-7.5s7.5 3.358 7.5 7.5v42.98c0 4.142-3.357 7.5-7.5 7.5z" fill="#4f66d0"/></g></g><circle cx="299.688" cy="184.176" fill="#4f66d0" r="7.508"/><circle cx="329.936" cy="184.176" fill="#4f66d0" r="7.508"/><g><path d="m166.204 63.807c-1.919 0-3.839-.732-5.304-2.197l-16.63-16.631c-2.929-2.929-2.929-7.678 0-10.606 2.93-2.929 7.678-2.929 10.607 0l16.631 16.631c2.929 2.929 2.929 7.678 0 10.606-1.465 1.464-3.385 2.197-5.304 2.197z" fill="#978ecb"/></g><g><path d="m402.29 63.807c-1.919 0-3.839-.732-5.304-2.197-2.929-2.929-2.929-7.678 0-10.606l16.631-16.631c2.93-2.929 7.678-2.929 10.607 0s2.929 7.678 0 10.606l-16.63 16.631c-1.465 1.464-3.385 2.197-5.304 2.197z" fill="#978ecb"/></g><g><path d="m149.573 423.826c-1.919 0-3.839-.732-5.304-2.197-2.929-2.929-2.929-7.678 0-10.606l16.631-16.631c2.93-2.929 7.678-2.929 10.607 0s2.929 7.678 0 10.606l-16.631 16.631c-1.464 1.464-3.384 2.197-5.303 2.197z" fill="#978ecb"/></g><g><path d="m418.921 423.826c-1.919 0-3.839-.732-5.304-2.197l-16.631-16.631c-2.929-2.929-2.929-7.678 0-10.606 2.93-2.929 7.678-2.929 10.607 0l16.631 16.631c2.929 2.929 2.929 7.678 0 10.606-1.464 1.464-3.384 2.197-5.303 2.197z" fill="#978ecb"/></g><g><path d="m71.087 283.11c-4.143 0-7.5-3.358-7.5-7.5v-81.434c0-4.142 3.357-7.5 7.5-7.5s7.5 3.358 7.5 7.5v81.434c0 4.142-3.358 7.5-7.5 7.5z" fill="#6c7fd8"/></g></g></svg>