<svg id="Capa_1" enable-background="new 0 0 512 512" height="512" viewBox="0 0 512 512" width="512" xmlns="http://www.w3.org/2000/svg"><g><g><path d="m117.346 52.75c-4.142 0-7.5-4.222-7.5-8.364v-36.886c0-4.142 3.358-7.5 7.5-7.5s7.5 3.358 7.5 7.5v37.75c0 4.142-3.358 7.5-7.5 7.5z" fill="#6c7fd8"/></g><g><path d="m163.564 43.451c-4.142 0-7.5-3.358-7.5-7.5v-28.451c0-4.142 3.358-7.5 7.5-7.5s7.5 3.358 7.5 7.5v28.451c0 4.142-3.358 7.5-7.5 7.5z" fill="#6c7fd8"/></g><g><path d="m209.782 43.451c-4.142 0-7.5-3.358-7.5-7.5v-28.451c0-4.142 3.358-7.5 7.5-7.5s7.5 3.358 7.5 7.5v28.451c0 4.142-3.358 7.5-7.5 7.5z" fill="#6c7fd8"/></g><g><path d="m256 43.451c-4.142 0-7.5-3.358-7.5-7.5v-28.451c0-4.142 3.358-7.5 7.5-7.5s7.5 3.358 7.5 7.5v28.451c0 4.142-3.358 7.5-7.5 7.5z" fill="#6c7fd8"/></g><g><path d="m302.218 43.451c-4.142 0-7.5-3.358-7.5-7.5v-28.451c0-4.142 3.358-7.5 7.5-7.5s7.5 3.358 7.5 7.5v28.451c0 4.142-3.358 7.5-7.5 7.5z" fill="#6c7fd8"/></g><g><path d="m348.436 43.451c-4.142 0-7.5-3.358-7.5-7.5v-28.451c0-4.142 3.358-7.5 7.5-7.5s7.5 3.358 7.5 7.5v28.451c0 4.142-3.358 7.5-7.5 7.5z" fill="#6c7fd8"/></g><g><path d="m394.654 52.083c-4.142 0-7.5-3.358-7.5-7.5v-37.083c0-4.142 3.358-7.5 7.5-7.5s7.5 3.358 7.5 7.5l-.004 36.89c0 4.142-3.354 7.693-7.496 7.693z" fill="#6c7fd8"/></g><g><g><path d="m117.346 512c-4.142 0-7.5-3.358-7.5-7.5v-36.886c0-4.142 3.358-8.302 7.5-8.302s7.5 3.358 7.5 7.5v37.688c0 4.142-3.358 7.5-7.5 7.5z" fill="#6c7fd8"/></g><g><path d="m163.564 512c-4.142 0-7.5-3.358-7.5-7.5v-28.451c0-4.142 3.358-7.5 7.5-7.5s7.5 3.358 7.5 7.5v28.451c0 4.142-3.358 7.5-7.5 7.5z" fill="#6c7fd8"/></g><g><path d="m209.782 512c-4.142 0-7.5-3.358-7.5-7.5v-28.451c0-4.142 3.358-7.5 7.5-7.5s7.5 3.358 7.5 7.5v28.451c0 4.142-3.358 7.5-7.5 7.5z" fill="#6c7fd8"/></g><g><path d="m256 512c-4.142 0-7.5-3.358-7.5-7.5v-28.451c0-4.142 3.358-7.5 7.5-7.5s7.5 3.358 7.5 7.5v28.451c0 4.142-3.358 7.5-7.5 7.5z" fill="#6c7fd8"/></g><g><path d="m302.218 512c-4.142 0-7.5-3.358-7.5-7.5v-28.451c0-4.142 3.358-7.5 7.5-7.5s7.5 3.358 7.5 7.5v28.451c0 4.142-3.358 7.5-7.5 7.5z" fill="#6c7fd8"/></g><g><path d="m348.436 512c-4.142 0-7.5-3.358-7.5-7.5v-28.451c0-4.142 3.358-7.5 7.5-7.5s7.5 3.358 7.5 7.5v28.451c0 4.142-3.358 7.5-7.5 7.5z" fill="#6c7fd8"/></g><g><path d="m394.654 512c-4.142 0-7.5-3.358-7.5-7.5v-35.951c0-4.142 3.358-7.5 7.5-7.5s7.5 2.423 7.5 6.565v36.886c0 4.142-3.358 7.5-7.5 7.5z" fill="#6c7fd8"/></g></g><path d="m393.719 476.049h-275.438c-4.658 0-8.435-3.776-8.435-8.435v-423.228c0-4.658 3.776-8.435 8.435-8.435h275.438c4.658 0 8.435 3.776 8.435 8.435v423.228c0 4.658-3.777 8.435-8.435 8.435z" fill="#97da7b"/><path d="m402.15 44.39v423.22c0 4.66-3.77 8.44-8.43 8.44h-19.5c4.66 0 8.43-3.78 8.43-8.44v-423.22c0-4.66-3.77-8.44-8.43-8.44h19.5c4.66 0 8.43 3.78 8.43 8.44z" fill="#80d261"/><path d="m357.77 85.92v340.16c0 1.11-.12 2.2-.35 3.24l-7.087 4.013-3.153 7.177c-1.43.45-2.95.69-4.53.69h-173.3c-1.6 0-3.15-.25-4.6-.72l-3.75-8.73-6.44-2.52c-.22-1.02-.33-2.07-.33-3.15v-340.16c0-8.35 6.77-15.12 15.12-15.12h79.15l7.5 4.867 7.5-4.867h79.15c8.35 0 15.12 6.77 15.12 15.12z" fill="#aca6d6"/><path d="m342.65 70.802h-25.55c8.348 0 15.115 6.767 15.115 15.115v340.168c0 8.348-6.767 15.115-15.115 15.115h25.55c1.572 0 3.087-.24 4.512-.685l3.171-7.18 7.087-4.013c.225-1.038.345-2.131.345-3.236v-340.17c0-8.347-6.767-15.114-15.115-15.114z" fill="#978ecb"/><g><path d="m222.2 369.54-57.45 70.94c-5.13-1.63-9.06-5.92-10.19-11.25l55.9-69.03c2.58-3.24 7.3-3.78 10.54-1.2s3.78 7.3 1.2 10.54z" fill="#6c7fd8"/></g><g><path d="m357.42 429.32c-1.16 5.31-5.11 9.58-10.24 11.19l-14.96-18.47-42.52-52.5c-2.58-3.24-2.04-7.96 1.2-10.54 3.25-2.58 7.96-2.04 10.54 1.2l30.78 38z" fill="#6c7fd8"/><path d="m357.42 429.32c-1.16 5.31-5.11 9.58-10.24 11.19l-14.96-18.47v-23.84z" fill="#5a74d1"/></g><g><path d="m263.5 70.8v48.87c0 4.14-3.36 7.5-7.5 7.5s-7.5-3.36-7.5-7.5v-48.87z" fill="#6c7fd8"/></g><path d="m324.425 244.775v-36.058c0-3.328-2.698-6.026-6.026-6.026h-5.886c-2.772 0-5.02-2.247-5.02-5.02v-22.575c0-19.537-9.534-37.845-25.542-49.045l-22.456-15.713c-2.099-1.469-4.892-1.469-6.991 0l-22.456 15.713c-16.007 11.201-25.542 29.508-25.542 49.045v22.575c0 2.772-2.247 5.02-5.02 5.02h-5.886c-3.328 0-6.026 2.698-6.026 6.026v36.058c0 3.328 2.698 6.026 6.026 6.026h5.886c2.772 0 5.02 2.247 5.02 5.02v114.933c0 4.002 3.244 7.247 7.247 7.247h27.82l18.427-4.001 14.33 4h27.916c4.002 0 7.247-3.244 7.247-7.247v-114.932c0-2.772 2.247-5.02 5.02-5.02h5.886c3.328 0 6.026-2.698 6.026-6.026z" fill="#d7f8c4"/><path d="m318.399 202.691h-5.886c-2.772 0-5.02-2.247-5.02-5.02v-22.575c0-19.537-9.534-37.845-25.542-49.045l-22.456-15.713c-2.099-1.469-4.892-1.469-6.991 0l-10.51 7.354 11.946 8.359c16.007 11.201 25.542 29.509 25.542 49.046v22.575c0 2.772 2.247 5.02 5.02 5.02h5.886c3.328 0 6.026 2.698 6.026 6.026v36.058c0 3.328-2.698 6.026-6.026 6.026h-5.886c-2.772 0-5.02 2.247-5.02 5.02v122.178h20.765c4.002 0 7.247-3.244 7.247-7.247v-114.932c0-2.772 2.247-5.02 5.02-5.02h5.886c3.328 0 6.026-2.698 6.026-6.026v-36.058c-.001-3.328-2.699-6.026-6.027-6.026z" fill="#c9f6b0"/><path d="m272.33 378h-32.755v-95.682c0-9.045 7.333-16.378 16.378-16.378 9.045 0 16.378 7.333 16.378 16.378v95.682z" fill="#5a74d1"/></g></svg>