<svg id="Capa_1" enable-background="new 0 0 510 510" height="512" viewBox="0 0 510 510" width="512" xmlns="http://www.w3.org/2000/svg"><g><path d="m30 262.5v75l80 10 70-10 40-60-35.979-15-74.021-10z" fill="#895050"/><path d="m480 262.5-135-10-109.023 10-25.977 15 30 60 105 10 135-10c0-20.194 0-63.236 0-75z" fill="#624a4f"/><g id="XMLID_64_"><path d="m510 427.5c-15 0-255 0-270 0l-10-45 10-45h270z" fill="#895050"/></g><g id="XMLID_17_"><path d="m180 427.5c-10 0-170 0-180 0 0-10.889 0-79.04 0-90h180l10 45z" fill="#9d6b5d"/></g><path d="m210 52.5c-14.135 0-101.979 0-116.079 0-3.547 11.527-60.366 196.191-63.921 207.744 0 .103 0 2.394 0 2.256h154.021l25.979-45 10-80z" fill="#9d6b5d"/><path d="m480 262.5c0-.103 0-2.394 0-2.256-3.547-11.527-60.366-196.191-63.921-207.744-11.433 0-194.619 0-206.079 0v165l25.977 45z" fill="#895050"/><path d="m180 307.5v150h30l10-90-10-90c-16.568 0-30 13.431-30 30z" fill="#fdb504"/><path d="m210 277.5v180h30c0-10.128 0-139.871 0-150 0-16.568-13.431-30-30-30z" fill="#f77e01"/><g id="XMLID_9_"><path d="m217.5 232.5-7.5-15v-165h15v169.017z" fill="#624a4f"/></g><g id="XMLID_1_"><path d="m202.917 232.5-7.917-10.983v-169.017h15v165z" fill="#895050"/></g><path d="m188.787 268.713c5.429 5.429 12.929 8.787 21.213 8.787l10-30-10-30c-8.284 0-15.784 3.358-21.213 8.787-11.708 11.708-11.727 30.699 0 42.426z" fill="#ffda2d"/><path d="m231.213 226.287c-5.429-5.429-12.929-8.787-21.213-8.787v60c8.284 0 15.784-3.358 21.213-8.787 11.708-11.708 11.727-30.699 0-42.426z" fill="#fdb504"/></g></svg>