<svg id="Capa_1" enable-background="new 0 0 497 497" height="512" viewBox="0 0 497 497" width="512" xmlns="http://www.w3.org/2000/svg"><g><path d="m148.75 280.5h199.5v189.667h-199.5z" fill="#aca6d6"/><path d="m322.53 280.5v189.667h-134.7v-25.207l60.32-29.6c5.87-2.88 9.59-8.85 9.59-15.39v-119.47z" fill="#978ecb"/><path d="m348.245 497h-134.704l-8.707-22.833 8.707-24.206 60.329-29.604c5.869-2.88 9.589-8.849 9.589-15.386v-124.472h64.786l13.921 130.334z" fill="#ffe177"/><path d="m213.541 497h-64.786l-8.588-93.5 8.588-123.001h64.786z" fill="#ffe177"/><path d="m187.825 280.499h25.716v216.501h-25.716z" fill="#ffd15b"/><path d="m322.53 280.499v216.501h25.715l13.922-86.167-13.922-130.334z" fill="#ffd15b"/><path d="m73.289 497h75.466v-216.501l-34.384 13.847c-22.387 9.015-37.748 29.917-39.668 53.974l-11.036 138.26c-.448 5.616 3.988 10.42 9.622 10.42z" fill="#ffe177"/><path d="m123.039 290.855v206.145h25.716v-216.501z" fill="#ffd15b"/><path d="m423.711 497h-75.466v-216.501l34.384 13.847c22.387 9.015 37.748 29.917 39.668 53.974l11.035 138.26c.449 5.616-3.987 10.42-9.621 10.42z" fill="#ffe177"/><path d="m433.333 486.58-11.035-138.26c-1.92-24.057-17.282-44.959-39.668-53.974l-34.384-13.847v10.356l8.669 3.491c22.387 9.015 37.748 29.917 39.668 53.974l11.035 138.26c.448 5.616-3.988 10.42-9.622 10.42h25.716c5.633 0 10.069-4.804 9.621-10.42z" fill="#ffd15b"/><path d="m376.32 291.8v.06c0 5.12-.51 10.15-1.5 15.02-5.32 26.35-24.39 48.38-50.64 57.02l-41.48 13.66c-22.09 7.27-45.92 7.28-68.01.03l-41.81-13.72c-31.14-10.22-52.2-39.29-52.2-72.07 5.85-7.92 10.35-16.66 13.39-25.89 3.03-9.23 4.61-18.94 4.61-28.78v-131.59c0-58.29 47.25-105.54 105.54-105.54h8.56c58.29 0 105.54 47.25 105.54 105.54v131.59c0 19.68 6.3 38.84 18 54.67z" fill="#fe6c55"/><g><path d="m376.32 291.86c0 5.12-.51 10.15-1.5 15.02l-87.7-24.78c-15.48-3.01-30.28-9.65-42.82-19.21l-45.73-44.08 11.19-11.74 43.64 43.89c10.71 8.17 23.36 13.85 36.59 16.42z" fill="#fd544d"/></g><path d="m358.315 237.134v-131.598c0-58.286-47.25-105.536-105.536-105.536h-8.558c-2.889 0-5.749.121-8.579.348 54.273 4.367 96.957 49.79 96.957 105.188v131.598c0 19.679 6.309 38.839 18 54.668v.054c0 32.752-21.023 61.805-52.133 72.046l-41.485 13.656c-6.93 2.281-14.032 3.846-21.198 4.698 15.708 1.868 31.724.303 46.914-4.698l41.485-13.656c31.11-10.241 52.133-39.294 52.133-72.046v-.054c-11.691-15.829-18-34.989-18-54.668z" fill="#fd544d"/><path d="m252.195 36.569h-7.39c-40.166 0-72.727 32.561-72.727 72.727v3.437l76.222 7.767 76.622-7.767v-3.437c0-40.166-32.561-72.727-72.727-72.727z" fill="#fe6c55"/><path d="m252.195 36.569h-7.39c-3.106 0-6.159.217-9.163.595 35.837 4.509 63.564 35.072 63.564 72.132v3.437l13.794 4.767 11.922-4.767v-3.437c0-40.166-32.561-72.727-72.727-72.727z" fill="#fd544d"/><g><path d="m252.351 477.45c-2.637 0-5.193-1.393-6.564-3.861-2.011-3.621-.705-8.187 2.917-10.198l28.549-15.852c3.623-2.011 8.187-.704 10.197 2.917 2.011 3.621.705 8.187-2.916 10.198l-28.549 15.852c-1.154.64-2.403.944-3.634.944z" fill="#978ecb"/></g><path d="m248.5 237.371c-42.207 0-76.422-34.215-76.422-76.422v-48.216h152.844v48.216c0 42.206-34.215 76.422-76.422 76.422z" fill="#ffe5c2"/><path d="m299.206 112.733v48.216c0 37.822-27.483 69.207-63.564 75.323 4.182.709 8.474 1.098 12.858 1.098 42.207 0 76.422-34.215 76.422-76.422v-48.216h-25.716z" fill="#fed2a4"/><g><path d="m248.3 174.544c-4.142 0-7.5-3.358-7.5-7.5v-14.032c0-4.142 3.358-7.5 7.5-7.5 4.143 0 7.5 3.358 7.5 7.5v14.032c0 4.143-3.358 7.5-7.5 7.5z" fill="#fed2a4"/></g></g></svg>