<svg id="Capa_1" enable-background="new 0 0 499.2 499.2" height="512" viewBox="0 0 499.2 499.2" width="512" xmlns="http://www.w3.org/2000/svg"><g><g><path d="m411.4 113.4c-2.7-1.4-24.1-12.1-26.8-13.4l-10 109.6 10 109.6h60c0-41.4 0-128 0-152.2 0-22.8-12.7-43.4-33.2-53.6z" fill="#d2cbd7"/><path d="m174.6 0v69.9l37.5 22.1 37.5 2.1 10-37.7-10-37.7c-9.1-2.2-65.9-16.4-75-18.7z" fill="#f0e6e6"/><path d="m324.6 0c-9.1 2.3-65.9 16.5-75 18.8v75.5l37.5-2.1 37.5-22.1c0-18.9 0-58.7 0-70.1z" fill="#d2cbd7"/><path d="m54.6 167v152.2h60l10-105-10-114.3-26.8 13.4c-20.5 10.3-33.2 30.8-33.2 53.7z" fill="#f0e6e6"/><path d="m174.6 69.9c-16.3 8.1-50.4 25.2-60 30v399.3h135l10-97.8-10-127.2-15-184.9c-6.4-2-53.3-17.2-60-19.4z" fill="#fff7f4"/><path d="m384.6 99.9c-16.3-8.1-50.4-25.2-60-30-6.7 2.2-53.5 17.3-60 19.4l-15 184.9v22.5 202.5h135c0-22.8 0-385 0-399.3z" fill="#f0e6e6"/><path d="m234.6 89.4v184.9h7.5 7.5l10-90-10-90z" fill="#9d6b5d"/><path d="m264.6 89.4-15 4.9v180h15c0-5.3 0-179.7 0-184.9z" fill="#895050"/></g><g fill="#895050"><path d="m294.6 154.2h30v30h-30z"/><path d="m294.6 214.2h30v30h-30z"/></g></g></svg>