<svg id="Capa_1" enable-background="new 0 0 510 510" height="512" viewBox="0 0 510 510" width="512" xmlns="http://www.w3.org/2000/svg"><g><path d="m0 0v510h255l10-255-10-255c-7.2 0-247.8 0-255 0z" fill="#9d6b5d"/><path d="m30 30v450h225l10-225-10-225c-15.2 0-209.8 0-225 0z" fill="#ffda2d"/><path d="m255 0v510h255c0-14.4 0-495.6 0-510-7.2 0-247.8 0-255 0z" fill="#895050"/><path d="m255 30v450h225c0-12.7 0-437.3 0-450-15.2 0-209.8 0-225 0z" fill="#fdb504"/><path d="m240 60c0 12.6-7.1 21.7-20.3 31.1-41.9 29.6-129.2 51.7-153.4 152.2-7.2 30-.3 62 18.4 86.4-15.9 18.4-24.7 41.7-24.7 66.6v53.7h49.5l145.5-99.9 10-135.1-10-155c-5.2 0-9.8 0-15 0z" fill="#0a617d"/><path d="m180 180h30v30h-30z" fill="#fff7f4"/><path d="m135 240h30v30h-30z" fill="#fff7f4"/><path d="m210 269.1c-5.6 10-94.9 170.8-100.5 180.9h145.5l10-39.9-10-59.9c-5.4-9.8-39.6-71.4-45-81.1z" fill="#83d947"/><path d="m450 396.3c0-24.9-8.8-48.3-24.7-66.8 19.5-26 25.8-60.1 15.7-92.2-36.5-115.2-171-124-171-177.3-5.2 0-9.8 0-15 0v296.9l149.1 93.1h45.9c0-17.1 0-36.6 0-53.7z" fill="#08475e"/><path d="m322 246.2c-11.7-11.7-11.7-30.7 0-42.4-7.4-7.4-13.8-13.8-21.2-21.2-23.4 23.4-23.4 61.5 0 84.9 23.6 23.6 61.6 23.3 84.9 0-1-1 1.5 1.5-21.2-21.2-11.9 11.7-30.8 11.6-42.5-.1z" fill="#f0e6e6"/><path d="m260.3 359.7 15.1 45.1 35.1 45.1h93.7c-5.8-8.1-98.4-137.7-104.1-145.8-4.4 6.1-35.4 49.5-39.8 55.6z" fill="#009c99"/><path d="m255 350.1v99.9h55.5c-6.8-12.1-48.7-87.7-55.5-99.9z" fill="#32bea6"/><path d="m240 150v30h15l10-15-10-15c-5.2 0-9.8 0-15 0z" fill="#fff7f4"/><path d="m255.1 150v30h15c0-10.5 0-19.5 0-30-5.3 0-9.8 0-15 0z" fill="#f0e6e6"/></g></svg>