<svg id="Capa_1" enable-background="new 0 0 502.03 502.03" height="512" viewBox="0 0 502.03 502.03" width="512" xmlns="http://www.w3.org/2000/svg"><g><path d="m450.237 502.03h-289.157c-18.417 0-32.744-16.01-30.707-34.314l17.758-159.542c5.345-48.022 27.262-92.679 61.979-126.286l29.042-28.113 66.506-12.412 66.506 12.412 29.042 28.113c34.717 33.607 56.634 78.264 61.979 126.286l17.758 159.541c2.038 18.305-12.289 34.315-30.706 34.315z" fill="#c38f86"/><path d="m480.943 467.716-17.758-159.541c-5.345-48.022-27.262-92.679-61.979-126.286l-29.042-28.113-12.113-2.261-12.113 2.261 29.042 28.113c34.717 33.607 56.634 78.264 61.979 126.286l17.758 159.541c2.037 18.304-12.29 34.314-30.707 34.314h24.225c18.419 0 32.746-16.01 30.708-34.314z" fill="#b87d72"/><path d="m364.317 12.03h-117.317c-15.552 0-26.698 15.005-22.206 29.894l14.359 47.594 66.506 12.512 66.506-12.512 14.359-47.594c4.491-14.889-6.655-29.894-22.207-29.894z" fill="#c38f86"/><path d="m364.317 12.03h-24.225c15.552 0 26.698 15.005 22.206 29.894l-14.359 47.594 10.808 2.524 13.417-2.524 14.359-47.594c4.492-14.889-6.654-29.894-22.206-29.894z" fill="#b87d72"/><circle cx="113.735" cy="209.906" fill="#ffe177" r="92.842"/><path d="m113.735 117.064c-4.106 0-8.148.27-12.113.786 45.552 5.936 80.729 44.886 80.729 92.056s-35.178 86.12-80.729 92.056c3.965.517 8.007.786 12.113.786 51.275 0 92.842-41.567 92.842-92.842s-41.566-92.842-92.842-92.842z" fill="#ffd15b"/><g><path d="m244.219 454.167c-1.919 0-3.839-.732-5.303-2.197-2.929-2.929-2.929-7.678 0-10.606l98.799-98.799c2.929-2.929 7.678-2.929 10.606 0 2.929 2.929 2.929 7.678 0 10.606l-98.799 98.799c-1.464 1.465-3.383 2.197-5.303 2.197z" fill="#ffbd86"/></g><path d="m344.549 352.384-2.308-.554c-8.909-2.138-14.398-11.093-12.261-20.002l6.853-28.558c2.138-8.909 11.093-14.398 20.002-12.261l2.308.554c8.909 2.138 14.398 11.093 12.261 20.002l-6.853 28.558c-2.138 8.91-11.093 14.399-20.002 12.261z" fill="#ffe177"/><path d="m359.143 291.563-2.308-.554c-4.368-1.048-8.742-.254-12.323 1.868 6.741 3.375 10.533 11.042 8.698 18.688l-6.853 28.558c-1.09 4.542-3.956 8.186-7.68 10.393 1.114.558 2.299 1.011 3.562 1.314l2.308.554c8.909 2.138 17.865-3.352 20.002-12.261l6.853-28.558c2.14-8.909-3.35-17.864-12.259-20.002z" fill="#ffd15b"/><path d="m268.789 400.296-2.308-.554c-8.909-2.138-14.398-11.093-12.261-20.002l6.853-28.558c2.138-8.909 11.093-14.398 20.002-12.261l2.308.554c8.909 2.138 14.398 11.093 12.261 20.002l-6.853 28.558c-2.138 8.909-11.093 14.399-20.002 12.261z" fill="#ffe177"/><path d="m283.383 339.474-2.308-.554c-4.368-1.048-8.742-.254-12.323 1.868 6.741 3.375 10.533 11.042 8.698 18.688l-6.853 28.558c-1.09 4.542-3.956 8.186-7.68 10.393 1.114.558 2.299 1.011 3.562 1.314l2.308.554c8.909 2.138 17.865-3.352 20.002-12.261l6.853-28.558c2.14-8.908-3.35-17.864-12.259-20.002z" fill="#ffd15b"/><path d="m361.517 400.179.436 2.333c1.684 9.006-4.251 17.672-13.257 19.356l-28.869 5.399c-9.006 1.684-17.672-4.251-19.356-13.257l-.436-2.333c-1.684-9.006 4.251-17.672 13.257-19.356l28.869-5.399c9.005-1.685 17.671 4.251 19.356 13.257z" fill="#ffe177"/><path d="m361.953 402.512-.436-2.333c-1.684-9.006-10.35-14.941-19.356-13.257l-7.789 1.457c4.508 2.237 7.956 6.473 8.952 11.801l.436 2.333c1.684 9.006-4.251 17.672-13.257 19.356l-21.08 3.942c3.112 1.544 6.725 2.145 10.404 1.457l28.869-5.399c9.006-1.685 14.941-10.351 13.257-19.357z" fill="#ffd15b"/><path d="m77.426 52.392h-7.953v-7.952c0-4.142-3.358-7.5-7.5-7.5s-7.5 3.358-7.5 7.5v7.953h-7.953c-4.142 0-7.5 3.358-7.5 7.5s3.358 7.5 7.5 7.5h7.953v7.952c0 4.142 3.358 7.5 7.5 7.5s7.5-3.358 7.5-7.5v-7.952h7.953c4.142 0 7.5-3.358 7.5-7.5s-3.358-7.501-7.5-7.501z" fill="#ffe177"/><circle cx="106.227" cy="25.228" fill="#ffd15b" r="7.508"/><circle cx="390.236" cy="351.036" fill="#ffe177" r="7.508"/><circle cx="118.005" cy="239.975" fill="#97da7b" r="7.508"/><circle cx="31.898" cy="7.508" fill="#ffd15b" r="7.508"/><g><g><g><path d="m159.077 248.506c-8.084 0-15.755-3.836-20.604-10.332-2.478-3.319-1.796-8.019 1.523-10.497 3.32-2.479 8.019-1.796 10.497 1.523 2.094 2.805 5.289 4.376 8.797 4.303 5.57-.112 10.159-4.551 10.447-10.105.154-2.968-.884-5.785-2.922-7.932-2.04-2.148-4.792-3.332-7.749-3.332-4.472 0-6.205.635-8.528 1.681-.236.106-.387.18-.44.206-2.522 1.271-5.561 1.026-7.836-.647s-3.435-4.473-2.973-7.259l4.426-26.712c.6-3.62 3.73-6.274 7.399-6.274h19.34c4.142 0 7.5 3.358 7.5 7.5s-3.358 7.5-7.5 7.5h-12.98l-1.506 9.094c.962-.059 1.991-.089 3.099-.089 7.008 0 13.797 2.917 18.627 8.004 4.898 5.16 7.393 11.92 7.023 19.038-.694 13.37-11.73 24.055-25.125 24.324-.171.004-.344.006-.515.006z" fill="#97da7b"/></g></g><g><g><path d="m70.761 247.489c-11.662 0-12.556-.298-13.548-.628-2.461-.821-4.3-2.687-5.048-5.119-1.264-4.11.628-6.587 4.398-11.523 3.016-3.949 8.63-11.3 18.04-24.744 2.609-3.728 4.359-7.167 5.079-9.973l.17-1.333c-.208-4.069-3.584-7.316-7.705-7.316-3.679 0-6.862 2.612-7.569 6.211-.798 4.065-4.745 6.709-8.805 5.914-4.064-.798-6.712-4.74-5.914-8.805 2.084-10.616 11.458-18.32 22.288-18.32 12.525 0 22.715 10.189 22.715 22.714 0 .318-.02.635-.061.951l-.294 2.3c-.032.25-.076.498-.133.743-1.109 4.785-3.626 10.005-7.483 15.515-5.679 8.115-10.007 14.058-13.233 18.395 4.952-.016 10.696-.063 16.13-.131 4.169-.036 7.542 3.263 7.594 7.405s-3.263 7.542-7.405 7.594c-8.475.105-14.666.15-19.216.15zm-10.066-15.148s0 0 0 0z" fill="#97da7b"/></g></g></g><g><path d="m354.125 199.055c-2.997 0-5.826-1.808-6.985-4.766l-15.714-40.111c-1.511-3.857.391-8.208 4.248-9.719 3.855-1.511 8.208.391 9.719 4.248l15.714 40.111c1.511 3.857-.391 8.208-4.248 9.719-.899.351-1.824.518-2.734.518z" fill="#b87d72"/></g><g><path d="m334.418 99.685c-.285 0-.573-.016-.863-.049-4.115-.472-7.069-4.19-6.597-8.305l5.857-51.105c.471-4.116 4.186-7.07 8.305-6.597 4.115.472 7.069 4.19 6.597 8.305l-5.857 51.105c-.439 3.825-3.682 6.646-7.442 6.646z" fill="#b87d72"/></g><path d="m239.153 89.518h133.012v64.258h-133.012z" fill="#97da7b"/><path d="m347.939 89.518h24.225v64.258h-24.225z" fill="#80d261"/></g></svg>