<svg id="Capa_1" enable-background="new 0 0 497 497" height="512" viewBox="0 0 497 497" width="512" xmlns="http://www.w3.org/2000/svg"><g><path d="m434.551 112.474h-372.102c-13.625 0-25.285 9.78-27.656 23.198l-15.901 90 229.608 13.161 229.608-13.162-15.901-90c-2.371-13.417-14.03-23.197-27.656-23.197z" fill="#fed2a4"/><path d="m462.207 135.672c-2.371-13.418-14.03-23.198-27.656-23.198h-23.087c13.625 0 25.285 9.78 27.656 23.198l15.901 90 11.543 7.162 11.543-7.162z" fill="#ffbd86"/><path d="m304.276 169.073h-111.552v-156.444c0-6.975 5.654-12.629 12.629-12.629h86.294c6.975 0 12.629 5.654 12.629 12.629z" fill="#80d261"/><path d="m291.647 0h-23.087c6.975 0 12.629 5.654 12.629 12.629v156.444h23.087v-156.444c0-6.975-5.654-12.629-12.629-12.629z" fill="#68ca44"/><circle cx="248.5" cy="110.534" fill="#d7f8c4" r="28.204"/><path d="m248.5 82.33c-4.114 0-8.019.888-11.543 2.472 9.819 4.412 16.66 14.27 16.66 25.732s-6.842 21.32-16.66 25.732c3.524 1.584 7.429 2.472 11.543 2.472 15.577 0 28.204-12.627 28.204-28.204 0-15.576-12.627-28.204-28.204-28.204z" fill="#c9f6b0"/><g><path d="m330.08 176.573h-163.16c-4.142 0-7.5-3.358-7.5-7.5s3.358-7.5 7.5-7.5h163.16c4.143 0 7.5 3.358 7.5 7.5s-3.357 7.5-7.5 7.5z" fill="#f6a96c"/></g><path d="m383.015 458.539 52.735-7.039 42.358 7.039v25.832c0 6.975-5.654 12.629-12.629 12.629h-47.966c-4.032 0-7.822-1.925-10.2-5.182z" fill="#c38f86"/><path d="m455.021 458.539v25.832c0 6.975-5.654 12.629-12.629 12.629h23.087c6.975 0 12.629-5.654 12.629-12.629v-25.832l-13.045-2.168z" fill="#b87d72"/><path d="m113.985 458.539-47.547-8.539-47.547 8.539v25.832c0 6.975 5.654 12.629 12.629 12.629h47.966c4.032 0 7.822-1.925 10.2-5.182z" fill="#c38f86"/><path d="m90.898 458.539-24.299 33.279c-2.378 3.256-6.167 5.182-10.2 5.182h23.087c4.032 0 7.822-1.925 10.2-5.182l24.299-33.279-12.01-2.157z" fill="#b87d72"/><path d="m18.892 225.671h459.217v232.868h-459.217z" fill="#ffe5c2"/><path d="m455.021 225.671h23.087v232.868h-23.087z" fill="#fed2a4"/><g><g><g fill="#aca6d6"><path d="m182.3 295.34-15.03 15.03-51.17 51.18-63.63-63.63c1.293-1.236 2.753-2.009 4.38-2.32 4.63-.84 8.99-2.48 12.91-4.79 9.969-5.77 17.67-15.672 19.98-27.05.86-4.24 4.56-7.31 8.89-7.31h44.78z"/><path d="m275.81 256.45 38.89 38.89-66.2 66.21-66.2-66.21 38.89-38.89z"/><path d="m182.3 295.34-15.03 15.03-51.17 51.18-63.63-63.63c1.293-1.236 2.753-2.009 4.38-2.32 4.63-.84 8.99-2.48 12.91-4.79 9.969-5.77 17.67-15.672 19.98-27.05.86-4.24 4.56-7.31 8.89-7.31h44.78z"/></g><path d="m143.41 256.45h-30.068l53.924 53.924-51.167 51.175.001.001 66.2-66.21z" fill="#978ecb"/><path d="m275.81 256.45 38.89 38.89-66.2 66.21-66.2-66.21 38.89-38.89z" fill="#aca6d6"/><path d="m444.62 297.83-63.72 63.72-66.2-66.21 38.89-38.89h44.8c4.32 0 8.01 3.05 8.88 7.29 3.325 16.176 17.977 29.702 34.23 32.08 1.19.45 2.24 1.14 3.12 2.01z" fill="#aca6d6"/><path d="m418.93 399.58c-5.83 5.59-10.09 12.89-11.68 20.84-.85 4.26-4.55 7.34-8.89 7.34h-299.74c-4.33 0-8.02-3.07-8.89-7.31-1.63-8.01-5.85-15.24-11.7-20.83l23.95-23.94 10.69-10.7 3.43-3.43 66.2 66.2 66.2-66.2 66.2 66.2 52.08-52.07 14.12-14.13 27.78 27.78z" fill="#aca6d6"/><path d="m275.81 256.45h-30.068l53.924 53.924-51.167 51.175.001.001 66.2-66.21z" fill="#978ecb"/><g><g><path d="m314.71 427.76-.01-.01-66.2-66.2-66.2-66.21-38.89-38.89z" fill="#aca6d6"/></g><g fill="#aca6d6"><path d="m182.29 427.76.01-.01 66.2-66.2 66.2-66.21 38.89-38.89z"/><path d="m112.67 364.98-10.69 10.7-23.95 23.94 23.94-23.95z"/></g></g></g><g><g fill="#6c7fd8"><path d="m221.19 256.45-38.89 38.89-38.89-38.89z"/><path d="m116.1 361.55-3.43 3.43-10.69 10.7-23.95 23.94c-5-4.81-14.345-11.04-21.31-11.04-4.11-.95-7.05-4.57-7.05-8.82v-75.31c0-2.55 1.06-4.87 2.8-6.53z"/><path d="m182.29 427.76.01-.01.01.01z"/><path d="m135.488 314.735h93.624v93.624h-93.624z" transform="matrix(.707 -.707 .707 .707 -202.249 234.772)"/><path d="m314.69 427.76.01-.01.01.01z"/><path d="m353.59 256.45-38.89 38.89-38.89-38.89z"/><path d="m267.888 314.735h93.624v93.624h-93.624z" transform="matrix(.707 -.707 .707 .707 -163.477 328.386)"/><path d="m447.33 304.28v75.47c0 4.31-3.04 7.98-7.23 8.87-7.927 1.465-15.353 5.394-21.17 10.96l-10.25-10.25-27.78-27.78 63.72-63.72c1.69 1.64 2.71 3.94 2.71 6.45z"/></g><g fill="#978ecb"><path d="m286.45 427.75h28.25l-66.2-66.2-14.125 14.125z"/><path d="m154.05 427.75h28.25l-66.2-66.2-14.125 14.125z"/></g><g><g fill="#6c7fd8"><path d="m353.59 256.45-38.89 38.89-66.2 66.21-66.2 66.2-.01.01z"/><path d="m112.67 364.98-10.69 10.7-23.95 23.94 23.94-23.95z"/></g></g></g><path d="m444.62 297.83-21.29 21.29v60.63c0 4.31-3.04 7.98-7.23 8.87-2.17.4-4.3.99-6.37 1.76l9.2 9.2c5.82-5.57 13.24-9.49 21.17-10.96 4.19-.89 7.23-4.56 7.23-8.87v-75.47c0-2.51-1.02-4.81-2.71-6.45z" fill="#5a74d1"/><g fill="#978ecb"><path d="m444.62 297.83c-.88-.87-1.93-1.56-3.12-2.01-16.25-2.38-30.9-15.9-34.23-32.08-.87-4.24-4.56-7.29-8.88-7.29h-24c4.32 0 8.01 3.05 8.88 7.29 3.33 16.18 17.98 29.7 34.23 32.08 1.19.45 2.24 1.14 3.12 2.01 1.69 1.64 2.71 3.94 2.71 6.45v14.84z"/><path d="m409.73 390.38-1.05-1.05-27.78-27.78-14.13 14.12 24.06 24.06c1.176 1.042 1.3 2.812.317 4.038-3.876 4.837-6.673 10.515-7.897 16.652-.85 4.26-4.55 7.34-8.89 7.34h24c4.34 0 8.04-3.08 8.89-7.34 1.59-7.95 5.85-15.25 11.68-20.84z"/></g></g><g fill="#ffbd86"><circle cx="49.675" cy="427.756" r="7.704"/><circle cx="49.675" cy="256.455" r="7.704"/><circle cx="447.326" cy="427.756" r="7.704"/><circle cx="447.326" cy="256.455" r="7.704"/></g><g><path d="m248.5 59.825c-4.142 0-7.5-3.358-7.5-7.5v-21.118c0-4.142 3.358-7.5 7.5-7.5 4.143 0 7.5 3.358 7.5 7.5v21.119c0 4.141-3.357 7.499-7.5 7.499z" fill="#d7f8c4"/></g></g></svg>