<svg id="Capa_1" enable-background="new 0 0 510 510" height="512" viewBox="0 0 510 510" width="512" xmlns="http://www.w3.org/2000/svg"><g><path d="m239.9 95.6c-3.5 91.3-77 87.1-115.2 133.8-11.1 13.5-18.5 31-18.5 55.5 0 40.7 33.1 73.8 73.8 73.8l37.5 10 37.5-10 10-135-10-121.9-7.5-13.1z" fill="#ffda2d"/><path d="m262.5 88.7-7.5 13.1v256.9l37.5 10 37.5-10c40.7 0 73.8-33.1 73.8-73.8 0-24.4-7.5-41.9-18.5-55.5-36.8-45-107.3-42.9-114.7-125.7z" fill="#fdb504"/><path d="m248.8 22.5c-7.4-7.4-13.8-13.8-21.2-21.2-11.4 11.3-17.6 26.4-17.6 42.4 0 28.5 19.6 51.6 45 58.1l10-16.1-10-16.1c-17.1-9.8-20.2-33.1-6.2-47.1z" fill="#fdb504"/><path d="m312.4 86.1c-7.4-7.4-13.8-13.8-21.2-21.2-9.9 9.9-24.9 11.3-36.2 4.8v32.1c20 5.2 41.9-.1 57.4-15.7z" fill="#f77e01"/><path d="m180 268.7h30v30h-30z" fill="#fdb504"/><path d="m240 268.7v30h15l10-15-10-15c-5.2 0-9.8 0-15 0z" fill="#fdb504"/><path d="m300.1 268.7h30v30h-30z" fill="#f77e01"/><path d="m255.1 268.7v30h15c0-10.5 0-19.5 0-30-5.3 0-9.8 0-15 0z" fill="#f77e01"/><path d="m135 358.7c-41.4 0-75 33.6-75 75 29.9 3.1 65.9 6.8 97.5 10l97.5-10 10-37.5-10-37.5c-14.5 0-105.4 0-120 0z" fill="#fff7f4"/><path d="m450 433.7c0-41.4-33.6-75-75-75-14.5 0-105.4 0-120 0v75l97.5 10c14.9-1.5 81.7-8.4 97.5-10z" fill="#f0e6e6"/><path d="m75 433.7c-41.4 0-75 33.6-75 75h255l10-37.5-10-37.5c-10 0-170 0-180 0z" fill="#f0e6e6"/><path d="m510 508.7c0-41.4-33.6-75-75-75-10 0-170 0-180 0v75z" fill="#d2cbd7"/></g></svg>