<svg id="Capa_1" enable-background="new 0 0 510 510" height="512" viewBox="0 0 510 510" width="512" xmlns="http://www.w3.org/2000/svg"><g><path d="m0 405v105h255l10-52.5-10-52.5-127.5-10z" fill="#32bea6"/><path d="m510 405-127.5-10-127.5 10v105h255c0-28.278 0-88.527 0-105z" fill="#009c99"/><path d="m105 150c-28.278 0-88.527 0-105 0v255h255l10-41.5-10-63.5z" fill="#83d947"/><path d="m255 300v105h255c0-7.193 0-247.807 0-255-28.278 0-88.527 0-105 0z" fill="#32bea6"/><path d="m90 300v30h165l10-15-10-15c-4.655 0-160.348 0-165 0z" fill="#32bea6"/><path d="m420 300c-4.655 0-160.348 0-165 0v30h165c0-10.492 0-19.508 0-30z" fill="#009c99"/><path d="m105 150c0 82.709 67.287 150 150 150l10-150-10-150c-82.708 0-150 67.287-150 150z" fill="#ffda2d"/><path d="m405 150c0-82.707-67.287-150-150-150v150 150c82.707 0 150-67.287 150-150z" fill="#fdb504"/><path d="m165 150c0 49.624 40.373 90 90 90l10-90-10-90c-49.623 0-90 40.373-90 90z" fill="#fdb504"/><path d="m345 150c0-49.623-40.371-90-90-90v90 90c49.623 0 90-40.372 90-90z" fill="#f77e01"/></g></svg>