<svg id="Capa_1" enable-background="new 0 0 493.706 493.706" height="512" viewBox="0 0 493.706 493.706" width="512" xmlns="http://www.w3.org/2000/svg"><g><path d="m133.735 145.143v185.227l21.755 7.502 20.846-7.502v-91.08c0-18.626 11.773-35.68 30.478-44.149l40.039-18.127 40.039 18.127c18.705 8.468 30.478 25.522 30.478 44.149v91.08l20.846 7.502 21.755-7.502v-185.227z" fill="#ffe5c2"/><g fill="#fed2a4"><path d="m186.061 195.141c-18.705 8.468-30.478 25.522-30.478 44.149v91.08l9.784 3.578 10.969-3.578v-91.08c0-18.626 11.773-35.68 30.478-44.149l40.039-18.127h-7.342c-8.839 0-17.577 1.886-25.629 5.531z"/><path d="m339.217 145.143v185.227l10.377 3.578 10.376-3.578v-185.227z"/></g><path d="m359.973 102.996v42.15h-226.24v-42.15c0-30 17.97-57.7 47.06-72.56l54.44-27.8s.06-.03.18-.09c.79-.37 4.17-1.86 8.76-2.38 1.64-.17 3.42-.23 5.29-.08 2.81.23 5.82.95 8.83 2.46.06.03.12.06.18.09l54.44 27.8c29.09 14.86 47.06 42.56 47.06 72.56z" fill="#80d261"/><path d="m359.973 102.996v42.15h-20.76v-59.89c0-18.69-6.97-36.49-19.26-50.84 24.92 15.52 40.02 41.08 40.02 68.58z" fill="#68ca44"/><path d="m291.553 102.996v42.15h-89.4v-42.15c0-30 7.1-57.7 18.59-72.56l23.43-30.27c1.64-.17 3.42-.23 5.29-.08l23.5 30.35c11.49 14.86 18.59 42.56 18.59 72.56z" fill="#97da7b"/><g><path d="m393.332 152.644h-292.958c-4.142 0-7.5-3.358-7.5-7.5s3.358-7.5 7.5-7.5h292.958c4.142 0 7.5 3.358 7.5 7.5s-3.358 7.5-7.5 7.5z" fill="#68ca44"/></g><g fill="#ffe177"><circle cx="169.239" cy="113.272" r="7.508"/><circle cx="246.853" cy="113.272" r="7.508"/><circle cx="325.97" cy="113.272" r="7.508"/></g><path d="m377.752 374.874-130.899-11.335-130.9 11.335v74.328l130.9 13.004 130.899-13.004z" fill="#ffe5c2"/><path d="m356.999 374.874v74.328l10.377 6.504 10.376-6.504v-74.328l-10.376-6.168z" fill="#fed2a4"/><g><path d="m224.998 345.558c-.979 0-1.973-.193-2.93-.6-3.813-1.62-5.589-6.024-3.969-9.836l20.444-49.564c1.621-3.812 6.026-5.59 9.836-3.969 3.813 1.62 5.589 6.024 3.969 9.836l-20.444 49.564c-1.213 2.855-3.988 4.569-6.906 4.569z" fill="#c38f86"/></g><path d="m383.026 374.874h-272.347c-5.768 0-10.443-4.676-10.443-10.443v-23.617c0-5.768 4.676-10.443 10.443-10.443h272.347c5.768 0 10.443 4.676 10.443 10.443v23.617c.001 5.767-4.675 10.443-10.443 10.443z" fill="#fed2a4"/><path d="m383.026 330.37h-20.753c5.768 0 10.443 4.676 10.443 10.443v23.617c0 5.768-4.676 10.443-10.443 10.443h20.753c5.768 0 10.443-4.676 10.443-10.443v-23.617c.001-5.767-4.675-10.443-10.443-10.443z" fill="#ffbd86"/><g><path d="m194.997 449.202-19.753 6.504-19.753-6.504v-28.23c0-10.909 8.844-19.753 19.753-19.753 10.909 0 19.753 8.844 19.753 19.753z" fill="#c38f86"/><path d="m175.244 401.218c-3.602 0-6.969.98-9.877 2.664 5.898 3.417 9.877 9.782 9.877 17.089v28.23l9.563 3.355 10.19-3.355v-28.23c0-10.909-8.844-19.753-19.753-19.753z" fill="#b87d72"/><path d="m266.606 449.202-19.753 6.504-19.753-6.504v-28.23c0-10.909 8.844-19.753 19.753-19.753 10.909 0 19.753 8.844 19.753 19.753z" fill="#c38f86"/><path d="m246.853 401.218c-3.602 0-6.969.98-9.877 2.664 5.899 3.417 9.877 9.782 9.877 17.089v28.23l9.563 3.355 10.19-3.355v-28.23c0-10.909-8.844-19.753-19.753-19.753z" fill="#b87d72"/><path d="m338.215 449.202-19.753 5.89-19.753-5.89v-28.23c0-10.909 8.844-19.753 19.753-19.753 10.909 0 19.753 8.844 19.753 19.753z" fill="#c38f86"/><path d="m318.462 401.218c-3.602 0-6.969.98-9.877 2.664 5.899 3.417 9.877 9.782 9.877 17.089v28.23l9.903 2.937 9.85-2.937v-28.23c0-10.909-8.843-19.753-19.753-19.753z" fill="#b87d72"/></g><g><path d="m290.353 272.499h-13.121c-4.142 0-7.5-3.358-7.5-7.5s3.358-7.5 7.5-7.5h13.121c4.142 0 7.5 3.358 7.5 7.5s-3.358 7.5-7.5 7.5z" fill="#ffe177"/></g><path d="m265.81 294.922-39.163-6.528c-9.474-1.579-16.418-9.776-16.418-19.381v-8.028c0-9.605 6.944-17.802 16.418-19.381l39.163-6.528c5.979-.997 11.422 3.614 11.422 9.676v40.494c0 6.062-5.443 10.673-11.422 9.676z" fill="#ffe177"/><path d="m265.81 235.076-12.862 2.144c2.142 1.786 3.531 4.473 3.531 7.532v40.494c0 3.059-1.389 5.746-3.531 7.532l12.862 2.144c5.979.997 11.422-3.614 11.422-9.676v-40.494c0-6.062-5.443-10.672-11.422-9.676z" fill="#ffd15b"/><path d="m397.579 493.706h-301.453c-8.087 0-14.017-7.605-12.047-15.448l4.94-19.662c1.388-5.523 6.352-9.394 12.047-9.394h291.573c5.694 0 10.659 3.872 12.047 9.394l4.94 19.662c1.971 7.843-3.96 15.448-12.047 15.448z" fill="#fed2a4"/><path d="m409.626 478.258-4.94-19.662c-1.388-5.523-6.352-9.394-12.047-9.394h-20.753c5.694 0 10.659 3.872 12.047 9.394l4.94 19.662c1.971 7.843-3.96 15.448-12.047 15.448h20.753c8.087 0 14.018-7.605 12.047-15.448z" fill="#ffbd86"/></g></svg>