<svg id="Capa_1" enable-background="new 0 0 495.678 495.678" height="512" viewBox="0 0 495.678 495.678" width="512" xmlns="http://www.w3.org/2000/svg"><g><path d="m293.717 374.964v-12.785c0-14.95-3.582-29.682-10.447-42.974l-7.982-15.446c-6.865-13.28-10.447-28.012-10.447-42.962v-130.913-42.311h181.309v299.603z" fill="#ffe5c2"/><path d="m423.024 87.573v131.892l23.126 1.852v-133.744z" fill="#fed2a4"/><path d="m264.844 129.883v-88.76c0-12.517 10.147-22.663 22.663-22.663 12.517 0 22.663 10.147 22.663 22.663v88.76z" fill="#ffe5c2"/><path d="m287.507 18.459c-4.225 0-8.177 1.16-11.563 3.172 6.645 3.951 11.1 11.199 11.1 19.491v125.518h23.126v-125.518c0-12.516-10.146-22.663-22.663-22.663z" fill="#fed2a4"/><path d="m310.17 175.146v-152.483c0-12.516 10.147-22.663 22.664-22.663 12.517 0 22.663 10.147 22.663 22.663v152.483z" fill="#ffe5c2"/><path d="m332.834 0c-4.225 0-8.177 1.16-11.563 3.172 6.645 3.951 11.1 11.199 11.1 19.491v152.483h23.126v-152.483c0-12.516-10.147-22.663-22.663-22.663z" fill="#fed2a4"/><path d="m355.497 129.883v-107.22c0-12.516 10.147-22.663 22.663-22.663 12.517 0 22.663 10.147 22.663 22.663v71.904z" fill="#ffe5c2"/><path d="m378.16 0c-4.225 0-8.177 1.159-11.563 3.172 6.645 3.951 11.1 11.199 11.1 19.491v132.887l23.126 11.783v-144.67c0-12.516-10.146-22.663-22.663-22.663z" fill="#fed2a4"/><path d="m446.15 129.883v-93.231c0-12.517-10.147-22.663-22.663-22.663-12.517 0-22.663 10.147-22.663 22.663v138.494z" fill="#ffe5c2"/><path d="m423.487 13.989c-4.225 0-8.177 1.16-11.563 3.172 6.645 3.951 11.1 11.199 11.1 19.491v116.324l23.126-23.094v-93.23c0-12.516-10.147-22.663-22.663-22.663z" fill="#fed2a4"/><path d="m400.824 275.811h-376.693c-12.76 0-23.105-10.344-23.105-23.105v-85.341c0-12.76 10.344-23.105 23.105-23.105h353.588c12.76 0 23.105 10.344 23.105 23.105z" fill="#fe6c55"/><path d="m377.719 144.26h-23.126c12.76 0 23.105 10.344 23.105 23.105v108.446h23.126v-108.446c-.001-12.761-10.345-23.105-23.105-23.105z" fill="#fd544d"/><path d="m446.15 373.916v-11.306c0-15.086 4.661-29.804 13.344-42.141l19.099-27.133c10.45-14.846 16.059-32.558 16.059-50.713v-93.479c0-13.394-10.858-24.251-24.251-24.251-13.394 0-24.252 10.853-24.252 24.247.001 26.214.001 64.295.001 64.295l-45.626 44.225c-8.695 8.428-13.694 18.15-16.41 27.311l-2.958 10.239" fill="#ffe5c2"/><path d="m470.401 124.894c-4.187 0-8.127 1.061-11.564 2.928 7.558 4.107 12.689 12.116 12.689 21.323v93.479c0 18.155-5.609 35.867-16.059 50.713l-19.099 27.133c-8.684 12.336-13.344 27.054-13.344 42.141v12.357l11.563 5.866 11.563-5.866v-12.358c0-15.086 4.661-29.804 13.344-42.141l19.099-27.133c10.45-14.846 16.059-32.558 16.059-50.713v-93.479c0-13.393-10.857-24.25-24.251-24.25z" fill="#fed2a4"/><g><path d="m446.15 213.436-45.626 44.224c-7.744 7.506-13.419 16.951-16.41 27.312l-2.958 10.239c-1.149 3.98-5.309 6.273-9.286 5.125-3.979-1.149-6.273-5.307-5.124-9.287l2.957-10.239c3.716-12.868 10.764-24.598 20.382-33.92l43.346-42.014z" fill="#fed2a4"/></g><g fill="#ffe177"><path d="m133.593 187.714c-.025-.069-.053-.137-.08-.205-1.317-3.204-4.405-5.272-7.868-5.272-.003 0-.006 0-.009 0-3.467.003-6.554 2.079-7.866 5.287-.022.056-.045.113-.066.169l-16.689 43.821c-1.475 3.871.469 8.204 4.34 9.678 3.866 1.474 8.203-.468 9.678-4.339l10.585-27.793 10.481 27.771c1.133 3.003 3.987 4.854 7.018 4.854.88 0 1.775-.156 2.647-.485 3.875-1.463 5.831-5.79 4.368-9.665z"/><path d="m270.973 187.714c-.025-.069-.053-.137-.08-.205-1.317-3.204-4.405-5.272-7.868-5.272-.002 0-.006 0-.008 0-3.467.003-6.554 2.079-7.866 5.287-.022.056-.045.113-.066.169l-16.69 43.821c-1.475 3.871.469 8.204 4.339 9.678 3.87 1.472 8.204-.468 9.679-4.339l10.586-27.792 10.48 27.771c1.133 3.003 3.987 4.854 7.018 4.854.88 0 1.775-.156 2.647-.485 3.875-1.463 5.831-5.79 4.368-9.665z"/><path d="m370.621 231.772-8.292-43.386c-.771-3.782-4-6.575-7.854-6.792-3.853-.213-7.377 2.195-8.567 5.867-.028.085-.054.171-.079.258l-6.124 21.482-6.359-21.555c-.026-.09-.055-.18-.085-.269-1.23-3.658-4.775-6.034-8.631-5.774-3.851.258-7.051 3.086-7.797 6.963l-7.812 43.283c-.735 4.076 1.973 7.977 6.049 8.713 4.072.736 7.978-1.973 8.713-6.049l2.941-16.3 4.942 16.752c.025.088.054.175.082.262 1.165 3.474 4.401 5.8 8.063 5.8h.045c3.68-.019 6.913-2.384 8.046-5.885.027-.084.053-.168.077-.253l4.77-16.729 3.14 16.428c.777 4.07 4.714 6.734 8.774 5.959 4.069-.777 6.737-4.706 5.958-8.775z"/><path d="m74.564 181.581c-4.143 0-7.5 3.358-7.5 7.5v13.961h-15.758v-13.961c0-4.142-3.357-7.5-7.5-7.5s-7.5 3.358-7.5 7.5v44.447c0 4.142 3.357 7.5 7.5 7.5s7.5-3.358 7.5-7.5v-15.486h15.758v15.486c0 4.142 3.357 7.5 7.5 7.5s7.5-3.358 7.5-7.5v-44.447c0-4.143-3.358-7.5-7.5-7.5z"/><path d="m212.737 201.289c0-10.505-8.84-19.051-19.705-19.051h-11.811c-.002 0-.005 0-.007 0s-.005 0-.007 0c-4.143 0-7.5 3.358-7.5 7.5v44.447c0 4.142 3.357 7.5 7.5 7.5s7.5-3.358 7.5-7.5v-7.43l10.9 12.385c1.482 1.685 3.553 2.545 5.633 2.545 1.76 0 3.527-.616 4.952-1.87 3.109-2.736 3.411-7.476.675-10.585l-9.443-10.729c6.674-3.055 11.313-9.611 11.313-17.212zm-19.705-4.051c2.507 0 4.705 1.893 4.705 4.051s-2.198 4.051-4.705 4.051c-1.045 0-2.614.005-4.27.012-.007-1.582-.012-3.07-.012-4.063 0-.86-.003-2.385-.007-4.051z"/></g><path d="m460.402 495.678h-182.238c-5.84 0-10.463-4.936-10.081-10.764l.72-10.99c1.061-13.434 7.159-25.971 17.074-35.097l83.375-7.827 83.376 7.827.957.919c9.522 9.147 15.319 21.497 16.272 34.666l.631 10.56c.346 5.807-4.269 10.706-10.086 10.706z" fill="#978ecb"/><path d="m470.487 484.972-.631-10.56c-.953-13.169-6.75-25.519-16.271-34.666l-.957-.919-11.548-4.327-11.578 4.327.957.919c9.522 9.147 15.319 21.497 16.271 34.666l.631 10.56c.347 5.806-4.268 10.706-10.085 10.706h23.126c5.817 0 10.432-4.899 10.085-10.706z" fill="#8379c1"/><path d="m285.105 374.967h168.294c5.117 0 9.266 4.148 9.266 9.266v45.329c0 5.117-4.148 9.266-9.266 9.266h-168.294c-5.117 0-9.266-4.148-9.266-9.266v-45.329c.001-5.118 4.149-9.266 9.266-9.266z" fill="#aca6d6"/><path d="m453.399 374.967h-23.126c5.117 0 9.266 4.148 9.266 9.266v45.329c0 5.117-4.148 9.266-9.266 9.266h23.126c5.117 0 9.266-4.148 9.266-9.266v-45.329c0-5.118-4.149-9.266-9.266-9.266z" fill="#978ecb"/><circle cx="423.487" cy="408.2" fill="#6c7fd8" r="7.508"/></g></svg>