<svg id="Capa_1" enable-background="new 0 0 497 497" height="512" viewBox="0 0 497 497" width="512" xmlns="http://www.w3.org/2000/svg"><g><path d="m407.33 268.181v-29.921c0-13.06-2.73-25.47-7.66-36.7-3.45-7.87-7.98-15.16-13.39-21.69-16.78-20.2-42.08-33.06-70.39-33.06h-118.27c-15.28 0-29.99 3.68-43.09 10.36-11.47 5.85-21.7 14.02-29.99 24.05-4.92 5.95-9.15 12.55-12.56 19.72l-12.76 26.85c-3 6.31-9.39 10.31-16.38 10.25l-.79-.01c-5.46-.05-9.92 4.37-9.92 9.84v22.24c0 17.49 14.18 31.67 31.68 31.67h51.869c3.993 0 7.23 3.235 7.233 7.228l.007 10.74c.003 4.343-.974 8.631-2.859 12.544l-14.19 29.461c-2.012 4.177 1.032 9.022 5.668 9.022h16.634c1.881 0 3.663-.842 4.858-2.294l28.096-34.144c4.251-5.166 6.575-11.648 6.575-18.338v-4.249l16.538 3.681c12.9 2.87 26.02 4.43 39.17 4.66 10.67.2 21.36-.47 31.96-2.01l17.52-2.55 30.686-4.468c.34-.05.685.048.949.268 10.597 8.827 13.831 23.731 7.846 36.156l-6.871 14.265c-2.012 4.177 1.032 9.022 5.668 9.022h16.634c1.881 0 3.663-.841 4.858-2.294l28.096-34.144c4.251-5.166 6.575-11.648 6.575-18.339v-47.817z" fill="#fed2a4"/><g fill="#ffbd86"><path d="m207.7 311.75v4.25c0 6.69-2.32 13.17-6.57 18.34l-28.1 34.14c-1.19 1.45-2.98 2.29-4.86 2.29h-16.63c-2.47 0-4.47-1.37-5.51-3.28l1.22-.21c1.88 0 3.66-.84 4.86-2.3l24.66-30.64c4.25-5.17 6.57-11.65 6.57-18.34v-5.764c0-3.307 3.248-5.636 6.38-4.575z"/><path d="m315.889 146.812h-24.362c50.503 0 91.443 40.941 91.443 91.443v67.075l24.362-3.545v-63.53c0-50.503-40.941-91.443-91.443-91.443z"/><path d="m154.53 157.17c-11.47 5.85-21.7 14.02-29.99 24.05l34.121 34.121 12.839 40.826 15.66-12.327 76.25 76.25c10.67.2 21.36-.47 31.96-2.01l17.52-2.55z"/></g><g><path d="m172.36 266.34c-.539 0-1.083-.058-1.621-.177-2.502-.554-4.548-2.346-5.425-4.753l-15.771-43.25c-.17-.467-.294-.949-.368-1.44-.105-.69-2.473-17.071 6.492-31.59 2.176-3.525 6.799-4.617 10.322-2.441 3.524 2.176 4.617 6.797 2.441 10.322-5.215 8.444-4.725 18.313-4.493 20.839l11.438 31.368 9.222-9.222 2.193-15.788c.57-4.104 4.371-6.966 8.461-6.396 4.103.57 6.967 4.358 6.396 8.461l-2.54 18.28c-.225 1.617-.971 3.117-2.125 4.271l-19.319 19.32c-1.421 1.421-3.336 2.196-5.303 2.196z" fill="#f6a96c"/></g><path d="m382.97 268.181v47.818c0 6.69-2.324 13.172-6.575 18.338l-28.096 34.144c-.297.361-.631.685-.994.967 1.047.82 2.371 1.327 3.864 1.327h16.634c1.881 0 3.663-.842 4.858-2.294l28.096-34.144c4.251-5.166 6.575-11.648 6.575-18.338v-47.818z" fill="#ffbd86"/><path d="m424.216 72.784c-97.045-97.045-254.387-97.045-351.432 0s-97.045 254.387 0 351.432 254.387 97.045 351.432 0 97.045-254.387 0-351.432zm-24.7 24.7c74.834 74.834 82.51 191.379 23.053 274.785-5.062 7.101-15.245 8.034-21.411 1.868l-278.295-278.296c-6.166-6.166-5.233-16.349 1.868-21.411 83.407-59.456 199.951-51.78 274.785 23.054zm-302.032 302.033c-74.834-74.834-82.51-191.379-23.053-274.785 5.062-7.101 15.245-8.034 21.411-1.868l278.296 278.296c6.166 6.166 5.233 16.349-1.868 21.411-83.408 59.455-199.952 51.779-274.786-23.054z" fill="#fe6c55"/><g fill="#fd544d"><path d="m97.484 399.517c-74.834-74.834-82.51-191.379-23.053-274.785 4.375-6.138 12.573-7.656 18.699-3.976l-10.294-10.996c-6.166-6.166-16.349-5.233-21.411 1.868-59.457 83.407-57.276 213.054 17.558 287.889 44.052 44.052 102.559 64.822 160.251 62.335-51.528-2.22-102.405-22.99-141.75-62.335z"/><path d="m124.731 74.43c34.308-24.456 74.223-37.543 114.535-39.281-46.476-2.002-93.481 11.086-133.035 39.281-7.101 5.062-8.034 15.245-1.868 21.411l289.394 288.81c6.166 6.166 16.349 5.233 21.411-1.868 2.014-2.825 3.93-5.704 5.765-8.625-5.392 5.308-14.211 5.541-19.773-.021l-278.297-278.296c-6.166-6.166-5.232-16.349 1.868-21.411z"/><path d="m424.216 72.784c-50.876-50.876-118.322-75.062-184.966-72.595 60.479 2.239 120.296 26.426 166.466 72.595 97.045 97.045 97.045 254.387 0 351.432-46.17 46.17-105.987 70.356-166.466 72.595 66.644 2.467 134.09-21.719 184.966-72.595 97.045-97.045 97.045-254.387 0-351.432z"/></g><g><path d="m399.67 201.56c-2.02 10.52-5.97 16.32-11.82 20.57-6.74 4.91-14.78 6.31-21.74 6.31-8.78 0-15.83-2.22-16.35-2.39-3.94-1.27-6.1-5.5-4.83-9.44s5.5-6.1 9.43-4.84c4.33 1.37 17.2 3.71 24.7-1.79 4.78-3.5 7.94-12.48 7.2-29.23-.01-.3-.01-.59.02-.88 5.41 6.53 9.94 13.82 13.39 21.69z" fill="#f6a96c"/></g></g></svg>