<svg id="Capa_1" enable-background="new 0 0 497 497" height="512" viewBox="0 0 497 497" width="512" xmlns="http://www.w3.org/2000/svg"><g><path d="m474.274 444.02-225.774 11.907-225.774-11.907v-279.607l225.774-10.486 225.774 10.486z" fill="#fff3de"/><path d="m448.549 164.413v279.607l12.862 7.907 12.863-7.907v-279.607l-12.863-6.486z" fill="#ffe5c2"/><path d="m474.797 117.022h-452.594c-12.262 0-22.203 9.941-22.203 22.203v2.985c0 12.262 9.941 22.203 22.203 22.203h452.594c12.262 0 22.203-9.941 22.203-22.203v-2.985c0-12.262-9.941-22.203-22.203-22.203z" fill="#c38f86"/><path d="m474.797 117.022h-25.726c12.263 0 22.203 9.941 22.203 22.203v2.985c0 12.262-9.941 22.203-22.203 22.203h25.726c12.262 0 22.203-9.941 22.203-22.203v-2.985c0-12.262-9.941-22.203-22.203-22.203z" fill="#b87d72"/><path d="m474.797 444.02h-452.594c-12.262 0-22.203 9.941-22.203 22.203v2.985c0 12.262 9.941 22.203 22.203 22.203h452.594c12.262 0 22.203-9.941 22.203-22.203v-2.985c0-12.262-9.941-22.203-22.203-22.203z" fill="#c38f86"/><path d="m474.797 444.02h-25.726c12.263 0 22.203 9.941 22.203 22.203v2.985c0 12.263-9.941 22.203-22.203 22.203h25.726c12.262 0 22.203-9.941 22.203-22.203v-2.985c0-12.262-9.941-22.203-22.203-22.203z" fill="#b87d72"/><path d="m333.39 444.02h-169.78c-12.262 0-22.203 9.941-22.203 22.203v2.985c0 12.262 9.941 22.203 22.203 22.203h169.78c12.263 0 22.203-9.941 22.203-22.203v-2.985c0-12.262-9.941-22.203-22.203-22.203z" fill="#b87d72"/><path d="m333.39 444.02h-25.726c12.262 0 22.203 9.941 22.203 22.203v2.985c0 12.263-9.941 22.203-22.203 22.203h25.726c12.263 0 22.203-9.941 22.203-22.203v-2.985c0-12.262-9.941-22.203-22.203-22.203z" fill="#ab695d"/><path d="m198.499 337.01c-35.097-1.181-63.687-29.771-64.868-64.868-.91-27.033 14.151-50.634 36.471-62.116 3.65-1.878 2.277-7.44-1.828-7.429-.295.001-.589.003-.884.006-53.566.618-97.439 44.275-98.302 97.837-.907 56.245 44.871 102.021 101.115 101.114 53.562-.864 97.218-44.737 97.835-98.302.003-.295.006-.59.006-.885.012-4.105-5.551-5.478-7.429-1.828-11.482 22.32-35.083 37.381-62.116 36.471z" fill="#ffe177"/><g fill="#ffd15b"><path d="m260.62 300.54c-4.95 9.62-12.15 17.89-20.91 24.11-4.093 2.91-8.531 5.363-13.232 7.309.165-.068.335-.126.499-.196 4.991-2.113 10.003 2.818 7.943 7.831-13.33 32.444-43.379 56.476-79.26 61.135 4.75.62 9.61.9 14.54.82 53.56-.86 97.22-44.73 97.84-98.3v-.88c.02-4.109-5.55-5.479-7.42-1.829z"/><path d="m144.38 210.03c-22.32 11.48-37.38 35.08-36.47 62.11 1.18 35.1 29.77 63.69 64.86 64.87 5.23.18 10.33-.24 15.23-1.2-30.14-5.87-53.31-32.15-54.37-63.67-.91-27.03 14.15-50.63 36.47-62.11 3.65-1.88 2.28-7.45-1.83-7.43h-.88c-7.26.08-14.34.96-21.16 2.55.64 1.72.15 3.85-1.85 4.88z"/></g><g><path d="m442.376 148.218c-1.521 0-3.056-.462-4.383-1.42l-162.934-117.605c-15.884-11.464-37.231-11.465-53.118 0l-162.934 117.606c-3.359 2.426-8.047 1.667-10.471-1.691s-1.667-8.047 1.692-10.471l162.934-117.606c21.137-15.256 49.54-15.256 70.675 0l162.935 117.605c3.358 2.424 4.116 7.112 1.692 10.471-1.466 2.031-3.76 3.11-6.088 3.111z" fill="#4f66d0"/></g><g><path d="m396.813 226.172h-66.19c-4.142 0-7.5-3.357-7.5-7.5s3.358-7.5 7.5-7.5h66.19c4.142 0 7.5 3.357 7.5 7.5s-3.358 7.5-7.5 7.5z" fill="#4f66d0"/></g><path d="m247.671 228.084h-9.243v-9.243c0-4.143-3.358-7.5-7.5-7.5s-7.5 3.357-7.5 7.5v9.243h-9.243c-4.142 0-7.5 3.357-7.5 7.5s3.358 7.5 7.5 7.5h9.243v9.243c0 4.143 3.358 7.5 7.5 7.5s7.5-3.357 7.5-7.5v-9.243h9.243c4.142 0 7.5-3.357 7.5-7.5s-3.358-7.5-7.5-7.5z" fill="#ffe177"/><circle cx="248.5" cy="46.207" fill="#b87d72" r="7.508"/><g fill="#5a74d1"><circle cx="330.829" cy="289.205" r="7.508"/><circle cx="373.456" cy="289.205" r="7.508"/><circle cx="416.084" cy="289.205" r="7.508"/><circle cx="330.829" cy="335.171" r="7.508"/><circle cx="373.456" cy="335.171" r="7.508"/><circle cx="416.084" cy="335.171" r="7.508"/><circle cx="330.829" cy="379.072" r="7.508"/><circle cx="373.456" cy="379.072" r="7.508"/></g></g></svg>