<svg id="Capa_1" enable-background="new 0 0 508.426 508.426" height="512" viewBox="0 0 508.426 508.426" width="512" xmlns="http://www.w3.org/2000/svg"><g><g><path d="m203 51.213c-18.448 0-133.288 0-151.787 0v151.787c-8.042 8.042-43.171 43.171-51.213 51.213l51.213 51.213v151.787h151.787c8.042 8.042 43.171 43.171 51.213 51.213l10-254.213-10-254.213c-8.042 8.042-43.171 43.171-51.213 51.213z" fill="#ffda2d"/><path d="m457.213 203c0-18.448 0-133.288 0-151.787-18.448 0-133.288 0-151.787 0-8.042-8.042-43.171-43.171-51.213-51.213v508.426l51.213-51.213h151.787c0-18.448 0-133.288 0-151.787 8.042-8.042 43.171-43.171 51.213-51.213-8.042-8.042-43.172-43.171-51.213-51.213z" fill="#fdb504"/></g><path d="m215.426 81.213c-16.3 0-117.854 0-134.213 0v134.214c-3.862 3.862-34.852 34.851-38.787 38.786 11.21 11.211 27.559 27.559 38.787 38.787v134.213h134.213c11.21 11.211 27.559 27.559 38.787 38.787l10-211.787-10-211.786c-3.862 3.862-34.852 34.85-38.787 38.786z" fill="#0a617d"/><path d="m427.213 215.427c0-16.298 0-117.881 0-134.214-16.3 0-117.854 0-134.213 0-3.862-3.862-34.852-34.851-38.787-38.786v423.573c11.21-11.211 27.559-27.559 38.787-38.787h134.213c0-16.301 0-117.854 0-134.213 11.21-11.211 27.559-27.559 38.787-38.787-3.862-3.862-34.852-34.851-38.787-38.786z" fill="#08475e"/><path d="m239.213 329.213v30h15l10-15-10-15c-5.246 0-9.754 0-15 0z" fill="#83d947"/><path d="m239.213 149.213v60c0 24.395 4.738 48.91 15 71.686l10-65.843-10-65.843c-5.246 0-9.754 0-15 0z" fill="#83d947"/><path d="m329.08 317.826.133-.695c0-6.576 0-12.227 0-18.803 27.574-3.004 63.171-14.072 82.606-33.509 1.085-1.085-3.93 3.93 10.607-10.606-11.751-11.75-28.856-28.855-40.607-40.606-7.419 7.419-13.794 13.794-21.213 21.213l17.759 17.759c-14.035 7.953-32.976 13.347-49.152 15.518 0-14.459 0-104.396 0-118.883-10.492 0-19.508 0-30 0v147.875c-19.169-23.347-30-54.039-30-87.875 0-7.259 0-52.693 0-60-5.246 0-9.754 0-15 0v131.686c8.099 17.978 19.273 34.035 33.059 47.497-1.464.52-2.987.817-4.559.817-9.968 0-18.532 0-28.5 0v30h28.5c11.398 0 22.051-4.472 30.342-11.993 13.852-12.569 15.864-28.953 16.025-29.395z" fill="#32bea6"/><path d="m179.213 314.213c0 8.273-6.729 15-15 15s-15-6.727-15-15v-30h-30v30c0 24.815 20.188 45 45 45 24.813 0 45-20.185 45-45v-165h-30z" fill="#83d947"/></g></svg>