<svg id="Capa_1" enable-background="new 0 0 510.051 510.051" height="512" viewBox="0 0 510.051 510.051" width="512" xmlns="http://www.w3.org/2000/svg"><g><path d="m165.037 180c0 90.978 74.017 165 165 165l10-165-10-165c-90.978 0-165 74.015-165 165z" fill="#0a617d"/><path d="m315.037 329.252c0-17.08 0-123.349 0-140.466-10.66 10.66-83.325 83.326-94.072 94.073-7.593-8.046-14.495-17.134-20.391-27.183 13.846-13.846 100.646-100.647 114.463-114.463 0-13.431 0-97.003 0-110.465 4.97-.497 9.997-.748 15-.748l10-15-10-15c-99.25 0-180 80.745-180 180 0 99.25 80.745 180 180 180l10-15-10-15c-4.995 0-10.022-.25-15-.748zm-30-292.353v91.887c-10.658 10.657-86.869 86.869-97.637 97.638-26.045-79.823 18.814-164.683 97.637-189.525zm0 286.202c-14.728-4.643-28.683-11.564-41.362-20.525 4.391-4.391 36.913-36.913 41.362-41.362z" fill="#83d947"/><path d="m116.4 74.496c1.984-6.408 12.903-41.685 14.89-48.105-11.098 9.19-27.523 22.791-38.786 32.117-115.197 95.39-124.694 269.892-17.78 376.803 68.535 68.535 166.917 90.592 255.313 63.455l10-47.771-10-47.77c-63.571-7.484-120.063-38.442-160.54-83.944-59.976-67.419-79.246-160.301-53.097-244.785z" fill="#ffda2d"/><path d="m435.54 393.637c-32.696 10.121-68.613 13.934-105.504 9.59v95.54c47.356-14.538 89.515-42.615 121.493-81.234 4.278-5.167 27.83-33.609 32.116-38.786l-24.053 7.445z" fill="#fdb504"/><path d="m330.037 15v330c90.979 0 165-74.016 165-165 0-90.978-74.016-165-165-165z" fill="#08475e"/><path d="m330.037 0v30c4.995 0 10.022.25 15 .748v110.465c13.199 13.198 101.177 101.178 114.463 114.464-5.599 9.542-12.394 18.709-20.391 27.183-10.66-10.66-83.324-83.325-94.072-94.073v140.466c-4.97.497-9.997.748-15 .748v30c49.626 0 94.626-20.186 127.22-52.78 70.36-70.361 70.403-184.035 0-254.439-32.594-32.595-77.594-52.782-127.22-52.782zm45 323.101c0-21.658 0-40.229 0-61.888l41.362 41.362c-12.662 8.948-26.613 15.876-41.362 20.526zm0-194.315c0-11.163 0-80.694 0-91.887 79.233 24.972 123.545 110.122 97.637 189.525-11.67-11.669-85.927-85.928-97.637-97.638z" fill="#32bea6"/></g></svg>