<svg id="Capa_1" enable-background="new 0 0 510 510" height="512" viewBox="0 0 510 510" width="512" xmlns="http://www.w3.org/2000/svg"><g><path d="m240.102 71.854-15.102-7.487c0-15.155 0-49.201 0-64.367h30l10 30-10 30z" fill="#f0e6e6"/><path d="m270.429 71.938 14.571-7.571c0-15.155 0-49.201 0-64.367-10.492 0-19.508 0-30 0v60z" fill="#d2cbd7"/><path d="m151.076 150 51.962 10 51.962-10 10-45-10-45c-53.116 0-96.667 39.496-103.924 90z" fill="#ffda2d"/><path d="m255 60v90l51.962 10 51.962-10c-7.264-50.557-50.86-90-103.924-90z" fill="#fdb504"/><path d="m120 150v60l67.5 10 67.5-10 10-30-10-30c-16.333 0-118.559 0-135 0z" fill="#f0e6e6"/><path d="m390 150c-16.333 0-118.559 0-135 0v60l67.5 10 67.5-10c0-7.259 0-52.693 0-60z" fill="#d2cbd7"/><path d="m435 210 37.5 10 37.5-10c0-10.128 0-139.871 0-150-20.194 0-63.236 0-75 0z" fill="#d2cbd7"/><path d="m75 210-37.5 10-37.5-10v-150h75z" fill="#f0e6e6"/><path d="m0 285v45l10 67.5-10 52.237v60.263h180.001l74.999-180 10-23-10-22-127.5-10z" fill="#f0e6e6"/><path d="m510 285-127.5-10-127.5 10v45.332l75 179.668h180v-60.263l-10-57.237 10-62.5z" fill="#d2cbd7"/><path d="m0 210v75h255l10-37.5-10-37.5c-7.193 0-247.807 0-255 0z" fill="#fff7f4"/><path d="m510 210c-7.193 0-247.807 0-255 0v75h255c0-20.194 0-63.236 0-75z" fill="#f0e6e6"/><path d="m180 405v105h30l45-150 10-11.814-10-18.186c-41.353 0-75 33.644-75 75z" fill="#0a617d"/><path d="m330 405c0-20.678-8.411-39.428-21.992-53.008-13.58-13.581-32.33-21.992-53.008-21.992v30l45 150h30c0-28.278 0-88.527 0-105z" fill="#08475e"/><path d="m210 405v105h45l10-75-10-75c-24.811 0-45 20.186-45 45z" fill="#ffda2d"/><path d="m300 405c0-24.813-20.186-45-45-45v150h45c0-28.278 0-88.527 0-105z" fill="#fdb504"/><path d="m360 450h150v-30l-10-30 10-30v-30c-10.128 0-139.871 0-150 0z" fill="#08475e"/><path d="m390 420h120c0-7.259 0-52.693 0-60-14.518 0-105.386 0-120 0z" fill="#6aa9ff"/><path d="m150 450h-150v-30l10-30-10-30v-30h150z" fill="#0a617d"/><path d="m0 360h120v60h-120z" fill="#7ed8f6"/></g></svg>