<svg id="Capa_1" enable-background="new 0 0 510 510" height="512" viewBox="0 0 510 510" width="512" xmlns="http://www.w3.org/2000/svg"><g><path d="m364.375 212.375-2.294-17.455c15.538-1.07 27.919-14.042 27.919-29.92 0-12.406 5.047-23.656 13.195-31.805 17.591-17.59 46.008-17.601 63.609 0 8.149 8.149 13.196 19.399 13.196 31.805v75c0 16.54 13.456 30 30 30v30c-33.082 0-60-26.915-60-60 0-20.194 0-63.236 0-75 0-8.27-6.729-15-15-15s-15 6.729-15 15c0 24.92-15.351 46.671-37.632 55.658z" fill="#f77e01"/><path d="m255 60 10-30-10-30c-30.613 0-52.431 30.135-42.689 59.242 1.551 4.636 3.838 8.938 6.721 12.767l17.004 1.064z" fill="#0a617d"/><path d="m273.964 73.072 17.005-1.064c2.883-3.829 5.169-8.131 6.721-12.767 9.752-29.151-12.117-59.241-42.69-59.241v60z" fill="#08475e"/><path d="m195 120 30 10 30-10 10-30-10-30c-33.083 0-60 26.915-60 60z" fill="#fdb504"/><path d="m255 60v60l30 10 30-10c0-33.082-26.915-60-60-60z" fill="#f77e01"/><path d="m152.081 190.867-40.868-40.867c-9.673-9.673-22.533-15-36.213-15-41.355 0-75 33.645-75 75v15h15c25.012 0 93.015 45 93.015 45l31.485-30z" fill="#fdb504"/><path d="m255 450 10 30-10 30c-10.889 0-79.04 0-90 0 0-10.492 0-19.508 0-30 21.984 0 40.498-15.904 44.283-37.054l22.586-4.709z" fill="#fdb504"/><path d="m255.005 450c-.001 0-.002 0-.003 0 0 0-.001 0-.002 0v60h90c0-10.492 0-19.508 0-30-22.017 0-40.541-15.946-44.297-37.129l-22.572-6.478z" fill="#f77e01"/><path d="m255 240 10-60-10-60c-73.942 0-42.041.048-60 .08v15c0 15.834-8.215 30.359-21.592 39.044-34.4 22.336-57.509 56.941-65.393 95.876l93.985 10z" fill="#ffda2d"/><path d="m401.984 270c-7.883-38.912-31.027-73.694-65.729-96.094-12.998-8.392-21.255-22.741-21.255-38.82 0-5.276 0-9.81 0-15.086-7.259 0-52.693 0-60 0v120l60 42z" fill="#fdb504"/><path d="m107.977 330c13.742 68.221 74.041 120 147.023 120 0-10.889 0-79.039 0-90l-60.667-42.667z" fill="#ffda2d"/><path d="m255 360v90c1.426-.263 49.771 2.994 94.824-33.857 26.265-21.484 45.137-51.686 52.16-86.143l-93.484-9.75z" fill="#fdb504"/><path d="m203.047 270c-11.55 0-83.451 0-95.032 0-4.043 19.971-3.983 40.413-.038 60h95.07c10.614 18.341 30.213 30 51.953 30l10-60-10-60c-21.708 0-41.322 11.631-51.953 30z" fill="#0a617d"/><path d="m306.953 330h95.031c3.99-19.584 4.052-40.011 0-60-11.553 0-83.45 0-95.031 0-10.613-18.34-30.212-30-51.953-30v120c21.707 0 41.322-11.631 51.953-30z" fill="#08475e"/></g></svg>