<svg id="Capa_1" enable-background="new 0 0 497.131 497.131" height="512" viewBox="0 0 497.131 497.131" width="512" xmlns="http://www.w3.org/2000/svg"><g><path d="m182.014 473.443h-24.755c-7.709 0-13.958-6.249-13.958-13.958v-421.839c0-7.709 6.249-13.958 13.958-13.958h24.755l13.886 224.878z" fill="#7b7179"/><path d="m483.173 473.443h-301.159v-449.755h301.159c7.709 0 13.958 6.249 13.958 13.958v421.839c0 7.709-6.249 13.958-13.958 13.958z" fill="#8b8089"/><path d="m483.173 23.688h-16.558c7.709 0 13.958 6.249 13.958 13.958v421.839c0 7.709-6.249 13.958-13.958 13.958h16.558c7.709 0 13.958-6.249 13.958-13.958v-421.839c0-7.709-6.249-13.958-13.958-13.958z" fill="#7b7179"/><path d="m213.196 340.946v-279.08c0-3.87 3.13-7 6.99-7h238.77c3.86 0 7 3.13 7 7v373.4c0 3.87-3.14 7-7 7h-238.77c-3.86 0-6.99-3.13-6.99-7v-48.26z" fill="#fff3de"/><g><path d="m144.884 303.164c-1.919 0-3.839-.732-5.303-2.196l-42.676-42.676c-2.929-2.93-2.929-7.678 0-10.607 2.929-2.928 7.678-2.928 10.606 0l42.676 42.676c2.929 2.93 2.929 7.678 0 10.607-1.464 1.464-3.383 2.196-5.303 2.196z" fill="#ab695d"/></g><g><path d="m289.806 413.246h-41.42c-4.142 0-7.5-3.357-7.5-7.5s3.358-7.5 7.5-7.5h41.42c4.143 0 7.5 3.357 7.5 7.5s-3.358 7.5-7.5 7.5z" fill="#6c7fd8"/></g><g><path d="m414.111 413.246h-36.42c-4.143 0-7.5-3.357-7.5-7.5s3.357-7.5 7.5-7.5h36.42c4.143 0 7.5 3.357 7.5 7.5s-3.358 7.5-7.5 7.5z" fill="#6c7fd8"/></g><path d="m458.956 54.866h-21.558c3.86 0 7 3.13 7 7v373.4c0 3.87-3.14 7-7 7h21.558c3.86 0 7-3.13 7-7v-373.4c0-3.87-3.14-7-7-7z" fill="#ffe5c2"/><g><path d="m108.031 247.166-11.645 11.645c-3.145 3.145-8.244 3.145-11.389 0l-82.638-82.638c-3.145-3.145-3.145-8.244 0-11.389l11.645-11.645c3.145-3.145 8.244-3.145 11.389 0l82.638 82.638c3.145 3.145 3.145 8.244 0 11.389z" fill="#c38f86"/><path d="m108.031 235.777-82.638-82.638c-3.145-3.145-8.244-3.145-11.389 0l-6.216 6.216 76.422 76.422c3.145 3.145 3.145 8.244 0 11.389l-5.429 5.429 6.216 6.216c3.145 3.145 8.244 3.145 11.389 0l11.645-11.645c3.145-3.145 3.145-8.244 0-11.389z" fill="#b87d72"/><path d="m250.429 378.175 4.262 16.77c1.618 6.365-4.161 12.144-10.526 10.526l-16.77-4.262-88.109-88.109c-3.269-3.269-3.269-8.568 0-11.837l11.197-11.197c3.269-3.269 8.568-3.269 11.837 0z" fill="#c38f86"/><path d="m254.692 394.945-4.262-16.77-88.109-88.109c-3.269-3.269-8.568-3.269-11.837 0l-5.992 5.992 82.117 82.117 4.262 16.77c.641 2.521.109 4.941-1.148 6.855l14.443 3.671c6.364 1.618 12.143-4.161 10.526-10.526z" fill="#b87d72"/></g><path d="m416.187 198.019c-6.163 10.444-6.163 23.432 0 33.88 2.263 3.836 3.595 8.149 3.595 12.603v81.326c0 9.684-7.85 17.534-17.534 17.534h-125.351c-9.684 0-17.534-7.85-17.534-17.534v-81.326c0-4.454 1.332-8.767 3.595-12.604 6.163-10.446 6.163-23.431 0-33.878-2.263-3.836-3.595-8.149-3.595-12.604v-1.96c0-21.771 10.748-42.078 28.748-54.322l41.602-28.291c5.95-4.047 13.769-4.047 19.72 0l41.602 28.291c18 12.245 28.748 32.552 28.748 54.322v1.961c-.001 4.455-1.333 8.767-3.596 12.602z" fill="#97da7b"/><path d="m419.782 183.458c0-21.771-10.748-42.078-28.748-54.323l-41.602-28.291c-5.95-4.047-13.769-4.046-19.719 0l-.919.625 40.682 27.666c18 12.245 28.748 32.552 28.748 54.323v1.961c0 4.453-1.332 8.766-3.595 12.601-6.163 10.444-6.163 23.432 0 33.88 2.263 3.836 3.595 8.149 3.595 12.603v81.326c0 9.684-7.85 17.534-17.534 17.534h21.558c9.683 0 17.533-7.85 17.533-17.533v-81.326c0-4.454-1.332-8.767-3.595-12.603-6.163-10.447-6.164-23.435 0-33.88 2.263-3.835 3.595-8.148 3.595-12.601v-1.962z" fill="#80d261"/><path d="m339.572 265.695-34.975-34.975c-3.184-3.184-3.184-8.347 0-11.531l34.975-34.975 34.975 34.975c3.184 3.184 3.184 8.347 0 11.531z" fill="#6c7fd8"/><path d="m374.548 219.189-34.975-34.975-11.511 11.511 23.464 23.464c3.184 3.184 3.184 8.347 0 11.531l-23.464 23.464 11.511 11.511 34.975-34.975c3.184-3.184 3.184-8.347 0-11.531z" fill="#5a74d1"/><path d="m339.572 184.314-18.237-18.237c-3.184-3.184-3.184-8.347 0-11.531l12.471-12.471c3.184-3.184 8.347-3.184 11.531 0l12.471 12.471c3.184 3.184 3.184 8.347 0 11.531z" fill="#6c7fd8"/><path d="m333.807 307.835-12.471-12.471c-3.184-3.184-3.184-8.347 0-11.531l18.237-18.237 18.237 18.237c3.184 3.184 3.184 8.347 0 11.531l-12.471 12.471c-3.185 3.184-8.348 3.184-11.532 0z" fill="#6c7fd8"/><g><path d="m334.107 413.248c-.856 0-1.727-.147-2.577-.459-3.89-1.424-5.889-5.731-4.465-9.621l10.93-29.853c1.424-3.89 5.734-5.889 9.621-4.465 3.89 1.424 5.889 5.731 4.465 9.621l-10.93 29.853c-1.113 3.039-3.986 4.924-7.044 4.924z" fill="#5a74d1"/></g></g></svg>