<svg id="Capa_1" enable-background="new 0 0 510 510" height="512" viewBox="0 0 510 510" width="512" xmlns="http://www.w3.org/2000/svg"><g><g fill="#f0e6e6"><path d="m350.833 210.997-21.567-1.616c-.337 6.745-11.66 233.15-11.999 239.927-1.662 33.206 24.747 60.692 57.733 60.692l10-142.5-10-142.5z"/><path d="m360 0v105l7.5 10 7.5-10 10-52.5-10-52.5c-5.246 0-9.754 0-15 0z"/><path d="m126.121 226.786-22.041.291c-.649 12.329-11.044 209.841-11.694 222.197-1.753 33.314 24.764 60.726 57.614 60.726 0-5.167 0-8.935 0-14.237l10-127.882-10-127.881z"/></g><path d="m60 139.864c0 55.815 36.892 100.136 90 100.136l10-120-10-120c-56.14 0-90 85.898-90 139.864z" fill="#fff7f4"/><path d="m330 105-15 10-15-10c0-28.278 0-88.527 0-105h30z" fill="#f0e6e6"/><path d="m450 105-15 10-15-10c0-28.278 0-88.527 0-105h30z" fill="#d2cbd7"/><path d="m173.879 226.786 22.041.291c.78 14.834 10.894 207.007 11.693 222.197 1.72 32.605-24.071 60.726-57.613 60.726 0-12.201 0-260.007 0-270z" fill="#d2cbd7"/><path d="m217.769 52.911c-14.189-27.441-37.025-52.911-67.769-52.911v240c53.182 0 90-44.398 90-100.136 0-28.109-9.031-61.427-22.231-86.953z" fill="#f0e6e6"/><path d="m390 0c-5.246 0-9.754 0-15 0v105l7.5 10 7.5-10c0-28.278 0-88.527 0-105z" fill="#d2cbd7"/><path d="m375 105c-20.194 0-63.236 0-75 0v45c0 41.354 33.644 75 75 75l10-55.5z" fill="#fff7f4"/><path d="m399.167 210.997 21.567-1.616c.337 6.745 11.66 233.15 11.999 239.927 1.639 32.763-24.315 60.692-57.733 60.692 0-15.815 0-269.185 0-285z" fill="#d2cbd7"/><path d="m25.606 4.394c-7.419 7.419-13.794 13.794-21.213 21.213 7.494 7.492 258.115 258.114 265.607 265.606l10-15.213-10-27.213c-12.134-12.134-232.163-232.163-244.394-244.393z" fill="#fe4a4a"/><path d="m505.606 484.394c-6.646-6.646-228.96-228.96-235.606-235.606v21.212 21.213c6.036 6.036 208.342 208.342 214.394 214.394 7.419-7.419 13.794-13.794 21.212-21.213z" fill="#e80b6a"/><path d="m375 105v120c41.353 0 75-33.644 75-75 0-14.981 0-30.019 0-45-20.194 0-63.236 0-75 0z" fill="#f0e6e6"/></g></svg>