<svg id="Capa_1" enable-background="new 0 0 497 497" height="512" viewBox="0 0 497 497" width="512" xmlns="http://www.w3.org/2000/svg"><g><g><path d="m42.138 76.915c-3.821 0-7.087-2.907-7.457-6.789-.394-4.124 2.631-7.785 6.754-8.178l54.388-5.202c4.124-.402 7.784 2.63 8.178 6.754s-2.631 7.785-6.754 8.178l-54.389 5.202c-.242.024-.482.035-.72.035z" fill="#c38f86"/></g><g><path d="m356.633 337.653c-1.664-.245-3.311-.791-4.867-1.66l-130.963-73.141c-.541-.303-1.063-.64-1.56-1.011l-93.402-69.523-50.016-17.075c-3.433-1.172-6.291-3.609-7.989-6.816l-66.176-124.967c-3.683-6.955-1.03-15.578 5.924-19.261 6.957-3.683 15.579-1.029 19.261 5.924l58.725 110.897c3.088 5.831 8.284 10.265 14.528 12.396l37.063 12.653c1.401.478 2.717 1.171 3.904 2.054l94.446 70.3 129.806 72.495c6.788 3.791 9.632 12.321 6.035 19.214-2.9 5.56-8.904 8.378-14.719 7.521z" fill="#fed2a4"/></g><path d="m365.317 310.919-129.806-72.495-94.446-70.3c-1.187-.883-2.504-1.577-3.904-2.054l-37.063-12.654c-6.244-2.132-11.44-6.565-14.528-12.396l-58.725-110.897c-3.682-6.954-12.305-9.607-19.261-5.924-.495.262-.963.556-1.414.866 1.83 1.26 3.397 2.959 4.509 5.058l58.726 110.897c3.088 5.831 8.284 10.265 14.528 12.396l37.063 12.654c1.401.478 2.717 1.171 3.904 2.054l94.446 70.3 129.806 72.495c6.788 3.791 9.632 12.321 6.035 19.214-1.131 2.168-2.739 3.913-4.619 5.191l1.198.669c1.556.868 3.203 1.415 4.867 1.66 5.815.857 11.82-1.961 14.72-7.52 3.597-6.893.753-15.423-6.036-19.214z" fill="#ffbd86"/><g><path d="m133.88 236.9c0 1.1-.03 2.2-.09 3.31l-5.76 101.28c-.9 15.94-10.56 30.08-25.08 36.72l-9.64 4.41c-11.38 5.2-24.45 5.2-35.83 0l-9.63-4.41c-14.53-6.64-24.19-20.78-25.09-36.72l-5.75-101.28c-1.26-22.14 10.11-43.09 29.37-54.09 6.74-3.86 14.06-6.26 21.52-7.23 2.49-.32 5-.48 7.5-.48 2.89 0 5.79.21 8.65.65 7.06 1.05 13.97 3.41 20.36 7.06 18.3 10.45 29.47 29.88 29.47 50.78z" fill="#c38f86"/></g><path d="m104.415 186.12c-12.588-7.194-27.181-9.344-40.973-6.466 5.908 1.233 11.671 3.384 17.064 6.466 19.255 11.004 30.63 31.952 29.372 54.094l-5.752 101.275c-.906 15.947-10.562 30.082-25.087 36.725l-9.638 4.408c-1.941.888-3.935 1.612-5.958 2.197 9.833 2.842 20.434 2.118 29.868-2.197l9.638-4.408c14.525-6.643 24.181-20.779 25.087-36.725l5.752-101.275c1.256-22.142-10.118-43.09-29.373-54.094z" fill="#b87d72"/><g><path d="m270.34 324.82c0 1.1-.03 2.22-.09 3.33l-5.75 101.28c-.91 15.94-10.57 30.08-25.09 36.72l-9.64 4.41c-11.37 5.2-24.45 5.2-35.82 0l-9.64-4.41c-14.53-6.64-24.18-20.78-25.09-36.72l-5.75-101.28c-1.26-22.14 10.11-43.09 29.37-54.09 6.74-3.86 14.06-6.26 21.52-7.23 2.49-.32 5-.48 7.5-.48 2.89 0 5.78.21 8.65.65 7.06 1.05 13.97 3.4 20.37 7.06 18.28 10.45 29.46 29.87 29.46 50.76z" fill="#c38f86"/></g><path d="m240.877 274.057c-12.588-7.194-27.181-9.344-40.973-6.465 5.909 1.233 11.671 3.384 17.064 6.465 19.255 11.004 30.63 31.952 29.372 54.094l-5.752 101.275c-.906 15.946-10.562 30.082-25.087 36.725l-9.638 4.408c-1.941.888-3.935 1.612-5.958 2.197 9.833 2.842 20.434 2.118 29.868-2.197l9.638-4.408c14.525-6.643 24.181-20.779 25.087-36.725l5.752-101.275c1.256-22.142-10.118-43.09-29.373-54.094z" fill="#b87d72"/><g><path d="m408.7 203.88-4.41 9.63c-6.64 14.53-20.77 24.18-36.72 25.09l-101.28 5.75c-22.14 1.26-43.09-10.11-54.09-29.37-3.86-6.75-6.27-14.07-7.23-21.53-.32-2.49-.48-4.99-.48-7.49 0-2.89.21-5.79.65-8.65 1.05-7.06 3.41-13.97 7.06-20.37 10.45-18.28 29.87-29.46 50.76-29.46 1.1 0 2.22.03 3.33.09l101.28 5.75c15.95.91 30.08 10.57 36.72 25.09l4.41 9.64c5.2 11.37 5.2 24.45 0 35.83z" fill="#c38f86"/></g><path d="m408.702 168.05-4.408-9.638c-6.643-14.525-20.779-24.181-36.725-25.087l-12.13-.689c10.903 4.065 20.001 12.7 24.946 24.216l4.408 10.267c5.202 12.117 5.202 26.046 0 38.163l-4.408 10.267c-4.736 11.032-13.291 19.404-23.586 23.664l10.77-.612c15.947-.906 30.082-10.562 36.725-25.087l4.408-9.638c5.203-11.376 5.203-24.451 0-35.826z" fill="#b87d72"/><g><path d="m496.861 371.156-.824 10.425c-.972 12.304-6.979 23.918-16.458 31.822l-8.031 6.697c-12.104 10.093-28.098 12.692-41.552 6.754l-85.446-37.716c-18.681-8.246-30.584-27.207-30.735-48.964-.141-20.317 9.999-39.924 26.661-51.55 17.842-12.45 40.195-13.695 57.721-3.215l80.161 47.935c12.622 7.547 19.744 22.101 18.503 37.812z" fill="#ffe177"/></g><path d="m478.358 333.343-80.161-47.935c-11.433-6.836-24.919-8.68-37.867-5.682 4.858 1.161 9.56 3.052 13.958 5.682l80.161 47.935c12.622 7.548 19.743 22.102 18.502 37.813l-.824 10.425c-.972 12.304-6.979 23.918-16.458 31.822l-8.031 6.697c-4.4 3.669-9.317 6.334-14.437 7.972 12.731 4.249 27.189 1.331 38.346-7.972l8.031-6.697c9.479-7.904 15.486-19.518 16.458-31.822l.823-10.425c1.243-15.711-5.879-30.265-18.501-37.813z" fill="#ffd15b"/><path d="m85.14 67.496c-1.4-11.655 7.146-22.146 18.843-23.133l98.731-8.333c16.671-1.407 33.405 1.839 48.34 9.377l47.604 24.025c5.154 2.601 5.195 9.946.071 12.605-15.212 7.893-33.026 9.084-49.153 3.287l-14.677-5.276c-13.236-4.758-27.4-6.363-41.366-4.685l-85.335 10.247c-11.369 1.366-21.693-6.744-23.058-18.114z" fill="#97da7b"/><g><path d="m298.658 69.433-47.604-24.025c-14.935-7.538-31.67-10.784-48.34-9.377l-4.871.411c10.161 1.296 20.075 4.309 29.302 8.966l47.604 24.025c5.154 2.601 5.195 9.946.071 12.605-5.221 2.709-10.752 4.609-16.413 5.727 13.614 2.704 27.843.748 40.322-5.727 5.124-2.66 5.083-10.004-.071-12.605z" fill="#80d261"/></g><path d="m449.161 380.591c-2.865 5.006-8.521 7.727-14.22 6.841l-13.095-2.035c-19.555-3.039-37.298-13.194-49.823-28.516l-8.387-10.26c-3.651-4.466-4.169-10.72-1.304-15.726 2.865-5.006 8.521-7.727 14.22-6.841l13.095 2.035c19.555 3.039 37.298 13.194 49.823 28.516l8.387 10.26c3.651 4.466 4.17 10.72 1.304 15.726z" fill="#c38f86"/><path d="m447.857 364.865-8.387-10.26c-12.525-15.322-30.268-25.477-49.823-28.516l-13.095-2.035c-3.534-.549-7.05.291-9.895 2.2 19.19 3.211 36.576 13.271 48.904 28.351l8.387 10.26c3.65 4.466 4.169 10.72 1.304 15.726-1.088 1.902-2.581 3.472-4.325 4.641.307.051.611.117.919.165l13.095 2.035c5.699.886 11.355-1.835 14.22-6.841s2.347-11.26-1.304-15.726z" fill="#b87d72"/><g><path d="m96.73 311.15c-1.06.52-2.19.77-3.3.77-2.77 0-5.44-1.54-6.74-4.2-5.67-11.54-4.35-21.87-2.83-33.83.89-6.96 1.9-14.84 1.93-24.81.12-33.96-16.87-66.87-17.04-67.19-.5-.96-.78-1.98-.85-3 2.49-.32 5-.48 7.5-.48 2.89 0 5.79.21 8.65.65 4.88 10.51 16.85 39.45 16.74 70.08-.04 10.89-1.15 19.63-2.05 26.65-1.42 11.11-2.27 17.82 1.41 25.32 1.83 3.71.3 8.21-3.42 10.04z" fill="#ab695d"/></g><g><path d="m59.922 354.829c-2.751 0-5.4-1.52-6.714-4.148-10.262-20.522-9.412-53.666-9.371-55.067.122-4.139 3.578-7.37 7.718-7.276 4.14.122 7.397 3.576 7.276 7.716-.012.423-.755 30.823 7.793 47.921 1.853 3.704.351 8.209-3.354 10.062-1.077.536-2.221.792-3.348.792z" fill="#ab695d"/></g><g><path d="m233.19 399.08c-1.06.53-2.19.77-3.3.77-2.77 0-5.43-1.54-6.74-4.19-5.67-11.54-4.35-21.87-2.83-33.83.89-6.96 1.9-14.84 1.93-24.81.13-33.97-16.87-66.87-17.04-67.2-.5-.96-.78-1.98-.85-2.99 2.49-.32 5-.48 7.5-.48 2.89 0 5.78.21 8.65.65 4.88 10.51 16.85 39.45 16.74 70.07-.04 10.89-1.15 19.63-2.05 26.65-1.41 11.12-2.27 17.83 1.41 25.32 1.83 3.72.3 8.22-3.42 10.04z" fill="#ab695d"/></g><g><path d="m196.384 442.765c-2.751 0-5.4-1.52-6.714-4.148-10.262-20.522-9.412-53.665-9.371-55.066.122-4.14 3.537-7.392 7.718-7.276 4.14.122 7.396 3.576 7.276 7.716-.011.394-.759 30.814 7.793 47.92 1.853 3.704.351 8.209-3.354 10.062-1.077.536-2.221.792-3.348.792z" fill="#ab695d"/></g><g><path d="m315.211 178.813c-4.926 0-9.925-.638-15.246-1.316-1.305-.167-2.65-.339-4.045-.508-4.111-.5-7.04-4.238-6.54-8.351.501-4.113 4.243-7.037 8.351-6.54 1.424.173 2.8.349 4.132.519 11.119 1.419 17.829 2.275 25.326-1.409 3.718-1.825 8.212-.292 10.039 3.424 1.826 3.717.294 8.212-3.424 10.039-6.408 3.148-12.444 4.142-18.593 4.142z" fill="#ab695d"/></g><g><path d="m262.42 176.27c-28.94 3.19-54.21 16.21-54.46 16.34-.95.5-1.97.77-2.99.84-.32-2.49-.48-4.99-.48-7.49 0-2.89.21-5.79.65-8.65 8.83-4.09 30.69-13.2 55.64-15.95 4.14-.45 7.82 2.52 8.27 6.64.46 4.11-2.51 7.82-6.63 8.27z" fill="#ab695d"/></g><g><path d="m324.546 217.555c-1.624 0-2.632-.027-2.853-.033-4.14-.122-7.397-3.577-7.276-7.718.12-4.064 3.453-7.279 7.493-7.279.074 0 .148.001.223.003.416.016 30.822.755 47.92-7.793 3.704-1.85 8.211-.351 10.062 3.354 1.853 3.704.351 8.209-3.354 10.062-17.289 8.644-43.535 9.404-52.215 9.404z" fill="#ab695d"/></g></g></svg>