<svg id="Capa_1" enable-background="new 0 0 510 510" height="512" viewBox="0 0 510 510" width="512" xmlns="http://www.w3.org/2000/svg"><g><path d="m45 178.2-15-15v-32.6l15-12.4 15 12.4v32.6z" fill="#ffccbd"/><path d="m162.4 448.2c-6.2 17.5-22.9 30-42.4 30v30h135l10-30-10-30-46.3-10z" fill="#9d6b5d"/><path d="m390 478.2c-19.5 0-36.2-12.5-42.4-30l-46.3-10-46.3 10v60h135c0-10.5 0-19.5 0-30z" fill="#895050"/><path d="m45 133.2c-24.8 0-45-20.2-45-45 0-6.2 1.8-17.4 17-43.7 9.6-16.5 17.2-27 28-42.7 10.8 15.7 18.4 26.1 28 42.7 15.2 26.3 17 37.5 17 43.7 0 24.8-20.2 45-45 45z" fill="#ffda2d"/><path d="m30 295.6v32.6c0 66.2 53.8 120 120 120h105l10-75-10-75-105-10z" fill="#895050"/><path d="m480 328.2c0-11.4 0-21.2 0-32.6-2.4.8-120-7.4-120-7.4l-105 10v150h105c66.2 0 120-53.8 120-120z" fill="#624a4f"/><g fill="#ffda2d"><path d="m240 343.2v45h15l10-22.5-10-22.5c-5.2 0-9.8 0-15 0z"/><path d="m180 343.2h30v45h-30z"/><path d="m120 343.2h30v30h-30z"/></g><path d="m255 343.2v45h15c0-15 0-30 0-45-5.2 0-9.8 0-15 0z" fill="#fdb504"/><path d="m300 343.2h30v45h-30z" fill="#fdb504"/><path d="m360 343.2h30v30h-30z" fill="#fdb504"/><path d="m172.5 223.2c-18.8 0-36.7-9-48-24-16.9-22.5-43.8-36-72-36-17.5 0-35 0-52.5 0v90c0 24.8 20.2 45 45 45h210l10-37.5-10-37.5c-10 0-72.5 0-82.5 0z" fill="#9d6b5d"/><path d="m510 253.2c0-10.5 0-19.5 0-30-7.2 0-247.8 0-255 0v75h210c12.4 0 23.7-5 31.8-13.2 8.2-8.1 13.2-19.4 13.2-31.8z" fill="#895050"/></g></svg>