<svg id="Capa_1" enable-background="new 0 0 497 497" height="512" viewBox="0 0 497 497" width="512" xmlns="http://www.w3.org/2000/svg"><g><path d="m160.5 158.51c-20.002 0-36.213-16.221-36.213-36.223s16.21-36.213 36.213-36.213l5 36.926z" fill="#fed2a4"/><path d="m142.393 90.93v62.722c5.327 3.084 11.508 4.858 18.106 4.858l5-35.51-5-36.926c-6.598 0-12.778 1.773-18.106 4.856z" fill="#ffbd86"/><path d="m336.5 158.51c20.002 0 36.213-16.221 36.213-36.223s-16.21-36.213-36.213-36.213l-5.667 36.218z" fill="#fed2a4"/><path d="m336.5 86.074-2 2.301 2 2.555c10.821 6.261 18.106 17.954 18.106 31.357 0 13.404-7.285 25.101-18.106 31.365l-2 2.223 2 2.635c20.002 0 36.213-16.221 36.213-36.223s-16.21-36.213-36.213-36.213z" fill="#ffbd86"/><path d="m83.081 497h59.338l7.581-113-7.581-117.352-24.219 7.55c-31.058 9.682-52.213 38.435-52.213 70.968v134.741c.001 9.44 7.654 17.093 17.094 17.093z" fill="#fed2a4"/><path d="m120.051 383.58v113.42h22.368v-126.781c0-4.228-4.099-7.243-8.135-5.985-8.466 2.639-14.233 10.477-14.233 19.346z" fill="#ffbd86"/><path d="m262.596 243.947c40.816 0 73.904-33.088 73.904-73.904v-13.992-93.053l-90.831-5.498-85.17 5.498v93.053 13.992c0 40.816 33.088 73.904 73.904 73.904z" fill="#fed2a4"/><path d="m314.132 62.998v93.053 13.992c0 40.816-33.088 73.904-73.904 73.904h22.368c40.816 0 73.904-33.088 73.904-73.904v-13.992-93.053l-12-5.498z" fill="#ffbd86"/><path d="m336.5 52.651v10.348h-174.692c-12.757 0-23.098-10.341-23.098-23.098v-16.802c0-13.427 11.409-24.024 24.799-23.035l133.284 9.84c22.387 1.652 39.707 20.298 39.707 42.747z" fill="#b87d72"/><path d="m296.793 9.904-133.284-9.84c-3.029-.224-5.954.151-8.671 1.011l119.586 8.828c22.388 1.653 39.708 20.299 39.708 42.747v10.348h22.368v-10.347c0-22.449-17.32-41.095-39.707-42.747z" fill="#ab695d"/><path d="m354.59 266.65v230.35h-212.18v-230.35l58.69-13.54h94.8z" fill="#fed2a4"/><path d="m332.22 266.65v230.35h-189.81v-94.01l125.16-149.88h5.96z" fill="#ffbd86"/><path d="m354.581 497h59.338c9.44 0 17.094-7.653 17.094-17.094v-134.741c0-32.533-21.154-61.286-52.213-70.968l-24.219-7.55-10.579 117.853z" fill="#fed2a4"/><path d="m378.8 274.198-24.219-7.55-3.748 3.27 3.748 3.703 1.851.577c31.058 9.682 52.213 38.435 52.213 70.968v134.741c0 9.44-7.653 17.094-17.094 17.094h22.368c9.441 0 17.094-7.653 17.094-17.094v-134.742c-.001-32.532-21.155-61.285-52.213-70.967z" fill="#ffbd86"/><path d="m354.59 266.65v230.35h-212.18v-67.23l147.53-176.66h5.96l10.86 2.5 15.23 3.52 7.18 1.65 14.64 3.38z" fill="#fff3de"/><path d="m295.902 253.105h-5.959l-2.652 3.175 44.927 10.368v230.352h22.368v-230.352z" fill="#ffe5c2"/><path d="m289.99 260.35-32.922 8.482c-5.62 1.448-11.516 1.448-17.137 0l-32.922-8.482c-16.215-4.178-27.547-18.799-27.547-35.544v-5.333l22.156 5.84c6.628 1.747 13.69.001 18.741-4.633l17.292-15.868c1.52-1.395 3.507-2.168 5.57-2.168h11.225c1.995 0 3.923.724 5.425 2.038l18.588 16.265c5.113 4.474 12.138 6.067 18.681 4.235l20.396-5.709v5.333c.001 16.744-11.331 31.366-27.546 35.544z" fill="#b87d72"/><g fill="#ab695d"><path d="m256.092 220.946c5.113 4.474 12.138 6.067 18.681 4.235l6.915-1.936c-1.137-.654-2.221-1.418-3.228-2.3l-18.588-16.265c-1.502-1.314-3.429-2.038-5.425-2.038h-11.225c-2.063 0-4.05.774-5.57 2.168z"/><path d="m297.141 225.182c-.659.184-1.323.325-1.989.44-.362 16.401-11.579 30.618-27.53 34.728l-30.306 7.808 2.616.674c5.62 1.448 11.516 1.448 17.137 0l32.922-8.482c16.215-4.178 27.547-18.799 27.547-35.544v-5.333z"/></g><g><path d="m240.021 155.803c-.54 0-1.087-.059-1.636-.181-4.043-.9-6.591-4.907-5.691-8.951l5.79-26.011c.9-4.043 4.904-6.59 8.95-5.691 4.043.9 6.591 4.907 5.691 8.951l-5.79 26.011c-.777 3.494-3.877 5.872-7.314 5.872z" fill="#ffbd86"/></g><g><path d="m343.81 264.16c-.04.18-.09.37-.15.56l-52.71 168.31c-1 3.21-3.96 5.26-7.16 5.26-.74 0-1.49-.11-2.24-.34-3.95-1.24-6.15-5.45-4.91-9.4l52.53-167.77z" fill="#ffe5c2"/></g><path d="m321.99 259.13-71.12 126.37c-1.38 2.45-3.92 3.83-6.55 3.83-1.24 0-2.5-.32-3.67-.97-3.61-2.03-4.89-6.61-2.85-10.21l68.96-122.54z" fill="#ffe5c2"/></g></svg>