<svg id="Capa_1" enable-background="new 0 0 510 510" height="512" viewBox="0 0 510 510" width="512" xmlns="http://www.w3.org/2000/svg"><g><path d="m255 405 10 52.5-10 52.5c-13.984 0-238.048 0-252.064 0 2.645-4.232 91.106-145.771 93.75-150h109.925l31.139 12z" fill="#83d947"/><path d="m272.833 375 30.841-15h109.639c2.645 4.232 91.106 145.771 93.75 150-13.984 0-238.047 0-252.064 0 0-28.278 0-88.527 0-105z" fill="#32bea6"/><path d="m90 165c0 81.832 103.083 185.696 165 240l10-202.5-10-202.5c-91.124 0-165 73.87-165 165z" fill="#9d6b5d"/><path d="m420 165c0-91.126-73.871-165-165-165v405c.083-.1 165-136.179 165-240z" fill="#895050"/><path d="m218.787 98.787c-13.565 0-25.222 0-38.787 0v38.787c-10.456 10.455-25.726 25.727-36.213 36.213 11.526 11.526 24.687 24.688 36.213 36.213v38.787h38.787c11.526 11.526 24.687 24.688 36.213 36.213l10-111.213-10-111.213c-10.456 10.455-25.726 25.727-36.213 36.213z" fill="#ffda2d"/><path d="m291.213 248.787h38.787c0-13.565 0-25.222 0-38.787 3.736-3.736 32.547-32.548 36.213-36.213-3.834-3.834-32.436-32.436-36.213-36.213 0-13.565 0-25.222 0-38.787-13.565 0-25.222 0-38.787 0-3.834-3.834-32.436-32.436-36.213-36.213v222.426c3.736-3.736 32.547-32.548 36.213-36.213z" fill="#fdb504"/></g></svg>