<svg id="Capa_1" enable-background="new 0 0 493.732 493.732" height="512" viewBox="0 0 493.732 493.732" width="512" xmlns="http://www.w3.org/2000/svg"><g><g fill="#ffd15b"><g><circle cx="308.172" cy="30.737" r="27.848"/><circle cx="308.172" cy="346.16" r="27.848"/></g><g><circle cx="465.884" cy="188.448" r="27.848"/><circle cx="150.461" cy="188.448" r="27.848"/></g><g><circle cx="196.653" cy="76.929" r="27.848"/><circle cx="419.691" cy="299.967" r="27.848"/></g></g><g><circle cx="419.691" cy="76.929" fill="#ffd15b" r="27.848"/></g><circle cx="308.172" cy="188.383" fill="#fed2a4" r="157.646"/><path d="m308.172 30.737c-47.182 0-89.516 20.734-118.406 53.58 27.765-24.422 64.183-39.24 104.067-39.24 87.065 0 157.646 70.581 157.646 157.646 0 39.883-14.818 76.301-39.24 104.066 32.846-28.891 53.579-71.224 53.579-118.406 0-87.066-70.58-157.646-157.646-157.646z" fill="#ffbd86"/><circle cx="308.172" cy="188.383" fill="#fff3de" r="131.21"/><path d="m308.172 57.172c-32.36 0-61.978 11.722-84.856 31.141 18.995-10.694 40.917-16.801 64.269-16.801 72.465 0 131.21 58.745 131.21 131.21 0 40.105-18 76.001-46.354 100.069 39.952-22.491 66.942-65.295 66.942-114.409 0-72.465-58.745-131.21-131.211-131.21z" fill="#ffe5c2"/><circle cx="308.172" cy="188.383" fill="#aca6d6" r="51.531"/><path d="m308.172 136.851c-15.495 0-29.382 6.849-38.829 17.673 5.672-2.148 11.817-3.333 18.241-3.333 28.46 0 51.531 23.072 51.531 51.531 0 12.965-4.799 24.802-12.703 33.858 19.454-7.367 33.29-26.163 33.29-48.198.002-28.459-23.07-51.531-51.53-51.531z" fill="#978ecb"/><path d="m292.952 468.572-15.463 15.463c-3.223 3.223-7.422 5.29-11.941 5.878-34.163 4.447-68.454-7.221-92.815-31.581l-140.222-140.222c-24.361-24.36-36.029-58.652-31.581-92.815.588-4.52 2.655-8.718 5.878-11.941l15.463-15.463c20.002-20.002 52.432-20.002 72.434 0l198.247 198.247c20.003 20.001 20.003 52.431 0 72.434z" fill="#c38f86"/><path d="m292.952 468.572-15.463 15.463c-3.223 3.223-7.422 5.29-11.941 5.878-34.163 4.447-68.454-7.221-92.815-31.581l-140.222-140.222c-24.361-24.36-36.029-58.652-31.581-92.815.588-4.52 2.655-8.718 5.878-11.941l15.463-15.463z" fill="#c38f86"/><path d="m287.127 474.397 5.826-5.826c20.002-20.002 20.002-52.432 0-72.434l-198.247-198.247c-20.002-20.002-52.432-20.002-72.434 0l-5.826 5.826c-8.068 8.068-8.068 21.149 0 29.217l241.464 241.464c8.068 8.068 21.149 8.068 29.217 0z" fill="#ffe5c2"/><path d="m292.952 396.137-198.246-198.247c-20.002-20.002-52.432-20.002-72.434 0l-2.752 2.752c18.309-7.028 39.836-3.174 54.598 11.588l198.247 198.247c19.16 19.16 19.953 49.717 2.406 69.837 4.513-.492 8.896-2.457 12.356-5.917l5.826-5.825c20.002-20.003 20.002-52.433-.001-72.435z" fill="#fed2a4"/><g fill="#aca6d6"><circle cx="75.514" cy="239.267" r="7.508"/><circle cx="105.219" cy="268.971" r="7.508"/><circle cx="134.923" cy="298.676" r="7.508"/><circle cx="164.628" cy="328.38" r="7.508"/><circle cx="194.333" cy="358.085" r="7.508"/><circle cx="224.037" cy="387.79" r="7.508"/><circle cx="253.742" cy="417.494" r="7.508"/></g></g></svg>