<svg id="Capa_1" enable-background="new 0 0 510.105 510.105" height="512" viewBox="0 0 510.105 510.105" width="512" xmlns="http://www.w3.org/2000/svg"><g><path d="m81.185 79.928 4.461-15.477c46.768-41.68 106.388-64.398 169.414-64.398l10 255-10 255c-68.107 0-132.148-26.523-180.312-74.689-96.18-96.176-99.472-249.659-10.29-349.726z" fill="#0a617d"/><path d="m445.663 424.466c88.548-99.359 86.524-252.913-10.291-349.725-48.158-48.16-112.196-74.688-180.312-74.688v510c62.898 0 122.549-22.634 169.412-64.398l.588-19.852z" fill="#08475e"/><path d="m180.06 240.053-10 45 10 45h75l10-25-10-28.787-13.25-23.713-22.963-12.5c-9.158 0-28.507 0-38.787 0z" fill="#fff7f4"/><path d="m375.06 240.053c-14.518 0-105.387 0-120 0v90h120l10-45z" fill="#f0e6e6"/><path d="m375.06 330.053h60c0-10.889 0-79.039 0-90-7.259 0-52.693 0-60 0z" fill="#f77e01"/><path d="m180.06 330.053h-105v-90h105z" fill="#ffda2d"/><path d="m405.06 135.053c-10.492 0-19.508 0-30 0 0 6.051 1.109 10.986 2.714 15.075 2.278 5.801 5.554 9.895 8.073 13.046 3.01 3.76 4.213 5.164 4.213 9.379 0 4.239-1.203 5.619-4.213 9.379-2.52 3.15-5.795 7.245-8.073 13.046-1.604 4.089-2.714 9.024-2.714 15.075h30c0-4.239 1.203-5.619 4.213-9.379 2.52-3.15 5.795-7.245 8.073-13.046 3.592-9.152 3.673-20.791 0-30.15-3.45-8.784-9.192-13.67-11.179-17.317-.792-1.458-1.107-2.871-1.107-5.108z" fill="#f0e6e6"/><path d="m330.06 75.053c-10.492 0-19.508 0-30 0 0 6.051 1.109 10.986 2.714 15.075 2.278 5.801 5.554 9.896 8.073 13.046 3.01 3.76 4.213 5.164 4.213 9.379 0 4.239-1.203 5.619-4.213 9.379-2.52 3.15-5.795 7.245-8.073 13.046-1.604 4.089-2.714 9.024-2.714 15.075h30c0-4.239 1.203-5.619 4.213-9.379 2.52-3.15 5.795-7.245 8.073-13.046 3.592-9.152 3.673-20.791 0-30.15-3.45-8.784-9.192-13.67-11.179-17.317-.792-1.458-1.107-2.871-1.107-5.108z" fill="#f0e6e6"/><path d="m85.672 64.451c-7.962 7.095-14.475 13.654-21.213 21.213 5.372 5.372 185.23 185.229 190.602 190.602l10-21.213-10-21.213c-20.601-20.601-148.747-148.746-169.389-169.389z" fill="#fe4a4a"/><path d="m445.661 424.44c-5.358-5.358-185.218-185.218-190.601-190.601v42.426c4.779 4.779 164.613 164.613 169.388 169.388 7.748-6.903 14.3-13.454 21.213-21.213z" fill="#e80b6a"/></g></svg>