<svg id="Capa_1" enable-background="new 0 0 502.507 502.507" height="512" viewBox="0 0 502.507 502.507" width="512" xmlns="http://www.w3.org/2000/svg"><g><g><path d="m387.221 278.491 61.348 61.348c4.186 4.186 4.186 10.972 0 15.157l-86.004 86.004-54.957-54.957c-9.179-9.179-20.424-16.026-32.793-19.968l-14.382-4.583c-12.369-3.942-23.613-10.789-32.793-19.968l-80.368-80.368 111.307-111.307z" fill="#ffe5c2"/><path d="m448.553 339.823-61.332-61.332-128.642-128.642-14.092 14.092 128.642 128.642 61.332 61.332c4.186 4.186 4.186 10.972 0 15.157l14.092-14.092c4.185-4.185 4.185-10.971 0-15.157z" fill="#fed2a4"/><path d="m425.402 316.673-23.949-23.949c-9.262-9.262-15.436-21.158-17.678-34.063l-4.932-28.383c-2.699-15.53-10.129-29.846-21.275-40.992l-57.388-57.388c-8.223-8.222-21.554-8.222-29.776 0-8.223 8.223-8.226 21.552-.003 29.774 16.094 16.093 39.472 39.471 39.472 39.471l-.861 55.161c-.164 10.512 2.422 20.885 7.502 30.089l4.471 8.101" fill="#ffe5c2"/><path d="m286.089 145.99 57.388 57.388c11.146 11.146 18.576 25.462 21.275 40.992l4.932 28.382c2.242 12.905 8.417 24.801 17.678 34.063l26.41 22.827 12.277-12.323-24.595-24.595c-9.262-9.262-15.436-21.158-17.678-34.063l-4.932-28.383c-2.699-15.53-10.129-29.846-21.275-40.992l-57.388-57.388c-8.222-8.223-21.554-8.223-29.776 0-2.55 2.55-4.306 5.592-5.275 8.819 7.181-2.155 15.286-.4 20.959 5.273z" fill="#fed2a4"/><path d="m175.099 233.329-27.827 27.827-54.491-54.491c-7.684-7.684-7.684-20.143 0-27.827 7.684-7.684 20.143-7.684 27.827 0z" fill="#ffe5c2"/><path d="m106.516 192.93 54.491 54.491 14.092-14.092-54.491-54.491c-7.684-7.684-20.143-7.684-27.827 0-2.575 2.575-4.266 5.689-5.115 8.977 6.524-1.686 13.74.005 18.85 5.115z" fill="#fed2a4"/><path d="m202.926 205.503-27.827 27.827-65.824-65.824c-7.684-7.684-7.684-20.143 0-27.827 7.684-7.684 20.143-7.684 27.827 0z" fill="#ffe5c2"/><path d="m123.01 153.771 65.824 65.824 14.092-14.092-65.824-65.824c-7.684-7.684-20.142-7.684-27.827 0-2.575 2.574-4.266 5.689-5.115 8.977 6.524-1.686 13.741.005 18.85 5.115z" fill="#fed2a4"/><path d="m230.752 177.676-27.827 27.827-65.824-65.824c-7.684-7.684-7.684-20.143 0-27.827 7.684-7.684 20.143-7.684 27.827 0z" fill="#ffe5c2"/><path d="m150.837 125.944 65.824 65.824 14.092-14.092-65.824-65.824c-7.684-7.684-20.142-7.684-27.827 0-2.575 2.574-4.266 5.689-5.115 8.977 6.524-1.686 13.74.006 18.85 5.115z" fill="#fed2a4"/><path d="m258.579 149.849-27.827 27.827-57.236-57.236c-7.684-7.684-7.684-20.143 0-27.827 7.684-7.684 20.143-7.684 27.827 0z" fill="#ffe5c2"/><path d="m201.343 92.614c-7.684-7.684-20.142-7.684-27.827 0-2.574 2.575-4.266 5.689-5.115 8.977 6.524-1.686 13.74.006 18.85 5.115l57.236 57.236 14.092-14.092z" fill="#fed2a4"/><path d="m429.393 313.973-101.591 101.591c-3.618 3.618-3.618 9.485 0 13.104l26.101 26.101c3.618 3.618 9.485 3.618 13.104 0l101.591-101.591c3.618-3.618 3.618-9.485 0-13.104l-26.101-26.101c-3.619-3.618-9.486-3.618-13.104 0z" fill="#aca6d6"/><path d="m468.602 353.182-14.1 14.09c3.62-3.62 3.62-9.49 0-13.11l-27.1-27.1c-2.34-2.34-5.62-3.17-8.62-2.48l10.61-10.61c3.62-3.62 9.49-3.62 13.1 0l26.11 26.1c3.61 3.62 3.61 9.491 0 13.11z" fill="#978ecb"/></g><g><path d="m393.601 340.524 33.758 33.758c4.186 4.186 4.186 10.972 0 15.157l-86.004 86.004-27.367-27.367c-9.179-9.179-20.424-16.026-32.793-19.968l-14.382-4.583c-12.369-3.942-23.613-10.789-32.793-19.968l-80.368-80.368 111.307-111.307z" fill="#ffe5c2"/><path d="m309.556 256.479-44.597-44.597-14.092 14.092 44.597 44.597c3.891 3.891 10.2 3.891 14.092 0 3.891-3.891 3.891-10.2 0-14.092z" fill="#fed2a4"/><path d="m414.774 361.698-6.941-6.941c-9.262-9.262-15.436-21.158-17.678-34.063l-4.932-28.383c-2.699-15.53-10.129-29.846-21.275-40.992l-57.388-57.388c-8.222-8.222-21.554-8.222-29.776 0-8.223 8.223-8.226 21.552-.003 29.774 16.094 16.093 39.472 39.471 39.472 39.471l-.861 55.161c-.164 10.512 2.422 20.885 7.502 30.089l4.471 8.101" fill="#ffe5c2"/><path d="m292.469 208.023 57.388 57.388c11.146 11.146 18.576 25.462 21.275 40.992l4.932 28.383c1.582 9.105 5.13 17.703 10.331 25.234l15.055 16.295 13.967-13.97-7.582-7.587c-9.262-9.262-15.436-21.158-17.678-34.063l-4.932-28.383c-2.698-15.53-10.129-29.846-21.275-40.992l-57.388-57.388c-8.223-8.222-21.554-8.222-29.776 0-2.55 2.55-4.306 5.592-5.275 8.819 7.18-2.157 15.284-.401 20.958 5.272z" fill="#fed2a4"/><path d="m181.479 295.362-27.827 27.827-54.491-54.491c-7.684-7.684-7.684-20.143 0-27.827 7.684-7.684 20.143-7.684 27.827 0z" fill="#ffe5c2"/><path d="m126.987 240.871c-7.684-7.684-20.142-7.684-27.827 0-2.574 2.575-4.266 5.689-5.115 8.977 6.524-1.686 13.741.006 18.85 5.115l75.828 75.828c3.605 3.605 9.449 3.605 13.053 0 4.178-4.178 4.178-10.952 0-15.13z" fill="#fed2a4"/><g fill="#ffe5c2"><path d="m209.306 267.536-27.827 27.827-65.824-65.824c-7.684-7.684-7.684-20.143 0-27.827 7.684-7.684 20.143-7.684 27.827 0z"/><path d="m237.132 239.709-27.827 27.827-65.824-65.824c-7.684-7.684-7.684-20.143 0-27.827 7.684-7.684 20.143-7.684 27.827 0z"/><path d="m264.962 211.882-27.83 27.83-57.24-57.24c-7.68-7.68-7.68-20.14 0-27.83 3.85-3.84 8.88-5.76 13.92-5.76 5.03 0 10.07 1.92 13.91 5.76z"/></g><path d="m418.765 358.998-101.591 101.591c-3.618 3.618-3.618 9.485 0 13.104l26.101 26.101c3.618 3.618 9.485 3.618 13.104 0l101.591-101.591c3.618-3.618 3.618-9.485 0-13.104l-26.101-26.101c-3.619-3.619-9.486-3.619-13.104 0z" fill="#aca6d6"/><g><path d="m457.969 385.099-26.101-26.101c-3.618-3.619-9.485-3.619-13.104 0l-14.092 14.092c3.619-3.619 9.485-3.619 13.104 0l26.101 26.101c3.618 3.618 3.618 9.485 0 13.104l14.092-14.092c3.619-3.619 3.619-9.486 0-13.104z" fill="#978ecb"/></g><path d="m188.498 173.876c-2.469 2.469-2.831 6.344-.863 9.228l49.497 56.605-57.24-57.237c-7.68-7.68-7.68-20.14 0-27.83 3.85-3.84 8.88-5.76 13.92-5.76 5.03 0 10.07 1.92 13.91 5.76l57.24 57.24-14.09 14.09-52.106-52.097c-2.836-2.834-7.433-2.834-10.268.001z" fill="#fed2a4"/><path d="m152.085 193.119c-2.469 2.469-2.831 6.344-.863 9.228l49.497 56.605-57.24-57.237c-7.68-7.68-7.68-20.14 0-27.83 3.85-3.84 8.88-5.76 13.92-5.76 5.03 0 10.07 1.92 13.91 5.76l87.013 87.013c3.891 3.891 3.891 10.199 0 14.09-3.891 3.891-10.199 3.891-14.09 0l-81.879-81.87c-2.836-2.835-7.433-2.834-10.268.001z" fill="#fed2a4"/><path d="m124.258 220.946c-2.469 2.469-2.831 6.344-.863 9.228l49.497 56.605-57.24-57.237c-7.68-7.68-7.68-20.14 0-27.83 3.85-3.84 8.88-5.76 13.92-5.76 5.03 0 10.07 1.92 13.91 5.76l87.013 87.013c3.891 3.891 3.891 10.199 0 14.09-3.891 3.891-10.199 3.891-14.09 0l-81.879-81.87c-2.836-2.835-7.433-2.835-10.268.001z" fill="#fed2a4"/></g><path d="m85.595 15.452h-7.952v-7.952c0-4.143-3.357-7.5-7.5-7.5s-7.5 3.357-7.5 7.5v7.952h-7.952c-4.143 0-7.5 3.357-7.5 7.5s3.357 7.5 7.5 7.5h7.952v7.953c0 4.143 3.357 7.5 7.5 7.5s7.5-3.357 7.5-7.5v-7.953h7.952c4.143 0 7.5-3.357 7.5-7.5s-3.357-7.5-7.5-7.5z" fill="#ffe177"/><circle cx="38.704" cy="98.087" fill="#ffd15b" r="7.508"/><circle cx="121.936" cy="76.365" fill="#ffd15b" r="7.508"/><circle cx="418.989" cy="397.502" fill="#5a74d1" r="7.508"/></g></svg>