<svg id="Capa_1" enable-background="new 0 0 510 510" height="512" viewBox="0 0 510 510" width="512" xmlns="http://www.w3.org/2000/svg"><g><path d="m193.25 303.75-118.25 41.25-10 65 10 55h45c9.269 0 18.515.635 27.675 1.896s18.233 3.147 27.157 5.651l50.729 13.208c62.111 16.171 7.228 1.882 74.439 19.38l10-79.135-10-86.784z" fill="#ffccbd"/><path d="m455.348 322.88c-4.292.71 3.188-1.324-110.514 32.121l-44.834-15.785v165.919c11.434 2.983 14.214 3.888 19.119 4.45 13.041 1.491 26.403-1.927 37.494-9.557l62.315-42.871c68.59-47.154 61.562-42.509 68.046-46.531.455-.368 10.368-5.543 17.087-17.655 3.846-6.931 5.939-14.835 5.939-23.1 0-29.58-26.763-51.598-54.652-46.991z" fill="#ffbda9"/><path d="m213.816 286.221c-9.57-2.051-19.575-1.511-28.83 1.574-11.165 3.642-35.747 11.68-40.884 13.359-27.928 9.385-41.198 13.846-69.102 13.846l-10 15 10 15c31.6 0 47.963-5.176 77.434-15 3.586-1.172-14.239 4.656 41.952-13.717 4.057-1.351 8.499-1.674 12.894-.781 100.717 25.744 91.565 23.378 92.721 23.713l10-11.923-10-19.061c-50.94-13.016-86.329-22.045-86.185-22.01z" fill="#ffbda9"/><path d="m75 510c-20.194 0-63.236 0-75 0 0-6.772 0-233.232 0-240h75z" fill="#83d947"/><g><path d="m269.5 240c0 16.329 13.202 30.193 30.5 29.987l10-44.983-10-44.983c-16.79-.992-30.5 43.281-30.5 59.979z" fill="#7ed8f6"/><path d="m329.5 240c0-16.391-13.158-59.119-29.5-59.98v89.967c16.281-.266 29.5-13.533 29.5-29.987z" fill="#6aa9ff"/></g><g><path d="m240 120v60h60l10-71.443-10-71.442c-37.298 13.108-60 43.335-60 82.885z" fill="#0a617d"/><path d="m344.5 30c-14.914 0-30.146 2.068-44.5 7.114v142.886h60.5c0-10.667 0-19.833 0-30.5 0-7.826 6.347-14.5 14.5-14.5 14.305-.053 30.695-.113 45-.166l10-52.417-10-52.417c-20.278 0-63.208 0-75.5 0z" fill="#08475e"/></g><g><path d="m510 180c-10.889 0-79.039 0-90 0 0-10 0-170 0-180h90z" fill="#05303d"/></g><path d="m289.169 379.332c-1.321-.33 4.77 1.192-12.877-3.22-6.698-1.675-55.879-13.97-62.653-15.663-.763 3.049-6.546 26.179-7.277 29.104 82.087 20.521 77.358 19.494 81.699 20.033 4.097.51 7.98.507 11.94.059l10-14.811-10-15.695c-3.581 1.039-7.266 1.084-10.832.193z" fill="#ffbda9"/><path d="m305.873 309.73-5.873-1.5v30.984c8.998 2.598 15 10.689 15 19.947 0 9.385-6.208 17.419-15 19.976v30.507c24.652-2.795 45-23.705 45-50.482 0-24.119-16.069-43.992-39.127-49.432z" fill="#ffa68c"/></g></svg>