<svg id="Capa_1" enable-background="new 0 0 497 497" height="512" viewBox="0 0 497 497" width="512" xmlns="http://www.w3.org/2000/svg"><g><path d="m162.014 240.768h52.704v52.704h-52.704z" fill="#ffe5c2"/><path d="m192.053 240.768h22.664v52.704h-22.664z" fill="#fed2a4"/><path d="m381.348 331.96-18.96 9.85-126.36 71.77c-21.75 11.3-48.55 2.82-59.85-18.93-3.4-6.54-5.01-13.53-5.01-20.43 0-16.03 8.72-31.52 23.93-39.42l108.55-56.41c.12-.06.21-.11.28-.14l-9.86-11.76-79.35-94.61 37.19-61.41 124.3 124.12 4.23 3.83c8.82 7.98 16.14 17.47 21.63 28.03 12.37 23.81 3.09 53.14-20.72 65.51z" fill="#6c7fd8"/><path d="m402.064 266.448c-5.485-10.557-12.81-20.05-21.631-28.032l-4.23-3.828-124.293-124.118-8.541 14.103 110.171 110.016 4.23 3.828c8.821 7.982 16.146 17.475 21.631 28.032 12.371 23.812 3.096 53.144-20.717 65.514l-18.958 9.848-126.361 71.772c-2.967 1.541-6.029 2.701-9.132 3.523 10.297 2.723 21.601 1.772 31.796-3.523l126.361-71.772 18.958-9.848c23.812-12.37 33.088-41.703 20.716-65.515z" fill="#5a74d1"/><path d="m229.817 248.44-47.88 8.534c-43.455 7.745-84.961-21.203-92.706-64.658l-16.92-100.483 172.879-19.066 21.809 122.362c4.454 24.99-12.193 48.857-37.182 53.311z" fill="#ffe5c2"/><g><path d="m266.999 195.13-21.809-122.363-22.008 3.923 21.153 126.44c3.297 18.498-4.976 36.372-19.628 46.221l5.111-.911c24.988-4.454 41.635-28.321 37.181-53.31z" fill="#fed2a4"/></g><path d="m245.19 72.767 19.41-22.979c4.492-5.319 6.385-12.361 5.163-19.215l-2.007-11.261c-2.477-13.899-16.601-22.459-30.069-18.225l-164.111 49.234c-9.19 2.889-15.826 10.332-18.005 19.187-1.142 4.642-.833 9.524.554 14.099l33.353 110.085 72.984-13.008 1.262-32.115c14.386-2.564 24.68-15.25 24.36-29.86-.366-16.757 2.082-36.135 14.963-38.431z" fill="#8b8089"/><path d="m269.762 30.573-2.007-11.261c-2.477-13.899-16.601-22.459-30.069-18.225l-4.986 1.496c6.253 3.203 11.045 9.174 12.391 16.729l2.007 11.261c1.222 6.854-.671 13.896-5.163 19.214l-14.267 16.891c-3.324 3.935-7.919 6.584-12.99 7.487l-34.295 6.113c-12.882 2.296-15.329 21.674-14.963 38.431.319 14.609-9.974 27.295-24.36 29.859l-1.262 32.115-51.481 9.176 1.161 3.833 72.984-13.009 1.262-32.115c14.386-2.564 24.68-15.25 24.36-29.859-.366-16.757 2.082-36.135 14.963-38.431l42.142-7.511 19.41-22.979c4.493-5.319 6.385-12.361 5.163-19.215z" fill="#7b7179"/><path d="m171.164 190.311c-19.348 3.448-37.824-9.447-41.272-28.794-2.723-15.279 4.74-30.014 17.528-37.233 5.313-2.999 11.998.126 13.069 6.132z" fill="#ffe5c2"/><path d="m278.291 497h-45.579l-44.389-13.5-44.39 13.5h-62.122c-9.757 0-17.423-8.352-16.589-18.074l9.199-107.145c4.12-47.984 44.271-84.835 92.431-84.835h29.553c54.419 0 98.535 44.115 98.535 98.535v94.87c.001 9.195-7.454 16.649-16.649 16.649z" fill="#aca6d6"/><path d="m196.406 286.946h-22.665c54.419 0 98.535 44.115 98.535 98.535v94.87c0 9.195-7.454 16.65-16.65 16.65h22.664c9.195 0 16.65-7.454 16.65-16.65v-94.87c.001-54.42-44.115-98.535-98.534-98.535z" fill="#978ecb"/><path d="m232.712 497h-88.778v-130.036c0-24.515 19.874-44.389 44.389-44.389 24.515 0 44.389 19.874 44.389 44.389z" fill="#6c7fd8"/><path d="m188.323 322.575c-3.917 0-7.714.512-11.332 1.465 19.025 5.01 33.057 22.326 33.057 42.924v130.036h22.664v-130.036c0-24.516-19.874-44.389-44.389-44.389z" fill="#5a74d1"/><g><path d="m273.991 180.816c-1.942 0-3.884-.75-5.353-2.246l-21.04-21.435c-2.901-2.956-2.857-7.705.099-10.606 2.955-2.899 7.704-2.857 10.606.099l21.04 21.435c2.901 2.956 2.857 7.705-.099 10.606-1.459 1.432-3.357 2.147-5.253 2.147z" fill="#fed2a4"/></g><g><path d="m323.628 268.35-19.7 9.9-9.86-11.76 22.78-11.53c3.7-1.87 8.21-.39 10.08 3.31 1.87 3.69.39 8.21-3.3 10.08z" fill="#5a74d1"/></g><g><g><path d="m387.882 130.346c-1.919 0-3.839-.732-5.304-2.196-2.929-2.93-2.929-7.678 0-10.607l31.865-31.866c2.93-2.928 7.678-2.928 10.607 0 2.929 2.93 2.929 7.678 0 10.607l-31.865 31.866c-1.464 1.463-3.384 2.196-5.303 2.196z" fill="#aca6d6"/></g><g><path d="m334.473 105.829c-4.143 0-7.5-3.357-7.5-7.5v-22.533c0-4.143 3.357-7.5 7.5-7.5s7.5 3.357 7.5 7.5v22.533c0 4.143-3.358 7.5-7.5 7.5z" fill="#aca6d6"/></g><g><path d="m434.628 181.906h-22.533c-4.143 0-7.5-3.357-7.5-7.5s3.357-7.5 7.5-7.5h22.533c4.143 0 7.5 3.357 7.5 7.5s-3.357 7.5-7.5 7.5z" fill="#aca6d6"/></g></g></g></svg>