<svg id="Capa_1" enable-background="new 0 0 510.002 510.002" height="512" viewBox="0 0 510.002 510.002" width="512" xmlns="http://www.w3.org/2000/svg"><g><path d="m337.199 94.827c3.019-7.578 7.469-14.35 13.262-20.14 23.319-23.314 61.259-23.592 84.852.001 30.262 30.262 19.948 82.155-20.139 98.113z" fill="#f77e01"/><path d="m227.095 87.157-27.231-3.541c-3.169-7.361-4.864-15.276-4.864-23.615 0-33.082 26.915-60 60-60l10 37.5-10 37.5z" fill="#fdb504"/><path d="m282.905 87.157 27.23-3.541c17.075-39.667-12.367-83.615-55.135-83.615v75z" fill="#f77e01"/><path d="m83.615 310.138c-7.48 3.219-15.409 4.863-23.615 4.863-33.084 0-60-26.916-60-60s26.916-60 60-60c8.207 0 16.136 1.645 23.615 4.863z" fill="#fdb504"/><path d="m172.801 94.827c-3.012-7.565-7.456-14.334-13.26-20.138-23.393-23.394-61.459-23.395-84.853-.001-23.448 23.446-23.452 61.401 0 84.854 5.804 5.805 12.572 10.248 20.138 13.26z" fill="#fdb504"/><path d="m426.385 310.138c22.246 9.569 48.414 4.878 66.022-12.73 23.452-23.45 23.47-61.345 0-84.813-17.537-17.539-43.685-22.342-66.022-12.73z" fill="#f77e01"/><path d="m337.199 415.175c15.955 40.089 67.857 50.389 98.113 20.139 30.217-30.217 20.02-82.12-20.139-98.113z" fill="#f77e01"/><path d="m255 435.001 10 37.5-10 37.5c-16.542 0-31.542-6.728-42.406-17.594-17.537-17.536-22.34-43.689-12.73-66.022l27.231-3.541z" fill="#fdb504"/><path d="m282.905 422.845 27.23 3.541c17.074 39.668-12.368 83.615-55.136 83.615 0-20.194 0-63.236 0-75z" fill="#f77e01"/><path d="m172.801 415.175c-3.012 7.565-7.455 14.333-13.26 20.138-23.392 23.392-61.458 23.397-84.853.001-23.447-23.447-23.453-61.401 0-84.852 5.802-5.804 12.57-10.247 20.138-13.261z" fill="#fdb504"/><path d="m127.721 382.28c32.573 32.573 77.573 52.721 127.279 52.721l10-180-10-180c-49.706 0-94.706 20.148-127.279 52.721-70.246 70.246-70.361 184.196 0 254.558z" fill="#ffda2d"/><path d="m382.279 127.722c-32.573-32.574-77.573-52.721-127.279-52.721v360c49.706 0 94.706-20.147 127.279-52.721 70.246-70.248 70.362-184.197 0-254.558z" fill="#fdb504"/><path d="m120 255.001c0 74.438 60.559 135 135 135l10-135-10-135c-74.439 0-135 60.559-135 135z" fill="#fff7f4"/><path d="m350.415 159.586c-24.445-24.444-58.195-39.585-95.415-39.585v270c37.22 0 70.97-15.141 95.415-39.585 52.77-52.772 52.802-138.026 0-190.83z" fill="#f0e6e6"/></g></svg>