<svg id="Capa_1" enable-background="new 0 0 510 510" height="512" viewBox="0 0 510 510" width="512" xmlns="http://www.w3.org/2000/svg"><g><path d="m60 450-30 10-30-10v-240l30-10 30 10 10 122.333z" fill="#fdb504"/><path d="m0 450v60h255l10-30-10-30-107.5-10-87.5 10z" fill="#ffda2d"/><path d="m450 450 30 10 30-10c0-6.772 0-233.232 0-240l-30-10-30 10-10 120z" fill="#f77e01"/><path d="m510 450h-60l-87.5-10-107.5 10v60h255c0-7.259 0-52.693 0-60z" fill="#fdb504"/><path d="m0 0v210h90l124.5-41.5 40.5-108.5 10-29.667-10-30.333c-7.193 0-247.807 0-255 0z" fill="#ffda2d"/><path d="m510 0c-7.193 0-247.807 0-255 0v60l32 105 133 45h90c0-11.664 0-198.336 0-210z" fill="#fdb504"/><path d="m240 60c0 21.32.033 20.403-.097 22.447-2.13 33.46-37.842 54.31-68.195 39.137-1.679-.84-19.659-9.83-21.708-10.854v24.271c0 24.813-20.186 45-45 45h-7.5-7.5v30c-10.492 0-19.508 0-30 0v240h105l90-120 10-55-10-65 10-67.814-10-82.187c-5.246 0-9.754 0-15 0z" fill="#0a617d"/><path d="m450 210c-10.492 0-19.508 0-30 0 0-10.492 0-19.508 0-30-5.246 0-9.754 0-15 0-24.812 0-45-20.186-45-45 0-8.488 0-15.782 0-24.271-1.679.84-19.659 9.83-21.708 10.854-31.38 15.688-68.292-7.14-68.292-42.206 0-6.777 0-12.6 0-19.377-5.246 0-9.754 0-15 0v270l90 120h105c0-4.257 0-226.152 0-240z" fill="#08475e"/><path d="m210 285c0 28.69 18.936 45 45 45l10-53-10-67c-.072.101-45 45.278-45 75z" fill="#fdb504"/><path d="m300 285c0-29.817-44.928-74.9-45-75v120c25.993 0 45-16.241 45-45z" fill="#f77e01"/><path d="m165 450h90l10-60-10-60c-10.889 0-79.04 0-90 0z" fill="#895050"/><path d="m379.127 350.486c-8.19-12.622-20.343-20.486-34.127-20.486-10.889 0-79.04 0-90 0v120h90c13.784 0 25.937-7.864 34.127-20.486 14.466-22.287 14.559-56.596 0-79.028z" fill="#624a4f"/><ellipse cx="165" cy="390" fill="#624a4f" rx="45" ry="60"/><ellipse cx="165" cy="390" fill="#9d6b5d" rx="15" ry="30"/></g></svg>