<svg id="Capa_1" enable-background="new 0 0 497 497" height="512" viewBox="0 0 497 497" width="512" xmlns="http://www.w3.org/2000/svg"><g><path d="m210.605 495.177h-172.71c-5.328 0-9.459-4.656-8.824-9.946l11.719-97.66 85.133-9.395 81.788 9.395 11.719 97.66c.634 5.29-3.497 9.946-8.825 9.946z" fill="#fff3de"/><path d="m219.429 485.231-11.719-97.66-12.916-6.498-9.946 6.498 11.719 97.66c.635 5.29-3.496 9.946-8.824 9.946h22.862c5.328.001 9.459-4.656 8.824-9.946z" fill="#ffe5c2"/><path d="m53.701 161.643-13.886 9.158c-24.856 16.394-39.815 44.179-39.815 73.955v114.113h53.701l10.799-98.613z" fill="#fff3de"/><path d="m39.815 228.584c-2.226 1.468-4.371 3.028-6.434 4.672-1.609 1.282-2.542 3.231-2.542 5.289v120.324h22.862v-126.9c0-5.378-5.981-8.599-10.471-5.637z" fill="#ffe5c2"/><path d="m194.798 161.643 13.886 9.158c24.857 16.394 39.815 44.179 39.815 73.955v114.113h-53.701l-9.95-98.613z" fill="#fff3de"/><path d="m208.684 170.801-13.886-9.158-4.298 8.431 4.298 7.504c19.436 16.705 30.84 41.182 30.84 67.178v114.113h22.862v-114.113c0-29.776-14.959-57.561-39.816-73.955z" fill="#ffe5c2"/><path d="m456.59 441.374v44.92c0 4.9-3.98 8.88-8.89 8.88h-148.05c-4.91 0-8.89-3.98-8.89-8.88v-44.92l82.91-9.8z" fill="#97da7b"/><path d="m433.725 441.375v44.916c0 4.908-3.979 8.887-8.887 8.887h22.862c4.908 0 8.887-3.979 8.887-8.887v-44.916l-13.297-7.5z" fill="#80d261"/><g><path d="m381.17 441.374v53.8h-15v-53.8c0-4.14 3.36-7.5 7.5-7.5 4.15 0 7.5 3.36 7.5 7.5z" fill="#80d261"/></g><path d="m467.891 387.572-94.836-6.498-93.598 6.498-9.054 43.088c-1.16 5.523 3.054 10.715 8.698 10.715h94.573 94.573c5.644 0 9.858-5.192 8.698-10.715z" fill="#6c7fd8"/><path d="m476.945 430.659-9.054-43.088-11.305-3.998-11.557 3.998 9.054 43.088c1.161 5.523-3.054 10.715-8.698 10.715h22.862c5.644.001 9.858-5.191 8.698-10.715z" fill="#5a74d1"/><path d="m302.201 161.643-13.886 9.158c-24.857 16.394-39.815 44.179-39.815 73.955v114.113h53.701l8.424-98.613z" fill="#d7f8c4"/><path d="m288.315 170.801c-3.156 2.081-6.15 4.348-8.976 6.777v181.291h22.862l8.424-98.613-8.424-98.613z" fill="#c9f6b0"/><path d="m443.298 161.643 13.886 9.158c24.857 16.394 39.816 44.179 39.816 73.955v114.113h-53.701l-7.299-96.295z" fill="#d7f8c4"/><path d="m457.184 170.801-13.886-9.158-4.798 8.931 4.798 7.004c19.436 16.705 30.84 41.182 30.84 67.178v114.113h22.862v-114.113c0-29.776-14.959-57.561-39.816-73.955z" fill="#c9f6b0"/><path d="m128.399 141.381h-9.413c-23.679 0-42.875-19.196-42.875-42.875v-37.85l47.582-5.582 47.582 5.582v37.851c-.001 23.679-19.197 42.874-42.876 42.874z" fill="#fed2a4"/><path d="m148.412 60.656v37.851c0 21.391-15.667 39.119-36.151 42.346 2.191.345 4.436.529 6.724.529h9.413c23.679 0 42.875-19.196 42.875-42.875v-37.851l-11.273-5.582z" fill="#ffbd86"/><path d="m140.352 1.822h-33.319c-17.078 0-30.922 13.844-30.922 30.922v27.911h95.163v-27.91c0-17.078-13.844-30.923-30.922-30.923z" fill="#fff3de"/><path d="m140.352 1.823h-22.862c17.078 0 30.922 13.844 30.922 30.922v27.911h22.862v-27.912c0-17.077-13.844-30.921-30.922-30.921z" fill="#ffe5c2"/><path d="m194.79 161.644v197.23h-141.09v-197.23l30.554-17.596c3.031-1.745 6.467-2.664 9.964-2.664h59.941c3.486 0 6.912.913 9.936 2.648z" fill="#fff3de"/><path d="m154.16 141.383h-17.542l28.011 16.069c4.517 2.591 7.303 7.401 7.303 12.609v188.812h22.862v-197.231l-30.7-17.612c-3.023-1.734-6.448-2.647-9.934-2.647z" fill="#ffe5c2"/><path d="m248.5 331.971h-145.936v55.6h131.735c7.843 0 14.201-6.358 14.201-14.201z" fill="#fff3de"/><path d="m225.638 331.971v41.399c0 7.843-6.358 14.201-14.201 14.201h22.862c7.843 0 14.201-6.358 14.201-14.201v-41.399z" fill="#ffe5c2"/><path d="m124.25 331.971h34.138c8.228 0 14.898 6.67 14.898 14.898v11.676c0 6.172-3.806 11.706-9.57 13.913l-39.466 15.113-7.5-28.703z" fill="#fed2a4"/><path d="m158.388 331.971h-22.862c8.228 0 14.898 6.67 14.898 14.898v11.676c0 6.172-3.806 11.706-9.57 13.913l-16.604 6.358-1.698 2.257 1.698 6.498 39.466-15.113c5.764-2.208 9.57-7.741 9.57-13.913v-11.676c0-8.228-6.67-14.898-14.898-14.898z" fill="#ffbd86"/><path d="m124.25 331.971h-124.25v41.399c0 7.843 6.358 14.201 14.201 14.201h110.049z" fill="#fff3de"/><path d="m101.388 331.971h22.862v55.601h-22.862z" fill="#ffe5c2"/><path d="m376.899 141.381h-9.413c-23.679 0-42.875-19.196-42.875-42.875v-37.85l48.445-10.748 46.718 10.748v37.851c0 23.679-19.196 42.874-42.875 42.874z" fill="#ffe5c2"/><path d="m396.912 60.656v37.851c0 21.391-15.667 39.119-36.151 42.346 2.191.345 4.436.529 6.724.529h9.413c23.679 0 42.875-19.196 42.875-42.875v-37.851l-11.794-8.082z" fill="#fed2a4"/><path d="m419.77 32.744v27.91h-95.16v-27.91c0-3.13.46-6.15 1.33-9 3.85-12.69 15.65-21.92 29.59-21.92h33.32c13.95 0 25.74 9.23 29.59 21.92.87 2.85 1.33 5.87 1.33 9z" fill="#aca6d6"/><path d="m388.852 1.823h-22.862c17.078 0 30.922 13.844 30.922 30.922v27.911h22.862v-27.912c0-17.077-13.844-30.921-30.922-30.921z" fill="#978ecb"/><path d="m443.29 161.644v197.23h-141.09v-197.23l30.99-17.85s.04-.02.11-.06c.4-.2 1.89-.88 4.8-1.46.67-.13 34.96 5.3 34.96 5.3s33.55-5.43 34.21-5.3c2.91.58 4.4 1.26 4.8 1.46.07.04.11.06.11.06z" fill="#6c7fd8"/><path d="m443.29 161.644v197.23h-22.86v-189.5c0-4.78-2.56-9.2-6.7-11.58l-12.92-7.42-10.28-5.9 14.52-2.57c.82.11 1.56.24 2.22.37 2.91.58 4.4 1.26 4.8 1.46.07.04.11.06.11.06z" fill="#5a74d1"/><g><path d="m373.056 342.741c-4.143 0-7.5-3.357-7.5-7.5v-161.674c0-4.143 3.357-7.5 7.5-7.5s7.5 3.357 7.5 7.5v161.674c0 4.142-3.358 7.5-7.5 7.5z" fill="#5a74d1"/></g><path d="m497 331.971h-145.936v55.6h131.735c7.843 0 14.201-6.358 14.201-14.201z" fill="#d7f8c4"/><path d="m372.75 331.971h34.138c8.228 0 14.898 6.67 14.898 14.898v11.676c0 6.172-3.806 11.706-9.57 13.913l-39.466 15.113-11.431-30.998z" fill="#ffe5c2"/><path d="m406.888 331.971h-22.862c8.228 0 14.898 6.67 14.898 14.898v11.676c0 6.172-3.806 11.706-9.57 13.913l-16.604 6.358-2.329 2.44 2.329 6.315 39.466-15.113c5.764-2.208 9.57-7.741 9.57-13.913v-11.676c0-8.228-6.67-14.898-14.898-14.898z" fill="#fed2a4"/><path d="m372.75 331.971h-124.25v41.399c0 7.843 6.358 14.201 14.201 14.201h110.049z" fill="#d7f8c4"/><path d="m349.888 331.971h22.862v55.601h-22.862z" fill="#c9f6b0"/><path d="m474.138 331.971v41.399c0 7.843-6.358 14.201-14.201 14.201h22.862c7.843 0 14.201-6.358 14.201-14.201v-41.399z" fill="#c9f6b0"/><path d="m407.27 142.274-6.46 8.1-16.54 20.74c-5.76 7.22-16.73 7.28-22.57.12l-23.6-28.96c.67-.13 1.41-.26 2.24-.38 2.15-.3 4.85-.51 8.16-.51h48.35c3.33 0 6.04.22 8.2.52.82.11 1.56.24 2.22.37z" fill="#ffe5c2"/><path d="m407.27 142.274-6.46 8.1-16.54 20.74c-5.76 7.22-16.73 7.28-22.57.12l-.19-.25 19.85-24.88 3.76-4.72h11.73c3.33 0 6.04.22 8.2.52.82.11 1.56.24 2.22.37z" fill="#fed2a4"/><g><path d="m150.46 219.424c0 4.14-3.35 7.5-7.5 7.5h-18.71c-4.14 0-7.5-3.36-7.5-7.5v-78.04h15v70.54h11.21c4.15 0 7.5 3.36 7.5 7.5z" fill="#ffe5c2"/></g><g><path d="m123.692 108.518c-4.143 0-7.5-3.357-7.5-7.5v-11.442c0-4.143 3.357-7.5 7.5-7.5s7.5 3.357 7.5 7.5v11.442c0 4.143-3.357 7.5-7.5 7.5z" fill="#ffbd86"/></g><g><path d="m373.056 108.518c-4.143 0-7.5-3.357-7.5-7.5v-11.442c0-4.143 3.357-7.5 7.5-7.5s7.5 3.357 7.5 7.5v11.442c0 4.143-3.358 7.5-7.5 7.5z" fill="#fed2a4"/></g><g><path d="m419.77 32.744v6h-95.16v-6c0-3.13.46-6.15 1.33-9h92.5c.87 2.85 1.33 5.87 1.33 9z" fill="#978ecb"/></g></g></svg>