<svg id="Capa_1" enable-background="new 0 0 510 510" height="512" viewBox="0 0 510 510" width="512" xmlns="http://www.w3.org/2000/svg"><g><path d="m219.404 387.695c-13.632.598-29.233 1.091-53.774 2.813-116.065 8.146-165.733 32.424-165.63 32.383v84.15h255l10-45-10-45z" fill="#ffccbd"/><path d="m255 417.041v90h255c0-9.165 0-73.736 0-84.15-68.113-26.679-139.849-32.197-218.649-35.166z" fill="#ffbda9"/><path d="m235.108 347.445-19.893 9.904c2.29 19.853 5.5 40.411 9.785 59.691h30l10-29.749-10-29.75z" fill="#9d6b5d"/><path d="m285 417.041c4.262-19.18 7.44-39.476 9.742-59.307l-19.871-10.096-19.871 9.904v59.499z" fill="#895050"/><path d="m210.056 272.889c.145 17.866.923 36.32 2.301 54.446 1.694.804 19.232 9.114 21.321 10.104 1.648-.765 19.312-8.964 21.322-9.897l10-30.454-10-50.454-21.329 5.061z" fill="#9d6b5d"/><path d="m276.329 251.694-21.329-5.061v80.908l21.307 10.103 21.307-9.897c1.452-19.025 2.194-37.621 2.331-54.858z" fill="#895050"/><path d="m144.252 4.841c-1.882-.193 6.792.697-18.336-1.882.658 6.413 1.225 11.923 1.883 18.336.123 1.19 1.861 17.448 7.416 38.383 3.041 11.461 7.226 24.324 12.915 36.883-12.903 4.858-24.958 10.995-35.213 16.949-21.756 12.631-34.009 23.242-39.533 27.715l-7.149 5.816 7.149 5.818c6.647 5.381 18.075 15.255 39.533 27.714 10.255 5.954 22.31 12.091 35.213 16.949-5.689 12.559-9.874 25.423-12.915 36.885-6.439 24.266-7.603 40.382-8.357 47.55l-.941 9.168c6.413-.658 11.923-1.225 18.336-1.883 1.859-.19 28.839-3.102 58.467-13.609 18.156-6.439 37.307-15.731 52.281-29l10-99.592-10-99.592c-14.975-13.268-34.125-22.56-52.281-28.999-29.629-10.507-56.609-13.419-58.468-13.609z" fill="#83d947"/><path d="m384.084 291.125-.941-9.168c-.744-7.07-1.905-23.233-8.357-47.55-3.041-11.462-7.226-24.325-12.915-36.885 12.903-4.858 24.958-10.995 35.213-16.949 21.712-12.606 33.932-23.179 39.534-27.714l7.148-5.818c-1.468-1.193 5.296 4.31-14.298-11.635-.929-.755-13.654-11.022-32.385-21.897-10.255-5.954-22.31-12.091-35.213-16.949 5.689-12.559 9.874-25.422 12.915-36.883 5.555-20.934 7.294-37.192 7.416-38.383.658-6.413 1.225-11.924 1.883-18.336-1.882.193 6.792-.697-18.336 1.882-1.859.191-28.838 3.101-58.467 13.608-18.156 6.44-37.307 15.732-52.281 29v199.184c14.975 13.269 34.126 22.561 52.282 29 29.628 10.508 56.606 13.419 58.466 13.609 6.413.66 11.923 1.226 18.336 1.884z" fill="#32bea6"/><path d="m212.357 327.335c.776 10.224 1.718 20.129 2.858 30.015 33.435.161 9.053.044 39.785.192l10-15.001-10-15c-32.917-.159-6.85-.032-42.643-.206z" fill="#895050"/><path d="m294.742 357.735c1.139-9.826 2.096-19.841 2.871-29.987-4.914-.023-39.04-.189-42.613-.206v30.001c2.746.013 38.639.186 39.742.192z" fill="#624a4f"/></g></svg>