<svg width="168" height="76" viewBox="0 0 168 76" fill="none" xmlns="http://www.w3.org/2000/svg">
<path d="M15.3584 69.7236L14.6602 70.5684V73H13.7666V65.8906H14.6602V69.3232L15.2461 68.5469L17.1602 65.8906H18.2344L15.9248 69.0205L18.415 73H17.3457L15.3584 69.7236ZM18.7764 70.1143C18.7764 69.346 18.9619 68.7389 19.333 68.293C19.7074 67.8438 20.2005 67.6191 20.8125 67.6191C21.4245 67.6191 21.916 67.8372 22.2871 68.2734C22.6615 68.7096 22.8535 69.3037 22.8633 70.0557V70.6123C22.8633 71.3773 22.6777 71.9827 22.3066 72.4287C21.9355 72.8747 21.4408 73.0977 20.8223 73.0977C20.2103 73.0977 19.7188 72.8812 19.3477 72.4482C18.9798 72.0153 18.7894 71.4294 18.7764 70.6904V70.1143ZM19.6406 70.6123C19.6406 71.1559 19.7464 71.584 19.958 71.8965C20.1729 72.2057 20.4609 72.3604 20.8223 72.3604C21.584 72.3604 21.9762 71.8102 21.999 70.71V70.1143C21.999 69.5739 21.8916 69.1475 21.6768 68.835C21.4619 68.5192 21.1738 68.3613 20.8125 68.3613C20.4577 68.3613 20.1729 68.5192 19.958 68.835C19.7464 69.1475 19.6406 69.5723 19.6406 70.1094V70.6123ZM24.792 67.7168L24.8115 68.2051C25.1338 67.8145 25.5586 67.6191 26.0859 67.6191C26.6751 67.6191 27.0869 67.8747 27.3213 68.3857C27.6533 67.8747 28.1156 67.6191 28.708 67.6191C29.6813 67.6191 30.1794 68.2262 30.2021 69.4404V73H29.3428V69.5234C29.3428 69.1393 29.2744 68.8545 29.1377 68.6689C29.001 68.4801 28.7699 68.3857 28.4443 68.3857C28.1839 68.3857 27.9723 68.4867 27.8096 68.6885C27.6468 68.8903 27.5524 69.1475 27.5264 69.46V73H26.6572V69.4844C26.6475 68.752 26.3496 68.3857 25.7637 68.3857C25.3275 68.3857 25.0199 68.6038 24.8408 69.04V73H23.9814V67.7168H24.792ZM34.2012 72.5361C33.9147 72.9105 33.4964 73.0977 32.9463 73.0977C32.4678 73.0977 32.1064 72.9333 31.8623 72.6045C31.6182 72.2725 31.4945 71.7907 31.4912 71.1592V67.7168H32.3506V71.0957C32.3506 71.9193 32.598 72.3311 33.0928 72.3311C33.6169 72.3311 33.9782 72.0967 34.1768 71.6279V67.7168H35.041V73H34.2207L34.2012 72.5361ZM37.1553 67.7168L37.1797 68.2881C37.515 67.8421 37.943 67.6191 38.4639 67.6191C39.3981 67.6191 39.8717 68.2425 39.8848 69.4893V73H39.0254V69.5283C39.0254 69.1149 38.9554 68.8219 38.8154 68.6494C38.6787 68.4736 38.472 68.3857 38.1953 68.3857C37.9805 68.3857 37.7868 68.4574 37.6143 68.6006C37.445 68.7438 37.3083 68.931 37.2041 69.1621V73H36.3398V67.7168H37.1553ZM42.1162 73H41.252V67.7168H42.1162V73ZM42.1846 66.3154C42.1846 66.4619 42.1439 66.584 42.0625 66.6816C41.9811 66.7793 41.8574 66.8281 41.6914 66.8281C41.5286 66.8281 41.4066 66.7793 41.3252 66.6816C41.2438 66.584 41.2031 66.4619 41.2031 66.3154C41.2031 66.1689 41.2438 66.0452 41.3252 65.9443C41.4066 65.8434 41.5286 65.793 41.6914 65.793C41.8542 65.793 41.9762 65.8451 42.0576 65.9492C42.1423 66.0501 42.1846 66.1722 42.1846 66.3154ZM44.6113 66.4375V67.7168H45.4072V68.415H44.6113V71.6914C44.6113 71.8997 44.6455 72.0576 44.7139 72.165C44.7822 72.2725 44.8994 72.3262 45.0654 72.3262C45.1794 72.3262 45.2949 72.3066 45.4121 72.2676L45.4023 73C45.207 73.0651 45.0068 73.0977 44.8018 73.0977C44.46 73.0977 44.1995 72.9756 44.0205 72.7314C43.8415 72.4873 43.752 72.1423 43.752 71.6963V68.415H42.9463V67.7168H43.752V66.4375H44.6113ZM49.1572 73C49.1051 72.8861 49.0677 72.694 49.0449 72.4238C48.7389 72.873 48.3483 73.0977 47.873 73.0977C47.3945 73.0977 47.0202 72.9642 46.75 72.6973C46.4831 72.4271 46.3496 72.0479 46.3496 71.5596C46.3496 71.0225 46.5319 70.596 46.8965 70.2803C47.2611 69.9645 47.7607 69.8034 48.3955 69.7969H49.0303V69.2354C49.0303 68.9196 48.9603 68.695 48.8203 68.5615C48.6803 68.4281 48.4671 68.3613 48.1807 68.3613C47.9202 68.3613 47.7087 68.4395 47.5459 68.5957C47.3831 68.7487 47.3018 68.944 47.3018 69.1816H46.4375C46.4375 68.9115 46.5173 68.6543 46.6768 68.4102C46.8363 68.1628 47.0511 67.9691 47.3213 67.8291C47.5915 67.6891 47.8926 67.6191 48.2246 67.6191C48.765 67.6191 49.1751 67.7542 49.4551 68.0244C49.7383 68.2913 49.8831 68.682 49.8896 69.1963V71.8623C49.8929 72.2692 49.9482 72.6224 50.0557 72.9219V73H49.1572ZM48.0049 72.3115C48.2165 72.3115 48.4183 72.2529 48.6104 72.1357C48.8024 72.0186 48.9424 71.8721 49.0303 71.6963V70.4365H48.542C48.1318 70.443 47.8079 70.5358 47.5703 70.7148C47.3327 70.8906 47.2139 71.138 47.2139 71.457C47.2139 71.7565 47.2741 71.9746 47.3945 72.1113C47.515 72.2448 47.7184 72.3115 48.0049 72.3115ZM53.8008 71.6475C53.8008 71.4619 53.7308 71.3024 53.5908 71.1689C53.4508 71.0355 53.1807 70.8792 52.7803 70.7002C52.3148 70.5081 51.986 70.3438 51.7939 70.207C51.6051 70.0703 51.4635 69.9157 51.3691 69.7432C51.2747 69.5674 51.2275 69.359 51.2275 69.1182C51.2275 68.6885 51.3838 68.332 51.6963 68.0488C52.012 67.7624 52.4141 67.6191 52.9023 67.6191C53.4167 67.6191 53.8301 67.7689 54.1426 68.0684C54.4551 68.3678 54.6113 68.752 54.6113 69.2207H53.752C53.752 68.9831 53.6722 68.7812 53.5127 68.6152C53.3532 68.446 53.1497 68.3613 52.9023 68.3613C52.6484 68.3613 52.4482 68.4281 52.3018 68.5615C52.1585 68.6917 52.0869 68.8675 52.0869 69.0889C52.0869 69.2646 52.139 69.4062 52.2432 69.5137C52.3506 69.6211 52.6061 69.7627 53.0098 69.9385C53.651 70.1891 54.0872 70.4349 54.3184 70.6758C54.5495 70.9134 54.665 71.2161 54.665 71.584C54.665 72.043 54.5072 72.4108 54.1914 72.6875C53.8757 72.9609 53.4525 73.0977 52.9219 73.0977C52.3717 73.0977 51.9258 72.9398 51.584 72.624C51.2422 72.3083 51.0713 71.9079 51.0713 71.4229H51.9404C51.9502 71.7158 52.0397 71.9453 52.209 72.1113C52.3783 72.2773 52.6159 72.3604 52.9219 72.3604C53.2083 72.3604 53.4264 72.2969 53.5762 72.1699C53.7259 72.0397 53.8008 71.8656 53.8008 71.6475ZM60.3584 70.124H59.1084V73H58.21V65.8906H60.2021C60.8988 65.8906 61.4261 66.0729 61.7842 66.4375C62.1423 66.7988 62.3213 67.3294 62.3213 68.0293C62.3213 68.4688 62.2236 68.8529 62.0283 69.1816C61.8363 69.5072 61.5628 69.7529 61.208 69.9189L62.585 72.9414V73H61.623L60.3584 70.124ZM59.1084 69.3574H60.1924C60.5667 69.3574 60.8646 69.237 61.0859 68.9961C61.3105 68.7552 61.4229 68.4329 61.4229 68.0293C61.4229 67.1178 61.0094 66.6621 60.1826 66.6621H59.1084V69.3574ZM65.29 73.0977C64.6325 73.0977 64.1279 72.9023 63.7764 72.5117C63.4248 72.1178 63.2458 71.5417 63.2393 70.7832V70.1436C63.2393 69.3558 63.4102 68.7389 63.752 68.293C64.097 67.8438 64.5771 67.6191 65.1924 67.6191C65.8109 67.6191 66.2731 67.8161 66.5791 68.21C66.8851 68.6038 67.0413 69.2174 67.0479 70.0508V70.6172H64.0986V70.7393C64.0986 71.3057 64.2044 71.7174 64.416 71.9746C64.6309 72.2318 64.9385 72.3604 65.3389 72.3604C65.5928 72.3604 65.8158 72.3132 66.0078 72.2188C66.2031 72.1211 66.3854 71.9681 66.5547 71.7598L67.0039 72.3066C66.6296 72.834 66.0583 73.0977 65.29 73.0977ZM65.1924 68.3613C64.8343 68.3613 64.569 68.485 64.3965 68.7324C64.224 68.9766 64.1263 69.3574 64.1035 69.875H66.1836V69.7578C66.1608 69.2565 66.0697 68.8984 65.9102 68.6836C65.7539 68.4688 65.5146 68.3613 65.1924 68.3613ZM68.9033 67.7168L68.9229 68.2051C69.2451 67.8145 69.6699 67.6191 70.1973 67.6191C70.7865 67.6191 71.1982 67.8747 71.4326 68.3857C71.7646 67.8747 72.2269 67.6191 72.8193 67.6191C73.7926 67.6191 74.2907 68.2262 74.3135 69.4404V73H73.4541V69.5234C73.4541 69.1393 73.3857 68.8545 73.249 68.6689C73.1123 68.4801 72.8812 68.3857 72.5557 68.3857C72.2952 68.3857 72.0837 68.4867 71.9209 68.6885C71.7581 68.8903 71.6637 69.1475 71.6377 69.46V73H70.7686V69.4844C70.7588 68.752 70.4609 68.3857 69.875 68.3857C69.4388 68.3857 69.1312 68.6038 68.9521 69.04V73H68.0928V67.7168H68.9033ZM78.3369 73C78.2848 72.8861 78.2474 72.694 78.2246 72.4238C77.9186 72.873 77.528 73.0977 77.0527 73.0977C76.5742 73.0977 76.1999 72.9642 75.9297 72.6973C75.6628 72.4271 75.5293 72.0479 75.5293 71.5596C75.5293 71.0225 75.7116 70.596 76.0762 70.2803C76.4408 69.9645 76.9404 69.8034 77.5752 69.7969H78.21V69.2354C78.21 68.9196 78.14 68.695 78 68.5615C77.86 68.4281 77.6468 68.3613 77.3604 68.3613C77.0999 68.3613 76.8883 68.4395 76.7256 68.5957C76.5628 68.7487 76.4814 68.944 76.4814 69.1816H75.6172C75.6172 68.9115 75.6969 68.6543 75.8564 68.4102C76.016 68.1628 76.2308 67.9691 76.501 67.8291C76.7712 67.6891 77.0723 67.6191 77.4043 67.6191C77.9447 67.6191 78.3548 67.7542 78.6348 68.0244C78.918 68.2913 79.0628 68.682 79.0693 69.1963V71.8623C79.0726 72.2692 79.1279 72.6224 79.2354 72.9219V73H78.3369ZM77.1846 72.3115C77.3962 72.3115 77.598 72.2529 77.79 72.1357C77.9821 72.0186 78.1221 71.8721 78.21 71.6963V70.4365H77.7217C77.3115 70.443 76.9876 70.5358 76.75 70.7148C76.5124 70.8906 76.3936 71.138 76.3936 71.457C76.3936 71.7565 76.4538 71.9746 76.5742 72.1113C76.6947 72.2448 76.8981 72.3115 77.1846 72.3115ZM81.2959 67.7168V73.6641C81.2861 74.6439 80.8988 75.1338 80.1338 75.1338C79.958 75.1338 79.8001 75.1045 79.6602 75.0459L79.6553 74.3232C79.7432 74.3493 79.8555 74.3623 79.9922 74.3623C80.1387 74.3623 80.2477 74.307 80.3193 74.1963C80.3942 74.0889 80.4316 73.9001 80.4316 73.6299V67.7168H81.2959ZM81.335 66.3154C81.335 66.4619 81.2943 66.584 81.2129 66.6816C81.1315 66.7793 81.0078 66.8281 80.8418 66.8281C80.679 66.8281 80.557 66.7793 80.4756 66.6816C80.3975 66.584 80.3584 66.4619 80.3584 66.3154C80.3584 66.1689 80.3975 66.0452 80.4756 65.9443C80.557 65.8434 80.679 65.793 80.8418 65.793C81.0046 65.793 81.1266 65.8451 81.208 65.9492C81.2926 66.0501 81.335 66.1722 81.335 66.3154ZM85.3682 73C85.3161 72.8861 85.2786 72.694 85.2559 72.4238C84.9499 72.873 84.5592 73.0977 84.084 73.0977C83.6055 73.0977 83.2311 72.9642 82.9609 72.6973C82.694 72.4271 82.5605 72.0479 82.5605 71.5596C82.5605 71.0225 82.7428 70.596 83.1074 70.2803C83.472 69.9645 83.9717 69.8034 84.6064 69.7969H85.2412V69.2354C85.2412 68.9196 85.1712 68.695 85.0312 68.5615C84.8913 68.4281 84.6781 68.3613 84.3916 68.3613C84.1312 68.3613 83.9196 68.4395 83.7568 68.5957C83.5941 68.7487 83.5127 68.944 83.5127 69.1816H82.6484C82.6484 68.9115 82.7282 68.6543 82.8877 68.4102C83.0472 68.1628 83.262 67.9691 83.5322 67.8291C83.8024 67.6891 84.1035 67.6191 84.4355 67.6191C84.9759 67.6191 85.3861 67.7542 85.666 68.0244C85.9492 68.2913 86.0941 68.682 86.1006 69.1963V71.8623C86.1038 72.2692 86.1592 72.6224 86.2666 72.9219V73H85.3682ZM84.2158 72.3115C84.4274 72.3115 84.6292 72.2529 84.8213 72.1357C85.0133 72.0186 85.1533 71.8721 85.2412 71.6963V70.4365H84.7529C84.3428 70.443 84.0189 70.5358 83.7812 70.7148C83.5436 70.8906 83.4248 71.138 83.4248 71.457C83.4248 71.7565 83.485 71.9746 83.6055 72.1113C83.7259 72.2448 83.9294 72.3115 84.2158 72.3115ZM90.793 73H89.8994V65.8906H90.793V73ZM94.8066 71.6475C94.8066 71.4619 94.7367 71.3024 94.5967 71.1689C94.4567 71.0355 94.1865 70.8792 93.7861 70.7002C93.3206 70.5081 92.9919 70.3438 92.7998 70.207C92.611 70.0703 92.4694 69.9157 92.375 69.7432C92.2806 69.5674 92.2334 69.359 92.2334 69.1182C92.2334 68.6885 92.3896 68.332 92.7021 68.0488C93.0179 67.7624 93.4199 67.6191 93.9082 67.6191C94.4225 67.6191 94.8359 67.7689 95.1484 68.0684C95.4609 68.3678 95.6172 68.752 95.6172 69.2207H94.7578C94.7578 68.9831 94.6781 68.7812 94.5186 68.6152C94.359 68.446 94.1556 68.3613 93.9082 68.3613C93.6543 68.3613 93.4541 68.4281 93.3076 68.5615C93.1644 68.6917 93.0928 68.8675 93.0928 69.0889C93.0928 69.2646 93.1449 69.4062 93.249 69.5137C93.3564 69.6211 93.612 69.7627 94.0156 69.9385C94.6569 70.1891 95.0931 70.4349 95.3242 70.6758C95.5553 70.9134 95.6709 71.2161 95.6709 71.584C95.6709 72.043 95.513 72.4108 95.1973 72.6875C94.8815 72.9609 94.4583 73.0977 93.9277 73.0977C93.3776 73.0977 92.9316 72.9398 92.5898 72.624C92.248 72.3083 92.0771 71.9079 92.0771 71.4229H92.9463C92.9561 71.7158 93.0456 71.9453 93.2148 72.1113C93.3841 72.2773 93.6217 72.3604 93.9277 72.3604C94.2142 72.3604 94.4323 72.2969 94.582 72.1699C94.7318 72.0397 94.8066 71.8656 94.8066 71.6475ZM97.7314 73H96.8672V65.5H97.7314V73ZM101.813 73C101.761 72.8861 101.724 72.694 101.701 72.4238C101.395 72.873 101.005 73.0977 100.529 73.0977C100.051 73.0977 99.6764 72.9642 99.4062 72.6973C99.1393 72.4271 99.0059 72.0479 99.0059 71.5596C99.0059 71.0225 99.1882 70.596 99.5527 70.2803C99.9173 69.9645 100.417 69.8034 101.052 69.7969H101.687V69.2354C101.687 68.9196 101.617 68.695 101.477 68.5615C101.337 68.4281 101.123 68.3613 100.837 68.3613C100.576 68.3613 100.365 68.4395 100.202 68.5957C100.039 68.7487 99.958 68.944 99.958 69.1816H99.0938C99.0938 68.9115 99.1735 68.6543 99.333 68.4102C99.4925 68.1628 99.7074 67.9691 99.9775 67.8291C100.248 67.6891 100.549 67.6191 100.881 67.6191C101.421 67.6191 101.831 67.7542 102.111 68.0244C102.395 68.2913 102.539 68.682 102.546 69.1963V71.8623C102.549 72.2692 102.604 72.6224 102.712 72.9219V73H101.813ZM100.661 72.3115C100.873 72.3115 101.075 72.2529 101.267 72.1357C101.459 72.0186 101.599 71.8721 101.687 71.6963V70.4365H101.198C100.788 70.443 100.464 70.5358 100.227 70.7148C99.9889 70.8906 99.8701 71.138 99.8701 71.457C99.8701 71.7565 99.9303 71.9746 100.051 72.1113C100.171 72.2448 100.375 72.3115 100.661 72.3115ZM104.704 67.7168L104.724 68.2051C105.046 67.8145 105.471 67.6191 105.998 67.6191C106.587 67.6191 106.999 67.8747 107.233 68.3857C107.565 67.8747 108.028 67.6191 108.62 67.6191C109.593 67.6191 110.091 68.2262 110.114 69.4404V73H109.255V69.5234C109.255 69.1393 109.187 68.8545 109.05 68.6689C108.913 68.4801 108.682 68.3857 108.356 68.3857C108.096 68.3857 107.884 68.4867 107.722 68.6885C107.559 68.8903 107.465 69.1475 107.438 69.46V73H106.569V69.4844C106.56 68.752 106.262 68.3857 105.676 68.3857C105.24 68.3857 104.932 68.6038 104.753 69.04V73H103.894V67.7168H104.704ZM113.835 73V65.8906H115.861C116.509 65.8906 116.996 66.0485 117.321 66.3643C117.65 66.68 117.814 67.1536 117.814 67.7852C117.814 68.1172 117.731 68.4102 117.565 68.6641C117.399 68.918 117.175 69.1149 116.892 69.2549C117.217 69.3525 117.474 69.5527 117.663 69.8555C117.855 70.1582 117.951 70.5228 117.951 70.9492C117.951 71.5872 117.775 72.0885 117.424 72.4531C117.076 72.8177 116.577 73 115.93 73H113.835ZM114.729 69.6748V72.2334H115.949C116.288 72.2334 116.556 72.1227 116.755 71.9014C116.953 71.6768 117.053 71.3626 117.053 70.959C117.053 70.1029 116.691 69.6748 115.969 69.6748H114.729ZM114.729 68.9229H115.876C116.185 68.9229 116.434 68.8187 116.623 68.6104C116.815 68.402 116.911 68.1253 116.911 67.7803C116.911 67.3896 116.825 67.1064 116.652 66.9307C116.48 66.7516 116.216 66.6621 115.861 66.6621H114.729V68.9229ZM121.062 73.0977C120.404 73.0977 119.899 72.9023 119.548 72.5117C119.196 72.1178 119.017 71.5417 119.011 70.7832V70.1436C119.011 69.3558 119.182 68.7389 119.523 68.293C119.868 67.8438 120.349 67.6191 120.964 67.6191C121.582 67.6191 122.045 67.8161 122.351 68.21C122.657 68.6038 122.813 69.2174 122.819 70.0508V70.6172H119.87V70.7393C119.87 71.3057 119.976 71.7174 120.188 71.9746C120.402 72.2318 120.71 72.3604 121.11 72.3604C121.364 72.3604 121.587 72.3132 121.779 72.2188C121.975 72.1211 122.157 71.9681 122.326 71.7598L122.775 72.3066C122.401 72.834 121.83 73.0977 121.062 73.0977ZM120.964 68.3613C120.606 68.3613 120.34 68.485 120.168 68.7324C119.995 68.9766 119.898 69.3574 119.875 69.875H121.955V69.7578C121.932 69.2565 121.841 68.8984 121.682 68.6836C121.525 68.4688 121.286 68.3613 120.964 68.3613ZM126.042 68.5273C125.922 68.5046 125.791 68.4932 125.651 68.4932C125.209 68.4932 124.899 68.7357 124.724 69.2207V73H123.859V67.7168H124.699L124.714 68.2539C124.945 67.8307 125.272 67.6191 125.695 67.6191C125.832 67.6191 125.946 67.6419 126.037 67.6875L126.042 68.5273ZM130.725 70.6123C130.725 71.4489 130.573 72.0723 130.271 72.4824C129.971 72.8926 129.546 73.0977 128.996 73.0977C128.465 73.0977 128.057 72.8975 127.771 72.4971V75.0312H126.911V67.7168H127.692L127.736 68.3027C128.026 67.847 128.441 67.6191 128.981 67.6191C129.561 67.6191 129.994 67.821 130.28 68.2246C130.567 68.6283 130.715 69.2321 130.725 70.0361V70.6123ZM129.865 70.1191C129.865 69.5267 129.774 69.0905 129.592 68.8105C129.41 68.5273 129.117 68.3857 128.713 68.3857C128.299 68.3857 127.985 68.5924 127.771 69.0059V71.7549C127.982 72.1585 128.299 72.3604 128.723 72.3604C129.113 72.3604 129.4 72.2204 129.582 71.9404C129.768 71.6572 129.862 71.2259 129.865 70.6465V70.1191ZM134.021 68.5273C133.9 68.5046 133.77 68.4932 133.63 68.4932C133.187 68.4932 132.878 68.7357 132.702 69.2207V73H131.838V67.7168H132.678L132.692 68.2539C132.924 67.8307 133.251 67.6191 133.674 67.6191C133.811 67.6191 133.924 67.6419 134.016 67.6875L134.021 68.5273ZM136.677 73.0977C136.019 73.0977 135.515 72.9023 135.163 72.5117C134.812 72.1178 134.632 71.5417 134.626 70.7832V70.1436C134.626 69.3558 134.797 68.7389 135.139 68.293C135.484 67.8438 135.964 67.6191 136.579 67.6191C137.198 67.6191 137.66 67.8161 137.966 68.21C138.272 68.6038 138.428 69.2174 138.435 70.0508V70.6172H135.485V70.7393C135.485 71.3057 135.591 71.7174 135.803 71.9746C136.018 72.2318 136.325 72.3604 136.726 72.3604C136.979 72.3604 137.202 72.3132 137.395 72.2188C137.59 72.1211 137.772 71.9681 137.941 71.7598L138.391 72.3066C138.016 72.834 137.445 73.0977 136.677 73.0977ZM136.579 68.3613C136.221 68.3613 135.956 68.485 135.783 68.7324C135.611 68.9766 135.513 69.3574 135.49 69.875H137.57V69.7578C137.548 69.2565 137.456 68.8984 137.297 68.6836C137.141 68.4688 136.901 68.3613 136.579 68.3613ZM142.043 71.6475C142.043 71.4619 141.973 71.3024 141.833 71.1689C141.693 71.0355 141.423 70.8792 141.022 70.7002C140.557 70.5081 140.228 70.3438 140.036 70.207C139.847 70.0703 139.706 69.9157 139.611 69.7432C139.517 69.5674 139.47 69.359 139.47 69.1182C139.47 68.6885 139.626 68.332 139.938 68.0488C140.254 67.7624 140.656 67.6191 141.145 67.6191C141.659 67.6191 142.072 67.7689 142.385 68.0684C142.697 68.3678 142.854 68.752 142.854 69.2207H141.994C141.994 68.9831 141.914 68.7812 141.755 68.6152C141.595 68.446 141.392 68.3613 141.145 68.3613C140.891 68.3613 140.69 68.4281 140.544 68.5615C140.401 68.6917 140.329 68.8675 140.329 69.0889C140.329 69.2646 140.381 69.4062 140.485 69.5137C140.593 69.6211 140.848 69.7627 141.252 69.9385C141.893 70.1891 142.329 70.4349 142.561 70.6758C142.792 70.9134 142.907 71.2161 142.907 71.584C142.907 72.043 142.749 72.4108 142.434 72.6875C142.118 72.9609 141.695 73.0977 141.164 73.0977C140.614 73.0977 140.168 72.9398 139.826 72.624C139.484 72.3083 139.313 71.9079 139.313 71.4229H140.183C140.192 71.7158 140.282 71.9453 140.451 72.1113C140.62 72.2773 140.858 72.3604 141.164 72.3604C141.451 72.3604 141.669 72.2969 141.818 72.1699C141.968 72.0397 142.043 71.8656 142.043 71.6475ZM145.168 66.4375V67.7168H145.964V68.415H145.168V71.6914C145.168 71.8997 145.202 72.0576 145.271 72.165C145.339 72.2725 145.456 72.3262 145.622 72.3262C145.736 72.3262 145.852 72.3066 145.969 72.2676L145.959 73C145.764 73.0651 145.563 73.0977 145.358 73.0977C145.017 73.0977 144.756 72.9756 144.577 72.7314C144.398 72.4873 144.309 72.1423 144.309 71.6963V68.415H143.503V67.7168H144.309V66.4375H145.168ZM149.714 73C149.662 72.8861 149.624 72.694 149.602 72.4238C149.296 72.873 148.905 73.0977 148.43 73.0977C147.951 73.0977 147.577 72.9642 147.307 72.6973C147.04 72.4271 146.906 72.0479 146.906 71.5596C146.906 71.0225 147.089 70.596 147.453 70.2803C147.818 69.9645 148.317 69.8034 148.952 69.7969H149.587V69.2354C149.587 68.9196 149.517 68.695 149.377 68.5615C149.237 68.4281 149.024 68.3613 148.737 68.3613C148.477 68.3613 148.265 68.4395 148.103 68.5957C147.94 68.7487 147.858 68.944 147.858 69.1816H146.994C146.994 68.9115 147.074 68.6543 147.233 68.4102C147.393 68.1628 147.608 67.9691 147.878 67.8291C148.148 67.6891 148.449 67.6191 148.781 67.6191C149.322 67.6191 149.732 67.7542 150.012 68.0244C150.295 68.2913 150.44 68.682 150.446 69.1963V71.8623C150.45 72.2692 150.505 72.6224 150.612 72.9219V73H149.714ZM148.562 72.3115C148.773 72.3115 148.975 72.2529 149.167 72.1357C149.359 72.0186 149.499 71.8721 149.587 71.6963V70.4365H149.099C148.688 70.443 148.365 70.5358 148.127 70.7148C147.889 70.8906 147.771 71.138 147.771 71.457C147.771 71.7565 147.831 71.9746 147.951 72.1113C148.072 72.2448 148.275 72.3115 148.562 72.3115ZM154.357 71.6475C154.357 71.4619 154.287 71.3024 154.147 71.1689C154.007 71.0355 153.737 70.8792 153.337 70.7002C152.871 70.5081 152.543 70.3438 152.351 70.207C152.162 70.0703 152.02 69.9157 151.926 69.7432C151.831 69.5674 151.784 69.359 151.784 69.1182C151.784 68.6885 151.94 68.332 152.253 68.0488C152.569 67.7624 152.971 67.6191 153.459 67.6191C153.973 67.6191 154.387 67.7689 154.699 68.0684C155.012 68.3678 155.168 68.752 155.168 69.2207H154.309C154.309 68.9831 154.229 68.7812 154.069 68.6152C153.91 68.446 153.706 68.3613 153.459 68.3613C153.205 68.3613 153.005 68.4281 152.858 68.5615C152.715 68.6917 152.644 68.8675 152.644 69.0889C152.644 69.2646 152.696 69.4062 152.8 69.5137C152.907 69.6211 153.163 69.7627 153.566 69.9385C154.208 70.1891 154.644 70.4349 154.875 70.6758C155.106 70.9134 155.222 71.2161 155.222 71.584C155.222 72.043 155.064 72.4108 154.748 72.6875C154.432 72.9609 154.009 73.0977 153.479 73.0977C152.928 73.0977 152.482 72.9398 152.141 72.624C151.799 72.3083 151.628 71.9079 151.628 71.4229H152.497C152.507 71.7158 152.596 71.9453 152.766 72.1113C152.935 72.2773 153.173 72.3604 153.479 72.3604C153.765 72.3604 153.983 72.2969 154.133 72.1699C154.283 72.0397 154.357 71.8656 154.357 71.6475ZM157.282 73H156.418V67.7168H157.282V73ZM157.351 66.3154C157.351 66.4619 157.31 66.584 157.229 66.6816C157.147 66.7793 157.023 66.8281 156.857 66.8281C156.695 66.8281 156.573 66.7793 156.491 66.6816C156.41 66.584 156.369 66.4619 156.369 66.3154C156.369 66.1689 156.41 66.0452 156.491 65.9443C156.573 65.8434 156.695 65.793 156.857 65.793C157.02 65.793 157.142 65.8451 157.224 65.9492C157.308 66.0501 157.351 66.1722 157.351 66.3154Z" fill="black"/>
<rect width="98" height="61" fill="#C4C4C4"/>
<path d="M26.75 33.35L21.2 39.05V48H14.7V13H21.2V30.95L38.5 13H45.8L31.1 28.65L46.7 48H39.1L26.75 33.35ZM55.9875 25.2C57.7875 22.4 60.9542 21 65.4875 21V26.95C64.9542 26.85 64.4708 26.8 64.0375 26.8C61.6042 26.8 59.7042 27.5167 58.3375 28.95C56.9708 30.35 56.2875 32.3833 56.2875 35.05V48H50.0375V21.3H55.9875V25.2ZM95.6453 34.8C95.6453 35.2333 95.612 35.85 95.5453 36.65H74.5953C74.962 38.6167 75.912 40.1833 77.4453 41.35C79.012 42.4833 80.9453 43.05 83.2453 43.05C86.1786 43.05 88.5953 42.0833 90.4953 40.15L93.8453 44C92.6453 45.4333 91.1286 46.5167 89.2953 47.25C87.462 47.9833 85.3953 48.35 83.0953 48.35C80.162 48.35 77.5786 47.7667 75.3453 46.6C73.112 45.4333 71.3786 43.8167 70.1453 41.75C68.9453 39.65 68.3453 37.2833 68.3453 34.65C68.3453 32.05 68.9286 29.7167 70.0953 27.65C71.2953 25.55 72.9453 23.9167 75.0453 22.75C77.1453 21.5833 79.512 21 82.1453 21C84.7453 21 87.062 21.5833 89.0953 22.75C91.162 23.8833 92.762 25.5 93.8953 27.6C95.062 29.6667 95.6453 32.0667 95.6453 34.8ZM82.1453 26C80.1453 26 78.4453 26.6 77.0453 27.8C75.6786 28.9667 74.8453 30.5333 74.5453 32.5H89.6953C89.4286 30.5667 88.612 29 87.2453 27.8C85.8786 26.6 84.1786 26 82.1453 26ZM111.116 21C115.05 21 118.05 21.95 120.116 23.85C122.216 25.7167 123.266 28.55 123.266 32.35V48H117.366V44.75C116.6 45.9167 115.5 46.8167 114.066 47.45C112.666 48.05 110.966 48.35 108.966 48.35C106.966 48.35 105.216 48.0167 103.716 47.35C102.216 46.65 101.05 45.7 100.216 44.5C99.4164 43.2667 99.0164 41.8833 99.0164 40.35C99.0164 37.95 99.8997 36.0333 101.666 34.6C103.466 33.1333 106.283 32.4 110.116 32.4H117.016V32C117.016 30.1333 116.45 28.7 115.316 27.7C114.216 26.7 112.566 26.2 110.366 26.2C108.866 26.2 107.383 26.4333 105.916 26.9C104.483 27.3667 103.266 28.0167 102.266 28.85L99.8164 24.3C101.216 23.2333 102.9 22.4167 104.866 21.85C106.833 21.2833 108.916 21 111.116 21ZM110.266 43.8C111.833 43.8 113.216 43.45 114.416 42.75C115.65 42.0167 116.516 40.9833 117.016 39.65V36.55H110.566C106.966 36.55 105.166 37.7333 105.166 40.1C105.166 41.2333 105.616 42.1333 106.516 42.8C107.416 43.4667 108.666 43.8 110.266 43.8ZM139.538 48.35C137.371 48.35 135.254 48.0667 133.188 47.5C131.121 46.9333 129.471 46.2167 128.238 45.35L130.638 40.6C131.838 41.4 133.271 42.05 134.938 42.55C136.638 43.0167 138.304 43.25 139.938 43.25C143.671 43.25 145.538 42.2667 145.538 40.3C145.538 39.3667 145.054 38.7167 144.088 38.35C143.154 37.9833 141.638 37.6333 139.538 37.3C137.338 36.9667 135.538 36.5833 134.138 36.15C132.771 35.7167 131.571 34.9667 130.538 33.9C129.538 32.8 129.038 31.2833 129.038 29.35C129.038 26.8167 130.088 24.8 132.188 23.3C134.321 21.7667 137.188 21 140.788 21C142.621 21 144.454 21.2167 146.288 21.65C148.121 22.05 149.621 22.6 150.788 23.3L148.388 28.05C146.121 26.7167 143.571 26.05 140.738 26.05C138.904 26.05 137.504 26.3333 136.538 26.9C135.604 27.4333 135.138 28.15 135.138 29.05C135.138 30.05 135.638 30.7667 136.638 31.2C137.671 31.6 139.254 31.9833 141.388 32.35C143.521 32.6833 145.271 33.0667 146.638 33.5C148.004 33.9333 149.171 34.6667 150.138 35.7C151.138 36.7333 151.638 38.2 151.638 40.1C151.638 42.6 150.554 44.6 148.388 46.1C146.221 47.6 143.271 48.35 139.538 48.35ZM157.02 21.3H163.27V48H157.02V21.3ZM160.17 16.9C159.037 16.9 158.087 16.55 157.32 15.85C156.553 15.1167 156.17 14.2167 156.17 13.15C156.17 12.0833 156.553 11.2 157.32 10.5C158.087 9.76667 159.037 9.4 160.17 9.4C161.303 9.4 162.253 9.75 163.02 10.45C163.787 11.1167 164.17 11.9667 164.17 13C164.17 14.1 163.787 15.0333 163.02 15.8C162.287 16.5333 161.337 16.9 160.17 16.9Z" fill="white"/>
</svg>
