<svg id="Capa_1" enable-background="new 0 0 510.001 510.001" height="512" viewBox="0 0 510.001 510.001" width="512" xmlns="http://www.w3.org/2000/svg"><g><path d="m.001 61.001v449h255l10-224.5-10-224.5h-89.999l-15.001-10-15.001 10c-21.187 0-120.241 0-134.999 0z" fill="#fff7f4"/><path d="m510.001 61.001h-75l-15.25-10-14.75 10c-10.585 0-94.413 0-105 0l-16.375-10-13.625 10h-15v449h255c0-12.658 0-436.341 0-449z" fill="#f0e6e6"/><path d="m171.726 197.826c4.414-13.433 10.859-33.053 15.286-46.526-11.208 8.679-27.526 21.315-38.72 29.984-71.266 55.167-78.354 160.786-14.357 224.782 32.497 32.498 76.597 47.584 121.066 43.197l10-40.992-10-40.992c-68.393-24.252-106.405-99.055-83.275-169.453z" fill="#ffda2d"/><path d="m373.708 372.349 14.99-19.36c-13.43 4.413-33.05 10.86-46.522 15.287-28.169 9.255-58.982 9-87.175-.997v81.984c38.436-3.792 72.776-22.001 97.618-50.175 5.161-5.855 6.972-8.63 21.089-26.739z" fill="#fdb504"/><path d="m120.001 30.001c8.271 0 15 6.729 15 15v16h30v-16c0-24.814-20.187-45-45-45s-45 20.187-45 45v60c0 24.813 20.187 45 45 45v-30c-8.271 0-15-6.729-15-15v-60c0-8.271 6.729-15 15-15z" fill="#0a617d"/><path d="m345.001 45.001v30 30c0 24.812 20.186 45 45 45v-15-15c-4.136 0-7.886-1.683-10.602-4.398-2.716-2.716-4.398-6.466-4.398-10.602 0-7.259 0-52.692 0-60 0-8.271 6.729-15 15-15 8.27 0 15 6.728 15 15v16h30c0-5.596 0-10.404 0-16 0-12.406-5.046-23.656-13.195-31.805-17.591-17.59-46.009-17.601-63.61 0-8.149 8.149-13.195 19.399-13.195 31.805z" fill="#08475e"/><path d="m336.611 214.787c-.168-.341-13.737-27.834-17.168-34.786-6.004 12.166-11.164 22.62-17.168 34.786-2.639.384-37.579 5.461-38.389 5.579 2.742 2.672 24.983 24.353 27.779 27.078-2.293 13.37-4.265 24.864-6.558 38.234 2.687-1.413 31.043-16.32 34.336-18.052.897.472 33.695 17.715 34.336 18.052-2.293-13.372-4.264-24.862-6.558-38.234 9.714-9.469 18.065-17.608 27.779-27.078-3.778-.549-34.534-5.018-38.389-5.579z" fill="#fdb504"/><path d="m240.001 105.001v-30-30c0-4.136 1.682-7.886 4.398-10.602s6.466-4.398 10.602-4.398l10-15-10-15c-24.812 0-45 20.187-45 45v60c0 24.812 20.187 45 45 45v-15-15c-4.136 0-7.886-1.683-10.602-4.398-2.716-2.716-4.398-6.466-4.398-10.602z" fill="#0a617d"/><path d="m270.001 45.001v16h30c0-5.596 0-10.404 0-16 0-24.813-20.186-45-45-45v30c4.136 0 7.886 1.683 10.602 4.398 2.716 2.717 4.398 6.467 4.398 10.602z" fill="#08475e"/></g></svg>