<svg id="Capa_1" enable-background="new 0 0 497 497" height="512" viewBox="0 0 497 497" width="512" xmlns="http://www.w3.org/2000/svg"><g><path d="m432.5 376.334-183.5 10.666-184.438-10.666-7.885-68.328v-220.874l8.323-19.49-8.323-19.49v-23.786c0-10.215 8.281-18.495 18.495-18.495h346.656c10.215 0 18.495 8.281 18.495 18.495v23.786l-8.323 19.49 8.323 19.49v68.133l-8.823 25.66 8.823 25.661v101.419z" fill="#8b8089"/><path d="m421.828 5.871h-26.103c10.214 0 18.495 8.281 18.495 18.495v357.8l18.28-5.832 7.823-67.834v-101.914l-8.823-25.661 8.823-25.661v-68.132l-8.323-19.49 8.323-19.489v-23.787c0-10.214-8.281-18.495-18.495-18.495z" fill="#7b7179"/><path d="m462.763 348.626h-428.526c-18.909 0-34.237 15.328-34.237 34.237v74.029c0 18.909 15.328 34.237 34.237 34.237h428.526c18.909 0 34.237-15.328 34.237-34.237v-74.029c0-18.909-15.328-34.237-34.237-34.237z" fill="#aca6d6"/><path d="m462.763 348.626h-26.103c18.909 0 34.237 15.328 34.237 34.237v74.029c0 18.909-15.328 34.237-34.237 34.237h26.103c18.909 0 34.237-15.328 34.237-34.237v-74.029c0-18.909-15.328-34.237-34.237-34.237z" fill="#978ecb"/><path d="m440.323 376.334h-383.646v-68.328l78.179-29.94c12.96-4.963 27.416-4.207 39.787 2.082l52.043 26.456c13.736 6.983 29.955 7.108 43.797.338l55.464-27.128c12.427-6.078 26.843-6.628 39.698-1.515l74.678 29.706z" fill="#fff3de"/><path d="m414.22 297.623v78.711h26.103v-68.328z" fill="#ffe5c2"/><path d="m56.677 48.153h383.646v38.978h-383.646z" fill="#ffe177"/><path d="m414.22 48.153h26.103v38.978h-26.103z" fill="#ffd15b"/><path d="m206.721 376.334-53.721 10.666-49.297-10.666v-209.104c0-6.608 5.357-11.965 11.965-11.965h79.088c6.608 0 11.965 5.357 11.965 11.965z" fill="#ffe177"/><path d="m194.756 155.265h-26.103c6.608 0 11.965 5.357 11.965 11.965v209.104l12.382 5.833 13.721-5.832v-209.105c0-6.608-5.357-11.965-11.965-11.965z" fill="#ffd15b"/><path d="m333.496 206.586h-66.256c-6.608 0-11.965-5.357-11.965-11.965v-27.391c0-6.608 5.357-11.965 11.965-11.965h66.256c6.608 0 11.965 5.357 11.965 11.965v27.391c0 6.608-5.357 11.965-11.965 11.965z" fill="#ffe177"/><path d="m333.496 155.265h-26.103c6.608 0 11.965 5.357 11.965 11.965v27.391c0 6.608-5.357 11.965-11.965 11.965h26.103c6.608 0 11.965-5.357 11.965-11.965v-27.391c0-6.608-5.357-11.965-11.965-11.965z" fill="#ffd15b"/><path d="m440.323 206.586h-35.429c-6.608 0-11.965-5.357-11.965-11.965v-27.391c0-6.608 5.357-11.965 11.965-11.965h35.429z" fill="#ffe177"/><path d="m414.22 155.265h26.103v51.321h-26.103z" fill="#ffd15b"/><path d="m440.32 376.33v46.06c0 6.61-5.35 11.96-11.96 11.96h-24.96l-7.5-3.6-7.5 3.6h-131.9l-8-2.85-7 2.85h-130.3l-7.5-2.183-7.5 2.183h-27.56c-6.61 0-11.96-5.35-11.96-11.96v-46.06h39.52l7.503 2.003 7.497-2.003h130.3l7.5 3.42 7.75-3.42h131.65l7.326 1.67 7.674-1.67z" fill="#fe6c55"/><path d="m414.22 376.334v46.053c0 6.608-5.357 11.965-11.965 11.965h26.103c6.608 0 11.965-5.357 11.965-11.965v-46.053z" fill="#fd544d"/><g><path d="m155.212 228.295c-4.142 0-7.5-3.358-7.5-7.5v-18.695c0-4.142 3.358-7.5 7.5-7.5s7.5 3.358 7.5 7.5v18.695c0 4.142-3.358 7.5-7.5 7.5z" fill="#fff3de"/></g><g><path d="m96.2 376.33h15v58.02h-15z" fill="#fd544d"/></g><g><path d="m388.4 376.33h15v58.02h-15z" fill="#fd544d"/></g><g><path d="m241.5 376.33h15v58.02h-15z" fill="#fd544d"/></g></g></svg>