<svg id="Capa_1" enable-background="new 0 0 486.225 486.225" height="512" viewBox="0 0 486.225 486.225" width="512" xmlns="http://www.w3.org/2000/svg"><g><path d="m309.258 176.954 21-6.858 11.632-25.774 3.04-13.648-11.896 1.29c-10.678 10.679-26.441 26.441-37.226 37.227l-.347 10.952z" fill="#fff7f4"/><path d="m341.892 144.32-32.633 32.633-3.19 13.794 10.955-.343c10.764-10.765 26.475-26.476 37.215-37.217l-.229-12.314z" fill="#f0e6e6"/><path d="m420.012.015c-6.509 6.509-49.063 49.063-55.607 55.606l9.476 23.618 23.617 9.475 34.875-20.732 20.732-34.875c-2.08-2.078 9.413 9.415-33.093-33.092z" fill="#ffda2d"/><path d="m486.225 66.228c-2.079-2.079 9.388 9.388-33.121-33.12-6.756 6.756-48.829 48.829-55.606 55.607l9.489 23.631 23.631 9.489c2.283-2.283 52.93-52.93 55.607-55.607z" fill="#fdb504"/><path d="m255.466 258.108c0 16.559 13.417 30 30 30 7.677 0 15.355-2.929 21.213-8.787 11.716-11.715 11.716-30.71 0-42.426-5.858-5.858-13.536-8.787-21.213-8.787-16.558 0-30 13.416-30 30z" fill="#009c99"/><path d="m239.933 316.068c0 16.557 13.416 30 30 30 7.678 0 15.355-2.929 21.213-8.787 11.715-11.714 11.716-30.71 0-42.426-5.858-5.858-13.536-8.787-21.213-8.787-16.558 0-30 13.416-30 30z" fill="#32bea6"/><path d="m233.182 352.819c-11.716 11.716-11.716 30.71 0 42.426 11.715 11.715 30.71 11.716 42.426 0 5.858-5.858 8.787-13.536 8.787-21.213 0-16.557-13.416-30-30-30-7.678 0-15.355 2.929-21.213 8.787z" fill="#009c99"/><path d="m193.913 425.728c0 7.678 2.929 15.355 8.787 21.213 11.714 11.715 30.71 11.717 42.426 0 11.716-11.715 11.716-30.71 0-42.426-5.858-5.858-13.535-8.787-21.213-8.787-16.558 0-30 13.416-30 30z" fill="#32bea6"/><circle cx="172.218" cy="456.21" fill="#009c99" r="30"/><path d="m82.217 456.21c0 7.678 2.929 15.355 8.787 21.213 11.717 11.716 30.71 11.715 42.426 0 5.858-5.858 8.787-13.536 8.787-21.213 0-16.558-13.416-30-30-30-16.556 0-30 13.415-30 30z" fill="#32bea6"/><circle cx="228.102" cy="200.744" fill="#32bea6" r="30"/><circle cx="170.142" cy="216.277" fill="#83d947" r="30"/><path d="m112.177 261.815c-16.558 0-30-13.415-30-30 0-7.678 2.929-15.355 8.787-21.213 11.717-11.716 30.71-11.715 42.427 0 5.857 5.858 8.787 13.536 8.787 21.213-.001 16.557-13.416 30-30.001 30z" fill="#32bea6"/><path d="m60.483 292.297c-7.678 0-15.355-2.929-21.213-8.787-11.715-11.714-11.716-30.71 0-42.426 11.715-11.715 30.71-11.716 42.426 0 5.858 5.858 8.787 13.536 8.787 21.213 0 16.557-13.416 30-30 30z" fill="#83d947"/><circle cx="30" cy="313.992" fill="#32bea6" r="30"/><path d="m30 403.992c-7.678 0-15.356-2.929-21.213-8.787-11.716-11.715-11.717-30.711 0-42.426 11.713-11.715 30.71-11.717 42.426 0 5.858 5.858 8.787 13.535 8.787 21.213 0 16.558-13.416 30-30 30z" fill="#83d947"/><path d="m258.046 198.167c0 7.678 2.929 15.355 8.787 21.213l28.284-14.143 14.142-28.284c-5.858-5.858-13.536-8.787-21.213-8.787-16.558.001-30 13.417-30 30.001z" fill="#83d947"/><g><path d="m364.405 55.622c-4.497 4.497-22.226 22.227-22.5 22.501-18.248 18.248-18.256 47.94-.014 66.199l34.874-20.732 20.732-34.874c-13.278-13.28-17.142-17.145-33.092-33.094z" fill="#9d6b5d"/><path d="m397.498 88.714c-6.756 6.757-48.829 48.829-55.606 55.606.007.008.01.011.014.014 18.255 18.255 47.957 18.255 66.213 0 7.869-7.869 14.631-14.631 22.5-22.5-2.08-2.078 9.387 9.389-33.121-33.12z" fill="#895050"/></g><path d="m30.578 425.634c0 7.678 2.929 15.355 8.787 21.213l28.284-14.142 14.142-28.284c-5.858-5.858-13.536-8.787-21.213-8.787-16.557 0-30 13.416-30 30z" fill="#32bea6"/><path d="m309.259 176.953c-4.787 4.786-37.674 37.675-42.426 42.427 11.717 11.716 30.711 11.715 42.426 0 11.715-11.716 11.716-30.711 0-42.427z" fill="#32bea6"/><path d="m81.791 404.421c-5.146 5.146-37.255 37.255-42.426 42.426 11.715 11.715 30.71 11.716 42.426 0 11.715-11.715 11.716-30.709 0-42.426z" fill="#009c99"/></g></svg>