<svg id="Capa_1" enable-background="new 0 0 512 512" height="512" viewBox="0 0 512 512" width="512" xmlns="http://www.w3.org/2000/svg"><g><g><path d="m47.531 152.144c-4.142 0-7.5-3.358-7.5-7.5v-33.787c0-4.142 3.358-7.5 7.5-7.5s7.5 3.358 7.5 7.5v33.787c0 4.142-3.358 7.5-7.5 7.5z" fill="#b87d72"/></g><g><path d="m464.469 152.144c-4.142 0-7.5-3.358-7.5-7.5v-33.787c0-4.142 3.358-7.5 7.5-7.5s7.5 3.358 7.5 7.5v33.787c0 4.142-3.358 7.5-7.5 7.5z" fill="#b87d72"/></g><path d="m37.21 495.809h23.42l15.942-6.392 15.942 6.392h32.843l8.31-60.725-8.31-65.227h-98.238v115.861c0 5.573 4.517 10.091 10.091 10.091z" fill="#fed2a4"/><path d="m99.366 369.857h25.99v125.952h-25.99z" fill="#ffbd86"/><path d="m60.63 495.809h31.883v-72.117c0-8.804-7.137-15.941-15.941-15.941-8.804 0-15.941 7.137-15.941 15.941v72.117z" fill="#b87d72"/><path d="m27.119 193.638h40.825v176.219h-40.825z" fill="#ffe5c2" transform="matrix(-1 0 0 -1 95.062 563.495)"/><path d="m47.426 193.638h20.517v176.219h-20.517z" fill="#fed2a4"/><path d="m27.119 193.638h40.825v-22.916c0-7.004-2.438-13.79-6.895-19.193l-8.965-10.868c-2.36-2.861-6.744-2.861-9.104 0l-8.965 10.868c-4.457 5.403-6.895 12.189-6.895 19.193v22.916z" fill="#80d261"/><path d="m61.048 151.529-8.965-10.868c-2.36-2.861-6.744-2.861-9.104 0l-5.706 6.917 3.259 3.95c4.457 5.403 6.895 12.189 6.895 19.193v22.916h20.517v-22.916c-.001-7.003-2.438-13.789-6.896-19.192z" fill="#68ca44"/><g><path d="m256 103.704c-4.142 0-7.5-3.358-7.5-7.5v-25.353c0-4.142 3.358-7.5 7.5-7.5s7.5 3.358 7.5 7.5v25.353c0 4.142-3.358 7.5-7.5 7.5z" fill="#b87d72"/></g><g><path d="m255.938 74.101c-15.966 0-28.955-12.989-28.955-28.955s12.989-28.955 28.955-28.955c4.142 0 7.5 3.358 7.5 7.5s-3.358 7.5-7.5 7.5c-7.695 0-13.955 6.26-13.955 13.955s6.26 13.955 13.955 13.955c4.287 0 8.275-1.93 10.943-5.294 2.574-3.246 7.292-3.79 10.537-1.216 3.246 2.574 3.79 7.291 1.216 10.537-5.53 6.973-13.802 10.973-22.696 10.973z" fill="#ffe177"/></g><path d="m474.79 495.809h-23.42l-15.942-4.225-15.942 4.225h-32.843l-8.977-62.976 8.977-62.976h98.238v115.861c0 5.573-4.517 10.091-10.091 10.091z" fill="#ffbd86"/><path d="m458.891 369.857v115.861c0 4.685-3.193 8.624-7.521 9.761l-2.327-.287 2.327.617h23.42c5.573 0 10.091-4.518 10.091-10.091v-115.861z" fill="#f6a96c"/><path d="m451.37 495.809h-31.883v-72.117c0-8.804 7.137-15.941 15.941-15.941 8.804 0 15.941 7.137 15.941 15.941v72.117z" fill="#b87d72"/><path d="m444.057 193.638h40.825v176.219h-40.825z" fill="#ffe5c2"/><path d="m464.364 193.638h20.517v176.219h-20.517z" fill="#fed2a4"/><path d="m484.881 193.638h-40.825v-22.916c0-7.004 2.438-13.79 6.895-19.193l8.965-10.868c2.36-2.861 6.744-2.861 9.104 0l8.965 10.868c4.457 5.403 6.895 12.189 6.895 19.193v22.916z" fill="#80d261"/><path d="m477.987 151.529-8.965-10.868c-2.36-2.861-6.744-2.861-9.104 0l-5.706 6.917 3.259 3.95c4.457 5.403 6.895 12.189 6.895 19.193v22.916h20.517v-22.916c-.002-7.003-2.439-13.789-6.896-19.192z" fill="#68ca44"/><g><path d="m84.243 201.138h-73.86c-4.142 0-7.5-3.358-7.5-7.5s3.358-7.5 7.5-7.5h73.86c4.142 0 7.5 3.358 7.5 7.5s-3.358 7.5-7.5 7.5z" fill="#ffbd86"/></g><g><path d="m84.243 271.648h-73.86c-4.142 0-7.5-3.358-7.5-7.5s3.358-7.5 7.5-7.5h73.86c4.142 0 7.5 3.358 7.5 7.5s-3.358 7.5-7.5 7.5z" fill="#ffbd86"/></g><g><path d="m134.167 377.357h-126.667c-4.142 0-7.5-3.358-7.5-7.5s3.358-7.5 7.5-7.5h126.667c4.142 0 7.5 3.358 7.5 7.5s-3.358 7.5-7.5 7.5z" fill="#b87d72"/></g><g><path d="m501.617 201.138h-73.86c-4.142 0-7.5-3.358-7.5-7.5s3.358-7.5 7.5-7.5h73.86c4.142 0 7.5 3.358 7.5 7.5s-3.358 7.5-7.5 7.5z" fill="#ffbd86"/></g><g><path d="m501.617 271.648h-73.86c-4.142 0-7.5-3.358-7.5-7.5s3.358-7.5 7.5-7.5h73.86c4.142 0 7.5 3.358 7.5 7.5s-3.358 7.5-7.5 7.5z" fill="#ffbd86"/></g><g><path d="m504.5 377.357h-130.852c-4.142 0-7.5-3.358-7.5-7.5s3.358-7.5 7.5-7.5h130.852c4.142 0 7.5 3.358 7.5 7.5s-3.358 7.5-7.5 7.5z" fill="#b87d72"/></g><path d="m302.939 113.744-43.707-20.29c-2.05-.952-4.415-.952-6.465 0l-43.707 20.29c-23.985 11.135-39.329 35.176-39.329 61.619v25.001l86.269 7.886 86.268-7.886v-25.001c0-26.443-15.344-50.484-39.329-61.619z" fill="#80d261"/><path d="m302.939 113.744-43.707-20.29c-2.05-.952-4.415-.952-6.465 0l-9.763 4.532 33.944 15.758c23.985 11.135 39.329 35.175 39.329 61.619v25.001l12.995 5.386 12.995-5.386v-25.001c.001-26.443-15.343-50.484-39.328-61.619z" fill="#68ca44"/><path d="m342.268 284.923-86.268 5.16-86.268-5.16v-84.559h172.536z" fill="#ffe5c2"/><path d="m316.278 200.364v84.559l12.995 5.16 12.995-5.16v-84.559z" fill="#fed2a4"/><path d="m386.643 495.809h-33.486l-15.942-5.309-15.941 5.309h-34.324l-31.144-5.559-31.144 5.559h-34.155l-15.941-5.059-15.942 5.059h-33.268v-176.116h261.287z" fill="#ffe5c2"/><path d="m360.653 319.693h25.99v176.116h-25.99z" fill="#fed2a4"/><g fill="#b87d72"><path d="m158.624 495.809h31.883v-72.117c0-8.804-7.137-15.941-15.941-15.941-8.804 0-15.941 7.137-15.941 15.941v72.117z"/><path d="m240.059 284.923 15.941 5.16 15.941-5.16v-48.863c0-8.804-7.137-15.941-15.941-15.941-8.804 0-15.941 7.137-15.941 15.941z"/><path d="m321.274 495.809h31.883v-72.117c0-8.804-7.137-15.941-15.941-15.941-8.804 0-15.941 7.137-15.941 15.941v72.117z"/><path d="m224.662 495.809h62.288v-100.998c0-9.163-7.428-16.59-16.59-16.59h-29.107c-9.163 0-16.59 7.428-16.59 16.59v100.998z"/></g><g><path d="m203.908 293.423c-4.142 0-7.5-3.358-7.5-7.5v-42.279c0-4.142 3.358-7.5 7.5-7.5s7.5 3.358 7.5 7.5v42.279c0 4.142-3.358 7.5-7.5 7.5z" fill="#ab695d"/></g><g><path d="m308.441 293.423c-4.142 0-7.5-3.358-7.5-7.5v-42.279c0-4.142 3.358-7.5 7.5-7.5s7.5 3.358 7.5 7.5v42.279c0 4.142-3.358 7.5-7.5 7.5z" fill="#ab695d"/></g><path d="m270.36 378.22h-23.754c9.163 0 16.59 7.428 16.59 16.59v100.998h23.754v-100.997c0-9.163-7.428-16.591-16.59-16.591z" fill="#ab695d"/><path d="m347.528 284.923h-183.056c-6.073 0-10.997 4.923-10.997 10.997v23.773h205.05v-23.773c0-6.074-4.924-10.997-10.997-10.997z" fill="#80d261"/><path d="m347.528 284.923h-25.99c6.073 0 10.997 4.923 10.997 10.997v23.773h25.99v-23.773c0-6.074-4.924-10.997-10.997-10.997z" fill="#68ca44"/><g><path d="m408.112 327.192h-304.224c-4.142 0-7.5-3.358-7.5-7.5s3.358-7.5 7.5-7.5h304.224c4.142 0 7.5 3.358 7.5 7.5s-3.358 7.5-7.5 7.5z" fill="#b87d72"/></g></g></svg>