<svg id="Capa_1" enable-background="new 0 0 510 510" height="512" viewBox="0 0 510 510" width="512" xmlns="http://www.w3.org/2000/svg"><g><g fill="#fdb504"><path d="m480 90h30c0-10.5 0-19.5 0-30-10.5 0-19.5 0-30 0l-10 15z"/><path d="m480 150h30c0-10.5 0-19.5 0-30-10.5 0-19.5 0-30 0l-10 15z"/><path d="m480 210h30c0-10.5 0-19.5 0-30-10.5 0-19.5 0-30 0l-10 15z"/><path d="m480 270h30c0-10.5 0-19.5 0-30-10.5 0-19.5 0-30 0l-10 15z"/><path d="m480 330h30c0-10.5 0-19.5 0-30-10.5 0-19.5 0-30 0l-10 15z"/><path d="m480 390h30c0-10.5 0-19.5 0-30-10.5 0-19.5 0-30 0l-10 15z"/><path d="m480 450h30c0-10.5 0-19.5 0-30-10.5 0-19.5 0-30 0l-10 15z"/></g><path d="m30 90h-30v-30h30l10 15z" fill="#ffda2d"/><path d="m30 150h-30v-30h30l10 15z" fill="#ffda2d"/><path d="m30 210h-30v-30h30l10 15z" fill="#ffda2d"/><path d="m30 270h-30v-30h30l10 15z" fill="#ffda2d"/><path d="m30 330h-30v-30h30l10 15z" fill="#ffda2d"/><path d="m30 390h-30v-30h30l10 15z" fill="#ffda2d"/><path d="m30 450h-30v-30h30l10 15z" fill="#ffda2d"/><path d="m30 60v390h225l10-195-10-195c-15.2 0-209.8 0-225 0z" fill="#83d947"/><path d="m480 60c-15.2 0-209.8 0-225 0v390h225c0-11 0-379 0-390z" fill="#32bea6"/><path d="m161.5 120v15c0 31.2-25.3 56.5-56.5 56.5-5.2 0-9.8 0-15 0v127h15c31.2 0 56.5 25.3 56.5 56.5v15h93.5l10-135-10-135c-11.3 0-82.1 0-93.5 0z" fill="#fff7f4"/><path d="m348.5 375c0-31.2 25.3-56.5 56.5-56.5h15c0-15.4 0-111.5 0-127-5.2 0-9.8 0-15 0-31.2 0-56.5-25.3-56.5-56.5 0-5.2 0-9.8 0-15-11.3 0-82.1 0-93.5 0v270h93.5v-7.5z" fill="#f0e6e6"/><path d="m190.2 150c-6.3 35.7-34.5 63.9-70.2 70.2v69.6c35.7 6.3 63.9 34.5 70.2 70.2h64.8l10-105-10-105c-17.6 0-54.5 0-64.8 0z" fill="#0a617d"/><path d="m390 289.8c0-18.7 0-58.7 0-69.6-35.7-6.3-63.9-34.5-70.2-70.2-17.6 0-54.5 0-64.8 0v210h64.8c6.3-35.7 34.5-63.9 70.2-70.2z" fill="#08475e" stroke="#08475e" stroke-miterlimit="10"/><path d="m223.2 286.8c8.1 8.1 19.4 13.2 31.8 13.2l10-45-10-45c-12.4 0-23.7 5-31.8 13.2-17.6 17.6-17.6 46 0 63.6z" fill="#ffda2d"/><path d="m286.8 223.2c-8.1-8.2-19.4-13.2-31.8-13.2v90c12.4 0 23.7-5 31.8-13.2 17.6-17.6 17.6-46 0-63.6z" fill="#fdb504"/><path d="m150 240h30v30h-30z" fill="#ffda2d"/><path d="m90 120h30v30h-30z" fill="#fff7f4"/><path d="m90 360h30v30h-30z" fill="#fff7f4"/><path d="m330 240h30v30h-30z" fill="#fdb504"/><path d="m390 120h30v30h-30z" fill="#f0e6e6"/><path d="m390 360h30v30h-30z" fill="#f0e6e6"/></g></svg>