<svg id="Capa_1" enable-background="new 0 0 497 497" height="512" viewBox="0 0 497 497" width="512" xmlns="http://www.w3.org/2000/svg"><g><path d="m259.412 453.346-102.672-6.635-102.672 6.635v20.257c0 5.593 4.534 10.128 10.128 10.128h185.089c5.593 0 10.128-4.534 10.128-10.128v-20.257z" fill="#8b8089"/><path d="m236.2 453.346v20.257c0 5.594-4.534 10.128-10.128 10.128h23.212c5.593 0 10.128-4.534 10.128-10.128v-20.257l-12.124-6.635z" fill="#7b7179"/><path d="m377.241 123.966h91.793v145.358l-45.738 7.5-46.055-7.5-4.786-49.613 4.786-31.931z" fill="#fff3de"/><g><path d="m423.296 276.824c-4.143 0-7.5-3.358-7.5-7.5v-61.811c0-4.142 3.357-7.5 7.5-7.5s7.5 3.358 7.5 7.5v61.811c0 4.142-3.357 7.5-7.5 7.5z" fill="#7b7179"/></g><path d="m445.822 123.966v145.358l11.606 7.5 11.606-7.5v-145.358z" fill="#ffe5c2"/><path d="m371.447 128.949h103.697c5.593 0 10.128-4.534 10.128-10.128v-24.452l-62.135-6.492-61.818 6.492v24.452c0 5.594 4.535 10.128 10.128 10.128z" fill="#ffbd86"/><path d="m462.06 94.369v24.452c0 5.593-4.534 10.128-10.128 10.128h23.212c5.594 0 10.128-4.534 10.128-10.128v-24.452l-11.712-6.492z" fill="#f6a96c"/><path d="m419.446 15.081-68.359 70.833c-3.045 3.156-.831 8.455 3.533 8.455h137.437c4.351 0 6.572-5.274 3.552-8.436l-67.633-70.829c-2.328-2.437-6.19-2.448-8.53-.023z" fill="#fe6c55"/><path d="m495.609 85.933-67.633-70.829c-2.327-2.437-6.19-2.447-8.53-.023l-7.391 7.659 60.342 63.194c3.02 3.163.8 8.436-3.552 8.436h23.212c4.351-.001 6.572-5.274 3.552-8.437z" fill="#fd544d"/><path d="m10.128 453.346h43.94l9.221-64.136-9.221-64.136h-43.94c-5.594-.001-10.128 4.533-10.128 10.127v108.017c0 5.593 4.534 10.128 10.128 10.128z" fill="#ffbd86"/><path d="m30.855 325.073v128.273h23.212l9.221-64.137-9.221-64.136z" fill="#f6a96c"/><g><path d="m212.679 70.047c-4.142 0-7.5-3.358-7.5-7.5v-36.365c0-4.142 3.358-7.5 7.5-7.5s7.5 3.358 7.5 7.5v36.366c0 4.142-3.358 7.499-7.5 7.499z" fill="#aca6d6"/></g><path d="m288.647 187.78-76.033 3.931-76.033-3.931v-62.162l76.033-5.157 76.033 5.157z" fill="#fff3de"/><g><path d="m212.614 195.28c-4.142 0-7.5-3.358-7.5-7.5v-31.081c0-4.142 3.358-7.5 7.5-7.5s7.5 3.358 7.5 7.5v31.081c0 4.142-3.358 7.5-7.5 7.5z" fill="#7b7179"/></g><path d="m265.435 125.618v62.162l11.606 5.181 11.606-5.181v-62.162l-11.606-3.407z" fill="#ffe5c2"/><path d="m209.623 58.094-80.513 58.603c-3.862 2.811-1.874 8.921 2.903 8.921h161.332c4.764 0 6.761-6.084 2.923-8.907l-79.659-58.6c-2.076-1.526-4.902-1.533-6.986-.017z" fill="#fe6c55"/><path d="m296.268 116.712-79.659-58.6c-2.076-1.527-4.902-1.534-6.985-.018l-8.168 5.945 71.601 52.672c3.837 2.823 1.841 8.907-2.923 8.907h23.212c4.762 0 6.759-6.083 2.922-8.906z" fill="#fd544d"/><path d="m377.241 453.346h-85.051l-76.536-9.635-78.186 9.635h-83.401v-184.022l170.721-9.968 152.453 9.968z" fill="#fff3de"/><path d="m292.188 323.171v99.794l-6.567 15.188h-143.458l-4.695-15.193v-99.79c0-5.59 4.53-10.13 10.13-10.13h134.46c5.6.001 10.13 4.541 10.13 10.131z" fill="#aca6d6"/><path d="m282.062 313.045h-23.212c5.593 0 10.128 4.534 10.128 10.128v114.981h16.643l6.568-15.193v-99.788c.001-5.594-4.534-10.128-10.127-10.128z" fill="#978ecb"/><path d="m137.468 422.961h154.72v30.38h-154.72z" fill="#8b8089"/><path d="m268.978 422.961h23.212v30.385h-23.212z" fill="#7b7179"/><path d="m469.038 269.321v173.9c0 5.59-4.54 10.12-10.13 10.12h-28.11l-7.5-2.463-7.5 2.463h-38.56l-11.6-87.13 11.6-96.89z" fill="#fff3de"/><path d="m445.822 269.324v173.894c0 5.594-4.534 10.128-10.128 10.128h23.212c5.593 0 10.128-4.534 10.128-10.128v-173.894z" fill="#ffe5c2"/><path d="m377.241 313.045h97.903c5.593 0 10.128-4.534 10.128-10.128v-23.465c0-5.593-4.534-10.128-10.128-10.128h-97.903l-3.16 26.362z" fill="#ffbd86"/><path d="m475.144 269.324h-23.212c5.594 0 10.128 4.534 10.128 10.128v23.465c0 5.593-4.534 10.128-10.128 10.128h23.212c5.594 0 10.128-4.534 10.128-10.128v-23.465c0-5.594-4.534-10.128-10.128-10.128z" fill="#f6a96c"/><path d="m354.029 269.324v184.022h23.212v-184.022l-11.606-9.967z" fill="#ffe5c2"/><path d="m377.241 187.78h-268.374c-8.106 0-15.527 4.545-19.21 11.766l-35.59 69.778h323.174z" fill="#fe6c55"/><path d="m354.029 187.78h23.212v81.544h-23.212z" fill="#fd544d"/><path d="m207.328 313.041h15v109.92h-15z" fill="#978ecb"/><path d="m207.328 422.961h15v30.38h-15z" fill="#7b7179"/><g><path d="m93.33 359.92c-4.142 0-7.5-3.358-7.5-7.5v-20.135c0-4.142 3.358-7.5 7.5-7.5s7.5 3.358 7.5 7.5v20.135c0 4.142-3.358 7.5-7.5 7.5z" fill="#7b7179"/></g><g><path d="m334.716 359.92c-4.143 0-7.5-3.358-7.5-7.5v-20.135c0-4.142 3.357-7.5 7.5-7.5s7.5 3.358 7.5 7.5v20.135c0 4.142-3.358 7.5-7.5 7.5z" fill="#7b7179"/></g><g><path d="m430.798 383.191v70.15h-15v-70.15c0-4.14 3.36-7.5 7.5-7.5s7.5 3.36 7.5 7.5z" fill="#7b7179"/></g></g></svg>