<svg id="Capa_1" enable-background="new 0 0 503.322 503.322" height="512" viewBox="0 0 503.322 503.322" width="512" xmlns="http://www.w3.org/2000/svg"><g><path d="m258.266 495.509 8.23 4.014c15.484 7.551 34.12 3.59 45.194-9.606l5.886-7.014c7.425-8.847 18.51-13.783 30.053-13.38l9.151.319c17.216.6 32.63-10.598 37.379-27.158l2.524-8.802c3.184-11.102 11.304-20.12 22.012-24.447l8.49-3.431c15.972-6.454 25.498-22.954 23.102-40.013l-1.274-9.068c-1.607-11.438 2.143-22.978 10.166-31.287l6.36-6.587c11.966-12.393 13.958-31.341 4.83-45.95l-4.852-7.766c-6.12-9.795-7.388-21.863-3.439-32.717l3.131-8.605c5.891-16.188.003-34.308-14.278-43.942l-7.591-5.121c-9.575-6.459-15.642-16.968-16.448-28.49l-.639-9.134c-1.203-17.185-13.951-31.343-30.916-34.336l-9.017-1.591c-11.374-2.006-21.191-9.139-26.614-19.336l-4.299-8.085c-8.088-15.21-25.494-22.959-42.209-18.793l-8.885 2.215c-11.207 2.794-23.076.271-32.178-6.84l-7.216-5.637c-13.575-10.605-32.628-10.605-46.203 0l-7.216 5.637c-9.102 7.11-20.971 9.633-32.178 6.84l-8.885-2.215c-16.715-4.167-34.12 3.583-42.209 18.793l-4.299 8.085c-5.423 10.198-15.24 17.33-26.614 19.336l-9.017 1.591c-16.965 2.992-29.713 17.151-30.916 34.336l-.639 9.134c-.806 11.522-6.873 22.03-16.448 28.49l-7.591 5.121c-14.281 9.634-20.169 27.754-14.278 43.942l3.131 8.605c3.95 10.854 2.681 22.921-3.439 32.717l-4.852 7.766c-9.128 14.61-7.136 33.558 4.83 45.95l6.36 6.587c8.023 8.309 11.772 19.849 10.166 31.287l-1.274 9.068c-2.397 17.059 7.13 33.559 23.102 40.013l8.49 3.431c10.709 4.327 18.828 13.345 22.012 24.447l2.524 8.802c4.749 16.559 20.163 27.758 37.379 27.158l9.151-.319c11.543-.402 22.628 4.533 30.053 13.38l5.886 7.014c11.074 13.196 29.71 17.157 45.194 9.606l8.23-4.014c10.381-5.062 22.516-5.062 32.897 0z" fill="#ffe177"/><g><g><path d="m112.919 162.902c-1.697 0-3.404-.573-4.809-1.748l-17.538-14.671c-3.177-2.658-3.598-7.388-.94-10.565 2.659-3.176 7.388-3.598 10.565-.94l17.538 14.671c3.177 2.658 3.598 7.388.94 10.565-1.482 1.773-3.612 2.688-5.756 2.688z" fill="#fff3de"/></g><g><path d="m370.716 162.902c-2.145 0-4.273-.915-5.757-2.688-2.657-3.177-2.236-7.907.94-10.565l17.538-14.671c3.179-2.658 7.907-2.236 10.565.94 2.657 3.177 2.236 7.907-.94 10.565l-17.538 14.671c-1.404 1.175-3.111 1.748-4.808 1.748z" fill="#fff3de"/></g><g><path d="m241.818 104.895c-4.143 0-7.5-3.358-7.5-7.5v-23.835c0-4.142 3.357-7.5 7.5-7.5s7.5 3.358 7.5 7.5v23.835c0 4.142-3.358 7.5-7.5 7.5z" fill="#fff3de"/></g></g><g><path d="m44.194 299.836c-3.981 0-7.298-3.131-7.486-7.149-.193-4.137 3.004-7.648 7.142-7.842l26.718-1.251c4.149-.2 7.648 3.003 7.843 7.141.193 4.137-3.004 7.648-7.142 7.842l-26.718 1.251c-.12.005-.239.008-.357.008z" fill="#fff3de"/></g><g><path d="m128.714 439.952c-1.685 0-3.379-.564-4.778-1.722-3.19-2.641-3.637-7.369-.996-10.56l16.562-20.012c2.643-3.191 7.369-3.636 10.561-.996 3.19 2.641 3.637 7.369.996 10.56l-16.562 20.012c-1.484 1.792-3.626 2.718-5.783 2.718z" fill="#fff3de"/></g><g><path d="m438.464 300.836c-.22 0-.439-.01-.662-.029l-25.737-2.251c-4.127-.361-7.179-3.999-6.818-8.125.361-4.127 4.013-7.17 8.125-6.818l25.737 2.251c4.127.361 7.179 3.999 6.818 8.125-.342 3.905-3.616 6.847-7.463 6.847z" fill="#fff3de"/></g><g><path d="m358.342 439.953c-2.2 0-4.379-.963-5.86-2.814l-17.514-21.884c-2.588-3.234-2.064-7.954 1.169-10.542 3.233-2.589 7.953-2.065 10.542 1.169l17.514 21.884c2.588 3.234 2.064 7.954-1.169 10.542-1.383 1.107-3.038 1.645-4.682 1.645z" fill="#fff3de"/></g><g fill="#ffd15b"><path d="m240.757 44.925 7.216 5.637c9.102 7.11 20.971 9.633 32.178 6.84l3.236-.807c-4.02-1.338-7.831-3.361-11.252-6.033l-7.216-5.637c-10.187-7.958-23.457-9.944-35.183-5.959 3.902 1.325 7.632 3.311 11.021 5.959z"/><path d="m155.16 57.401c6.996 1.744 14.249 1.415 20.927-.807l-5.649-1.408c-7.104-1.771-14.33-1.382-20.915.809z"/><path d="m470.369 273.099-4.852-7.766c-6.12-9.795-7.388-21.863-3.439-32.717l3.131-8.605c5.891-16.188.004-34.308-14.278-43.942l-7.591-5.121c-9.575-6.459-15.642-16.968-16.448-28.49l-.639-9.134c-1.203-17.185-13.951-31.344-30.916-34.336l-9.017-1.59c-11.375-2.006-21.191-9.139-26.614-19.336l-4.299-8.084c-8.088-15.21-25.494-22.959-42.209-18.792l-3.247.809c8.909 2.965 16.643 9.237 21.294 17.983l4.299 8.084c5.423 10.198 15.24 17.33 26.614 19.336l9.017 1.59c16.965 2.992 29.713 17.151 30.916 34.336l.639 9.134c.806 11.522 6.873 22.03 16.448 28.49l7.591 5.121c14.281 9.634 20.169 27.754 14.278 43.942l-3.131 8.605c-3.95 10.854-2.681 22.922 3.439 32.717l4.852 7.766c9.128 14.61 7.136 33.558-4.83 45.95l-6.36 6.587c-8.023 8.309-11.772 19.849-10.166 31.287l1.274 9.068c2.396 17.059-7.13 33.559-23.102 40.013l-8.49 3.431c-10.709 4.327-18.828 13.345-22.012 24.447l-2.524 8.802c-4.749 16.559-20.163 27.758-37.379 27.158l-9.151-.319c-11.543-.402-22.628 4.533-30.053 13.38l-5.886 7.014c-4.533 5.402-10.335 9.254-16.668 11.404 14.499 4.941 30.779.573 40.83-11.404l5.886-7.014c7.425-8.847 18.51-13.783 30.053-13.38l9.151.319c17.216.6 32.63-10.598 37.379-27.158l2.524-8.802c3.184-11.102 11.304-20.12 22.012-24.447l8.49-3.431c15.972-6.454 25.498-22.954 23.102-40.013l-1.274-9.068c-1.607-11.438 2.143-22.978 10.166-31.287l6.36-6.587c11.966-12.392 13.958-31.34 4.83-45.95z"/><path d="m201.207 495.509-8.23 4.014c-1.43.698-2.888 1.295-4.363 1.798 9.137 3.103 19.381 2.662 28.526-1.798l8.23-4.014c1.425-.695 2.885-1.285 4.367-1.789-9.315-3.169-19.574-2.579-28.53 1.789z"/></g><circle cx="241.818" cy="269.625" fill="#aca6d6" r="172.23"/><path d="m241.818 97.395c-3.724 0-7.416.132-11.081.365 89.954 5.714 161.149 80.469 161.149 171.865s-71.194 166.151-161.149 171.865c3.665.233 7.357.365 11.081.365 95.12 0 172.23-77.11 172.23-172.23s-77.11-172.23-172.23-172.23z" fill="#978ecb"/><circle cx="241.818" cy="269.625" fill="#fff3de" r="128.894"/><path d="m241.818 140.73c-4.075 0-8.103.198-12.081.568 65.52 6.092 116.813 61.215 116.813 128.326 0 67.112-51.293 122.235-116.813 128.327 3.978.37 8.006.568 12.081.568 71.187 0 128.895-57.708 128.895-128.895-.001-71.186-57.709-128.894-128.895-128.894z" fill="#ffe5c2"/><g fill="#978ecb"><path d="m342.512 276.586-10.822-15.999c-7.759-11.471-22.853-15.257-35.108-8.807-3.665 1.929-5.073 6.464-3.144 10.13 1.929 3.664 6.463 5.075 10.13 3.144 5.481-2.883 12.229-1.191 15.698 3.938l9.181 13.573h-48.795v-63.624c0-4.142-3.357-7.5-7.5-7.5s-7.5 3.358-7.5 7.5v27.819l-24.491-22.009c-3.082-2.77-7.824-2.514-10.591.565-2.769 3.081-2.516 7.823.565 10.592l34.517 31.018v27.208c0 3.634-2.957 6.591-6.591 6.591h-14.133c-3.635 0-6.592-2.957-6.592-6.591v-8.924c0-4.142-3.357-7.5-7.5-7.5s-7.5 3.358-7.5 7.5v8.924c0 11.905 9.687 21.591 21.592 21.591h14.133c10.735 0 19.64-7.884 21.292-18.162h52.023c4.987 0 9.538-2.736 11.876-7.142 2.337-4.402 2.054-9.705-.74-13.835z"/><path d="m197.362 211.441c-4.143 0-7.5 3.358-7.5 7.5v75.194c0 3.634-2.957 6.591-6.592 6.591h-14.133c-3.634 0-6.591-2.957-6.591-6.591v-8.924c0-4.142-3.357-7.5-7.5-7.5s-7.5 3.358-7.5 7.5v8.924c0 11.905 9.686 21.591 21.591 21.591h14.133c11.906 0 21.592-9.686 21.592-21.591v-75.194c0-4.142-3.357-7.5-7.5-7.5z"/></g><path d="m453.908 15.453h-7.953v-7.953c0-4.142-3.357-7.5-7.5-7.5s-7.5 3.358-7.5 7.5v7.953h-7.952c-4.143 0-7.5 3.358-7.5 7.5s3.357 7.5 7.5 7.5h7.952v7.952c0 4.142 3.357 7.5 7.5 7.5s7.5-3.358 7.5-7.5v-7.952h7.953c4.143 0 7.5-3.358 7.5-7.5s-3.357-7.5-7.5-7.5z" fill="#ffe177"/><g fill="#ffd15b"><circle cx="438.456" cy="82.247" r="7.508"/><circle cx="488.249" cy="53.018" r="7.508"/></g></g></svg>