<svg id="Capa_1" enable-background="new 0 0 510 510" height="512" viewBox="0 0 510 510" width="512" xmlns="http://www.w3.org/2000/svg"><g><path d="m175.788 0c5.242 20.968 9.758 39.032 15 60l32.106 10 32.106-10 10-30-10-30c-9.606 0-69.573 0-79.212 0z" fill="#9d6b5d"/><path d="m334.212 0c-9.607 0-69.573 0-79.212 0v60l32.106 10 32.105-10c5.243-20.968 9.759-39.032 15.001-60z" fill="#895050"/><path d="m195 90v60.581c0 4.581-2.052 8.851-5.629 11.713-14.262 11.409-44.145 35.314-52.483 41.985-10.733 8.587-16.888 21.395-16.888 35.14l10 112.791-10 97.79v15c0 24.813 20.185 45 45 45h90l10-210-10-210-30-10z" fill="#83d947"/><path d="m255 90c-28.278 0-88.527 0-105 0 0-10.492 0-19.508 0-30h105l10 15z" fill="#32bea6"/><path d="m373.111 204.28c-14.264-11.411-44.146-35.316-52.481-41.985-3.578-2.862-5.63-7.131-5.63-11.713 0-21.166 0-39.415 0-60.581l-30-10-30 10v420h90c24.813 0 45-20.186 45-45v-15l-10-97.791 10-112.791c0-13.744-6.155-26.552-16.889-35.139z" fill="#32bea6"/><path d="m120 240v60l10 15.25-10 14.75v30l10 16.5-10 13.5v60h135l10-105-10-105c-16.333 0-118.559 0-135 0z" fill="#0a617d"/><path d="m390 240c-16.333 0-118.559 0-135 0v210h135c0-24.099 0-186.747 0-210z" fill="#08475e"/><path d="m120 360v30h135l10-15-10-15c-29.717 0-108.552 0-135 0z" fill="#ffda2d"/><path d="m360 90c-28.278 0-88.527 0-105 0 0-10.492 0-19.508 0-30h105z" fill="#009c99"/><path d="m240 330c-14.518 0-105.387 0-120 0 0-10.492 0-19.508 0-30h120z" fill="#ffda2d"/><path d="m266.25 360h-5.625-5.625v15 15h45c0-10.492 0-19.508 0-30-11.804 0-21.946 0-33.75 0z" fill="#fdb504"/><g><path d="m25.606 4.394c-7.419 7.419-13.794 13.794-21.213 21.213 22.988 22.987 240.182 240.181 250.607 250.606l9-16.463-9-25.963c-7.012-7.012-222.225-222.224-229.394-229.393z" fill="#fe4a4a"/><path d="m255 233.787v42.426c5.998 5.998 216.691 216.692 229.394 229.394 7.419-7.419 13.794-13.794 21.213-21.213-2.784-2.784-247.318-247.318-250.607-250.607z" fill="#e80b6a"/></g></g></svg>