<svg id="Capa_1" enable-background="new 0 0 497 497" height="512" viewBox="0 0 497 497" width="512" xmlns="http://www.w3.org/2000/svg"><g><path d="m332.97 72.73v11.45l-83.611 8.82-85.329-8.82v-11.45c0-4.49.41-8.88 1.19-13.14.94-5.22 2.45-10.24 4.45-15 11-26.2 36.9-44.59 67.09-44.59h23.48c30.19 0 56.09 18.39 67.09 44.59 2 4.76 3.51 9.78 4.45 15 .78 4.26 1.19 8.65 1.19 13.14z" fill="#6c7fd8"/><path d="m260.24 0h-22.661c40.166 0 72.727 32.561 72.727 72.727v11.454l11.194 5.819 11.467-5.819v-11.454c0-40.166-32.561-72.727-72.727-72.727z" fill="#5a74d1"/><g><path d="m331.78 59.59h-166.56c.94-5.22 2.45-10.24 4.45-15h157.66c2 4.76 3.51 9.78 4.45 15z" fill="#5a74d1"/></g><path d="m198.8 141.09c0 19.2-15.57 34.77-34.77 34.77-6.04 0-11.71-1.54-16.66-4.24-10.79-5.91-18.1-17.37-18.1-30.53s7.31-24.62 18.1-30.52c4.95-2.7 10.62-4.24 16.66-4.24 19.2 0 34.77 15.56 34.77 34.76z" fill="#fff3de"/><path d="m198.8 141.09c0 19.2-15.57 34.77-34.77 34.77-6.04 0-11.71-1.54-16.66-4.24v-61.05c4.95-2.7 10.62-4.24 16.66-4.24 19.2 0 34.77 15.56 34.77 34.76z" fill="#ffe5c2"/><circle cx="332.967" cy="141.093" fill="#fff3de" r="34.766"/><path d="m332.967 106.327c-3.09 0-6.083.408-8.935 1.165 14.87 3.944 25.831 17.49 25.831 33.601s-10.961 29.657-25.831 33.601c2.852.756 5.845 1.165 8.935 1.165 19.201 0 34.766-15.565 34.766-34.766s-15.566-34.766-34.766-34.766z" fill="#ffe5c2"/><path d="m265.583 247.939h-34.167c-37.215 0-67.383-30.168-67.383-67.383v-96.375h168.933v96.375c.001 37.215-30.168 67.383-67.383 67.383z" fill="#fff3de"/><path d="m310.306 84.181v96.375c0 37.215-30.168 67.383-67.383 67.383h22.661c37.215 0 67.383-30.169 67.383-67.383v-96.375z" fill="#ffe5c2"/><path d="m348.245 497h-199.49l-11.33-105.5 11.33-111.001 15.499-5.218c9.452-3.182 19.359-4.805 29.333-4.805h109.827c9.974 0 19.881 1.623 29.333 4.805l15.499 5.218 13.049 108.25z" fill="#aca6d6"/><path d="m332.746 275.281c-2.361-.795-4.75-1.492-7.162-2.092v223.811h22.661l13.049-108.251-13.049-108.251z" fill="#978ecb"/><path d="m87.488 497h61.267v-216.501l-24.962 10.052c-27.768 11.182-45.957 38.115-45.957 68.05v128.746c-.001 5.332 4.321 9.653 9.652 9.653z" fill="#aca6d6"/><path d="m126.094 289.625v207.375h22.661v-216.501z" fill="#978ecb"/><path d="m409.512 497h-61.267v-216.501l24.962 10.052c27.768 11.182 45.957 38.115 45.957 68.05v128.746c.001 5.332-4.321 9.653-9.652 9.653z" fill="#aca6d6"/><path d="m373.208 290.551-24.962-10.052v9.126l2.302.927c27.768 11.182 45.957 38.115 45.957 68.05v128.746c0 5.331-4.321 9.652-9.652 9.652h22.661c5.331 0 9.652-4.321 9.652-9.652v-128.746c-.001-29.935-18.19-56.868-45.958-68.051z" fill="#978ecb"/><g><path d="m248.5 423.151c-4.142 0-7.5-3.358-7.5-7.5v-102.592c0-4.142 3.358-7.5 7.5-7.5s7.5 3.358 7.5 7.5v102.592c0 4.142-3.358 7.5-7.5 7.5z" fill="#978ecb"/></g><path d="m252.348 313.059h-7.696c-13.537 0-24.511-10.974-24.511-24.511v-44.173h56.719v44.173c-.001 13.536-10.975 24.511-24.512 24.511z" fill="#ffe5c2"/><path d="m254.198 244.375v44.173c0 10.927-7.152 20.18-17.029 23.344 2.359.756 4.872 1.167 7.482 1.167h7.696c13.537 0 24.511-10.974 24.511-24.511v-44.173z" fill="#fed2a4"/><path d="m283.5 222.972h-70c-27.32 0-49.467-23.147-49.467-50.467v21.772c0 42.084 34.116 76.199 76.199 76.199h16.535c42.084 0 76.199-34.116 76.199-76.199v-20.772c.001 27.32-22.147 49.467-49.466 49.467z" fill="#8b8089"/><path d="m306.812 217.138c-9.418 29.982-36.87 51.963-69.642 53.261 1.017.04 2.036.077 3.063.077h16.535c42.084 0 76.199-34.116 76.199-76.199v-20.772c0 18.889-10.591 35.3-26.155 43.633z" fill="#7b7179"/><g><path d="m240.362 173.562c-.54 0-1.087-.059-1.636-.181-4.043-.9-6.591-4.907-5.691-8.95l5.558-24.968c.9-4.043 4.906-6.59 8.95-5.691 4.043.9 6.591 4.907 5.691 8.95l-5.558 24.968c-.778 3.495-3.877 5.872-7.314 5.872z" fill="#ffe5c2"/></g><g fill="#6c7fd8"><circle cx="282.421" cy="346.741" r="7.581"/><circle cx="282.421" cy="388.005" r="7.581"/></g></g></svg>