<svg id="Capa_1" enable-background="new 0 0 490.591 490.591" height="512" viewBox="0 0 490.591 490.591" width="512" xmlns="http://www.w3.org/2000/svg"><g><path d="m145.544 274.091v208l-26.069 8.5h-49.391c-5.63 0-10.07-4.8-9.62-10.42l11.91-149.29c1.38-17.3 12.43-32.33 28.53-38.81l29.73-11.98z" fill="#8b8089"/><path d="m145.544 274.091v208l-26.069 8.5h-21.801l32.96-210.5z" fill="#7b7179"/><path d="m420.505 490.591h-48.818l-26.648-4.875v-211.626l44.647 17.98c16.098 6.483 27.145 21.513 28.526 38.813l11.915 149.289c.448 5.614-3.988 10.419-9.622 10.419z" fill="#8b8089"/><path d="m430.127 480.171-11.915-149.289c-1.381-17.299-12.427-32.33-28.526-38.813l-44.647-17.98v8.779l22.846 9.2c16.098 6.483 27.145 21.513 28.526 38.813l11.915 149.289c.448 5.616-3.988 10.42-9.622 10.42h21.801c5.634.001 10.07-4.804 9.622-10.419z" fill="#7b7179"/><path d="m336.279 362.169-90.76 26.581-91.151-26.612c-31.253-9.124-52.737-37.777-52.737-70.335l14.446-35.495c3.836-9.427 6.264-19.367 7.205-29.501l15.246-164.184c3.295-35.485 33.07-62.623 68.708-62.623h76.117c35.638 0 65.413 27.138 68.708 62.624l15.246 164.184c.941 10.134 3.369 20.074 7.205 29.501l14.446 35.495v.048c-.001 32.534-21.455 61.172-52.679 70.317z" fill="#8b8089"/><path d="m374.511 256.308c-3.837-9.427-6.264-19.367-7.205-29.501l-15.245-164.183c-3.296-35.486-33.071-62.624-68.709-62.624h-21.801c35.638 0 65.413 27.138 68.708 62.624l15.246 164.183c.941 10.134 3.369 20.074 7.205 29.501l14.446 35.495v.048c0 32.535-21.454 61.174-52.678 70.318l-79.877 23.393 10.917 3.187 90.76-26.581c31.224-9.144 52.678-37.783 52.678-70.318v-.048z" fill="#7b7179"/><path d="m321.714 107.668v33.283l-76.133 10.14-76.707-10.14v-33.273c0-11.243 9.114-20.357 20.357-20.357h112.136c11.237 0 20.347 9.109 20.347 20.347z" fill="#fff3de"/><g><path d="m245.094 148.451c-4.143 0-7.5-3.358-7.5-7.5v-11.488c0-4.142 3.357-7.5 7.5-7.5s7.5 3.358 7.5 7.5v11.488c0 4.142-3.358 7.5-7.5 7.5z" fill="#ffe5c2"/></g><path d="m301.367 87.321h-21.801c11.237 0 20.347 9.11 20.347 20.347v33.283l10.131 8.89 11.67-8.89v-33.283c0-11.238-9.11-20.347-20.347-20.347z" fill="#ffe5c2"/><path d="m145.549 274.09h199.49v189.668h-199.49z" fill="#8b8089"/><path d="m299.913 140.951 7.108 34.17-61.44 6.47-76.707-6.47v-34.17z" fill="#aca6d6"/><path d="m299.913 140.951v34.17l11.866 6.47 9.935-6.47v-34.17z" fill="#978ecb"/><path d="m349.887 490.591-3.078-109.348-46.896-206.122h-131.039l-49.399 315.47z" fill="#978ecb"/><path d="m321.714 175.121h-21.801l49.974 315.47h21.8z" fill="#8379c1"/><g><path d="m199.618 437.429c-.215 0-.431-.009-.648-.028-4.127-.354-7.187-3.985-6.833-8.113l11.831-138.157c.354-4.126 3.987-7.184 8.112-6.833 4.127.354 7.187 3.985 6.833 8.113l-11.831 138.157c-.335 3.909-3.612 6.861-7.464 6.861z" fill="#8379c1"/></g><g><path d="m294.728 437.429c-3.731 0-6.964-2.782-7.434-6.581l-22.137-174.417c-.508-4.111 2.412-7.855 6.523-8.364 4.092-.507 7.855 2.412 8.363 6.523l22.137 174.417c.508 4.111-2.412 7.855-6.523 8.364-.311.039-.622.058-.929.058z" fill="#8379c1"/></g></g></svg>