<svg id="Capa_1" enable-background="new 0 0 510 510" height="512" viewBox="0 0 510 510" width="512" xmlns="http://www.w3.org/2000/svg"><g><g><path d="m75 133.2 10 15-10 15-7.5 10-7.5-10c0-11.4 0-21.2 0-32.6l7.4-8.1z" fill="#fff7f4"/><path d="m82.6 122.5 7.4 8.1v32.6l-7.5 10-7.5-10c0-10.5 0-19.5 0-30z" fill="#f0e6e6"/><path d="m30 163.2v135l22.5 10 22.5-10 10-67.5-10-67.5c-15 0-30 0-45 0z" fill="#83d947"/><path d="m120 163.2c-15 0-30 0-45 0v135l22.5 10 22.5-10c0-16.3 0-118.6 0-135z" fill="#32bea6"/><path d="m54.6 31.9c-6.4 10.3-13.6 22.6-18.5 33.6-5.3 12-6.1 18.5-6.1 22.7 0 24.8 20.2 45 45 45l10-65.7-10-65.7-6.2 8.9c-5.6 8.3-8.6 12.3-14.2 21.2z" fill="#ffda2d"/><path d="m120 88.2c0-4.2-.8-10.7-6.1-22.7-6.4-14.5-18.6-34.3-26.6-45.8-1.2-1.9-11-16.1-12.3-17.9v131.4c12.4 0 23.7-5 31.8-13.2 8.2-8.1 13.2-19.4 13.2-31.8z" fill="#fdb504"/></g><g><path d="m435 133.2 10 15-10 15-7.5 10-7.5-10c0-11.4 0-21.2 0-32.6l7.4-8.1z" fill="#fff7f4"/><path d="m442.6 122.5 7.4 8.1v32.6l-7.5 10-7.5-10c0-10.5 0-19.5 0-30z" fill="#f0e6e6"/><path d="m390 163.2v135l22.5 10 22.5-10 10-67.5-10-67.5c-15 0-30 0-45 0z" fill="#fe4a4a"/><path d="m480 163.2c-15 0-30 0-45 0v135l22.5 10 22.5-10c0-16.3 0-118.6 0-135z" fill="#e80b6a"/><path d="m390 88.2c0 24.8 20.2 45 45 45l10-65.7-10-65.7c-13.1 18.9-45 63.3-45 86.4z" fill="#ffda2d"/><path d="m480 88.2c0-4.2-.8-10.7-6.1-22.7-4.9-11-12.1-23.4-18.5-33.5-5.9-9.3-7.9-12-20.4-30.1v131.4c12.4 0 23.7-5 31.8-13.2 8.2-8.2 13.2-19.5 13.2-31.9z" fill="#fdb504"/></g><path d="m255 133.2 10 15-10 15-7.5 10-7.5-10c0-11.4 0-21.2 0-32.6l7.4-8.1z" fill="#fff7f4"/><path d="m262.6 122.5 7.4 8.1v32.6l-7.5 10-7.5-10c0-10.5 0-19.5 0-30z" fill="#f0e6e6"/><path d="m210 163.2v135l22.5 10 22.5-10 10-67.5-10-67.5c-15 0-30 0-45 0z" fill="#7ed8f6"/><path d="m300 163.2c-15 0-30 0-45 0v135l22.5 10 22.5-10c0-16.3 0-118.6 0-135z" fill="#6aa9ff"/><path d="m247.5 318.2-7.5 10v30c-15.4 0-130.7 0-150 0 0-10.5 0-19.5 0-30l-15-10-15 10v60h180v90l7.5 10 7.5-10 10-70-10-80z" fill="#ffda2d"/><path d="m435 318.2-15 10v30c-19.4 0-134.5 0-150 0v-30l-7.5-10-7.5 10v150l7.5 10 7.5-10c0-10.6 0-76.1 0-90h180c0-7.3 0-52.7 0-60z" fill="#fdb504"/><path d="m165 478.2v30h90l10-15-10-15c-10.9 0-79 0-90 0z" fill="#fdb504"/><path d="m345 478.2c-10.9 0-79 0-90 0v30h90c0-10.5 0-19.5 0-30z" fill="#f77e01"/><path d="m210 418.2v30h45l10-15-10-15c-15 0-30 0-45 0z" fill="#fdb504"/><path d="m255 418.2v30h45c0-10.5 0-19.5 0-30-15 0-30 0-45 0z" fill="#f77e01"/><path d="m0 298.2h150v30h-150z" fill="#fdb504"/><path d="m180 298.2v30h75l10-15-10-15c-20.2 0-63.2 0-75 0z" fill="#fdb504"/><path d="m330 298.2c-20.2 0-63.2 0-75 0v30h75c0-10.5 0-19.5 0-30z" fill="#f77e01"/><path d="m360 328.2h150c0-10.5 0-19.5 0-30-10.1 0-139.9 0-150 0z" fill="#f77e01"/><path d="m242.7 19.7c-8.6 12.5-20.3 31.7-26.5 45.8-5.3 12-6.1 18.5-6.1 22.7 0 24.8 20.2 45 45 45l10-65.7-10.1-65.7c-1.3 1.9-11.1 16-12.3 17.9z" fill="#ffda2d"/><path d="m300 88.2c0-4.2-.8-10.7-6.1-22.7-4.9-11-12.1-23.4-18.5-33.5-5.9-9.3-7.9-12-20.4-30.1v131.4c24.8-.1 45-20.3 45-45.1z" fill="#fdb504"/></g></svg>