<svg id="Capa_1" enable-background="new 0 0 510 510" height="512" viewBox="0 0 510 510" width="512" xmlns="http://www.w3.org/2000/svg"><g><path d="m0 21.213v197.574l10 36.213-10 36.213v197.574l21.213 21.213h197.575l46.212-255-46.212-255c-8.837 0-183.216 0-197.575 0z" fill="#ffda2d"/><path d="m488.787 0c-14.465 0-188.629 0-197.574 0l-36.213 255 36.213 255h197.574l21.213-21.213v-197.574l-10-36.213 10-36.213v-197.574z" fill="#fdb504"/><path d="m419.999 441.212 68.788 68.788h21.213c0-7.419 0-13.794 0-21.213-9.869-9.869-58.967-58.967-68.788-68.788l-21.212.001z" fill="#f77e01"/><path d="m68.787 420-68.787 68.787v21.213h21.213l68.787-68.787.334-20.879z" fill="#fdb504"/><path d="m90.002 68.789-68.789-68.789h-21.213v21.213l68.789 68.789 21.128.082z" fill="#fdb504"/><path d="m441.213 90c9.838-9.838 58.926-58.926 68.787-68.787 0-7.419 0-13.794 0-21.213-7.419 0-13.794 0-21.213 0-9.869 9.869-58.965 58.965-68.787 68.787v21.213z" fill="#f77e01"/><path d="m218.787 0c-7.292 7.293-52.688 52.688-60 60-7.259 0-52.693 0-60 0-2.91 2.91 10.692-10.691-38.787 38.787v60c-7.292 7.292-52.688 52.688-60 60v72.426c7.293 7.292 52.688 52.688 60 60v60c11.21 11.21 27.559 27.559 38.787 38.787h60l60 60h36.213l10-255-10-255c-12.665 0-23.548 0-36.213 0z" fill="#9d6b5d"/><path d="m351.213 450h60c11.21-11.21 27.559-27.559 38.787-38.787 0-7.259 0-52.693 0-60 7.293-7.293 52.688-52.688 60-60 0-8.782 0-63.614 0-72.426-7.293-7.293-52.688-52.688-60-60 0-7.259 0-52.693 0-60-2.91-2.911 10.691 10.691-38.787-38.787-7.259 0-52.693 0-60 0-7.292-7.292-52.688-52.687-60-60-12.665 0-23.548 0-36.213 0v510h36.213c7.292-7.292 52.687-52.687 60-60z" fill="#895050"/><path d="m231.213 30c-7.293 7.293-52.688 52.688-60 60-7.259 0-52.693 0-60 0-2.141 2.141-19.113 19.113-21.213 21.213v60c-7.293 7.293-52.688 52.688-60 60v47.574c7.292 7.293 52.688 52.688 60 60v60c7.419 7.418 13.795 13.795 21.213 21.213h60c7.292 7.293 52.688 52.688 60 60h23.787l10-225-10-225c-8.319 0-15.468 0-23.787 0z" fill="#895050"/><path d="m338.787 420h60c7.418-7.418 13.795-13.795 21.213-21.213 0-7.259 0-52.693 0-60 7.293-7.293 52.688-52.688 60-60 0-15.123 0-32.45 0-47.574-7.293-7.292-52.688-52.688-60-60 0-7.259 0-52.693 0-60-2.141-2.14-19.113-19.113-21.213-21.213-7.259 0-52.693 0-60 0-7.293-7.292-52.688-52.687-60-60-8.319 0-15.468 0-23.787 0v450h23.787c7.293-7.292 52.688-52.687 60-60z" fill="#624a4f"/><path d="m294.999 372.711c10.414 11.032 24.776 17.289 40.001 17.289 30.326 0 55-24.672 55-55 0-15.164-6.168-28.914-16.127-38.873-.382-.382-.769-.758-1.162-1.128l-62.711 12.668z" fill="#f0e6e6"/><circle cx="335" cy="335" fill="#d2cbd7" r="24.988"/><path d="m215.002 372.71c-10.036 10.64-24.257 17.29-40.002 17.29-30.327 0-55-24.673-55-55 0-15.745 6.65-29.966 17.29-40.002l62.71 12.336z" fill="#fff7f4"/><circle cx="175" cy="335" fill="#f0e6e6" r="25"/><path d="m137.289 215.001c-10.639-10.035-17.289-24.256-17.289-40.001 0-30.327 24.673-55 55-55 15.745 0 29.966 6.65 40.001 17.289l-12.668 64.711z" fill="#fff7f4"/><circle cx="175" cy="175" fill="#f0e6e6" r="25"/><path d="m372.711 215.001c10.782-10.164 17.289-24.452 17.289-40.001 0-30.326-24.672-55-55-55-15.164 0-28.914 6.168-38.873 16.127-.381.381-.757.768-1.127 1.161l15 62.712z" fill="#f0e6e6"/><circle cx="335" cy="175" fill="#d2cbd7" r="24.988"/><path d="m200 175c0 13.785-11.214 25-25 25-15.164 0-28.914 6.168-38.873 16.127-21.498 21.498-21.513 56.233 0 77.745 9.959 9.96 23.709 16.128 38.873 16.128 13.785 0 25 11.214 25 25 0 15.164 6.168 28.914 16.127 38.873s23.709 16.127 38.873 16.127l10-135-10-135c-15.164 0-28.914 6.168-38.873 16.127s-16.127 23.709-16.127 38.873z" fill="#83d947"/><path d="m310 335c0-13.785 11.214-25 25-25 30.326 0 55-24.672 55-55 0-15.164-6.168-28.914-16.127-38.873s-23.709-16.127-38.873-16.127c-6.893 0-13.143-2.804-17.669-7.331-4.527-4.526-7.331-10.776-7.331-17.669 0-15.164-6.168-28.914-16.127-38.873s-23.709-16.127-38.873-16.127v270c15.164 0 28.914-6.168 38.873-16.127s16.127-23.709 16.127-38.873z" fill="#32bea6"/><path d="m230 175c0 30.326-24.672 55-55 55-6.893 0-13.143 2.804-17.669 7.331-9.772 9.772-9.778 25.561 0 35.339 4.526 4.526 10.776 7.33 17.669 7.33 30.326 0 55 24.672 55 55 0 13.785 11.214 25 25 25l10-105-10-105c-13.785 0-25 11.214-25 25z" fill="#fe4a4a"/><path d="m280 335c0-30.326 24.672-55 55-55 6.893 0 13.143-2.804 17.669-7.331 9.772-9.772 9.778-25.56 0-35.339-4.526-4.526-10.776-7.33-17.669-7.33-30.326 0-55-24.672-55-55 0-6.893-2.804-13.143-7.331-17.669-4.526-4.527-10.776-7.331-17.669-7.331v210c13.785 0 25-11.214 25-25z" fill="#e80b6a"/><g id="XMLID_147_"><path d="m240 240v30h15l3.375-15-3.375-15c-4.362 0-9.352 0-15 0z" fill="#ffda2d"/><path d="m270 240c-5.246 0-15 0-15 0v30h15c0-10.492 0-19.508 0-30z" fill="#fdb504"/></g></g></svg>