<svg id="Capa_1" enable-background="new 0 0 506.6 506.6" height="512" viewBox="0 0 506.6 506.6" width="512" xmlns="http://www.w3.org/2000/svg"><g><g><path d="m176.9 19.1c-1.4-.9 2 1.4-28.5-19.1-2.3 11.8-4.3 21.9-6.6 33.7-10.8 54.9-53.2 97.3-108.1 108.1-11.8 2.3-21.9 4.3-33.7 6.6 6.7 10 12.4 18.5 19.1 28.5 31.2 46.4 31.2 106.5 0 152.9-.2.2-15.3 22.7-19.1 28.4 11.8 2.3 21.9 4.3 33.7 6.6 54.9 10.8 97.3 53.2 108.1 108.1.5 2.4-2-10.1 6.6 33.7.7-.5 27.9-18.8 28.5-19.1 11.5-7.7 23.8-13.5 36.5-17.4 13-4 26.5-6 40-6l10-210.7-10-210.8c-26.6-.1-53.3-7.8-76.5-23.5z" fill="#0a617d"/><path d="m358.2 506.6c.5-2.7 5.9-30.3 6.6-33.7 10.8-54.9 53.2-97.3 108.1-108.1 11.8-2.3 21.9-4.3 33.7-6.6-.2-.3-15.3-22.8-19.1-28.5-31.2-46.4-31.2-106.5 0-152.9 6.7-10 12.4-18.5 19.1-28.5-2.4-.5 10.1 2-33.7-6.6-54.9-10.7-97.3-53.1-108.1-108-.5-2.7-6-30.4-6.6-33.7-1.4.9 2-1.4-28.5 19.1-22.3 15-48.7 23.4-76.4 23.4v421.5c26.5 0 53.1 7.7 76.4 23.4.8.6 28 18.8 28.5 19.2z" fill="#08475e"/><g id="XMLID_146_"><g><g id="XMLID_20_"><g><path d="m188.9 206.1c-.2-13 1.7-25.8 5.8-38.2 4.4-13.5 10.9-33.1 15.3-46.5-11.2 8.7-27.5 21.3-38.7 30-63 48.8-69.2 141.7-14.1 198.3 25.4 26.1 59.7 40.6 96.2 40.4l10-40.9-10-40.9c-37.5-19-63.9-57.8-64.5-102.2z" fill="#ffda2d"/></g><g><path d="m388.1 299.6c-3.2 1 3.1-1-46.5 15.3-12.3 4-25.1 6-38.2 5.8-17.6-.3-34.7-4.6-50.2-12.4v81.9c38.8-.2 74.4-16.8 99.4-45.2 3.7-4.1 31.4-40 35.5-45.4z" fill="#fdb504"/></g></g></g></g></g><g fill="#fdb504"><path d="m313.3 193.3h30v30h-30z"/><path d="m283.3 223.3h30v30h-30z"/><path d="m253.3 193.3h30v30h-30z"/><path d="m283.3 163.3h30v30h-30z"/></g></g></svg>