<svg id="Capa_1" enable-background="new 0 0 504.497 504.497" height="512" viewBox="0 0 504.497 504.497" width="512" xmlns="http://www.w3.org/2000/svg"><g><path d="m434.981 206.172h-.072c-2.372 0-4.314-1.884-4.382-4.254-1.389-48.614-25.981-94.592-66.395-122.077l-101.812-69.244c-6.078-4.134-14.064-4.134-20.142 0l-101.813 69.244c-40.027 27.223-65.536 73.597-66.442 122.033-.045 2.388-1.994 4.299-4.383 4.299h-.025c-8.211 0-14.867 6.656-14.867 14.867v40.905c0 8.211 6.656 14.867 14.867 14.867 2.425 0 4.392 1.966 4.392 4.392v204.699c0 10.27 8.325 18.595 18.595 18.595h319.491c10.27 0 18.595-8.325 18.595-18.595v-204.7c0-2.425 1.966-4.392 4.392-4.392 8.211 0 14.867-6.656 14.867-14.867v-40.905c.001-8.211-6.656-14.867-14.866-14.867z" fill="#d7f8c4"/><path d="m434.981 206.172h-.072c-2.372 0-4.314-1.884-4.382-4.254-1.389-48.614-25.981-94.592-66.395-122.077l-101.812-69.244c-5.967-4.058-13.769-4.122-19.803-.212.112.073.228.137.339.212l101.812 69.243c40.027 27.223 65.536 73.597 66.442 122.033.045 2.388 1.994 4.299 4.383 4.299h.025c8.211 0 14.867 6.656 14.867 14.867v40.905c0 8.211-6.656 14.867-14.867 14.867-2.425 0-4.392 1.966-4.392 4.392v204.699c0 10.27-8.325 18.595-18.595 18.595h19.465c10.27 0 18.595-8.325 18.595-18.595v-204.699c0-2.425 1.966-4.392 4.392-4.392 8.211 0 14.867-6.656 14.867-14.867v-40.905c-.002-8.211-6.659-14.867-14.869-14.867z" fill="#c9f6b0"/><path d="m388.095 283.291-31.287 186.215h-85.25l-20.19-8.508-18.585 8.508h-85.105l-31.277-184.508s12.453-146.672 22.689-157.986c2.7-2.992 5.572-5.844 8.594-8.554 3.869-3.476 8-6.71 12.363-9.682l92.2-62.71 92.2 62.71c4.363 2.972 8.494 6.206 12.363 9.682 3.023 2.71 5.894 5.562 8.594 8.554 10.238 11.313 22.691 156.279 22.691 156.279z" fill="#aca6d6"/><path d="m388.69 165.791c-5.149-14.287-13.048-27.466-23.284-38.78-2.7-2.992-5.572-5.844-8.594-8.554-3.869-3.476-8-6.71-12.363-9.682l-92.2-62.709-9.599 6.529 82.601 56.18c4.363 2.972 8.494 6.206 12.363 9.682 3.023 2.71 5.894 5.562 8.594 8.554 10.237 11.315 18.136 24.493 23.284 38.78 4.514 12.534 6.902 25.914 6.902 39.617h19.199c-.001-13.703-2.389-27.083-6.903-39.617z" fill="#978ecb"/><path d="m271.562 192.371v-91.389c0-1.914-.935-3.707-2.504-4.803l-13.532-9.447c-2.014-1.406-4.691-1.406-6.705 0l-13.532 9.447c-1.569 1.096-2.504 2.889-2.504 4.803v91.389c0 1.578.758 3.06 2.038 3.984l11.737 8.465c1.28.923 2.038 2.405 2.038 3.984 0 1.605-.784 3.109-2.1 4.028l-11.613 8.107c-1.316.919-2.1 2.423-2.1 4.028v91.882c0 1.578.758 3.06 2.038 3.984l11.737 8.465c1.28.923 2.038 2.405 2.038 3.984 0 1.605-.784 3.109-2.1 4.028l-11.613 8.107c-1.316.919-2.1 2.423-2.1 4.028v120.06h38.779v-120.06c0-1.605-.784-3.109-2.1-4.027l-11.613-8.107c-1.316-.919-2.1-2.422-2.1-4.027 0-1.578.758-3.06 2.038-3.984l11.737-8.466c1.28-.923 2.038-2.405 2.038-3.984v-91.882c0-1.605-.784-3.109-2.1-4.028l-11.613-8.107c-1.316-.919-2.1-2.423-2.1-4.028 0-1.578.758-3.06 2.038-3.984l11.737-8.466c1.278-.923 2.036-2.405 2.036-3.984z" fill="#5a74d1"/><path d="m255.749 208.807c0 1.6.78 3.11 2.1 4.02l11.61 8.11c1.32.92 2.1 2.42 2.1 4.03v91.88c0 1.58-.75 3.06-2.03 3.99l-11.74 8.46c-1.28.92-2.04 2.41-2.04 3.98 0 1.61.78 3.11 2.1 4.03l11.61 8.11c1.32.92 2.1 2.42 2.1 4.03v120.06h-20.19v-120.06c0-1.61-.78-3.11-2.1-4.03l-7.19-5.02 4.42-3.09c1.32-.92 2.1-2.42 2.1-4.03 0-1.57-.76-3.06-2.04-3.98l-4.48-3.23 7.25-5.23c1.28-.93 2.04-2.41 2.04-3.99v-91.88c0-1.61-.78-3.11-2.1-4.03l-7.19-5.02 4.42-3.09c1.32-.91 2.1-2.42 2.1-4.02 0-1.58-.76-3.06-2.04-3.99l-4.48-3.23 7.25-5.23c1.28-.93 2.04-2.41 2.04-3.99v-91.384c0-1.915-.936-3.709-2.506-4.804l-6.784-4.732 6.738-4.708c2.014-1.407 4.692-1.408 6.706-.002l13.531 9.441c1.57 1.095 2.505 2.889 2.505 4.803v91.385c0 1.58-.75 3.06-2.03 3.99l-11.74 8.46c-1.28.931-2.04 2.411-2.04 3.991z" fill="#4f66d0"/><path d="m395.589 208.867v-3.46c0-13.7-2.38-27.08-6.9-39.62-5.15-14.28-13.05-27.46-23.28-38.78h-8.6v65.356c0 1.578.759 3.061 2.039 3.984l11.745 8.47c2.745 1.979 2.713 6.076-.062 8.012l-11.611 8.102c-1.317.919-2.101 2.423-2.101 4.028v91.894c0 1.579.759 3.061 2.039 3.984l11.736 8.461c2.744 1.979 2.713 6.074-.06 8.011l-11.615 8.111c-1.316.919-2.1 2.422-2.1 4.027v120.059h30.688c4.469 0 8.092-3.623 8.092-8.092v-128.067-124.48z" fill="#5a74d1"/><path d="m388.689 165.787c-5.15-14.28-13.05-27.46-23.28-38.78l-8.6 13.62c5.22 7.84 9.48 16.29 12.68 25.16 4.52 12.54 6.9 25.92 6.9 39.62v3.46 124.48 136.16h11.108c4.469 0 8.092-3.623 8.092-8.092v-128.068-124.48-3.46c0-13.7-2.38-27.08-6.9-39.62z" fill="#4f66d0"/><path d="m139.089 127.007c-10.23 11.32-18.13 24.5-23.28 38.78-4.52 12.54-6.9 25.92-6.9 39.62v3.46h-.007v124.485 128.06c0 4.469 3.623 8.092 8.092 8.092l30.689.001v-120.057c0-1.605-.784-3.109-2.1-4.028l-11.614-8.107c-2.774-1.936-2.806-6.032-.062-8.011l11.738-8.468c1.28-.923 2.038-2.405 2.038-3.984v-91.888c0-1.605-.784-3.109-2.1-4.028l-11.614-8.106c-2.774-1.936-2.806-6.032-.062-8.011l11.743-8.47c1.28-.923 2.038-2.405 2.038-3.984v-26.577-38.78h-8.599z" fill="#5a74d1"/><path d="m147.689 127.007v65.36c0 1.57-.76 3.06-2.04 3.98l-11.74 8.47c-2.75 1.98-2.71 6.08.06 8.01l11.61 8.11c1.32.92 2.1 2.42 2.1 4.03v91.88c0 1.58-.75 3.06-2.03 3.99l-11.74 8.47c-2.75 1.97-2.71 6.07.06 8.01l11.61 8.1c1.32.92 2.1 2.43 2.1 4.03v120.06h-19.39v-120.06c0-1.6-.79-3.11-2.1-4.03l-11.62-8.1c-2.77-1.94-2.8-6.04-.06-8.01l11.74-8.47c1.28-.93 2.04-2.41 2.04-3.99v-91.88c0-1.61-.79-3.11-2.1-4.03l-11.62-8.11c-2.77-1.93-2.8-6.03-.06-8.01l11.74-8.47c1.28-.92 2.04-2.41 2.04-3.98v-51.42c3.23-4.89 6.84-9.56 10.8-13.94z" fill="#4f66d0"/><path d="m326.673 377.467-9.462 13.567c-.655.94-1.729 1.5-2.874 1.5h-.292c-1.145 0-2.218-.559-2.873-1.498l-9.476-13.571c-.655-.939-1.728-1.498-2.873-1.498h-93.296c-1.145 0-2.218.559-2.873 1.498l-9.476 13.571c-.656.939-1.728 1.498-2.873 1.498h-.152c-1.146 0-2.219-.56-2.874-1.5l-9.462-13.567c-.655-.94-1.729-1.5-2.874-1.5h-66.042v38.79h66.042c1.145 0 2.218-.56 2.874-1.499l9.475-13.579c.655-.939 1.729-1.499 2.874-1.499h.14c1.145 0 2.218.559 2.873 1.498l10.522 15.069h95.123c1.145 0 2.218-.559 2.873-1.498l9.476-13.571c.656-.939 1.728-1.498 2.873-1.498h.28c1.145 0 2.218.56 2.874 1.499l9.475 13.579c.655.939 1.728 1.499 2.874 1.499h66.052v-38.79h-66.052c-1.148 0-2.221.56-2.876 1.5z" fill="#80d261"/><g fill="#68ca44"><path d="m251.369 375.967h20.19v38.78h-20.19z"/><path d="m376.389 375.967h19.2v38.79h-19.2z"/><path d="m128.249 375.967h19.43v38.79h-19.43z"/></g><path d="m326.673 252.996-9.464 13.564c-.655.939-1.729 1.499-2.874 1.499h-.294c-1.145 0-2.218-.559-2.873-1.498l-9.473-13.566c-.655-.939-1.728-1.498-2.873-1.498h-93.296c-1.145 0-2.218.559-2.873 1.498l-9.473 13.566c-.656.939-1.728 1.498-2.873 1.498h-.154c-1.145 0-2.218-.56-2.874-1.499l-9.464-13.564c-.655-.939-1.729-1.499-2.874-1.499h-66.042v38.77h66.043c1.145 0 2.218-.559 2.873-1.498l9.47-13.565c.655-.939 1.728-1.498 2.873-1.498h.141c1.145 0 2.218.559 2.873 1.498l9.48 13.576c.656.939 1.728 1.498 2.873 1.498h93.296c1.145 0 2.218-.559 2.873-1.498l9.48-13.576c.656-.939 1.728-1.498 2.873-1.498h.281c1.145 0 2.218.559 2.873 1.498l9.47 13.565c.655.939 1.728 1.498 2.873 1.498h66.053v-38.77h-66.052c-1.144 0-2.217.56-2.872 1.499z" fill="#80d261"/><path d="m251.369 251.497h20.19v38.78h-20.19z" fill="#68ca44"/><path d="m376.389 251.497h19.2v38.77h-19.2z" fill="#68ca44"/><path d="m128.295 251.497h19.383v38.77h-19.383z" fill="#68ca44"/><path d="m388.689 165.787h-59.14c-1.15 0-2.22-.56-2.88-1.5l-9.4-13.46c-.66-.94-1.73-1.5-2.87-1.5h-.42c-1.15 0-2.22.56-2.88 1.5l-9.4 13.47c-.66.94-1.73 1.5-2.88 1.5h-93.29c-1.15 0-2.22-.56-2.88-1.5l-9.4-13.47c-.66-.94-1.73-1.5-2.88-1.5h-.28c-1.14 0-2.21.56-2.87 1.5l-9.41 13.46c-.66.94-1.73 1.5-2.88 1.5h-59.12c3.16-8.76 7.35-17.1 12.49-24.85 3.22-4.89 6.83-9.55 10.79-13.93h35.84c1.15 0 2.22.56 2.88 1.5l9.55 13.68c.66.94 1.73 1.5 2.87 1.5 1.15 0 2.22-.56 2.88-1.5l9.54-13.67c.66-.94 1.73-1.5 2.88-1.5h93.29c1.15 0 2.22.56 2.88 1.5l9.54 13.67c.66.94 1.73 1.5 2.88 1.5h.13c1.15 0 2.22-.56 2.88-1.5l9.54-13.68c.66-.94 1.73-1.5 2.88-1.5h35.86c10.23 11.32 18.13 24.5 23.28 38.78z" fill="#80d261"/><path d="m147.689 127.007v38.78h-19.39v-24.85c3.22-4.89 6.83-9.55 10.79-13.93z" fill="#68ca44"/><path d="m251.369 127.017h20.19v38.78h-20.19z" fill="#68ca44"/><path d="m388.689 165.787h-19.2c-5.15-14.28-13.04-27.46-23.28-38.78h19.2c10.23 11.32 18.13 24.5 23.28 38.78z" fill="#68ca44"/><g><path d="m108.902 251.497h-20.192c-4.142 0-7.5-3.358-7.5-7.5s3.358-7.5 7.5-7.5h20.192c4.142 0 7.5 3.358 7.5 7.5s-3.358 7.5-7.5 7.5z" fill="#5a74d1"/></g><g><path d="m415.787 251.497h-20.192c-4.142 0-7.5-3.358-7.5-7.5s3.358-7.5 7.5-7.5h20.192c4.142 0 7.5 3.358 7.5 7.5s-3.358 7.5-7.5 7.5z" fill="#4f66d0"/></g><g><path d="m244.673 90.33v-82.83c0-4.142 3.358-7.5 7.5-7.5s7.5 3.358 7.5 7.5v82.83z" fill="#4f66d0"/></g></g></svg>