<svg id="Capa_1" enable-background="new 0 0 510 510" height="512" viewBox="0 0 510 510" width="512" xmlns="http://www.w3.org/2000/svg"><g><g id="XMLID_286_"><g><g><path d="m120 510h-30v-30l15-10 15 10z" fill="#ffda2d"/></g></g></g><g id="XMLID_251_"><g><g><path d="m180 510h-30v-30l15-10 15 10z" fill="#ffda2d"/></g></g></g><g id="XMLID_274_"><g><g><path d="m240 510h-30v-30l15-10 15 10z" fill="#ffda2d"/></g></g></g><g id="XMLID_275_"><g><g><path d="m300 510h-30v-30l15-10 15 10z" fill="#fdb504"/></g></g></g><g id="XMLID_276_"><g><g><path d="m360 510h-30v-30l15-10 15 10z" fill="#fdb504"/></g></g></g><g id="XMLID_277_"><g><g><path d="m420 510h-30v-30l15-10 15 10z" fill="#fdb504"/></g></g></g><g fill="#ffda2d"><path d="m90 30 15 10 15-10v-30h-30z"/><path d="m150 30 15 10 15-10v-30h-30z"/><path d="m210 30 15 10 15-10v-30h-30z"/></g><path d="m270 30 15 10 15-10v-30h-30z" fill="#fdb504"/><path d="m330 30 15 10 15-10v-30h-30z" fill="#fdb504"/><path d="m390 30 15 10 15-10v-30h-30z" fill="#fdb504"/><path d="m90 30v450h165l10-225-10-225c-4.655 0-160.348 0-165 0z" fill="#83d947"/><path d="m420 30h-82.5-82.5v450h165c0-12.685 0-437.315 0-450z" fill="#32bea6"/><g id="XMLID_301_"><g><path d="m240 90c0 20.608-3.703 34.892-9.779 45.713-15.681 27.921-49.235 34.134-68.067 61.443-7.296 10.579-12.154 24.157-12.154 42.844 0 17.34 7.449 33.616 20.355 45-12.89 11.37-20.355 27.639-20.355 45v90h105l10-165-10-165h-7.5z" fill="#32bea6"/><path d="m360 330c0-17.328-7.441-33.608-20.354-45 12.889-11.37 20.354-27.639 20.354-45 0-18.687-4.858-32.265-12.153-42.844-18.903-27.41-52.318-33.401-68.067-61.443-6.077-10.821-9.78-25.105-9.78-45.713-5.246 0-9.754 0-15 0v330h105c0-10.889 0-79.04 0-90z" fill="#009c99"/></g></g></g></svg>