<svg id="Capa_1" enable-background="new 0 0 510.037 510.037" height="512" viewBox="0 0 510.037 510.037" width="512" xmlns="http://www.w3.org/2000/svg"><g><path d="m302.568 110.021c-43.749 81.244-43.067 210.016 0 289.994 18.553 34.457 48.057 65.003 87.453 65.003l10-210-10-210c-39.396 0-68.894 30.535-87.453 65.003z" fill="#9d6b5d"/><path d="m39.579 98.03c-50.242 79.097-52.729 217.081-7.011 301.985 18.552 34.456 48.056 65.003 87.453 65.003l10-180-10-165-34.868-19.356z" fill="#9d6b5d"/><g fill="#895050"><path d="m105.021 305.02c-10.492 0-19.508 0-30 0 0-3.855-.431-6.647-1.224-9.085-2.17-6.67-8.06-12.317-11.458-23.824-3.05-10.326-3.155-23.501 0-34.185 3.389-11.476 9.295-17.175 11.458-23.825.793-2.438 1.224-5.23 1.224-9.085h30c0 6.823-.935 12.409-2.318 17.093-1.993 6.749-4.918 11.624-7.319 15.626-3.746 6.243-5.362 9.433-5.362 17.284 0 7.938 1.69 11.162 5.363 17.284 2.401 4.001 5.326 8.876 7.319 15.625 1.382 4.683 2.317 10.269 2.317 17.092z"/><path d="m39.56 98.073c18.17 12.444 46.789 21.945 80.461 21.945l10-37.5-10-37.5c-34.584 0-61.844 23.731-80.461 53.055z"/><path d="m390.021 405.018 10-150-10-150c-24.252 0-40.734 26.91-50.196 63.778-22.071 86.003-7.049 236.222 50.196 236.222z"/><path d="m120.021 120.018v345c39.395 0 68.893-30.533 87.453-65.003 45.581-84.65 43.381-222.629-7.007-301.979l-44.446 1.649z"/></g><path d="m120.021 45.018v75c33.682 0 62.281-9.494 80.461-21.945-18.611-29.315-45.874-53.055-80.461-53.055z" fill="#624a4f"/><path d="m165.021 305.02c-10.492 0-19.508 0-30 0 0-6.823.935-12.409 2.318-17.093 1.993-6.749 4.918-11.624 7.319-15.625 3.741-6.236 5.363-9.43 5.363-17.284 0-7.918-1.674-11.137-5.362-17.284-2.401-4.002-5.326-8.877-7.319-15.626-1.383-4.684-2.318-10.269-2.318-17.093h30c0 3.855.431 6.647 1.224 9.085 2.166 6.66 8.06 12.317 11.458 23.825 3.049 10.325 3.156 23.501 0 34.185-3.385 11.463-9.3 17.189-11.458 23.824-.794 2.439-1.225 5.231-1.225 9.086z" fill="#624a4f"/><path d="m477.474 110.021c-18.553-34.457-48.057-65.003-87.453-65.003v420c39.397 0 68.894-30.535 87.453-65.003 43.391-80.579 43.443-209.32 0-289.994z" fill="#895050"/><path d="m390.021 105.018v300c24.252 0 40.734-26.911 50.196-63.778 13.055-50.871 13.073-121.499 0-172.444-9.462-36.868-25.944-63.778-50.196-63.778z" fill="#624a4f"/></g></svg>