<svg id="Capa_1" enable-background="new 0 0 497 497" height="512" viewBox="0 0 497 497" width="512" xmlns="http://www.w3.org/2000/svg"><g><path d="m350.616 275.625-17.53-27.2c-7.399-11.481-11.334-24.851-11.334-38.509v-59.106h9.588c7.243 0 13.115-5.872 13.115-13.115v-21.597c0-7.243-5.872-13.115-13.115-13.115h-165.68c-7.243 0-13.115 5.872-13.115 13.115v21.597c0 7.243 5.872 13.115 13.115 13.115h9.588v59.106c0 13.659-3.935 27.028-11.334 38.509l-17.53 27.2c-7.399 11.481-11.334 24.851-11.334 38.509v144.883c0 20.977 17.005 37.983 37.983 37.983h150.935c20.977 0 37.983-17.005 37.983-37.983v-144.883c-.001-13.659-3.936-27.028-11.335-38.509z" fill="#d7f8c4"/><path d="m350.616 275.625-17.53-27.2c-7.399-11.481-11.334-24.851-11.334-38.509v-59.106h9.588c7.243 0 13.115-5.872 13.115-13.115v-21.597c0-7.243-5.872-13.115-13.115-13.115h-19.495c7.243 0 13.115 5.872 13.115 13.115v21.597c0 7.243-5.872 13.115-13.115 13.115h-6.623v59.106c0 13.659 3.935 27.028 11.334 38.509l17.53 27.2c7.399 11.481 11.334 24.851 11.334 38.509v144.883c0 20.977-17.005 37.983-37.983 37.983h16.53c20.977 0 37.983-17.005 37.983-37.983v-144.883c0-13.659-3.935-27.028-11.334-38.509z" fill="#c9f6b0"/><path d="m331.78 314.13v144.89c0 4.31-3.5 7.81-7.81 7.81h-150.94c-4.31 0-7.81-3.5-7.81-7.81v-144.89c0-7.86 2.26-15.55 6.52-22.16l17.53-27.2c.03-.05.06-.09.09-.14 5.55-8.64 14.98-13.99 25.25-13.99h67.78c10.27 0 19.7 5.35 25.25 13.99.03.05.06.09.09.14l17.53 27.2c4.27 6.62 6.52 14.29 6.52 22.16z" fill="#97da7b"/><path d="m325.26 291.97-17.53-27.2c-.03-.05-.06-.09-.09-.14-5.55-8.64-14.98-13.99-25.25-13.99h-19.495c10.27 0 19.7 5.35 25.25 13.99.03.05.06.09.09.14l17.53 27.2c4.27 6.62 6.52 14.29 6.52 22.16v144.89c0 4.31-3.5 7.81-7.81 7.81h19.495c4.31 0 7.81-3.5 7.81-7.81v-144.89c0-7.87-2.25-15.54-6.52-22.16z" fill="#80d261"/><path d="m263.026 185.54-14.755-9.374-14.297 9.374v129.004c0 7.414 8.109 11.976 14.446 8.127l10.034-6.096c2.839-1.724 4.572-4.805 4.572-8.127z" fill="#aca6d6"/><path d="m263.03 250.64v57.81c0 3.32-1.74 6.4-4.58 8.13l-10.03 6.09c-6.34 3.85-14.45-.71-14.45-8.13v-63.9z" fill="#978ecb"/><path d="m203.854 461.758-2.381-2.113c-8.32-7.381-9.081-20.108-1.7-28.427l10.823-12.2c7.381-8.32 20.108-9.081 28.427-1.7l2.381 2.113c8.32 7.381 9.081 20.108 1.7 28.427l-10.823 12.2c-7.38 8.319-20.108 9.08-28.427 1.7z" fill="#8b8089"/><path d="m241.404 419.43-2.381-2.113c-6.354-5.637-15.274-6.509-22.425-2.907 1.524.768 2.983 1.721 4.32 2.907l2.381 2.113c8.32 7.381 9.081 20.108 1.7 28.427l-10.823 12.2c-1.743 1.965-3.791 3.493-6.003 4.607 7.96 4.011 17.913 2.375 24.107-4.607l10.823-12.2c7.381-8.319 6.62-21.046-1.699-28.427z" fill="#7b7179"/><path d="m240.068 461.758-2.381-2.113c-8.32-7.381-9.081-20.108-1.7-28.427l10.823-12.2c7.381-8.32 20.108-9.081 28.427-1.7l2.381 2.113c8.32 7.381 9.081 20.108 1.7 28.427l-10.823 12.2c-7.38 8.319-20.107 9.08-28.427 1.7z" fill="#8b8089"/><path d="m277.618 419.43-2.381-2.113c-6.354-5.637-15.274-6.509-22.425-2.907 1.524.768 2.983 1.721 4.32 2.907l2.381 2.113c8.32 7.381 9.081 20.108 1.7 28.427l-10.823 12.2c-1.743 1.965-3.791 3.493-6.003 4.607 7.96 4.011 17.913 2.375 24.107-4.607l10.823-12.2c7.382-8.319 6.621-21.046-1.699-28.427z" fill="#7b7179"/><circle cx="301.602" cy="400.692" fill="#d7f8c4" r="7.508"/><circle cx="281.626" cy="371.692" fill="#d7f8c4" r="7.508"/><path d="m306.12 29.69-14.57 73.29-42.279 14.52-43.821-14.52-13.12-73.78c-2.71-15.23 9-29.2 24.46-29.2h64.96c15.66 0 27.42 14.33 24.37 29.69z" fill="#c38f86"/><path d="m281.75 0h-19.495c15.66 0 27.42 14.33 24.37 29.69l-14.57 73.29 6.936 4.313 12.559-4.313 14.57-73.29c3.05-15.36-8.71-29.69-24.37-29.69z" fill="#b87d72"/><path d="m291.55 102.98v70.03c0 6.92-5.61 12.53-12.53 12.53h-61.04c-6.92 0-12.53-5.61-12.53-12.53v-70.03z" fill="#b87d72"/><path d="m272.055 102.98v70.03c0 6.92-5.61 12.53-12.53 12.53h19.495c6.92 0 12.53-5.61 12.53-12.53v-70.03z" fill="#ab695d"/></g></svg>