<svg id="Capa_1" enable-background="new 0 0 501.213 501.213" height="512" viewBox="0 0 501.213 501.213" width="512" xmlns="http://www.w3.org/2000/svg"><g><path d="m186.967 285-48.144 38.143-28.143 38.143c7.738 7.738 55.889 55.889 63.639 63.64l48.143-38.143 28.144-38.144-31.819-41.82z" fill="#32bea6"/><path d="m250.606 221.36 21.82 31.82 41.82 31.82 48.144-38.144 28.144-38.143c-6.935-6.935-56.791-56.791-63.64-63.64l-38.144 28.143z" fill="#009c99"/><path d="m186.967 285c7.02 7.02 56.699 56.7 63.64 63.64l10-63.64-10-63.64-41.819 31.82z" fill="#83d947"/><g fill="#32bea6"><path d="m314.246 285c-6.944-6.944-56.778-56.778-63.64-63.64v127.279l41.82-31.82z"/><path d="m174.319 145.073c-7.294 7.294-56.291 56.292-63.639 63.64l28.143 38.143 48.144 38.144c7.094-7.094 56.615-56.615 63.64-63.64l-38.144-48.143z"/><path d="m190.606 60c0 14.148 9.905 40.497 15.038 53.748l22.481-12.481 22.481-32.481 10-34.393-10-34.393c-33.082 0-60 26.915-60 60z"/></g><path d="m310.606 60c0-33.083-26.915-60-60-60v68.787l12.481 22.481 32.48 22.481c5.129-13.24 15.039-39.599 15.039-53.749z" fill="#009c99"/><path d="m174.319 145.073 76.287 76.287 10-76.287-10-76.287c-9.271 9.272-67.036 67.036-76.287 76.287z" fill="#83d947"/><path d="m326.893 145.074c-9.292-9.292-66.995-66.995-76.287-76.287v152.574c9.014-9.014 67.235-67.234 76.287-76.287z" fill="#32bea6"/><path d="m250.606 348.64 28.144 38.143 48.144 38.144c7.738-7.738 55.889-55.889 63.639-63.64l-38.143-48.144-38.144-28.143c-7.021 7.02-56.698 56.698-63.64 63.64z" fill="#009c99"/><path d="m174.319 424.926c8.741 8.741 67.481 67.481 76.287 76.287l10-76.287-10-76.287c-9.055 9.056-67.274 67.274-76.287 76.287z" fill="#83d947"/><path d="m56.738 231.057h107.886v107.886h-107.886z" fill="#83d947" transform="matrix(.707 -.707 .707 .707 -169.108 161.737)"/><path d="m314.246 285c8.016 8.016 68.157 68.158 76.286 76.287l76.287-76.287c-8.897-8.897-67.447-67.448-76.286-76.287-8.987 8.988-67.259 67.259-76.287 76.287z" fill="#32bea6"/><path d="m250.606 348.64v152.573c9.208-9.208 67.057-67.056 76.287-76.287-9.01-9.011-67.237-67.237-76.287-76.286z" fill="#32bea6"/></g></svg>