<svg id="Capa_1" enable-background="new 0 0 497 497" height="512" viewBox="0 0 497 497" width="512" xmlns="http://www.w3.org/2000/svg"><g><path d="m341.42 135.27-49.92 49.92c-5.8 5.8-15.19 5.8-20.99 0l-5.22-5.23-46.07 46.07-27.02 27.02-77.47 77.47c-3.85 3.86-8.91 5.78-13.96 5.78s-10.11-1.92-13.96-5.78c-7.71-7.71-7.71-20.21 0-27.92l77.47-77.47 27.02-27.02 46.07-46.06-5.23-5.23c-5.79-5.8-5.79-15.19 0-20.99l49.92-49.92c2.74-2.73 6.32-4.09 9.9-4.09s7.16 1.36 9.89 4.09c5.46 5.46 5.46 14.32 0 19.79 5.46-5.47 14.32-5.47 19.79 0 5.46 5.46 5.46 14.32 0 19.78 5.46-5.46 14.32-5.46 19.78 0 5.46 5.47 5.46 14.32 0 19.79z" fill="#d7f8c4"/><path d="m402.32 235.74-19.45 19.46c-6.66 6.65-15.66 9.52-24.35 8.6-9.17-.98-18.25 2.56-24.77 9.08l-33.84 33.84-27.02 27.02-77.47 77.47c-3.86 3.85-8.91 5.78-13.96 5.78s-10.1-1.93-13.96-5.78c-7.71-7.71-7.71-20.21 0-27.92l138.33-138.33c6.52-6.52 10.05-15.6 9.08-24.77-.92-8.69 1.95-17.69 8.6-24.35l19.46-19.46c16.39-16.39 42.96-16.39 59.35 0 16.39 16.4 16.39 42.97 0 59.36z" fill="#d7f8c4"/><path d="m271.99 278.8-27.02 27.02 27.92 27.92 27.02-27.02zm-107.71-53.67 27.92 27.92 27.02-27.02-27.92-27.92z" fill="#c9f6b0"/><g><path d="m402.324 176.385c-16.391-16.391-42.966-16.391-59.357 0l-14.757 14.757c16.391-16.39 42.965-16.39 59.356.001 16.391 16.391 16.391 42.966 0 59.357l-4.699 4.699s.001-.001.001-.001l19.456-19.456c16.391-16.392 16.391-42.967 0-59.357z" fill="#c9f6b0"/></g><path d="m424.216 72.784c-97.045-97.045-254.387-97.045-351.432 0s-97.045 254.387 0 351.432 254.387 97.045 351.432 0 97.045-254.387 0-351.432zm-24.7 24.7c74.834 74.834 82.51 191.379 23.053 274.785-5.062 7.101-15.245 8.034-21.411 1.868l-278.295-278.296c-6.166-6.166-5.233-16.349 1.868-21.411 83.407-59.456 199.951-51.78 274.785 23.054zm-302.032 302.033c-74.834-74.834-82.51-191.379-23.053-274.785 5.062-7.101 15.245-8.034 21.411-1.868l278.296 278.296c6.166 6.166 5.233 16.349-1.868 21.411-83.408 59.455-199.952 51.779-274.786-23.054z" fill="#fe6c55"/><g fill="#fd544d"><path d="m97.484 399.517c-74.834-74.834-82.51-191.379-23.053-274.785 4.375-6.138 12.573-7.656 18.699-3.976l-10.294-10.996c-6.166-6.166-16.349-5.233-21.411 1.868-59.457 83.407-57.276 213.054 17.558 287.889 44.052 44.052 102.559 64.822 160.251 62.335-51.528-2.22-102.405-22.99-141.75-62.335z"/><path d="m124.731 74.43c34.308-24.456 74.223-37.543 114.535-39.281-46.476-2.002-93.481 11.086-133.035 39.281-7.101 5.062-8.034 15.245-1.868 21.411l289.394 288.81c6.166 6.166 16.349 5.233 21.411-1.868 2.014-2.825 3.93-5.704 5.765-8.625-5.392 5.308-14.211 5.541-19.773-.021l-278.297-278.296c-6.166-6.166-5.232-16.349 1.868-21.411z"/><path d="m424.216 72.784c-50.876-50.876-118.322-75.062-184.966-72.595 60.479 2.239 120.296 26.426 166.466 72.595 97.045 97.045 97.045 254.387 0 351.432-46.17 46.17-105.987 70.356-166.466 72.595 66.644 2.467 134.09-21.719 184.966-72.595 97.045-97.045 97.045-254.387 0-351.432z"/></g><circle cx="422.602" cy="71.044" fill="#ffe5c2" r="55.806"/><path d="m422.602 15.238c-19.182 0-36.099 9.681-46.144 24.42 8.943-6.095 19.747-9.662 31.386-9.662 30.821 0 55.806 24.985 55.806 55.806 0 11.639-3.567 22.443-9.662 31.386 14.739-10.045 24.42-26.962 24.42-46.144 0-30.82-24.985-55.806-55.806-55.806z" fill="#fed2a4"/><path d="m341.421 115.482c-5.463-5.463-14.319-5.464-19.783-.003 5.461-5.464 5.46-14.32-.003-19.782-5.464-5.464-14.322-5.464-19.786 0 5.464-5.464 5.464-14.322 0-19.786-5.464-5.464-14.322-5.464-19.786 0l-14.758 14.758c5.464-5.464 14.322-5.464 19.786 0l.056.056c2.5 2.514 2.494 6.577-.013 9.084l-25.041 25.042c-2.929 2.93-2.929 7.678 0 10.607 1.464 1.464 3.384 2.196 5.303 2.196s3.839-.732 5.303-2.196l24.882-24.882c2.537-2.537 6.705-2.689 9.254-.163.031.03.061.061.092.092 2.522 2.549 2.37 6.714-.165 9.25l-24.879 24.887c-2.928 2.93-2.928 7.679.002 10.607 1.464 1.464 3.383 2.195 5.302 2.195s3.84-.732 5.304-2.197l25.037-25.046c2.507-2.508 6.571-2.513 9.084-.012l.05.05c5.464 5.464 5.464 14.322 0 19.785l14.758-14.758c5.465-5.463 5.465-14.321.001-19.784z" fill="#c9f6b0"/><g><path d="m405.014 94.296c-2.206 0-4.391-.968-5.872-2.827-2.581-3.24-2.046-7.959 1.194-10.54l14.766-11.76v-30.534c0-4.143 3.358-7.5 7.5-7.5s7.5 3.357 7.5 7.5v34.149c0 2.284-1.041 4.443-2.828 5.867l-17.593 14.012c-1.38 1.099-3.029 1.633-4.667 1.633z" fill="#f6a96c"/></g></g></svg>