<svg id="Capa_1" enable-background="new 0 0 462.426 462.426" height="512" viewBox="0 0 462.426 462.426" width="512" xmlns="http://www.w3.org/2000/svg"><g><path d="m0 231.213 231.213 231.213 10-231.213-10-231.213c-12.852 12.852-218.359 218.359-231.213 231.213z" fill="#83d947"/><path d="m462.426 231.213c-12.852-12.852-218.36-218.359-231.213-231.213v231.213 231.213c12.851-12.852 218.359-218.36 231.213-231.213z" fill="#32bea6"/><path d="m90 231.213c7.849 7.849 133.363 133.362 141.213 141.213l10-141.213-10-141.213c-7.849 7.849-133.363 133.362-141.213 141.213z" fill="#fff7f4"/><path d="m372.426 231.213c-7.849-7.849-133.362-133.362-141.213-141.213v141.213 141.213c7.848-7.849 133.362-133.362 141.213-141.213z" fill="#f0e6e6"/><path d="m216.213 186.213v15 15h7.5 7.5l10-15-10-15c-5.246 0-9.754 0-15 0z" fill="#ffda2d"/><path d="m246.213 186.213c-5.246 0-9.754 0-15 0v30h7.5 7.5c0-10.492 0-19.508 0-30z" fill="#fdb504"/><path d="m186.213 216.213h30v30h-30z" fill="#ffda2d"/><path d="m216.213 246.213v30h15l10-15-10-15h-7.5z" fill="#ffda2d"/><g fill="#fdb504"><path d="m246.213 246.213c-5.246 0-9.754 0-15 0v30h15v-15z"/><path d="m246.213 246.213h30c0-10.492 0-19.508 0-30-10.492 0-19.508 0-30 0v15z"/></g></g></svg>