<svg id="Capa_1" enable-background="new 0 0 510 510" height="512" viewBox="0 0 510 510" width="512" xmlns="http://www.w3.org/2000/svg"><g><path d="m240 0c0 29.933-8.298 50.978-20.961 67.141-20.388 26.021-52.357 39.554-77.211 55.937-93.827 60.136-122.642 180.339-72.537 275.02 5.08 10.149-2.132 21.902-13.297 21.902-17.793 0-38.201 0-55.994 0v90h255l10-255-10-255c-5.246 0-9.754 0-15 0z" fill="#ffda2d"/><path d="m510 420c-17.793 0-38.201 0-55.994 0-11.399 0-18.282-11.944-13.296-21.905 49.67-93.872 22.06-214.54-72.721-275.136-42.045-27.724-97.989-45.057-97.989-122.959-5.246 0-9.754 0-15 0v510h255c0-10.889 0-79.039 0-90z" fill="#fdb504"/><path d="m120 300c0 74.439 60.559 135 135 135l10-135-10-135c-74.439 0-135 60.559-135 135z" fill="#fff7f4"/><path d="m240 240v75h15l10-37.5-10-37.5c-5.246 0-9.754 0-15 0z" fill="#fe4a4a"/><path d="m390 300c0-74.436-60.559-135-135-135v270c74.435 0 135-60.559 135-135z" fill="#f0e6e6"/><path d="m300 285c-10.492 0-19.508 0-30 0 0-14.981 0-30.019 0-45-5.246 0-9.754 0-15 0v75h45c0-10.492 0-19.508 0-30z" fill="#e80b6a"/><path d="m240 390v29.065c-20.583-2.578-40.918-10.598-58.543-24.309l20.51-20.51c-7.418-7.418-13.795-13.795-21.213-21.213-7.173 7.173-13.337 13.337-20.51 20.51-13.239-17.021-21.634-37.187-24.309-58.543h14.532 14.533v-15-15h-14.532-14.532c2.578-20.583 10.598-40.918 24.309-58.543l20.51 20.51c7.418-7.418 13.795-13.795 21.213-21.213-7.173-7.173-13.337-13.337-20.51-20.51 17.625-13.711 37.96-21.73 58.543-24.309v29.064h15l10-30-10-30c-82.708 0-150 67.286-150 150 0 82.708 67.286 150 150 150l10-30-10-30c-5.247.001-9.755.001-15.001.001z" fill="#0a617d"/><path d="m405 300c0-82.708-67.287-150-150-150v60h15c0-10.165 0-18.899 0-29.064 21.31 2.669 41.486 11.041 58.543 24.309-7.173 7.173-13.337 13.337-20.51 20.51 7.418 7.418 13.795 13.795 21.213 21.213 7.173-7.173 13.337-13.337 20.51-20.51 13.711 17.625 21.73 37.96 24.309 58.543-10.165 0-18.899 0-29.064 0v30h29.064c-2.669 21.31-11.041 41.486-24.309 58.543-7.173-7.173-13.337-13.337-20.51-20.51-7.418 7.418-13.795 13.795-21.213 21.213l20.51 20.51c-17.021 13.239-37.187 21.634-58.543 24.309 0-10.165 0-18.9 0-29.065-5.246 0-9.754 0-15 0v60c82.708-.001 150-67.288 150-150.001z" fill="#08475e"/></g></svg>