<svg id="Capa_1" enable-background="new 0 0 512 512" height="512" viewBox="0 0 512 512" width="512" xmlns="http://www.w3.org/2000/svg"><g><path d="m349.66 219.46v169.19l109.36-40.61v-128.58zm78.05 128.58h-47.14v-72.47c0-6.29 2.96-12.22 8-16l8.779-6.603c4.022-3.025 9.56-3.026 13.584-.002l8.787 6.605c5.03 3.78 7.99 9.71 7.99 16z" fill="#97da7b"/><g><path d="m435.979 219.46v137.136l23.041-8.56v-128.576z" fill="#80d261"/></g><path d="m240.31 348.04h218.71v40.61h-218.71z" fill="#aca6d6"/><path d="m435.976 348.036h23.042v40.619h-23.042z" fill="#978ecb"/><path d="m240.306 348.036h109.356v40.619h-109.356z" fill="#aca6d6"/><path d="m349.665 219.46h-109.355v128.58l109.355 40.61zm-78.715 128.58v-72.47c0-6.293 2.959-12.219 7.99-16l8.788-6.605c4.023-3.024 9.561-3.023 13.584.002l8.779 6.603c5.04 3.78 8 9.71 8 16v72.47z" fill="#97da7b"/><g><path d="m325.624 219.46h24.042v169.19h-24.042z" fill="#80d261"/></g><path d="m240.306 348.036h109.356v40.619h-109.356z" fill="#aca6d6"/><path d="m325.62 348.036h24.042v40.619h-24.042z" fill="#978ecb"/><path d="m459.02 193.43v26.03h-218.71v-26.03c0-22.78 12.62-43.7 32.77-54.32l52.54-27.69 24.04-12.67 76.58 40.36c20.16 10.62 32.78 31.54 32.78 54.32z" fill="#ffe5c2"/><path d="m459.02 388.65v26.03c0 22.78-12.62 43.7-32.78 54.32l-59.21 31.2c-5.43 2.86-11.4 4.3-17.37 4.3s-11.94-1.44-17.37-4.3l-6.67-3.51-52.54-27.69c-20.15-10.62-32.77-31.54-32.77-54.32v-26.03z" fill="#ffe5c2"/><path d="m180.803 221.49-65.427 14.51v-71.485h65.427z" fill="#97da7b"/><path d="m115.376 236-65.428-14.51v-56.975h65.428z" fill="#97da7b"/><g><path d="m148.743 228.989c-4.143 0-7.5-3.357-7.5-7.5v-24.771c0-4.143 3.357-7.5 7.5-7.5s7.5 3.357 7.5 7.5v24.771c0 4.143-3.357 7.5-7.5 7.5z" fill="#fff3de"/></g><g><path d="m81.985 228.989c-4.143 0-7.5-3.357-7.5-7.5v-24.771c0-4.143 3.357-7.5 7.5-7.5s7.5 3.357 7.5 7.5v24.771c0 4.143-3.357 7.5-7.5 7.5z" fill="#fff3de"/></g><path d="m89.451 164.515h25.925v101.233h-25.925z" fill="#80d261"/><path d="m156.494 164.515v62.366l24.309-5.391v-56.975z" fill="#80d261"/><path d="m49.948 221.49h65.428v44.258h-65.428z" fill="#aca6d6"/><path d="m89.451 221.49h25.925v44.258h-25.925z" fill="#978ecb"/><path d="m115.19 221.49h65.614v44.258h-65.614z" fill="#aca6d6"/><path d="m156.494 221.49h24.309v44.258h-24.309z" fill="#978ecb"/><path d="m180.8 148.95v15.57h-130.85v-15.57c0-13.64 7.55-26.15 19.61-32.51l45.63-24.04.19-.1 45.81 24.14c12.06 6.36 19.61 18.87 19.61 32.51z" fill="#ffe5c2"/><path d="m180.8 265.75v15.57c0 13.63-7.55 26.14-19.61 32.5l-35.42 18.67c-3.31 1.75-6.95 2.6-10.58 2.57-3.52-.03-7.01-.89-10.21-2.57l-35.42-18.67c-12.06-6.36-19.61-18.87-19.61-32.5v-15.57z" fill="#ffe5c2"/><g fill="#fed2a4"><path d="m325.62 111.42v108.04h24.04v-120.71z"/><path d="m325.62 388.65v108.04l6.67 3.51c5.43 2.86 11.4 4.3 17.37 4.3v-115.85z"/><path d="m426.24 139.11-76.58-40.36v12.144l53.538 28.216c20.16 10.62 32.78 31.54 32.78 54.32v26.03h23.042v-26.03c0-22.78-12.62-43.7-32.78-54.32z"/><path d="m435.979 388.65v26.03c0 22.78-12.62 43.7-32.78 54.32l-53.538 28.211v7.289c5.97 0 11.94-1.44 17.37-4.3l59.21-31.2c20.16-10.62 32.78-31.54 32.78-54.32v-26.03z"/><path d="m89.27 106.06v58.46h25.92v-72.12z"/><path d="m161.19 116.44-45.81-24.14-.19.1v12.61l21.691 11.43c12.06 6.36 19.61 18.87 19.61 32.51v15.57h24.309v-15.57c0-13.64-7.55-26.15-19.61-32.51z"/><path d="m89.27 265.75v58.46l15.71 8.28c3.2 1.68 6.69 2.54 10.21 2.57v-69.31z"/><path d="m156.491 265.75v15.57c0 13.63-7.55 26.14-19.61 32.5l-21.691 11.433v9.807c3.63.03 7.27-.82 10.58-2.57l35.42-18.67c12.06-6.36 19.61-18.87 19.61-32.5v-15.57z"/><g><circle cx="278.529" cy="189.137" r="7.58"/><circle cx="311.468" cy="189.137" r="7.58"/></g><g><circle cx="389.188" cy="189.137" r="7.58"/><circle cx="422.128" cy="189.137" r="7.58"/></g><g><circle cx="278.529" cy="418.974" r="7.58"/><circle cx="311.468" cy="418.974" r="7.58"/></g><g><circle cx="389.188" cy="418.974" r="7.58"/><circle cx="422.128" cy="418.974" r="7.58"/></g></g><g><path d="m411.64 348.04v40.62c0 4.14-3.35 7.5-7.5 7.5-4.14 0-7.5-3.36-7.5-7.5v-40.62z" fill="#978ecb"/></g><g><path d="m302.02 348.04v40.62c0 4.14-3.36 7.5-7.5 7.5-4.15 0-7.5-3.36-7.5-7.5v-40.62z" fill="#978ecb"/></g><path d="m480.055 381.155h-122.893v-154.199h122.893c4.143 0 7.5-3.357 7.5-7.5s-3.357-7.5-7.5-7.5h-122.893v-137.502l34.469 18.172c1.116.588 2.313.867 3.491.867 2.694 0 5.298-1.456 6.642-4.004 1.932-3.664.527-8.201-3.137-10.133l-41.465-21.861v-49.995c0-4.143-3.357-7.5-7.5-7.5s-7.5 3.357-7.5 7.5v49.834l-41.772 22.022c-3.664 1.932-5.068 6.469-3.137 10.133 1.344 2.548 3.947 4.004 6.642 4.004 1.179 0 2.375-.279 3.491-.867l34.776-18.334v137.664h-123.506c-4.143 0-7.5 3.357-7.5 7.5s3.357 7.5 7.5 7.5h123.506v154.199h-123.506c-4.143 0-7.5 3.357-7.5 7.5s3.357 7.5 7.5 7.5h123.506v108.345c0 4.143 3.357 7.5 7.5 7.5s7.5-3.357 7.5-7.5v-108.345h122.893c4.143 0 7.5-3.357 7.5-7.5s-3.358-7.5-7.5-7.5z" fill="#b87d72"/><path d="m198.438 258.248h-75.563v-86.233h75.563c4.143 0 7.5-3.357 7.5-7.5s-3.357-7.5-7.5-7.5h-75.563v-149.515c0-4.143-3.357-7.5-7.5-7.5s-7.5 3.357-7.5 7.5v149.515h-75.93c-4.143 0-7.5 3.357-7.5 7.5s3.357 7.5 7.5 7.5h75.931v86.233h-75.931c-4.143 0-7.5 3.357-7.5 7.5s3.357 7.5 7.5 7.5h75.931v61.811c0 4.143 3.357 7.5 7.5 7.5s7.5-3.357 7.5-7.5v-61.811h75.563c4.143 0 7.5-3.357 7.5-7.5s-3.358-7.5-7.501-7.5z" fill="#b87d72"/></g></svg>