<svg id="Capa_1" enable-background="new 0 0 504.036 504.036" height="512" viewBox="0 0 504.036 504.036" width="512" xmlns="http://www.w3.org/2000/svg"><g><g><path d="m295.601 202.286c-4.142 0-7.5-3.357-7.5-7.5v-27.162c0-4.143 3.358-7.5 7.5-7.5s7.5 3.357 7.5 7.5v27.162c0 4.143-3.358 7.5-7.5 7.5z" fill="#fed2a4"/></g><g><path d="m398.274 264.447c-4.142 0-7.5-3.357-7.5-7.5v-27.163c0-4.143 3.358-7.5 7.5-7.5s7.5 3.357 7.5 7.5v27.163c0 4.143-3.358 7.5-7.5 7.5z" fill="#fed2a4"/></g><g><path d="m479.946 318.363c-4.142 0-7.5-3.357-7.5-7.5v-28.911c0-4.143 3.358-7.5 7.5-7.5s7.5 3.357 7.5 7.5v28.911c0 4.143-3.358 7.5-7.5 7.5z" fill="#fed2a4"/></g><g><path d="m479.946 471.167c-4.142 0-7.5-3.357-7.5-7.5v-148.688l-171.53-111.943h-82.488c-4.142 0-7.5-3.357-7.5-7.5s3.358-7.5 7.5-7.5h84.673c1.427 0 2.825.407 4.028 1.174l176.845 115.327c2.162 1.377 3.472 3.763 3.472 6.326v152.803c0 4.143-3.358 7.501-7.5 7.501z" fill="#f6a96c"/></g><path d="m387.774 459.251 39.958 4.749 44.714-4.749v-52.05c0-7.521-6.097-13.619-13.619-13.619h-71.054l-4.756 32.834z" fill="#c38f86"/><path d="m458.828 393.582h-24.964c7.521 0 13.619 6.097 13.619 13.619v52.05l13.036 4.75 11.928-4.75v-52.05c0-7.522-6.098-13.619-13.619-13.619z" fill="#b87d72"/><path d="m303.101 327.914-9.583 65.669 9.583 65.669 42.336 4.748 42.336-4.749v-65.669-46.688c0-10.483-8.498-18.981-18.981-18.981h-65.691z" fill="#c38f86"/><path d="m368.793 327.914h-24.964c10.483 0 18.981 8.498 18.981 18.981v46.688 65.669l11.208 4.748 13.756-4.749v-65.669-46.688c0-10.483-8.498-18.98-18.981-18.98z" fill="#b87d72"/><path d="m218.428 262.245-7.5 74.255 7.5 122.751 38.587 7.749 46.086-7.749v-65.669-65.668-46.688c0-10.483-8.498-18.981-18.981-18.981z" fill="#c38f86"/><path d="m284.12 262.245h-24.964c10.483 0 18.981 8.498 18.981 18.981v178.025l12.381 7.749 12.583-7.749v-65.669-65.668-46.688c0-10.483-8.498-18.981-18.981-18.981z" fill="#b87d72"/><g><path d="m37.908 174.406c-4.142 0-7.5-3.357-7.5-7.5v-48.264c0-4.143 3.358-7.5 7.5-7.5s7.5 3.357 7.5 7.5v48.264c0 4.143-3.358 7.5-7.5 7.5z" fill="#f6a96c"/></g><g><path d="m210.928 174.406c-4.142 0-7.5-3.357-7.5-7.5v-48.264c0-4.143 3.358-7.5 7.5-7.5s7.5 3.357 7.5 7.5v48.264c0 4.143-3.358 7.5-7.5 7.5z" fill="#f6a96c"/></g><g><path d="m124.418 174.406c-4.142 0-7.5-3.357-7.5-7.5v-48.264c0-4.143 3.358-7.5 7.5-7.5s7.5 3.357 7.5 7.5v48.264c0 4.143-3.358 7.5-7.5 7.5z" fill="#f6a96c"/></g><g><path d="m124.418 42.835c-4.142 0-7.5-3.357-7.5-7.5v-27.835c0-4.143 3.358-7.5 7.5-7.5s7.5 3.357 7.5 7.5v27.835c0 4.143-3.358 7.5-7.5 7.5z" fill="#80d261"/></g><path d="m218.428 459.251-94.01 7.749-94.01-7.749v-256.215l94.01-7.5 94.01 7.5z" fill="#d7f8c4"/><path d="m193.464 203.036v256.214l12.482 4.75 12.482-4.75v-256.214l-12.482-7.5z" fill="#c9f6b0"/><path d="m188.428 318.69v1.01l-2.91 11.953 2.91 9.257v73.7c0 8.085-6.555 14.64-14.64 14.64h-98.74c-8.085 0-14.64-6.555-14.64-14.64v-73.7l2.485-9.258-2.485-11.952v-1.01c0-3.16 1.02-6.23 2.91-8.76l13.417-17.978c2.258-3.025 3.563-6.625 3.961-10.379.827-7.802 3.41-15.216 7.432-21.733 4.95-8.02 12.1-14.7 20.86-19.08l11.57-5.79c2.43-1.22 5.29-1.22 7.72 0l11.57 5.79c15.878 7.948 26.449 23.402 28.292 40.811.397 3.755 1.703 7.356 3.961 10.382l13.416 17.977c1.891 2.53 2.911 5.6 2.911 8.76z" fill="#aca6d6"/><path d="m185.52 309.927-13.417-17.974c-2.259-3.026-3.565-6.627-3.962-10.381-1.843-17.409-12.418-32.864-28.293-40.811l-11.574-5.794c-2.427-1.215-5.284-1.215-7.71 0l-8.627 4.319 2.947 1.475c15.875 7.948 26.45 23.403 28.293 40.811.398 3.755 1.704 7.356 3.962 10.381l13.417 17.974c1.888 2.53 2.909 5.602 2.909 8.759v95.922c0 8.087-6.556 14.643-14.643 14.643h24.964c8.087 0 14.643-6.556 14.643-14.643v-73.708l-2.91-9.247 2.91-11.953v-1.013c-.001-3.158-1.021-6.23-2.909-8.76z" fill="#978ecb"/><path d="m30.408 166.907h188.02v36.13h-188.02z" fill="#97da7b"/><path d="m193.464 166.906h24.964v36.13h-24.964z" fill="#80d261"/><path d="m187.476 63.875-59.186-35.639c-2.382-1.434-5.362-1.434-7.745 0l-59.185 35.639c-19.207 11.565-30.952 32.347-30.952 54.767h188.02c0-22.42-11.745-43.202-30.952-54.767z" fill="#fed2a4"/><path d="m187.476 63.875-59.186-35.639c-2.382-1.434-5.362-1.434-7.745 0l-8.61 5.184 50.576 30.454c19.207 11.565 30.952 32.347 30.952 54.767h24.964c.001-22.419-11.744-43.201-30.951-54.766z" fill="#ffbd86"/><path d="m490.454 459.251h-476.872c-5.558 0-10.064 4.506-10.064 10.064v24.658c0 5.558 4.506 10.064 10.064 10.064h476.872c5.558 0 10.064-4.506 10.064-10.064v-24.658c0-5.559-4.506-10.064-10.064-10.064z" fill="#8b8089"/><path d="m490.454 459.25h-24.964c5.558 0 10.064 4.506 10.064 10.064v24.658c0 5.558-4.506 10.064-10.064 10.064h24.964c5.558 0 10.064-4.506 10.064-10.064v-24.658c0-5.558-4.506-10.064-10.064-10.064z" fill="#7b7179"/><circle cx="124.418" cy="288.062" fill="#fed2a4" r="7.508"/><path d="m163.468 344.65-7.05 7.05-26.7-26.7c-2.93-2.93-7.68-2.93-10.61 0l-26.7 26.7-32-32v21.21l58.7 58.71c1.47 1.46 3.39 2.19 5.31 2.19s3.84-.73 5.3-2.19l33.75-33.76 24.96-24.96v-21.2zm-39.05 39.05-21.4-21.39 21.4-21.4 21.39 21.4z" fill="#fed2a4"/><path d="m163.468 344.65v21.21l24.96-24.96v-21.2z" fill="#ffbd86"/></g></svg>