<svg id="Capa_1" enable-background="new 0 0 499.925 499.925" height="512" viewBox="0 0 499.925 499.925" width="512" xmlns="http://www.w3.org/2000/svg"><g><g><path d="m84.51 499.925c-1.599 0-3.209-.509-4.574-1.561-3.28-2.528-3.89-7.238-1.361-10.519l19.537-25.344c2.529-3.279 7.239-3.89 10.519-1.36 3.28 2.528 3.89 7.238 1.361 10.519l-19.537 25.344c-1.478 1.916-3.699 2.921-5.945 2.921z" fill="#aca6d6"/></g><g><path d="m67.053 478.019c-1.599 0-3.209-.509-4.574-1.561-3.28-2.528-3.89-7.238-1.361-10.519l19.537-25.344c2.53-3.278 7.238-3.889 10.519-1.36 3.28 2.528 3.89 7.238 1.361 10.519l-19.537 25.344c-1.477 1.916-3.699 2.921-5.945 2.921z" fill="#aca6d6"/></g><g><path d="m43.549 451.429c-1.599 0-3.209-.509-4.574-1.561-3.28-2.528-3.89-7.238-1.361-10.519l19.537-25.343c2.53-3.278 7.239-3.889 10.519-1.36 3.28 2.528 3.89 7.238 1.361 10.519l-19.537 25.343c-1.478 1.916-3.699 2.921-5.945 2.921z" fill="#aca6d6"/></g><g><path d="m24.74 428.002c-1.599 0-3.209-.509-4.574-1.561-3.28-2.528-3.89-7.238-1.361-10.519l19.537-25.343c2.53-3.279 7.238-3.889 10.519-1.36 3.28 2.528 3.89 7.238 1.361 10.519l-19.537 25.343c-1.478 1.916-3.699 2.921-5.945 2.921z" fill="#aca6d6"/></g><g><path d="m415.414 499.925c-2.247 0-4.469-1.005-5.945-2.921l-19.537-25.344c-2.529-3.28-1.92-7.99 1.36-10.519 3.283-2.531 7.991-1.918 10.519 1.36l19.537 25.344c2.529 3.28 1.92 7.99-1.36 10.519-1.365 1.052-2.976 1.561-4.574 1.561z" fill="#aca6d6"/></g><g><path d="m432.871 478.02c-2.247 0-4.469-1.005-5.945-2.921l-19.537-25.344c-2.529-3.28-1.92-7.99 1.36-10.519 3.282-2.531 7.991-1.919 10.519 1.36l19.537 25.344c2.529 3.28 1.92 7.99-1.36 10.519-1.365 1.052-2.976 1.561-4.574 1.561z" fill="#aca6d6"/></g><g><path d="m456.375 451.43c-2.246 0-4.467-1.004-5.944-2.921l-19.537-25.343c-2.529-3.28-1.92-7.99 1.36-10.519s7.99-1.921 10.519 1.36l19.537 25.343c2.529 3.28 1.92 7.99-1.36 10.519-1.365 1.052-2.976 1.561-4.575 1.561z" fill="#aca6d6"/></g><g><path d="m475.186 428.003c-2.247 0-4.469-1.005-5.945-2.921l-19.537-25.344c-2.529-3.28-1.92-7.99 1.36-10.519 3.282-2.532 7.992-1.919 10.519 1.36l19.537 25.344c2.529 3.28 1.92 7.99-1.36 10.519-1.365 1.052-2.977 1.561-4.574 1.561z" fill="#aca6d6"/></g><path d="m375.072 63.33-57.36 3.44-12.86.77-54.89 3.29-54.7-3.28-12.85-.77-57.5-3.45c2.46-8.75 6.21-16.87 11-24.17l9.717-7.5 2.753-7.5c14.71-14.1 34.24-22.91 55.44-24.03l4.827.807 20.143-.937h42.406l20.452.75 4.653-.61c21.13 1.15 40.61 9.95 55.29 24.02l3.537 7.5 8.933 7.5c4.59 6.98 8.21 14.71 10.67 23.03z" fill="#97da7b"/><path d="m374.735 62.188c-10.447-35.34-41.979-60.045-78.433-62.048l-4.653.61-20.452-.75c38.458 0 67.828 25.308 78.731 62.188l.336 1.138 12.403 3.84 12.403-3.84z" fill="#80d261"/><path d="m364.062 39.16h-228.15c3.6-5.49 7.79-10.51 12.47-15h203.21c4.68 4.49 8.87 9.51 12.47 15z" fill="#aca6d6"/><g><path d="m317.712 66.77c-1.05 2.02-3 3.54-5.41 3.95-.42.07-.85.11-1.26.11-2.51 0-4.83-1.27-6.19-3.29-.6-.86-1.01-1.86-1.2-2.96-2.53-14.81-14.28-64.58-32.69-64.58h20.54c1.61 0 3.21.04 4.8.14 15.33 20.99 21.29 56.93 22.14 61.93.28 1.67-.01 3.31-.73 4.7z" fill="#978ecb"/></g><g><path d="m228.792 0c-17.08 0-29.17 45.96-32.33 64.58-.19 1.1-.61 2.11-1.2 2.97-1.37 2.02-3.68 3.28-6.19 3.28-.41 0-.84-.04-1.26-.11-2.42-.41-4.36-1.92-5.4-3.94-.73-1.39-1.02-3.03-.74-4.71.85-5 6.81-40.95 22.15-61.94 1.54-.09 3.09-.13 4.65-.13h20.32z" fill="#978ecb"/></g><path d="m387.872 435.32-56.07-10.03-38.4-6.87c-30.37-5.44-61.47-5.34-91.8.29l-87.67 16.26-1.89.35 43.08-308.89h189.68z" fill="#8b8089"/><path d="m387.872 435.32-56.07-10.03c-.61-1.95-1.06-3.96-1.34-6l-30.52-224.76c-2.66-19.58-22.069-43.762-41.119-49.012l-12.601-19.088h98.58z" fill="#7b7179"/><path d="m461.582 390.58-29.42 33.29-10.72 12.14-31.51 35.65-24.25-30.89.427-9.343-8.587-3.417c-1.12-2.79-1.91-5.72-2.31-8.72l-13.43-98.93 4.513-9.527-6.623-5.993-9.05-66.62 3.34-7.887-5.38-7.123-3.89-28.68c-1.63-12-7.55-22.69-16.27-30.37l-3.627-8.92-31.993-6.08-9.74-2.68c-8.57-2.36-17.63-2.36-26.2 0l-9.74 2.68-28.493 4.34-7.127 10.66c-8.72 7.68-14.64 18.37-16.27 30.37l-3.89 28.67-5.713 6.633 3.673 8.367-9.04 66.61-4.633 6.523 2.523 8.997-13.44 98.96c-.4 2.99-1.18 5.9-2.29 8.68l-7.21 3.288-.95 9.482-24.27 30.92-31.47-35.61-10.72-12.13-29.46-33.34 11.04-23.67 8.179-3.779-1.479-10.581 30.29-64.92 8.715-5.88-14.135-14.44-7.69-16.75c-5.01-10.91-5.03-23.46-.06-34.38l1.83-4.02 6.72-3.66-.42-10.16 15.57-34.18 8.393-7.5-1.563-7.5 21.15-46.43 125.075-7.23 125.075 7.23 21.15 46.43-2.053 7.5 8.893 7.5 15.58 34.19-.307 8.65 6.607 5.18 1.82 4c4.97 10.92 4.95 23.47-.06 34.38l-7.67 16.68v.01l-.84 1.83v.01l-9.69 12.91 5.11 5.66 30.29 64.93-1.15 10.91 7.84 3.44z" fill="#97da7b"/><g fill="#80d261"><path d="m250.678 144.715c-10.933-1.112-30.049-.597-38.624 1.764l-25.832 7.113c-19.053 5.247-33.139 21.354-35.798 40.937l-30.518 224.761c-.875 6.44-3.451 12.531-7.465 17.643l-15.589 19.858 13.137 14.865 24.271-30.917.952-9.482 7.208-3.283c1.114-2.777 1.887-5.693 2.293-8.684l13.438-98.966-2.522-8.991 4.628-6.516 9.045-66.618-3.673-8.367 5.709-6.628 3.894-28.676c1.63-12.007 7.556-22.707 16.289-30.399l7.108-10.631 28.497-4.34 9.735-2.681c4.528-1.247 9.19-1.816 13.844-1.746z"/><path d="m408.462 282 9.69-12.904 8.513-18.534c5.01-10.909 5.03-23.457.053-34.382l-1.826-4.008-6.597-5.172.309-8.632-15.584-34.209-8.892-7.499 2.059-7.5-21.151-46.432-12.368-7.228-12.438 7.228 51.681 113.452c4.977 10.924 4.957 23.473-.053 34.382l-15.081 32.834 49.995 107.188-58.508 66.208 11.67 14.865 71.645-81.073-11.029-23.645-7.838-3.438 1.151-10.899-30.291-64.941z"/></g><path d="m124.915 63.327h250.157v39.401h-250.157z" fill="#ffe177"/><path d="m350.265 63.327h24.807v39.401h-24.807z" fill="#ffd15b"/><g><path d="m418.992 267.24v.01l-.84 1.83v.01l-6.57 14.31-37.53-59.19c-.17-.34-.31-.69-.43-1.05l-37.34-118.17c-.24-.75-.35-1.51-.35-2.26h15.36l36.46 115.36z" fill="#978ecb"/></g><g><path d="m293.822 155.24c-1.6-.63-3.25-1.18-4.93-1.65l-10.73-2.95-5.69-47.91h15.11z" fill="#978ecb"/></g><g><path d="m403.022 164.16h-94.6c-5.52-4.87-12.15-8.53-19.53-10.57l-16.09-4.43h123.38z" fill="#aca6d6"/></g><g><path d="m424.902 212.18-94.28 26.04-2.04-15.01 90.02-24.86z" fill="#aca6d6"/></g><path d="m432.162 423.87-10.72 12.14-63.16-127.1c-1.82-3.72-.27-8.21 3.45-10.03 3.73-1.82 8.21-.27 10.03 3.45z" fill="#978ecb"/><g><path d="m411.582 283.4 1.99 4.26-71.79 32.7-2.11-15.52 78.48-35.75z" fill="#aca6d6"/></g><g><path d="m450.552 366.94-84.5 73.54c-.12.1-.24.2-.37.29l-3.01-3.84c-2.14-2.73-3.87-5.73-5.15-8.92l86.34-75.42z" fill="#aca6d6"/></g><g><path d="m164.052 102.73c0 .75-.11 1.51-.35 2.26l-37.34 118.17c-.12.36-.26.71-.43 1.05l-37.53 59.19c-.1.21-.22.41-.34.6l.28-.6-6.59-14.35-.8-1.74 31.28-49.22 36.46-115.36z" fill="#978ecb"/></g><g><path d="m227.512 102.73-5.69 47.89-10.79 2.97c-1.66.46-3.27 1-4.85 1.62l6.23-52.48z" fill="#978ecb"/></g><g><path d="m227.122 149.16-16.09 4.43c-7.38 2.04-14.01 5.7-19.53 10.57h-94.6l6.83-15z" fill="#aca6d6"/></g><g><path d="m171.342 223.2-2.04 15-94.27-26.04 6.3-13.82z" fill="#aca6d6"/></g><path d="m141.702 308.91-63.18 127.14-10.72-12.13 60.42-121.59c1.82-3.72 6.31-5.27 10.03-3.45s5.27 6.31 3.45 10.03z" fill="#978ecb"/><g><path d="m160.262 304.81-2.11 15.52-71.78-32.7 1.97-4.23-6.59-14.35z" fill="#aca6d6"/></g><g><path d="m142.422 427.97c-1.28 3.2-3.02 6.22-5.17 8.96l-2.99 3.81c-.11-.08-.22-.17-.33-.26l-84.55-73.57 6.7-14.36z" fill="#aca6d6"/></g></g></svg>