<svg id="Capa_1" enable-background="new 0 0 495 495" height="512" viewBox="0 0 495 495" width="512" xmlns="http://www.w3.org/2000/svg"><g><g><g><path d="m77 164.75 2.368-9.096c24.486-14.975 56.904-11.883 78.095 9.308l72.464 72.464c11.252 11.253 17.573 31.661 17.573 47.574l10 45-10 30-62 10-58-10-101.056-113.687c-12.203-13.729-18.944-31.459-18.944-49.828v-166.485c0-16.568 13.432-30 30-30 16.568 0 30 13.432 30 30 .025 140.697-.056 135.063.038 134.962.181-.004 9.563-.214 9.462-.212z" fill="#ffccbd"/><g><path d="m67.538 164.962c-.014.015-.038.005-.038-.016v21.267l75 75 21.213-21.213-84.345-84.346c-4.208 2.575-8.189 5.666-11.83 9.308z" fill="#ffbda9"/></g></g><g><path d="m418 164.75-2.368-9.096c-24.485-14.975-56.903-11.883-78.095 9.308l-72.464 72.464c-11.252 11.253-17.573 31.661-17.573 47.574v75l62.999 10 57.001-10 101.056-113.688c12.203-13.729 18.944-31.459 18.944-49.827v-166.485c0-16.568-13.432-30-30-30-16.568 0-30 13.432-30 30 0 140.094.063 135.063-.038 134.962z" fill="#ffbda9"/><g><path d="m427.462 164.962c.015.015.038.005.038-.016v21.267l-75 75-21.213-21.213 84.345-84.346c4.208 2.575 8.188 5.666 11.83 9.308z" fill="#ffa68c"/></g></g></g><path d="m67.5 495h180l10-60-10-75h-180z" fill="#fe4a4a"/><path d="m112.5 420h30v30h-30z" fill="#ffda2d"/><path d="m247.5 360h180v135h-180z" fill="#e80b6a" transform="matrix(-1 0 0 -1 675 855)"/><path d="m352.5 420h30v30h-30z" fill="#fdb504"/></g></svg>