<svg id="Capa_1" enable-background="new 0 0 510 510" height="512" viewBox="0 0 510 510" width="512" xmlns="http://www.w3.org/2000/svg"><g><g><path d="m139.2 316.1c-9.5 4.4-68.7 31.7-78.3 36.1-37.1 17.1-61 54.5-61 95.3v62.4h255l10-52.1-10-52.1z" fill="#83d947"/><path d="m255 105 10-52.5-10-52.5c-15.4 0-39.2 4.1-55.3 9.6-47.6 16.3-79.7 61.1-79.7 111.6 0 .7 0 3.8 0 3.7l66.8-4.7z" fill="#fff7f4"/><path d="m255 285 10-90-10-90c-20.2 0-40.4 1.5-60 4.1l-75 70.9v30l99.3 111z" fill="#ffccbd"/><path d="m195 120v-10.9c-30.4 4.1-56.5 10.5-75 15.9v55h15c33.1 0 60-26.9 60-60z" fill="#9d6b5d"/><path d="m195 285c-9.1-9.1-65.9-65.9-75-75v29.9c0 42.8 16.7 83 46.9 113.3 11.4 11.4 24.2 21.5 38 30.1 25.4 15.7 46.4 21.2 50.1 22.6l10-60.4-10-60.5c-8.3 8.3-19.1 12.4-30 12.4s-21.7-4.1-30-12.4z" fill="#9d6b5d"/><path d="m255 405.8v104.2h255c0-7.6 0-54.8 0-62.4 0-40.8-23.9-78.2-61-95.3-9.5-4.4-68.7-31.7-78.3-36.1z" fill="#32bea6"/><path d="m323.2 120.3 66.8 4.7c0-.7 0-3.8 0-3.7 0-50.5-32.1-95.4-79.7-111.6-16.1-5.6-39.9-9.7-55.3-9.7v105z" fill="#f0e6e6"/><path d="m390 210c0-10.5 0-19.5 0-30l-75-70.9c-19.7-2.6-39.8-4.1-60-4.1v180l31 34.7z" fill="#ffbda9"/><g fill="#895050"><path d="m343.1 353.1c30.3-30.3 46.9-70.5 46.9-113.3 0-10.4 0-19.4 0-29.9-9.1 9.1-65.9 65.9-75 75-16.6 16.6-43.4 16.6-60 0v120.8c.1 0 6.4-2.1 6.2-2.1 30.6-10.1 59-27.5 81.9-50.5z"/><path d="m315 120c0 33.1 26.9 60 60 60h15c0-17.5 0-37.5 0-55-23.5-6.9-49.1-12.4-75-15.9z"/></g></g><path d="m350 420h30.1v30.1h-30.1z" fill="#fdb504"/></g></svg>