<svg id="Capa_1" enable-background="new 0 0 498.923 498.923" height="512" viewBox="0 0 498.923 498.923" width="512" xmlns="http://www.w3.org/2000/svg"><g><path d="m230.669 234.832-12.715-20.026 135.868-135.868 23.6 9.458 9.458 23.6-58.59 72.731-72.731 58.59z" fill="#9d6b5d"/><path d="m264.086 268.263 20.054 12.785c.73-.729 134.778-134.78 135.895-135.896l-9.507-23.649-23.648-9.507c-7.221 7.221-123.308 123.307-130.608 130.606z" fill="#895050"/><path d="m43.969 242.602c-58.624 58.623-58.627 153.676 0 212.302l113.222-99.08 99.08-113.222c-58.622-58.624-153.674-58.629-212.302 0z" fill="#ffda2d"/><path d="m75.035 378.938c0 11.955 4.722 23.304 13.146 31.754l38.875-24.733 24.733-38.875c-8.41-8.385-19.74-13.146-31.754-13.146-24.812 0-45 20.185-45 45z" fill="#9d6b5d"/><path d="m139.429 284.544c13.085 13.085 24.366 24.366 37.45 37.451l17.678-3.535 3.535-17.678c-13.085-13.085-24.366-24.366-37.45-37.451l-10.606 10.608z" fill="#9d6b5d"/><path d="m335.844 60.96c5.621 5.622 45.033 45.033 51.035 51.035l47.677-33.535 33.536-47.678c-3.057-3.057-27.738-27.738-30.732-30.732-11.868 7.121-89.576 53.746-101.516 60.91z" fill="#ffda2d"/><path d="m289.429 104.544c5.645 5.646 46.879 46.88 52.45 52.451l17.677-3.535 3.536-17.678c-5.654-5.654-46.873-46.873-52.45-52.451-2.177 2.177 7.857-7.858-21.213 21.213z" fill="#895050"/><path d="m438.014 163.13c.093-.155 60.529-100.883 60.909-101.517-10.775-10.775-20.056-20.056-30.831-30.831-9.861 9.861-71.315 71.316-81.213 81.213 6.213 6.213 44.903 44.902 51.135 51.135z" fill="#fdb504"/><path d="m394.429 209.544c2.177-2.177-7.857 7.857 21.213-21.213-5.663-5.662-46.96-46.959-52.55-52.549-7.419 7.419-13.794 13.794-21.213 21.213 5.657 5.657 46.967 46.966 52.55 52.549z" fill="#624a4f"/><path d="m256.272 242.602c-5.989 5.989-206.314 206.313-212.303 212.302 58.623 58.624 153.675 58.628 212.303 0 58.623-58.623 58.627-153.675 0-212.302z" fill="#fdb504"/><g fill="#895050"><path d="m151.84 410.743c17.7-17.7 17.506-46.156-.051-63.658-7.524 7.525-56.054 56.054-63.608 63.608 17.673 17.724 46.128 17.581 63.659.05z"/><path d="m214.429 359.544c2.177-2.177-7.857 7.858 21.213-21.213-11.95-11.949-25.6-25.6-37.55-37.549-7.419 7.419-13.794 13.794-21.213 21.213 11.95 11.949 25.6 25.6 37.55 37.549z"/></g></g></svg>