<svg id="Capa_1" enable-background="new 0 0 501.35 501.35" height="512" viewBox="0 0 501.35 501.35" width="512" xmlns="http://www.w3.org/2000/svg"><g><path d="m223.955 380.207-143.056-76.508c-10.722-5.639-23.974-2.172-30.561 7.995-7.341 11.331-3.609 26.506 8.151 33.139l115.117 64.926z" fill="#fed2a4"/><path d="m487.668 401.621v85.768c0 9.88-9.99 16.627-19.155 12.938l-2.525-1.016c-14.44-5.812-29.804-8.99-45.365-9.384l-123.283-3.116c-19.237-.486-38.14-5.144-55.401-13.65l-215.542-106.224c-10.652-4.93-15.528-17.377-11.059-28.23 4.283-10.402 15.748-15.872 26.528-12.655l112.194 38.857c18.58 6.435 38.103 9.726 57.765 9.739l188.377.118 36.658.853c7.311.17 14.529 1.689 21.288 4.481l20.895 8.63c5.221 2.156 8.625 7.245 8.625 12.891z" fill="#ffe5c2"/><path d="m368.086 424.13-141.285-88.482c-8.721-5.462-12.083-16.515-7.88-25.907 4.48-10.012 16.013-14.766 26.248-10.821l86.698 33.426c3.705 1.428 7.607 2.277 11.57 2.516l45.841 2.769c19.092 1.153 36.578 11.072 47.364 26.868 4.665 6.832 11.328 11.892 18.926 14.604 1.202.429 5.613 23.758 5.613 23.758z" fill="#ffe5c2"/><path d="m386.756 128.966c-.13 22.51-18.42 40.72-40.96 40.72-4.82 0-9.43-.83-13.72-2.36-7.22-2.57-15.34-.64-20.73 4.81-11.85 11.96-28.28 19.38-46.46 19.38-7.18 0-14.09-1.17-20.55-3.31-.01-.01-.01-.01-.02-.01 0 .11.01.22.01.33 0 5.02-.57 9.91-1.64 14.61-6.64 29.09-32.66 50.79-63.76 50.79-21.18 0-40.01-10.08-51.95-25.7-5.41-7.06-14.99-9.57-23.23-6.21-7.61 3.1-15.94 4.81-24.67 4.81-37.76 0-68.05-32.01-65.21-70.38 2.37-32.04 28.2-57.84 60.25-60.22 3.68-.28 7.3-.24 10.84.07.01 0 .05 0 .11.01 8.04.68 15.57-3.53 19.32-10.45.51-.95.95-1.95 1.31-3 8.85-25.63 33.18-44.05 61.82-44.05 19.52 0 37.03 8.56 49.01 22.12 5.71 6.46 14.96 8.31 22.9 4.95 7.82-3.32 16.43-5.15 25.46-5.15 19.62 0 37.22 8.64 49.21 22.32 5.13 5.86 13.11 8.34 20.62 6.23 3.52-.99 7.24-1.52 11.08-1.52 22.601 0 41.091 18.61 40.96 41.21z" fill="#aca6d6"/><g fill="#978ecb"><path d="m197.031 60.927c5.705 6.46 14.959 8.309 22.895 4.948.626-.265 1.266-.505 1.902-.751-1.959-1.06-3.761-2.454-5.3-4.197-11.979-13.563-29.491-22.119-49.01-22.119-3.326 0-6.59.259-9.782.738 15.567 2.322 29.344 10.114 39.295 21.381z"/><path d="m294.594 83.044c5.135 5.861 13.12 8.343 20.621 6.235 1.829-.514 3.711-.897 5.635-1.154-2.533-1.183-4.844-2.896-6.758-5.081-11.986-13.68-29.584-22.318-49.201-22.318-3.333 0-6.606.253-9.804.735 15.672 2.33 29.535 10.201 39.507 21.583z"/><path d="m84.248 222.013c-4.711 1.922-9.697 3.306-14.882 4.085 3.171.473 6.412.731 9.714.731 7.798 0 15.272-1.375 22.206-3.881-5.129-2.781-11.399-3.235-17.038-.935z"/><path d="m345.794 87.758c-3.362 0-6.62.428-9.745 1.194 17.931 4.434 31.325 20.774 31.212 40.017-.113 19.152-13.372 35.181-31.208 39.539 3.123.764 6.384 1.178 9.743 1.178 22.541 0 40.83-18.207 40.963-40.717.132-22.602-18.364-41.212-40.965-41.211z"/><path d="m312.577 167.325c-7.217-2.57-15.34-.637-20.73 4.807-9.677 9.775-22.415 16.51-36.66 18.651 3.167.476 6.404.735 9.703.735 18.172 0 34.606-7.418 46.454-19.386 1.487-1.502 3.187-2.726 5.013-3.672-1.284-.321-2.547-.695-3.78-1.135z"/><path d="m223.955 179.878c0 .11.874 8.538.874 8.648 0 32.81-24.163 59.971-55.664 64.672 3.186.477 6.446.725 9.765.725 35.144 0 63.803-27.725 65.323-62.494-6.865-.903-14.167-9.52-20.298-11.551z"/></g><g><g fill="#fed2a4"><path d="m460.096 397.356c-1.18-1.1-2.57-1.99-4.11-2.63l-20.89-8.63c-2.15-.89-4.35-1.65-6.58-2.27-2.77-2.15-5.37-5.28-7.74-8.58-2.72-3.77-5.15-7.76-7.19-10.75-10.79-15.79-28.27-25.71-47.36-26.86l-45.84-2.77c-3.97-.24-7.87-1.09-11.57-2.52l-82.05-31.63c5.34-3.35 12.11-4.22 18.4-1.8l86.7 33.43c3.7 1.43 7.61 2.28 11.57 2.52l45.84 2.77c9.54.58 18.69 3.34 26.8 7.94 8.1 4.6 15.18 11.02 20.57 18.92 4.59 6.73 11.11 11.74 18.57 14.48.12.04.23.08.35.13.821.29 3.15 11.33 4.53 18.25z"/><path d="m487.667 401.616v85.77c0 9.88-9.99 16.63-19.15 12.94l-2.53-1.01c-1.8-.73-3.63-1.42-5.46-2.06 2.49-2.48 4.09-5.92 4.09-9.87v-79.77c0-3.97-1.69-7.67-4.52-10.26-1.18-1.1-2.57-1.99-4.11-2.63l-20.89-8.63c-2.15-.89-4.35-1.65-6.58-2.27-2.77-2.15-5.37-5.28-7.74-8.58l16.09.37c6.26.15 12.45 1.28 18.35 3.36.12.04.23.08.35.13.86.3 1.73.64 2.58.99l20.9 8.63c5.219 2.16 8.62 7.25 8.62 12.89z"/></g></g><g><path d="m132.186 126.076c-.88.34-1.79.5-2.69.5-3.01 0-5.85-1.83-7-4.81-8.51-22.12-35.49-25.27-37.43-25.46 8.04.68 15.57-3.53 19.32-10.45 11.54 4.48 25.49 13.3 32.11 30.52 1.49 3.87-.44 8.21-4.31 9.7z" fill="#978ecb"/></g><g><path d="m244.326 188.526c0 5.02-.57 9.91-1.64 14.61-.65-.01-1.31-.11-1.96-.31-1.25-.37-30.67-9.62-38.64-50.38-.79-4.07 1.86-8.01 5.93-8.8 4.06-.81 8 1.85 8.79 5.92 5.57 28.51 23.49 37.05 27.51 38.63 0 .11.01.22.01.33z" fill="#978ecb"/></g><circle cx="180.724" cy="102.144" fill="#978ecb" r="7.508"/><circle cx="77.451" cy="161.622" fill="#978ecb" r="7.508"/><circle cx="180.724" cy="200.697" fill="#978ecb" r="7.508"/><circle cx="292.421" cy="126.551" fill="#978ecb" r="7.508"/><g fill="#aca6d6"><circle cx="65.573" cy="7.508" r="7.508"/><circle cx="312.34" cy="232.649" r="7.508"/><circle cx="279.53" cy="263.477" r="7.508"/><circle cx="39.06" cy="52.944" r="7.508"/><circle cx="180.724" cy="292.822" r="7.508"/></g></g></svg>