<svg id="Capa_1" enable-background="new 0 0 497.581 497.581" height="512" viewBox="0 0 497.581 497.581" width="512" xmlns="http://www.w3.org/2000/svg"><g><g><path d="m339.34 486.156c-4.142 0-7.5-3.357-7.5-7.5v-36.735c0-4.143 3.358-7.5 7.5-7.5s7.5 3.357 7.5 7.5v36.735c0 4.143-3.358 7.5-7.5 7.5z" fill="#fd544d"/></g><path d="m423.048 194.939v246.98h-43.214l-7.504-2.38-7.496 2.38h-32.994v-246.98z" fill="#fed2a4"/><path d="m397.6 194.936h25.448v246.985h-25.448z" fill="#ffbd86"/><g><path d="m372.334 486.156c-4.142 0-7.5-3.357-7.5-7.5v-36.735c0-4.143 3.358-7.5 7.5-7.5s7.5 3.357 7.5 7.5v36.735c0 4.143-3.358 7.5-7.5 7.5z" fill="#fd544d"/></g><g><path d="m423.048 486.156c-4.142 0-7.5-3.357-7.5-7.5v-36.735c0-4.143 3.358-7.5 7.5-7.5s7.5 3.357 7.5 7.5v36.735c0 4.143-3.358 7.5-7.5 7.5z" fill="#fd544d"/></g><g><path d="m455.86 486.156c-4.142 0-7.5-3.357-7.5-7.5v-36.735c0-4.143 3.358-7.5 7.5-7.5s7.5 3.357 7.5 7.5v36.735c0 4.143-3.358 7.5-7.5 7.5z" fill="#fd544d"/></g><path d="m415.548 194.936h47.808v246.985h-47.808z" fill="#fe6c55"/><path d="m442.166 194.936h21.19v246.985h-21.19z" fill="#fd544d"/><g><g><g><path d="m379.834 272.109v169.81h-15v-169.81c0-4.87 3.36-8.82 7.5-8.82s7.5 3.95 7.5 8.82z" fill="#fe6c55"/></g></g></g><path d="m382.39 38.189v103.27l-133.6 30.33-20.77-4.92-112.83-26.7v-101.98l56.84-16.1c50.18-14.22 103.34-14.22 153.52 0l36.82 10.43z" fill="#fed2a4"/><path d="m382.39 38.189v103.27l-133.6 30.33-20.77-4.92 134.35-134.35z" fill="#ffbd86"/><path d="m372.33 295.329-105.54 105.54c-8.36 8.37-21.09 9.7-30.84 3.99-1.84-1.08-3.58-2.41-5.16-3.99l-118.38-118.38-106.5-106.5c-7.88-7.87-7.88-20.64 0-28.52l17.272-17.289 28.858-17.391 17.572-28.871 12.15-12.19 7.341-3.564 3.236-7.048 22.851-22.927 244.31 244.31z" fill="#fff3de"/><path d="m359.5 282.499-118.38 118.37c-1.58 1.58-3.32 2.91-5.17 3.99-1.84-1.08-3.58-2.41-5.16-3.99l-118.38-118.38 123.54-123.54z" fill="#ffe5c2"/><path d="m115.189 38.187-10.575 10.614 246.53 246.53-105.542 105.542c-2.209 2.209-4.724 3.924-7.407 5.152 9.394 4.297 20.864 2.582 28.597-5.152l105.542-105.542z" fill="#ffe5c2"/><path d="m321.34 346.319-35.6 35.6-257.14-257.14 35.682-35.521 120.678 120.681 123.55 123.55z" fill="#fe6c55"/><path d="m203.762 202.151h50.346v174.726h-50.346z" fill="#fd544d" transform="matrix(.707 -.707 .707 .707 -137.664 246.679)"/><path d="m64.282 89.258-10.619 10.571 246.491 246.491-25.005 25.006 10.595 10.595 35.6-35.601z" fill="#fd544d"/><g><g><g><path d="m225.387 212.236c-1.919 0-3.839-.732-5.303-2.196l-138.322-138.312 10.577-10.612 138.351 138.316c2.929 2.93 2.929 7.678 0 10.607-1.464 1.464-3.384 2.197-5.303 2.197z" fill="#fe6c55"/></g></g></g><g><g><g><path d="m161.522 229.598h-35.598c-4.142 0-7.5-3.357-7.5-7.5v-35.598c0-4.143 3.358-7.5 7.5-7.5h35.598c4.142 0 7.5 3.357 7.5 7.5v35.598c0 4.142-3.358 7.5-7.5 7.5zm-28.098-15h20.598v-20.598h-20.598z" fill="#ffe5c2"/></g></g></g><g><g><g><path d="m93.487 162.263h-34.902c-4.142 0-7.5-3.357-7.5-7.5s3.358-7.5 7.5-7.5h27.401l-.001-28.801c0-4.142 3.357-7.5 7.5-7.5s7.5 3.357 7.5 7.5l.001 36.301c0 1.989-.79 3.896-2.197 5.303-1.405 1.407-3.313 2.197-5.302 2.197z" fill="#ffe5c2"/></g></g></g><g><g><g><path d="m202.685 235.098c-1.919 0-3.839-.732-5.303-2.196l-138.387-138.38 10.618-10.604 138.377 138.376c2.929 2.93 2.929 7.678 0 10.607-1.466 1.464-3.385 2.197-5.305 2.197z" fill="#ffbd86"/></g></g></g><g><g><g><path d="m166.852 270.77c-1.919 0-3.839-.732-5.303-2.196l-138.367-138.366 10.613-10.6 138.36 138.359c2.929 2.93 2.929 7.678 0 10.607-1.464 1.464-3.383 2.196-5.303 2.196z" fill="#ffbd86"/></g></g></g><path d="m491.67 175.989-224.88 224.88c-9.94 9.95-26.06 9.95-36 0l-4.352-4.352-10.611-29.478-35.685-16.818-12.172-12.172-3.43-8.51-7.18-2.1-32.11-32.11 257.14-257.14 32.112 32.112 2.455 7.405 8.153 3.203 12.179 12.179 17.834 27.284 28.449 18.999 8.097 8.097c7.881 7.881 7.881 20.651.001 28.521z" fill="#fff3de"/><path d="m491.673 147.468-8.091-8.091-28.459-19.005-17.837-27.287-12.176-12.18-8.153-3.199-2.453-7.407-32.113-32.113-10.595 10.595 98.687 98.687c7.877 7.876 7.877 20.647 0 28.523l-224.881 224.882c-2.209 2.209-4.724 3.924-7.407 5.152 9.394 4.297 20.864 2.582 28.597-5.152l224.881-224.881c7.877-7.877 7.877-20.647 0-28.524z" fill="#ffe5c2"/><path d="m306.671 62.955h50.346v363.658h-50.346z" fill="#fe6c55" transform="matrix(-.707 -.707 .707 -.707 393.404 652.521)"/><path d="m442.616 98.411-10.595 10.595 25.005 25.005-246.55 246.55 10.595 10.595 257.145-257.145z" fill="#fd544d"/><g><g><g><path d="m109.41 196.672h363.651v15.005h-363.651z" fill="#fe6c55" transform="matrix(.707 -.707 .707 .707 -59.072 265.735)"/></g></g></g><g><g><g><path d="m352.279 267.448h-35.597c-4.142 0-7.5-3.357-7.5-7.5v-35.598c0-4.143 3.358-7.5 7.5-7.5h35.597c4.142 0 7.5 3.357 7.5 7.5v35.598c0 4.143-3.358 7.5-7.5 7.5zm-28.097-15h20.597v-20.598h-20.597z" fill="#ffe5c2"/></g></g></g><g><g><g><path d="m417.291 202.436h-34.901c-1.989 0-3.897-.79-5.303-2.197-1.407-1.406-2.197-3.313-2.197-5.303l.001-36.3c0-4.143 3.358-7.5 7.5-7.5 4.142 0 7.5 3.358 7.5 7.5l-.001 28.8h27.401c4.142 0 7.5 3.357 7.5 7.5s-3.357 7.5-7.5 7.5z" fill="#ffe5c2"/></g></g></g><g><g><g><path d="m288.747 330.981c-4.142 0-7.5-3.357-7.5-7.5v-27.401l-28.8.001c-4.142 0-7.5-3.357-7.5-7.5 0-4.142 3.357-7.5 7.5-7.5l36.3-.001c1.989 0 3.896.79 5.303 2.196 1.407 1.407 2.197 3.314 2.197 5.304v34.901c0 4.142-3.358 7.5-7.5 7.5z" fill="#ffe5c2"/></g></g></g><g><g><g><path d="m132.195 219.458h363.651v15.005h-363.651z" fill="#ffbd86" transform="matrix(.707 -.707 .707 .707 -68.51 288.521)"/></g></g></g><g><g><g><path d="m167.877 255.139h363.651v15.005h-363.651z" fill="#ffbd86" transform="matrix(.707 -.707 .707 .707 -83.29 324.203)"/></g></g></g></g></svg>