<svg id="Capa_1" enable-background="new 0 0 510 510" height="512" viewBox="0 0 510 510" width="512" xmlns="http://www.w3.org/2000/svg"><g><path d="m30 0v510h225l10-255-10-255c-15.2 0-209.8 0-225 0z" fill="#83d947"/><path d="m60 30v450h195l10-225-10-225c-10.8 0-184.2 0-195 0z" fill="#0a617d"/><path d="m255 0v255 255h255c0-14.4 0-495.6 0-510-15.2 0-239.8 0-255 0z" fill="#32bea6"/><path d="m255 30v450h225c0-12.7 0-437.3 0-450-10.8 0-214.2 0-225 0z" fill="#08475e"/><path d="m90 420v30h165l10-15-10-15c-4.7 0-160.3 0-165 0z" fill="#ffda2d"/><path d="m420 420c-4.7 0-160.3 0-165 0v30h165c0-10.5 0-19.5 0-30z" fill="#fdb504"/><path d="m105 225c0 82.7 67.3 150 150 150l10-150-10-150c-82.7 0-150 67.3-150 150z" fill="#6aa9ff"/><path d="m405 225c0-82.7-67.3-150-150-150v300c82.7 0 150-67.3 150-150z" fill="#4895ff"/><g><path d="m90 225c0 91 74 165 165 165l8.8-165-8.8-165c-91 0-165 74-165 165zm33.4-30h42.5c-1.1 19.2-1.2 39.5 0 60-14.8 0-27.6 0-42.5 0-4.5-19.8-4.5-40.4 0-60zm10.7 90h34.4c2 16.9 5 34 9.2 50.6-18.2-12.7-33.4-30.1-43.6-50.6zm34.4-120c-12 0-22.4 0-34.4 0 9.9-19.9 24.8-37.5 43.6-50.6-4.2 16.6-7.2 33.7-9.2 50.6zm71.5 194.2c-8.7-1-17.2-2.7-25.4-5.3-7.9-21.7-12.9-46.1-15.8-68.8h41.2zm0-104.2c-33.4 0-10.7 0-44.1 0-1.2-20-1.2-40 0-60h44.1zm0-90c-14.4 0-26.8 0-41.2 0 2.9-22.8 8-47.2 15.8-68.8 8.2-2.6 16.7-4.4 25.4-5.3z" fill="#7ed8f6"/><path d="m420 225c0-91-74-165-165-165v330c91 0 165-74 165-165zm-33.4 30h-42.5c1.1-19.4 1.2-39.7 0-60h42.5c4.4 19.1 4.7 39.7 0 60zm-10.7-90h-34.4c-2.1-17.9-5.2-34.9-9.2-50.6 18.4 12.9 33.5 30.3 43.6 50.6zm-105.9-74.2c8.7 1 17.2 2.8 25.4 5.3 7.1 19.7 12.5 43.2 15.8 68.8h-41.2zm25.4 263c-8.2 2.6-16.7 4.4-25.4 5.3v-74.1h41.2c-3.3 25.6-8.7 49.2-15.8 68.8zm18.7-98.8h-44.1v-60h44.1c1.2 19.6 1.2 39.6 0 60zm18.2 80.6c4-15.8 7.1-32.8 9.2-50.6h34.4c-10.1 20.3-25.2 37.7-43.6 50.6z" fill="#6aa9ff"/></g></g></svg>