<svg id="Capa_1" enable-background="new 0 0 497 497" height="512" viewBox="0 0 497 497" width="512" xmlns="http://www.w3.org/2000/svg"><g><path d="m173.814 282.444 6.746 72.781v104.033c0 5.476-4.439 9.915-9.915 9.915h-53.056c-7.049 0-11.846-7.148-9.175-13.671l6.149-15.02c3.958-9.668 4.816-20.326 2.454-30.502l-31.933-137.623z" fill="#fed2a4"/><path d="m180.56 355.228v104.03c0 5.48-4.44 9.92-9.91 9.92h-53.06c-7.05 0-11.85-7.15-9.18-13.68l6.15-15.02c3.96-9.66 4.82-20.32 2.46-30.5l-31.94-137.62 25.13 2.86 63.6 7.23z" fill="#fed2a4"/><path d="m180.56 355.228v104.03c0 5.48-4.44 9.92-9.91 9.92h-28.6c-7.05 0-11.84-7.15-9.17-13.68l6.15-15.02c3.95-9.66 4.81-20.32 2.45-30.5l-31.27-134.76 63.6 7.23z" fill="#ffbd86"/><path d="m438.905 282.444 9.915 72.781v104.033c0 5.476-4.439 9.915-9.915 9.915h-56.225c-7.049 0-11.846-7.148-9.175-13.671l6.149-15.02c3.958-9.668 4.816-20.326 2.454-30.502l-31.933-137.623z" fill="#fed2a4"/><path d="m448.82 355.228v104.03c0 5.48-4.44 9.92-9.92 9.92h-56.22c-7.05 0-11.85-7.15-9.18-13.68l6.15-15.02c3.96-9.66 4.82-20.32 2.46-30.5l-31.94-137.62 24.5 2.79 64.23 7.3z" fill="#fed2a4"/><path d="m448.82 355.228v104.03c0 5.48-4.44 9.92-9.92 9.92h-31.76c-7.05 0-11.84-7.15-9.17-13.68l6.15-15.02c3.95-9.66 4.81-20.32 2.45-30.5l-31.9-134.83 64.23 7.3z" fill="#ffbd86"/><path d="m497 188.778v88.09l-184.95 53.24c-25.17 7.25-165.25 10.18-165.25 10.18l-6.8-29.14-36.71-5.4c-16.04-2.36-30.98-9.56-42.82-20.63l-24.75-23.13c-16.12-15.07-25.28-36.15-25.28-58.23l2.5-29.46c0-17.53 5.78-34.57 16.44-48.49l.29-.38 1.97-2.57c15.88-20.71 40.9-32.34 66.97-31.13l29.55 1.37 7.98.37c9.7.45 19.23 2.67 28.13 6.54l1.45.64c18.85 8.21 40.15 8.81 59.44 1.69l20.62-7.61c8.84-3.27 18.19-4.94 27.61-4.94h119.98c18.2 0 35.85 6.23 50.02 17.65l23.92 19.28c18.77 15.13 29.69 37.95 29.69 62.06z" fill="#fff3de"/><g fill="#ffe5c2"><path d="m128.16 93.098-.11 1.05-11.48 47.56c-3.92 16.22-18.44 27.65-35.13 27.65h-12.71c-16.69 0-31.21-11.43-35.13-27.65l-3.93-16.28 1.97-2.57c15.88-20.71 40.9-32.34 66.97-31.13z"/><path d="m467.311 126.718-23.92-19.279c-14.169-11.42-31.82-17.647-50.019-17.647h-22.321c18.199 0 35.849 6.228 50.019 17.647l23.92 19.279c18.774 15.131 29.689 37.948 29.689 62.06v94.512l22.321-6.425v-88.087c0-24.113-10.915-46.929-29.689-62.06z"/><path d="m219.77 282.444-14.65 72.781v104.033c0 5.476-4.439 9.915-9.915 9.915h-31.66c-7.049 0-11.846-7.148-9.175-13.671l6.149-15.02c3.958-9.668 4.816-20.326 2.454-30.502l-28.721-123.78c-1.029-4.433 3.85-7.838 7.678-5.376 14.866 9.557 43.612 21.372 77.84 1.62z"/></g><path d="m195.566 291.8-12.767 63.425v104.033c0 5.476-4.439 9.915-9.915 9.915h22.321c5.476 0 9.915-4.439 9.915-9.915v-104.032l14.65-72.781c-8.444 4.873-16.553 7.817-24.204 9.355z" fill="#fed2a4"/><path d="m497 276.865-20.45 59.817c-4.198 12.278-6.34 25.165-6.34 38.141v84.435c0 5.476-4.439 9.915-9.915 9.915h-31.66c-7.049 0-11.846-7.148-9.175-13.671l6.149-15.02c3.958-9.668 4.816-20.326 2.454-30.502l-37.598-158.928s26.897 18.488 59.545 6.868c2.508-.892 5.274-.707 7.682.428z" fill="#ffe5c2"/><g><path d="m449.982 257.929c-3.353 1.187-6.643 2.052-9.853 2.661l34.551 16.275-20.45 59.816c-4.198 12.279-6.34 25.166-6.34 38.142v84.435c0 5.476-4.439 9.915-9.915 9.915h22.321c5.476 0 9.915-4.439 9.915-9.915v-84.435c0-12.976 2.142-25.864 6.34-38.142l20.449-59.816-39.314-18.519c-2.415-1.138-5.188-1.308-7.704-.417z" fill="#fed2a4"/></g><path d="m56.988 28.057s-49.713-6.166-56.897 44.785c-.896 6.357 4.938 11.613 11.188 10.148l45.709-10.717z" fill="#c38f86"/><path d="m138.109 28.057s49.713-6.166 56.897 44.785c.896 6.357-4.938 11.613-11.188 10.148l-45.709-10.717z" fill="#c38f86"/><path d="m155.64 46.818-4.83 47.33-11.48 47.56c-3.83 15.85-17.78 27.13-33.99 27.63-.38.01-.76.02-1.14.02h-12.71c-.38 0-.77-.01-1.15-.02-16.2-.51-30.15-11.78-33.98-27.63l-11.48-47.56-4.84-47.33c-1.02-10.04 6.86-18.76 16.95-18.76h81.71c10.09 0 17.97 8.72 16.94 18.76z" fill="#fed2a4"/><path d="m138.701 28.057h-22.759c10.091 0 17.969 8.724 16.943 18.763l-4.836 47.329-11.48 47.558c-3.517 14.572-15.589 25.271-30.104 27.3 1.646.23 3.321.355 5.021.355h12.717c16.69 0 31.209-11.431 35.125-27.655l11.48-47.558 4.836-47.329c1.026-10.039-6.852-18.763-16.943-18.763z" fill="#ffbd86"/><g><path d="m242.614 196.138c-4.142 0-7.5-3.357-7.5-7.5 0-24.097 19.604-43.7 43.701-43.7 4.143 0 7.5 3.357 7.5 7.5s-3.357 7.5-7.5 7.5c-15.826 0-28.701 12.875-28.701 28.7 0 4.143-3.358 7.5-7.5 7.5z" fill="#ffe5c2"/></g><g><path d="m391.16 118.488c0 4.15-3.36 7.5-7.5 7.5-4.15 0-7.5-3.35-7.5-7.5 0-15.82-12.88-28.7-28.7-28.7h32.92c6.71 7.68 10.78 17.72 10.78 28.7z" fill="#fed2a4"/></g><g><path d="m248.5 302.224c-24.097 0-43.701-19.604-43.701-43.701 0-4.143 3.358-7.5 7.5-7.5s7.5 3.357 7.5 7.5c0 15.826 12.875 28.701 28.701 28.701 4.143 0 7.5 3.357 7.5 7.5s-3.357 7.5-7.5 7.5z" fill="#ffe5c2"/></g><g><path d="m443.04 203.035c-24.097 0-43.7-19.604-43.7-43.7 0-4.143 3.357-7.5 7.5-7.5s7.5 3.357 7.5 7.5c0 15.825 12.875 28.7 28.7 28.7 4.143 0 7.5 3.357 7.5 7.5s-3.357 7.5-7.5 7.5z" fill="#ffe5c2"/></g><g><path d="m413.493 241.982c-8.527 22.538-33.799 33.936-56.336 25.409-3.875-1.466-5.827-5.794-4.361-9.669s5.794-5.827 9.669-4.361c14.801 5.6 31.399-1.886 36.999-16.687 1.466-3.875 5.794-5.827 9.669-4.361 3.874 1.466 5.826 5.794 4.36 9.669z" fill="#ffe5c2"/></g><g><path d="m90.16 246.46c-24.097 0-43.701-19.604-43.701-43.701 0-4.143 3.358-7.5 7.5-7.5s7.5 3.357 7.5 7.5c0 15.826 12.875 28.701 28.701 28.701 4.142 0 7.5 3.357 7.5 7.5s-3.358 7.5-7.5 7.5z" fill="#fed2a4"/></g><g><path d="m105.34 131.308v38.03c-.38.01-.76.02-1.14.02h-12.71c-.38 0-.77-.01-1.15-.02v-38.03c0-4.14 3.36-7.5 7.5-7.5 4.15 0 7.5 3.36 7.5 7.5z" fill="#ffbd86"/></g><g><path d="m112.087 138.805h-27.6c-4.142 0-7.5-3.357-7.5-7.5s3.358-7.5 7.5-7.5h27.601c4.142 0 7.5 3.357 7.5 7.5s-3.359 7.5-7.501 7.5z" fill="#c38f86"/></g><g><circle cx="243.442" cy="222.547" fill="#fed2a4" r="7.508"/></g></g></svg>