<svg id="Capa_1" enable-background="new 0 0 510 510" height="512" viewBox="0 0 510 510" width="512" xmlns="http://www.w3.org/2000/svg"><g><path d="m390 0v31.507l7.5 13.493 7.5-15 10-13.5-10-16.5c-5.246 0-9.754 0-15 0z" fill="#fdb504"/><path d="m420 0c-5.246 0-9.754 0-15 0v30l7.5 15 7.5-13.492c0-7.344 0-24.214 0-31.508z" fill="#f77e01"/><g><path d="m412.5 165-7.5 15v30h15c0-7.307 0-24.182 0-31.508z" fill="#f77e01"/><path d="m390 178.492v31.508h15c0-9.114 0-21.077 0-30l-7.5-15z" fill="#fdb504"/></g><g fill="#fdb504"><path d="m320.147 168.64c7.418 7.418 13.795 13.795 21.213 21.213 2.732-2.732 15.161-15.162 22.301-22.302l-1.088-20.125-20.125-1.087c-29.431 29.431-19.921 19.921-22.301 22.301z"/><path d="m331.507 90c-7.343 0-24.213 0-31.507 0v30h31.507l13.493-15z"/><path d="m320.147 41.36c2.381 2.382-7.081-7.081 22.301 22.301l20.125-1.087 1.088-20.126c-29.432-29.432-19.921-19.921-22.301-22.301-7.418 7.418-13.795 13.795-21.213 21.213z"/></g><path d="m489.853 41.36c-7.418-7.418-13.795-13.795-21.213-21.213-2.732 2.732-15.161 15.162-22.301 22.302l1.088 20.125 20.124 1.088c29.432-29.433 19.922-19.922 22.302-22.302z" fill="#f77e01"/><path d="m465 105 13.493 15h31.507c0-10.492 0-19.508 0-30-7.307 0-24.182 0-31.508 0z" fill="#f77e01"/><path d="m446.339 167.552c29.432 29.432 19.921 19.921 22.301 22.301 7.418-7.418 13.795-13.795 21.213-21.213-2.381-2.382 7.081 7.081-22.301-22.301l-20.125 1.087z" fill="#f77e01"/><g id="XMLID_376_"><path d="m180 120c-10.492 0-19.508 0-30 0 0-16.541-13.457-30-30-30 0-10.492 0-19.508 0-30 17.34 0 33.615 7.449 45 20.354 11.371-12.889 27.639-20.354 45-20.354v30c-16.541 0-30 13.457-30 30z" fill="#0a617d"/></g><g id="XMLID_339_"><path d="m120 210c-10.492 0-19.508 0-30 0 0-16.541-13.457-30-30-30 0-10.492 0-19.508 0-30 17.34 0 33.615 7.449 45 20.355 11.371-12.89 27.639-20.355 45-20.355v30c-16.541 0-30 13.457-30 30z" fill="#0a617d"/></g><g id="XMLID_337_"><path d="m60 60c-10.492 0-19.508 0-30 0 0-16.541-13.457-30-30-30 0-10.492 0-19.508 0-30 17.34 0 33.615 7.449 45 20.354 11.371-12.889 27.639-20.354 45-20.354v30c-16.541 0-30 13.457-30 30z" fill="#0a617d"/></g><path d="m180 259.193c-9.948 13.928-169.2 236.879-179.148 250.807h121.576l78.072-79.5 34.442-94.387c-5.868-8.216-48.999-68.599-54.942-76.92z" fill="#ffda2d"/><path d="m330 105c0 41.354 33.644 75 75 75l10-75-10-75c-41.353 0-75 33.644-75 75z" fill="#ffda2d"/><path d="m315 510 10-148.806-10-148.806c-10.692 16.525-181.865 281.064-192.572 297.612z" fill="#fdb504"/><path d="m405 30v150c41.353 0 75-33.644 75-75 0-41.353-33.644-75-75-75z" fill="#fdb504"/><path d="m507.572 510c-10.692-16.524-181.865-281.064-192.572-297.611v297.611z" fill="#f77e01"/></g></svg>