<svg width="150" height="43" viewBox="0 0 150 43" fill="none" xmlns="http://www.w3.org/2000/svg">
<path d="M0 21.5C0 9.62588 9.62588 0 21.5 0H128.5C140.374 0 150 9.62588 150 21.5C150 33.3741 140.374 43 128.5 43H21.5C9.62588 43 0 33.3741 0 21.5Z" fill="url(#paint0_linear)"/>
<path d="M49.0659 29V19.68L45.4259 26.62H43.8859L40.2459 19.68V29H37.4859V14.8H40.4459L44.6459 22.88L48.8859 14.8H51.8259V29H49.0659ZM54.4305 25.08V18.52H57.1105V24.5C57.1105 26.1133 57.6905 26.92 58.8505 26.92C59.3705 26.92 59.8705 26.7667 60.3505 26.46C60.8439 26.14 61.2439 25.66 61.5505 25.02V18.52H64.2305V26C64.2305 26.2933 64.2772 26.5 64.3705 26.62C64.4639 26.7267 64.6305 26.7933 64.8705 26.82V29C64.6039 29.0533 64.3772 29.0867 64.1905 29.1C64.0172 29.1133 63.8572 29.12 63.7105 29.12C63.2305 29.12 62.8372 29.0133 62.5305 28.8C62.2372 28.5733 62.0639 28.2667 62.0105 27.88L61.9505 27.04C61.4839 27.76 60.8839 28.3 60.1505 28.66C59.4172 29.02 58.6105 29.2 57.7305 29.2C56.6505 29.2 55.8305 28.8533 55.2705 28.16C54.7105 27.4533 54.4305 26.4267 54.4305 25.08ZM66.8738 14.4H69.5538V25.64C69.5538 26.1333 69.6338 26.46 69.7938 26.62C69.9538 26.78 70.1738 26.86 70.4538 26.86C70.6672 26.86 70.8872 26.8333 71.1138 26.78C71.3405 26.7267 71.5405 26.66 71.7138 26.58L72.0738 28.62C71.7138 28.7933 71.2938 28.9267 70.8138 29.02C70.3338 29.1133 69.9005 29.16 69.5138 29.16C68.6738 29.16 68.0205 28.94 67.5538 28.5C67.1005 28.0467 66.8738 27.4067 66.8738 26.58V14.4ZM72.5215 25.9C72.5215 25.22 72.7082 24.6267 73.0815 24.12C73.4682 23.6 74.0015 23.2 74.6815 22.92C75.3615 22.64 76.1415 22.5 77.0215 22.5C77.4615 22.5 77.9082 22.54 78.3615 22.62C78.8148 22.6867 79.2082 22.7867 79.5415 22.92V22.36C79.5415 21.6933 79.3415 21.18 78.9415 20.82C78.5548 20.46 77.9748 20.28 77.2015 20.28C76.6282 20.28 76.0815 20.38 75.5615 20.58C75.0415 20.78 74.4948 21.0733 73.9215 21.46L73.0615 19.7C73.7548 19.2467 74.4615 18.9067 75.1815 18.68C75.9148 18.4533 76.6815 18.34 77.4815 18.34C78.9748 18.34 80.1348 18.7133 80.9615 19.46C81.8015 20.2067 82.2215 21.2733 82.2215 22.66V26C82.2215 26.2933 82.2682 26.5 82.3615 26.62C82.4548 26.7267 82.6215 26.7933 82.8615 26.82V29C82.6215 29.0533 82.4015 29.0867 82.2015 29.1C82.0148 29.1267 81.8548 29.14 81.7215 29.14C81.1882 29.14 80.7815 29.02 80.5015 28.78C80.2215 28.54 80.0548 28.2467 80.0015 27.9L79.9415 27.36C79.4748 27.96 78.9015 28.42 78.2215 28.74C77.5548 29.0467 76.8682 29.2 76.1615 29.2C75.4548 29.2 74.8282 29.06 74.2815 28.78C73.7348 28.4867 73.3015 28.0933 72.9815 27.6C72.6748 27.0933 72.5215 26.5267 72.5215 25.9ZM79.0415 26.44C79.3748 26.12 79.5415 25.8133 79.5415 25.52V24.46C78.8482 24.18 78.1482 24.04 77.4415 24.04C76.7348 24.04 76.1615 24.1933 75.7215 24.5C75.2815 24.7933 75.0615 25.1867 75.0615 25.68C75.0615 26.08 75.2215 26.44 75.5415 26.76C75.8615 27.08 76.3215 27.24 76.9215 27.24C77.3215 27.24 77.7082 27.1667 78.0815 27.02C78.4682 26.8733 78.7882 26.68 79.0415 26.44ZM84.7259 17.06V14.4H87.4059V17.06H84.7259ZM84.7259 29V18.52H87.4059V29H84.7259ZM103.068 24.54L94.6282 29.54V26.54L99.1682 23.82L94.6282 20.98V18.14L103.068 23.24V24.54ZM113.361 24.54L104.921 29.54V26.54L109.461 23.82L104.921 20.98V18.14L113.361 23.24V24.54Z" fill="white"/>
<defs>
<linearGradient id="paint0_linear" x1="0" y1="21.9388" x2="150" y2="21.9388" gradientUnits="userSpaceOnUse">
<stop stop-color="#1DDCDC"/>
<stop offset="1" stop-color="#2EB6F0"/>
</linearGradient>
</defs>
</svg>
