<svg width="325" height="325" viewBox="0 0 325 325" fill="none" xmlns="http://www.w3.org/2000/svg">
<path d="M0 162.5L162.5 325L169.528 162.5L162.5 0C153.467 9.03258 9.03399 153.466 0 162.5Z" fill="#1FDBDD"/>
<path d="M325 162.5C315.967 153.467 171.533 9.03399 162.5 0V162.5V325C171.532 315.967 315.966 171.533 325 162.5Z" fill="#62C9F4"/>
<path d="M63.2534 162.5C68.7698 168.016 156.983 256.229 162.5 261.747L169.528 162.5L162.5 63.2534C156.984 68.7698 68.7705 156.982 63.2534 162.5Z" fill="white"/>
<path d="M261.747 162.5C256.23 156.984 168.018 68.7712 162.5 63.2534V162.5V261.747C168.016 256.23 256.229 168.018 261.747 162.5Z" fill="#F0E6E6"/>
<path d="M151.958 130.873V141.416V151.958H157.229H162.5L169.528 141.416L162.5 130.873C158.813 130.873 155.645 130.873 151.958 130.873Z" fill="#FFDA2D"/>
<path d="M173.042 130.873C169.355 130.873 166.187 130.873 162.5 130.873V151.958H167.771H173.042C173.042 144.584 173.042 138.247 173.042 130.873Z" fill="#FDB504"/>
<path d="M130.873 151.958H151.958V173.042H130.873V151.958Z" fill="#FFDA2D"/>
<path d="M151.958 173.042V194.127H162.5L169.528 183.584L162.5 173.042H157.229H151.958Z" fill="#FFDA2D"/>
<path d="M173.042 173.042C169.355 173.042 166.187 173.042 162.5 173.042V194.127H173.042V183.584V173.042Z" fill="#FDB504"/>
<path d="M173.042 173.042H194.127C194.127 165.668 194.127 159.332 194.127 151.958C186.753 151.958 180.416 151.958 173.042 151.958V162.5V173.042Z" fill="#FDB504"/>
</svg>
